<?xml version="1.0" encoding="utf-8"?>
<!-- Generator: Adobe Illustrator 26.1.0, SVG Export Plug-In . SVG Version: 6.00 Build 0)  -->
<svg version="1.1" id="Layer_1" xmlns="http://www.w3.org/2000/svg" xmlns:xlink="http://www.w3.org/1999/xlink" x="0px" y="0px"
	 viewBox="0 0 24 24" style="enable-background:new 0 0 24 24;" xml:space="preserve">
<path d="M12,5c-3.86,0-7,3.14-7,7s3.14,7,7,7s7-3.14,7-7S15.86,5,12,5z M12,17c-2.76,0-5-2.24-5-5s2.24-5,5-5s5,2.24,5,5
	S14.76,17,12,17z"/>
<path d="M12,9c-1.63,0-3,1.37-3,3s1.37,3,3,3s3-1.37,3-3S13.63,9,12,9z"/>
</svg>
