<svg id="Layer_1" data-name="Layer 1" xmlns="http://www.w3.org/2000/svg" viewBox="0 0 20.78 19.05"><path d="M0,6.61V6.27a1.84,1.84,0,0,1,.4-.43L10,.12a.73.73,0,0,1,.8,0l9.49,5.65a1.15,1.15,0,0,1,.5.5v.34a.41.41,0,0,0-.05.09c-.34.78-.67,1.57-1,2.35a.58.58,0,0,1-.58.42,1.12,1.12,0,0,1-.4-.14c-.31-.17-.61-.36-.92-.54v9h1.66a.63.63,0,0,1,.6.59.64.64,0,0,1-.5.68H1.42a.64.64,0,0,1-.73-.65c0-.39.28-.63.73-.63H3v-9c-.35.21-.68.41-1,.59a.59.59,0,0,1-.88-.31A1.54,1.54,0,0,1,1,8.88ZM6.86,17.76c0-1.2,0-2.38,0-3.55a3.63,3.63,0,0,1,3.43-3.62,3.62,3.62,0,0,1,3.63,3.75v3.41h2.67c0-.05,0-.09,0-.13V8.24A.25.25,0,0,0,16.44,8L10.55,4.52a.29.29,0,0,0-.32,0C8.27,5.68,6.32,6.83,4.35,8a.29.29,0,0,0-.17.31v9.48Zm12.52-11-.13-.09-8.7-5.18a.28.28,0,0,0-.33,0L2.05,6.32l-.66.4.52,1.21.21-.12L10,3.21a.74.74,0,0,1,.82,0l5.73,3.37,2.34,1.36Zm-6.7,11a.25.25,0,0,0,0-.07c0-1.18,0-2.35,0-3.53a2.36,2.36,0,0,0-2.19-2.29,2.37,2.37,0,0,0-2.42,2.42c0,1.1,0,2.2,0,3.31,0,0,0,.11,0,.16Z"/><path d="M12.94,7.55a1.51,1.51,0,0,1-.13.34.44.44,0,0,0,0,.51.78.78,0,0,1,.09.21.66.66,0,0,1-.29.8.54.54,0,0,1-.77-.24c-.14-.38-.38-.39-.7-.38-.61,0-1.23,0-1.84,0a.2.2,0,0,0-.23.15A2.4,2.4,0,0,1,9,9.17a.59.59,0,0,1-.8.23.61.61,0,0,1-.27-.8.88.88,0,0,0,0-.91.62.62,0,0,1,.29-.8.54.54,0,0,1,.77.24c.14.38.38.39.69.38.62,0,1.23,0,1.85,0a.2.2,0,0,0,.23-.15,1.08,1.08,0,0,1,.12-.24.57.57,0,0,1,.69-.26A.65.65,0,0,1,12.94,7.55Z"/></svg>