<svg id="Layer_1" data-name="Layer 1" xmlns="http://www.w3.org/2000/svg" viewBox="0 0 17.93 21.24"><path d="M1.6,15.74c-.38.69-.6,1.51-.38,1.76s.92.28,1.94,0A9.28,9.28,0,0,1,1.6,15.74Zm3.71.84a26.8,26.8,0,0,0,5.49-3.87,27.16,27.16,0,0,0,4.5-5A6,6,0,0,0,15,7.05,6.9,6.9,0,0,0,9,3.64a7,7,0,0,0-3.59,1,7,7,0,0,0-.07,11.94ZM16.44,5.69c.42-1,.48-1.67.25-1.93a.92.92,0,0,0-.86-.32,2.42,2.42,0,0,0-1,.4A9,9,0,0,1,16.44,5.69ZM12.13,14.2a32.24,32.24,0,0,1-4.41,3.3A7.12,7.12,0,0,0,9,17.62a7,7,0,0,0,3.59-1,6.91,6.91,0,0,0,3.2-4.29,6.63,6.63,0,0,0,.19-2.12A31.5,31.5,0,0,1,12.13,14.2Z" style="fill:none"/><path d="M8.09,21.24c-.35,0-.71-.07-1.06-.12A6.27,6.27,0,0,1,3.9,19.9a4.43,4.43,0,0,1-1.66-3.11,7.32,7.32,0,0,1,.08-2.09.66.66,0,0,0,0-.15l-.39-.09A2.5,2.5,0,0,1,.19,11,8.36,8.36,0,0,1,2.58,7.68a3.51,3.51,0,0,1,1.51-.8,2.43,2.43,0,0,1,1.79.22.26.26,0,0,0,.21,0,5.71,5.71,0,0,1,5.71,0,.21.21,0,0,0,.2,0,2.53,2.53,0,0,1,2.46,0,3.82,3.82,0,0,1,.77.48,8.54,8.54,0,0,1,2.42,3.22,3,3,0,0,1,.26,1.55,2.55,2.55,0,0,1-2.1,2.15l-.18,0c0,.51.09,1,.1,1.52a4.72,4.72,0,0,1-1.09,3.34A5.16,5.16,0,0,1,11.8,21c-.58.12-1.17.17-1.76.26l-.2,0ZM9.59,20a7.29,7.29,0,0,0,3-.66A3.12,3.12,0,0,0,14.41,17a5.57,5.57,0,0,0-.16-2.72c-.29-.93-.62-1.85-1-2.76a17.5,17.5,0,0,0-.72-1.73A3.66,3.66,0,0,0,9.43,7.57,3.7,3.7,0,0,0,6,8.88a5.54,5.54,0,0,0-.82,1.36c-.49,1.23-.94,2.48-1.38,3.73a6,6,0,0,0-.29,2.73A3.15,3.15,0,0,0,4.74,19a6.42,6.42,0,0,0,3.61,1v-.23c0-.75,0-1.5,0-2.26a.29.29,0,0,0-.17-.3A2.43,2.43,0,0,1,7.08,16a1.43,1.43,0,0,1,1-2,3.88,3.88,0,0,1,1.76,0,1.42,1.42,0,0,1,1,2,2.4,2.4,0,0,1-1.15,1.26.24.24,0,0,0-.15.25c0,.75,0,1.5,0,2.24ZM12.9,8a11.07,11.07,0,0,1,1.74,3.55c.17.51.36,1,.55,1.52,0,.06.09.14.14.14a1.28,1.28,0,0,0,1.33-1.44,2.74,2.74,0,0,0-.18-.62,7.27,7.27,0,0,0-2-2.63,3.14,3.14,0,0,0-.7-.43A1.31,1.31,0,0,0,12.9,8ZM5,8.11l-.06,0-.1,0a1.84,1.84,0,0,0-1.27.44A7.06,7.06,0,0,0,1.4,11.37a2,2,0,0,0-.12.89,1.29,1.29,0,0,0,1.31,1.05.25.25,0,0,0,.14-.13c.18-.47.35-.93.51-1.4A11.81,11.81,0,0,1,5,8.11Zm4,7c-.2,0-.41,0-.61.07a.31.31,0,0,0-.18.19c0,.27.53.81.8.79l.08,0a1.2,1.2,0,0,0,.66-.65c.08-.18,0-.28-.17-.32S9.18,15.15,9,15.13Z"/><path d="M10.79,0l.41.13a1.87,1.87,0,0,1,.71,3c-.54.59-1.11,1.15-1.69,1.69a1.85,1.85,0,0,1-2.51,0c-.56-.52-1.1-1.07-1.63-1.62A1.8,1.8,0,0,1,5.65,1.3,1.81,1.81,0,0,1,7.09,0l.09,0h.54a2.22,2.22,0,0,1,.94.45L9,.74A2.46,2.46,0,0,1,10.25,0ZM9,4.09a2,2,0,0,0,.46-.25c.51-.49,1-1,1.5-1.49a.64.64,0,0,0,0-.93.65.65,0,0,0-.93,0L9.45,2A.62.62,0,0,1,8.5,2l-.59-.59a.64.64,0,1,0-.9.9c.5.5,1,1,1.5,1.49A2.21,2.21,0,0,0,9,4.09Z"/><path d="M11.25,11.7v.48a.62.62,0,0,1-1.24,0c0-.33,0-.66,0-1a.62.62,0,0,1,1.24,0Z"/><path d="M7.93,11.69v.45a.64.64,0,0,1-.63.64.62.62,0,0,1-.62-.64v-.91a.61.61,0,0,1,.61-.62.61.61,0,0,1,.63.6C7.93,11.37,7.93,11.53,7.93,11.69Z"/></svg>