<svg id="Layer_1" data-name="Layer 1" xmlns="http://www.w3.org/2000/svg" viewBox="0 0 21.53 18.68"><path d="M21.53,6.66c-.06.34-.11.69-.19,1a8.3,8.3,0,0,1-1.73,3.23,17.92,17.92,0,0,1-2.34,2.35.83.83,0,0,1-1.22-.07.84.84,0,0,1,.12-1.2,16.16,16.16,0,0,0,2.44-2.52,5.57,5.57,0,0,0,1.21-2.93,4.3,4.3,0,0,0-1.88-4.22,4.07,4.07,0,0,0-2.85-.58,4.6,4.6,0,0,0-3.25,1.76,4.76,4.76,0,0,0-.31.47A.84.84,0,0,1,10,4,4.85,4.85,0,0,0,4.39,2,3.86,3.86,0,0,0,1.81,5a5.17,5.17,0,0,0,.83,4.12A13.45,13.45,0,0,0,5.3,12C6.56,13,7.85,14,9.11,15.07c.57.47,1.11,1,1.67,1.47l.05,0c.77-.68,1.54-1.37,2.32-2a.85.85,0,0,1,1.25,0,.87.87,0,0,1-.19,1.26c-.72.61-1.43,1.23-2.14,1.87-.24.22-.45.5-.68.74a.81.81,0,0,1-1.24,0,23.31,23.31,0,0,0-3.54-3.19,38.23,38.23,0,0,1-4-3.45A9.47,9.47,0,0,1,.37,8.25C.22,7.78.15,7.28,0,6.8a1.16,1.16,0,0,1,0-.18v-1C0,5.3.07,5,.13,4.76a5.39,5.39,0,0,1,3-4.09,6.3,6.3,0,0,1,6.72.69c.32.23.61.53.92.8,0,0,0,0,.05-.05A6.47,6.47,0,0,1,15.34,0a5.65,5.65,0,0,1,6,4.37c.09.38.13.77.2,1.16Z"/><path d="M10.73,13.21c-.5-.06-1-.12-1.5-.2a1.29,1.29,0,0,1-.41-.16.92.92,0,0,1-.52-1.18A5.53,5.53,0,0,1,9.73,9.28,1.94,1.94,0,0,1,10,9.05a1.16,1.16,0,0,1,1.45,0,3.57,3.57,0,0,1,1.07,1.25,9.61,9.61,0,0,1,.64,1.43.9.9,0,0,1-.44,1.08,2.78,2.78,0,0,1-1.19.32c-.26,0-.53,0-.8,0Z"/><path d="M10.41,6.82a4.57,4.57,0,0,1-.31.74A.77.77,0,0,1,9,7.75a1.32,1.32,0,0,1-.55-1.33.87.87,0,0,1,.69-.76.92.92,0,0,1,1,.41A4.69,4.69,0,0,1,10.41,6.82Z"/><path d="M11.13,6.81a4.81,4.81,0,0,1,.27-.73.93.93,0,0,1,1.06-.41.91.91,0,0,1,.66.88,1.35,1.35,0,0,1-.55,1.19.78.78,0,0,1-1.17-.22A4.56,4.56,0,0,1,11.13,6.81Z"/><path d="M14.76,8.9a1.28,1.28,0,0,1-.51,1,.78.78,0,0,1-1.09-.13,1.26,1.26,0,0,1,.06-1.57.92.92,0,0,1,1-.21A.9.9,0,0,1,14.76,8.9Z"/><path d="M8.62,9v.13a1,1,0,0,1-.71.89.91.91,0,0,1-1-.56,1.72,1.72,0,0,1-.16-.64.84.84,0,0,1,.65-.91.91.91,0,0,1,1.05.5A3,3,0,0,1,8.65,9Z"/></svg>