<svg id="Layer_1" data-name="Layer 1" xmlns="http://www.w3.org/2000/svg" viewBox="0 0 14.74 19.85"><path d="M10,0l2.25,1.31,1.43.83a.41.41,0,0,1,.18.66l-.51.87a.85.85,0,0,1-.6.44.26.26,0,0,0-.16.11c-.12.19-.24.4-.35.6a.27.27,0,0,0,0,.2,1.15,1.15,0,0,1,0,1.28.21.21,0,0,0,0,.3,1.89,1.89,0,0,1,.5,1.62.5.5,0,0,0,0,.21A5,5,0,0,1,11.58,14l-.05.06a2.61,2.61,0,0,1,.66,1.26c.09.47.1,1,.15,1.47h.25a10.28,10.28,0,0,1,1.24,0,1.11,1.11,0,0,1,.91,1.08c0,.52,0,1.05,0,1.57a.47.47,0,0,1-.27.41H.28A.52.52,0,0,1,0,19.32c0-.45,0-.91,0-1.37a1.16,1.16,0,0,1,1.2-1.2h1.7V15.31h-1a1.11,1.11,0,0,1-1-.67A1.1,1.1,0,0,1,1,13.44,1.07,1.07,0,0,1,1.9,13H3.27a.39.39,0,0,1,.42.39.4.4,0,0,1-.43.38H2c-.3,0-.48.15-.48.39s.17.39.47.39h6c.3,0,.48-.15.47-.39s-.18-.38-.48-.39H6.85a.4.4,0,0,1-.45-.38c0-.23.18-.39.46-.39a16.47,16.47,0,0,0,1.72-.05,2.7,2.7,0,0,0,2.27-2.89,1.13,1.13,0,0,0,0-.18l0,0a.56.56,0,0,0-.75.28,1,1,0,0,1-.93.41.2.2,0,0,0-.23.12q-.15.29-.33.57a.76.76,0,0,1-1.08.29L5.14,10.19A.78.78,0,0,1,4.85,9.1L5,8.85A.66.66,0,0,0,5.08,8a.89.89,0,0,1,0-.94C5.84,5.83,6.56,4.57,7.3,3.32a1.06,1.06,0,0,1,1-.53.21.21,0,0,0,.22-.13,3.37,3.37,0,0,1,.19-.32.68.68,0,0,0,.13-.64A.79.79,0,0,1,9,1.19a10.29,10.29,0,0,1,.55-1A1.39,1.39,0,0,1,9.78,0Zm4,19.07v-1c0-.43-.11-.54-.55-.54H1.49c-.66,0-.71,0-.71.7v.84ZM9.63,9.35a.75.75,0,0,1-.13-.11A1.92,1.92,0,0,1,9.21,7,2,2,0,0,1,11.3,6c.24.05.34,0,.38-.27a.43.43,0,0,0-.26-.45L8.6,3.68c-.36-.21-.53-.16-.73.19L6,7.19c-.3.53-.28.61.25.92L8.9,9.67a.41.41,0,0,0,.65-.17ZM9.22,13.6l.12.75a4.2,4.2,0,0,0,2.94-5,6.37,6.37,0,0,1-.55.35.18.18,0,0,0-.12.22,3.37,3.37,0,0,1-1,2.89A3.4,3.4,0,0,1,9.22,13.6Zm2.85-5.69a1.17,1.17,0,1,0-1.15,1.17A1.16,1.16,0,0,0,12.07,7.91ZM10,16.74v-.67a.71.71,0,0,0-.75-.75h-2v1.42ZM6.4,15.33H3.71v1.41H6.4ZM9.64,1.59l3,1.74.39-.67L10,.92ZM5.51,9.51l2.35,1.35.39-.67L5.9,8.83Zm6-5,.39-.67L9.59,2.46l-.39.67Zm0,12.26a2.58,2.58,0,0,0-.61-2.23l-.69.38a2,2,0,0,1,.53,1.85Z"/><path d="M7.76,9.93a.39.39,0,1,1-.38-.39A.4.4,0,0,1,7.76,9.93Z"/></svg>