<?xml version="1.0" encoding="utf-8"?>
<!-- Generator: Adobe Illustrator 26.1.0, SVG Export Plug-In . SVG Version: 6.00 Build 0)  -->
<svg version="1.1" id="Layer_1" xmlns="http://www.w3.org/2000/svg" xmlns:xlink="http://www.w3.org/1999/xlink" x="0px" y="0px"
	 viewBox="0 0 24 24" style="enable-background:new 0 0 24 24;" xml:space="preserve">
<g>
	<path d="M8.71,19.09c-0.1-0.02-0.21-0.04-0.31-0.07c-0.99-0.26-1.65-1.13-1.63-2.17c0.02-0.98,0.73-1.83,1.7-2.06
		c0.25-0.06,0.51-0.13,0.72-0.26c0.45-0.28,0.7-0.7,0.71-1.24c0.02-0.75,0.3-1.37,0.91-1.81c0.7-0.49,1.46-0.56,2.22-0.19
		c0.77,0.38,1.19,1.03,1.2,1.88c0.01,0.77,0.53,1.46,1.34,1.63c1.05,0.22,1.73,1.19,1.67,2.27c-0.06,1-0.88,1.85-1.9,1.98
		c-0.03,0-0.06,0.02-0.09,0.02c-0.13,0-0.26,0-0.39,0c-0.29-0.06-0.57-0.13-0.86-0.18c-0.55-0.1-1.1-0.22-1.66-0.28
		c-0.76-0.08-1.5,0.09-2.24,0.25c-0.35,0.07-0.7,0.14-1.05,0.21C8.93,19.09,8.82,19.09,8.71,19.09z"/>
	<path d="M10.09,4.91c0.09,0.03,0.18,0.05,0.28,0.08c0.72,0.22,1.21,0.86,1.21,1.61c0.01,0.78,0.01,1.56,0,2.34
		c0,0.65-0.44,1.2-1.05,1.37c-0.62,0.17-1.25-0.09-1.59-0.65C8.66,9.2,8.39,8.75,8.12,8.3c-0.78-1.29,0-3.08,1.48-3.37
		c0.02,0,0.03-0.01,0.05-0.02C9.79,4.91,9.94,4.91,10.09,4.91z"/>
	<path d="M14.35,4.91c0.37,0.08,0.7,0.23,1,0.48c0.88,0.73,1.09,2,0.5,2.98c-0.27,0.44-0.53,0.87-0.8,1.31
		c-0.33,0.54-0.96,0.79-1.57,0.63c-0.6-0.15-1.05-0.7-1.06-1.31c-0.01-0.81-0.02-1.62,0-2.43c0.02-0.8,0.61-1.46,1.4-1.62
		c0.03-0.01,0.06-0.02,0.09-0.03C14.06,4.91,14.21,4.91,14.35,4.91z"/>
	<path d="M4.91,10.73c0.04-0.16,0.06-0.32,0.11-0.47c0.14-0.44,0.36-0.84,0.78-1.08c0.64-0.37,1.46-0.21,1.91,0.39
		c0.38,0.51,0.75,1.03,1.1,1.56c0.56,0.85,0.31,1.99-0.55,2.53c-0.85,0.54-1.99,0.29-2.52-0.57c-0.21-0.33-0.41-0.67-0.57-1.02
		c-0.11-0.23-0.16-0.49-0.23-0.73c-0.01-0.03-0.02-0.05-0.03-0.08C4.91,11.08,4.91,10.9,4.91,10.73z"/>
	<path d="M19.09,11.22c-0.02,0.1-0.03,0.2-0.06,0.29c-0.07,0.21-0.14,0.42-0.24,0.62c-0.16,0.32-0.34,0.63-0.53,0.94
		c-0.43,0.71-1.28,1.03-2.06,0.79c-0.8-0.24-1.33-0.97-1.31-1.79c0.01-0.36,0.12-0.7,0.33-1c0.34-0.49,0.68-0.97,1.03-1.46
		c0.64-0.89,1.9-0.85,2.48,0.08c0.18,0.29,0.3,0.61,0.35,0.95c0,0.03,0.02,0.05,0.02,0.08C19.09,10.89,19.09,11.06,19.09,11.22z"/>
</g>
</svg>
