<svg id="Layer_1" data-name="Layer 1" xmlns="http://www.w3.org/2000/svg" viewBox="0 0 20.68 20.68"><path d="M20.68,8c-.06.08-.11.18-.18.26a.61.61,0,0,1-.76.08,7.53,7.53,0,0,0-1-.39,2.45,2.45,0,0,0-1.7.23l-.23.13a.7.7,0,0,1-.76,0c-.35-.18-.7-.35-1.06-.51a1.78,1.78,0,0,0-.37-.13v6.85h2.95a1.82,1.82,0,0,1,1.1,3.31l-.16.1c0,.06.05.12.07.17l.78,1.58a.61.61,0,1,1-1.09.52c-.31-.63-.63-1.26-.93-1.9a.24.24,0,0,0-.25-.15H6a.25.25,0,0,0-.26.17c-.31.64-.62,1.28-.94,1.92a.62.62,0,0,1-.71.36.6.6,0,0,1-.38-.88l.78-1.6L4.58,18a2.68,2.68,0,0,1-.85-.86L.43,12.74a1.85,1.85,0,0,1-.23-2,1.8,1.8,0,0,1,2.89-.45c.48.53.88,1.13,1.31,1.7a.39.39,0,0,0,.36.18h5.51a1.76,1.76,0,0,1,1.73,1,2.87,2.87,0,0,1,.19.83,3.24,3.24,0,0,1,0,.54h1.2V7.72c-.2.08-.39.14-.57.22s-.57.27-.85.43a.73.73,0,0,1-.78,0A2.48,2.48,0,0,0,9.48,8a5.73,5.73,0,0,0-.92.27c-.11,0-.2.12-.31.17a.6.6,0,0,1-.9-.55A6.7,6.7,0,0,1,11,2a6.57,6.57,0,0,1,2.33-.71h.11c0-.46-.14-1,.45-1.24h.32c.59.25.42.78.45,1.24h.12a6.69,6.69,0,0,1,3.68,1.64,6.44,6.44,0,0,1,2,3.28c.11.41.16.84.24,1.26Zm-9.15,9h6a1.77,1.77,0,0,0,.23,0,.6.6,0,0,0,0-1.2H6a.37.37,0,0,1-.33-.17L3.87,13.29,2.31,11.21A.58.58,0,0,0,1.69,11a.6.6,0,0,0-.47.48.63.63,0,0,0,.17.55c1.17,1.56,2.34,3.11,3.5,4.67a.79.79,0,0,0,.7.35ZM15.81,6.89A8.1,8.1,0,0,0,15,3.34a3.28,3.28,0,0,0-.54-.7.58.58,0,0,0-.92,0,3.48,3.48,0,0,0-.58.8A7,7,0,0,0,12.27,6c0,.3,0,.6-.08,1A4.24,4.24,0,0,1,14,6.45,4.16,4.16,0,0,1,15.81,6.89Zm-3.92-4a5.37,5.37,0,0,0-3.21,4,4,4,0,0,1,2.3,0A10.21,10.21,0,0,1,11.89,2.86ZM17,6.91a4.07,4.07,0,0,1,2.32,0,5.37,5.37,0,0,0-3.22-4A10,10,0,0,1,17,6.91ZM11,14.58v-.5a.62.62,0,0,0-.7-.71H5.46c.22.3.44.55.62.84a.73.73,0,0,0,.73.37C8.19,14.57,9.57,14.58,11,14.58Z"/></svg>