<svg id="Layer_1" data-name="Layer 1" xmlns="http://www.w3.org/2000/svg" viewBox="0 0 20.01 19.56"><path d="M2.62,15.15c-.38.69-.6,1.52-.38,1.76s.92.28,1.94,0A8.66,8.66,0,0,1,2.62,15.15ZM6.33,16a27.31,27.31,0,0,0,5.49-3.88,27.2,27.2,0,0,0,4.5-5c-.11-.23-.22-.45-.35-.67a6.94,6.94,0,0,0-6-3.41,7.07,7.07,0,0,0-3.59,1,7,7,0,0,0-.06,12ZM17.46,5.1c.42-1,.48-1.67.25-1.93a1,1,0,0,0-.86-.32,2.57,2.57,0,0,0-1,.4A9,9,0,0,1,17.46,5.1Zm-4.31,8.52a31.62,31.62,0,0,1-4.42,3.29A7.34,7.34,0,0,0,10,17a7,7,0,0,0,6.79-5.28A7.33,7.33,0,0,0,17,9.62,32.26,32.26,0,0,1,13.15,13.62Z" style="fill:none"/><path d="M16.75,6.66a7.35,7.35,0,0,1-1.09,3.65,15.35,15.35,0,0,1-3.43,4c-.57.49-1.18.93-1.77,1.38a.69.69,0,0,1-.89,0A18.64,18.64,0,0,1,4.85,11.1,8.34,8.34,0,0,1,3.38,7.78a6.28,6.28,0,0,1,2.05-6A6.81,6.81,0,0,1,16.05,3.68,6.35,6.35,0,0,1,16.75,6.66ZM15.4,6.59a11.92,11.92,0,0,0-.23-1.33A5.38,5.38,0,0,0,7,2.33,5,5,0,0,0,4.68,6.94a6.08,6.08,0,0,0,1.07,3A16.4,16.4,0,0,0,9.9,14.2c.1.08.16,0,.24,0,.4-.32.82-.63,1.21-1a14,14,0,0,0,3.1-3.59A6.54,6.54,0,0,0,15.4,6.59Z"/><path d="M10.5,19.56a27.36,27.36,0,0,1-6.84-.74,7.7,7.7,0,0,1-2.54-1.06,3,3,0,0,1-.76-.7A1.63,1.63,0,0,1,.5,14.87a4.72,4.72,0,0,1,1.83-1.14c.27-.11.56-.21.84-.3a.7.7,0,0,1,.92.46.72.72,0,0,1-.5.88q-.79.3-1.56.66a1.93,1.93,0,0,0-.53.42.26.26,0,0,0,0,.42,4.1,4.1,0,0,0,.71.53,10,10,0,0,0,2.93.93,27.35,27.35,0,0,0,7.34.31,16.66,16.66,0,0,0,4.37-.84,7.33,7.33,0,0,0,1.4-.7c.48-.31.46-.56,0-.9a6,6,0,0,0-1.86-.84.7.7,0,0,1,.13-1.37.75.75,0,0,1,.21,0,6.9,6.9,0,0,1,2.41,1.12A1.91,1.91,0,0,1,20,16.1a1.86,1.86,0,0,1-.69,1.34,5.87,5.87,0,0,1-2.09,1.12,18.21,18.21,0,0,1-4.14.83C12.07,19.48,11,19.52,10.5,19.56Z"/><path d="M13,6.77a3,3,0,1,1-3-3A3,3,0,0,1,13,6.77Zm-1.4,0A1.63,1.63,0,1,0,10,8.38,1.61,1.61,0,0,0,11.63,6.77Z"/></svg>