<?xml version="1.0" encoding="utf-8"?>
<!-- Generator: Adobe Illustrator 28.4.1, SVG Export Plug-In . SVG Version: 6.00 Build 0)  -->
<svg version="1.1" id="Layer_1" xmlns="http://www.w3.org/2000/svg" xmlns:xlink="http://www.w3.org/1999/xlink" x="0px" y="0px"
	 viewBox="0 0 1920 802" style="enable-background:new 0 0 1920 802;" xml:space="preserve">
<style type="text/css">
	.st0{opacity:0.62;fill:#FF6600;}
	.st1{opacity:0.62;fill:#336600;}
	.st2{opacity:0.62;fill:#669933;}
	.st3{opacity:0.62;fill:#FF9933;}
	.st4{opacity:0.62;fill:#C8D8AA;}
	.st5{opacity:0.62;fill:#66CC66;}
	.st6{opacity:0.62;fill:#ABB596;}
	.st7{opacity:0.62;fill:#FFCC33;}
	.st8{opacity:0.62;fill:#F3E7D3;}
	.st9{opacity:0.62;fill:#F9D6C1;}
	.st10{opacity:0.62;fill:#F6E8D6;}
	.st11{opacity:0.62;fill:#F9D9C6;}
	.st12{opacity:0.62;fill:#EAB778;}
	.st13{opacity:0.62;fill:#7D463B;}
	.st14{opacity:0.62;fill:#5F9D9F;}
	.st15{opacity:0.62;fill:#9A6963;}
	.st16{opacity:0.62;fill:#C9D8AB;}
	.st17{opacity:0.62;fill:#FBA28B;}
	.st18{opacity:0.62;fill:#FAA48B;}
	.st19{opacity:0.62;fill:#F1614A;}
	.st20{opacity:0.62;fill:#F4614A;}
	.st21{opacity:0.62;fill:#F9A58E;}
	.st22{opacity:0.62;fill:#F6A890;}
	.st23{opacity:0.62;fill:#F8A691;}
	.st24{opacity:0.62;fill:#F9A48F;}
	.st25{opacity:0.62;fill:#F9A58D;}
	.st26{opacity:0.62;fill:#856555;}
	.st27{opacity:0.62;fill:#457E7F;}
	.st28{opacity:0.62;fill:#458181;}
	.st29{opacity:0.62;fill:#F9A691;}
	.st30{opacity:0.62;fill:#91634F;}
	.st31{opacity:0.62;fill:#8F8B75;}
	.st32{opacity:0.62;fill:#D06E59;}
	.st33{opacity:0.62;fill:#FFCC00;}
	.st34{opacity:0.62;fill:#FCA58C;}
	.st35{opacity:0.62;fill:#BBC2BB;}
	.st36{opacity:0.62;fill:#E38579;}
	.st37{opacity:0.62;fill:#FBE9D9;}
	.st38{opacity:0.62;fill:#FDFFFF;}
	.st39{opacity:0.62;fill:#FFFFFD;}
	.st40{opacity:0.62;fill:#FFFEFE;}
	.st41{opacity:0.62;fill:#FFFFFF;}
	.st42{opacity:0.62;fill:#FDFFFD;}
	.st43{opacity:0.62;fill:#FEFFFF;}
	.st44{opacity:0.62;fill:#E8BB7B;}
	.st45{opacity:0.62;fill:#D5C9A4;}
	.st46{opacity:0.62;fill:#F2A88F;}
	.st47{opacity:0.62;fill:#F7A591;}
	.st48{opacity:0.62;fill:#F6E1C2;}
	.st49{opacity:0.62;fill:#FCA690;}
	.st50{opacity:0.62;fill:#DCA996;}
	.st51{opacity:0.62;fill:#E5B09E;}
	.st52{opacity:0.62;fill:#EDB29A;}
	.st53{opacity:0.62;fill:#ECAE97;}
	.st54{opacity:0.62;fill:#E5AD9E;}
	.st55{opacity:0.62;fill:#E4AA99;}
	.st56{opacity:0.62;fill:#E9A798;}
	.st57{opacity:0.62;fill:#E6A99B;}
	.st58{opacity:0.62;fill:#E4D4B0;}
	.st59{opacity:0.62;fill:#D9E4C5;}
	.st60{opacity:0.62;fill:#999999;}
	.st61{opacity:0.62;fill:#D9EEAE;}
	.st62{opacity:0.62;fill:#C2B394;}
	.st63{opacity:0.62;fill:#FEFDD8;}
	.st64{opacity:0.62;fill:#FEFCD6;}
	.st65{opacity:0.62;fill:#FFFFDB;}
	.st66{opacity:0.62;fill:#C9D8AA;}
	.st67{opacity:0.62;fill:#FCA58E;}
	.st68{opacity:0.62;fill:#C7D6A9;}
	.st69{opacity:0.62;fill:#131B41;}
	.st70{opacity:0.62;fill:#CDD4AD;}
	.st71{opacity:0.62;fill:#B97C70;}
	.st72{opacity:0.62;fill:#FDDFC1;}
	.st73{opacity:0.62;fill:#FBA48C;}
	.st74{opacity:0.62;fill:#E1AC92;}
	.st75{opacity:0.62;fill:#E1E68E;}
	.st76{opacity:0.62;fill:#CCD7AA;}
	.st77{opacity:0.62;fill:#9B6A62;}
	.st78{opacity:0.62;fill:#CDD5AA;}
	.st79{opacity:0.62;fill:#5E2D25;}
	.st80{opacity:0.62;fill:#D6CCA8;}
	.st81{opacity:0.62;fill:#CAD2B0;}
	.st82{opacity:0.62;fill:#C5D2AB;}
	.st83{opacity:0.62;fill:#CAD4B3;}
	.st84{opacity:0.62;fill:#C8D4B3;}
	.st85{opacity:0.62;fill:#E7AD97;}
	.st86{opacity:0.62;fill:#E6A898;}
	.st87{opacity:0.62;fill:#ECC5B3;}
	.st88{opacity:0.62;fill:#FEFCFB;}
	.st89{opacity:0.62;fill:#AEB393;}
	.st90{opacity:0.62;fill:#A9B892;}
	.st91{opacity:0.62;fill:#C9D7AA;}
	.st92{opacity:0.62;fill:#F5A68F;}
	.st93{opacity:0.62;fill:#CBD8AB;}
	.st94{opacity:0.62;fill:#0B0F23;}
</style>
<path class="st0" d="M161,195c0-64.7,0-129.3,0-193.9c533.3,0,1066.7,0,1600,0c0,53,0,106-0.4,159.5c-2.4,0.8-4.3,1.1-6.3,1.4
	c-32.4,4.8-64.8,9.8-97.2,14.2c-24.4,3.3-48.8,6.2-73.3,8.7c-20.8,2.1-41.7,3.8-62.6,5.2c-24.7,1.6-49.5,3.4-74.2,3.7
	c-22.8,0.3-45.6-1-68.4-1.8c-19.5-0.7-38.8-2.9-57.7-8c-13.7-3.7-27.2-8.1-38.4-17.4c-6-5-11.4-10.8-17.6-15.5
	c-31.8-23.8-68.4-34-107.5-34.8c-18.2-0.4-36.6,1.3-54.6,3.8c-42.4,5.9-81.9,20.6-118.8,42.1c-12.2,7.1-24.1,15.1-37,20.6
	c-42.9,18.5-88.5,26.5-134.4,32.9c-26.3,3.6-52.8,5.8-79.3,8.2c-22.3,2-44.6,2.4-66.7-4.1c-9.9-6.2-19.8-11.9-29.1-18.4
	c-14.9-10.3-30.2-14.9-47.1-5c-1.3,0.7-2.7,1.2-4.5,1.6c-34.9-10.7-69.4-21.3-103.9-31.9c-9.8-3-19.7-3-29.6-1.3
	c-17.2,3-33.3,9.4-49.2,16.2c-7.9,3.4-15.5,7.5-23.6,11.1c-2.9-3-6-5.4-8.1-8.6c-3.4-4.9-8.2-10-8.7-15.3c-1.2-13-0.4-26.3-0.2-39.4
	c0.2-9,2.2-18.1,1-26.8c-3.3-25-20.4-41.6-46.1-46.5c-22.4-4.2-47.5,7.3-59.2,26.8c-6.7,11.1-8.6,23.4-9,35.9
	c-0.4,13.1,0.3,26.2,0.9,39.4c0.3,7-1.7,13-5.5,18.8c-7.3,11.1-14.5,22.3-22.1,33.4C202.3,202.5,182.2,196.6,161,195z"/>
<path class="st1" d="M1761,510c0,97.6,0,195.3,0,293c-303,0-606.1,0-909.3-0.2c0.6-0.6,1.3-1,2.1-1.3c14.3-3.9,28.4-8.3,42.8-11.5
	c20.8-4.6,39.1-15.1,58.3-23.4c22.3-9.7,38.7-27.6,54-45.8c15.1-18,23.4-40.2,34-60.9c2.9-5.7,6.3-11.2,9.6-16.7
	c1.4-2.4,3.6-4.4,4.9-6.9c8-15,20.8-25.8,33.6-35.9c17.6-13.8,37.5-24,58.7-31.7c34.4-12.4,70.3-15.8,106.3-18.7
	c19.5-1.6,39.1-2.3,58.7-3c32.7-1.2,65.5-2,98.3-3.2c12-0.4,23.9-1.3,35.9-1.8c23.6-1.1,47.2-2.1,70.8-3.1
	c19.1-0.8,38.2-1.7,57.3-1.9c21.8-0.1,43.6-0.6,65.3-3.1c21.3-2.4,42.7-3.5,63.8-6.9c13.3-2.2,26.1-7.6,39.1-11.7
	C1750.4,513.8,1755.7,511.8,1761,510z"/>
<path class="st2" d="M1761,509.6c-5.3,2.2-10.6,4.2-15.9,5.9c-13,4.1-25.8,9.5-39.1,11.7c-21.1,3.5-42.5,4.5-63.8,6.9
	c-21.7,2.5-43.5,2.9-65.3,3.1c-19.1,0.1-38.2,1.1-57.3,1.9c-23.6,0.9-47.2,2-70.8,3.1c-12,0.5-23.9,1.4-35.9,1.8
	c-32.8,1.1-65.5,2-98.3,3.2c-19.6,0.7-39.2,1.5-58.7,3c-36,2.9-71.9,6.3-106.3,18.7c-21.2,7.6-41.1,17.9-58.7,31.7
	c-12.8,10.1-25.6,20.9-33.6,35.9c-1.3,2.5-3.5,4.5-4.9,6.9c-3.3,5.5-6.6,11-9.6,16.7c-10.7,20.7-19,42.8-34,60.9
	c-15.3,18.3-31.7,36.2-54,45.8c-19.2,8.3-37.5,18.8-58.3,23.4c-14.4,3.2-28.6,7.6-42.8,11.5c-0.8,0.2-1.5,0.7-2.5,1.3
	c-145.6,0.2-291,0.2-436.7-0.1c3.5-10.9,4.4-21.7,2.3-32.7c-3.3-17.4-21.5-33.5-38.2-31.9c-5.8,0.5-11.6,0.8-17.3,1.7
	c-12.3,1.9-17.7-0.4-23.9-11.1c-2.4-4.2-4.2-8.7-6.7-12.8c-2.5-4.1-4.9-8.6-8.5-11.6c-13.4-11-28.5-14.5-45.3-8.1
	c-3.3,1.3-6.6,2.4-9.9,3.3c-11.3,2.9-19.6-0.8-24.9-11.1c-0.9-1.8-1.6-3.7-2.4-5.5c-3.3-6.9-5.9-14.3-10.2-20.5
	C213.9,640,188,630.7,161,637c0-43.7,0-87.4,0.5-131.5c18.9-0.6,37.2-0.7,56.1-0.8c9.5,0.1,18.5,0.3,27.5,0.3
	c42.3,0,84.7-0.1,127.3,0.2c-0.1,14.2,7.3,24.8,14.9,35.5c15.9,22.3,34.5,42.2,53.6,61.7c5.4,5.6,10.2,11.8,14.8,17.7
	c-2.3-0.3-4.3-0.7-6.2-1.1c-6.7-1.4-13.5-2.7-20.5-4.3c-6.4-1.9-12.5-3.6-18.5-5.4c-8.7-2.7-8.7-2.8-12.4,5.5
	c-1.8-0.4-3.3-0.5-4.8-0.8c-6.4-1.3-13.6-0.4-18.2-7.3c-10.5-2.9-20.8-5.6-31.2-8.5c-4.1-3.8-4.1,0.3-4.7,2.3
	c-7.2,26.4-14.3,52.9-21.5,79.3c-1.1,4,0.1,6.7,4,7.7c5.6,1.5,11.4,2.1,16.9,3.7c5.9,1.7,9.6-0.6,12.9-5.3c1.7-1.9,3.2-3.6,4.9-5.7
	c-2.8-3.8-5.4-7.5-7.9-11.5c0.4-2.3,0.6-4.2,0.8-6.1c0.3-3.8,0.5-7.6,0.9-11.1c0.6,2,1.2,3.7,2,6c4.1-1.6,8-3.1,12.3-4.5
	c6.5,0.7,12.6,1.4,18.7,2.4c-0.4,4,2.5,4.1,4.8,4.9c32.7,10.8,65.6,21.3,98.2,32.4c15.9,5.4,32.5,10.1,45.8,20.6
	c11.9,9.4,30.1,6,39.6-1.2c15.2-11.5,18.4-27.4,16.1-45.1c-2-15.2-9-28.5-16.6-41.5c-12.9-22.1-28.9-41.9-45.8-60.9
	c6.2,0,12,0.1,18.3,0.4c15.3,2.7,30.1,5.5,45,7.8c4.1,0.6,5.6,2.5,6.5,6.1c5.7,22.9,11.7,45.7,17.3,68.5c1.3,5.2,2.9,9.3,9,10.2
	c-0.5,5.5,1.5,11.1-3,15.8c-0.3,10.4-0.5,20.4-0.7,30.8c-0.1,1.2,0,2.1-0.1,3.3c1.7,1.1,3.5,2.4,5.3,2.4c28.1,0.1,56.3,0.1,84.5,0.5
	c1.2,1.5,2.2,3.4,3.4,3.4c5.1,0.3,10.4,0.5,15.5,0c13.4-1.2,15.9-3.8,17-14.8c1.5-16.7,3.3-33.4,5.2-50.1c0.7-6.5,2.2-12.9,3.6-20.3
	c1.6,2.1,2.5,3.3,3.4,4.4c12,14.5,23.8,29.1,36,43.4c5.8,6.8,3.8,14.5-4.9,16.7c-4.8,1.2-9.9,1.8-14.5,3.5
	c-7,2.6-12.2,7.4-14.8,15.1c1.5,0.5,2.2,1,3,1c11.1,0.8,22.2,2,33.3,2.1c23.1,0.1,46.3-0.2,69.4-1c12-0.4,23.9-2.4,35-8.4
	c2.6,0.3,4.8,0.7,6.9,0.4c2.1-0.3,4.8-0.8,5.9-2.3c4.3-5.5,3.1-11.3-2.7-15.3c-1.9-1.3-3.9-2.5-5.9-4.1c-0.3-1.9-0.7-3.3-0.8-4.8
	c-1.1-23.7-7-46.3-16.3-68c-7.6-17.9-16.1-35.5-29.8-49.9c-6.4-6.7-12.7-13.6-18.6-20.5c11.3-0.1,12.2-0.9,12.5-12.2
	c0-0.5-0.1-1,0-1.5c1.6-7.8,3.2-15.7,5.2-23.4c3.6,0.4,6.7,1,9.8,1c60.9,0,121.9-0.1,182.9,0.3c0.1,2.1,0.1,3.7,0.1,5.1
	c9.8,2.3,11.8,3.9,14.5-5.5c71.4-0.2,142.3-0.3,213.3-0.1c0.7,9.3,0.7,9.3,9.7,9.3c7.1,0,14.3,0,21.4,0c4.3,0,8.5,0,12.5,0
	c0.6-3.5,1.1-6.3,2.1-9c14.1-0.1,27.8-0.1,41.6,0.2c1.6,2.5,2.8,6.2,4.5,6.4c2.9,0.4,7.2,1.3,8.8-3.7c2.1-1.2,4-2.9,5.9-2.9
	c60-0.1,120-0.1,180,0c17.6,0,35.2,0.5,53.1,1.1c0.5,1.8,0.8,3.2,1,4.6c3.9,0,7.6,0,11.4,0c0.2-2.1,0.3-3.9,1-5.7
	c44.7,0,89,0,133.3,0C1761,506.4,1761,507.8,1761,509.6z"/>
<path class="st3" d="M666.9,220.1c21.8,6.4,44.1,6,66.4,3.9c26.5-2.4,53-4.6,79.3-8.2c45.9-6.4,91.5-14.4,134.4-32.9
	c12.9-5.6,24.8-13.5,37-20.6c37-21.5,76.5-36.2,118.8-42.1c18.1-2.5,36.4-4.2,54.6-3.8c39.1,0.8,75.6,11,107.5,34.8
	c6.2,4.7,11.6,10.5,17.6,15.5c11.2,9.3,24.7,13.6,38.4,17.4c18.9,5.1,38.2,7.4,57.7,8c22.8,0.8,45.6,2.1,68.4,1.8
	c24.8-0.4,49.5-2.1,74.2-3.7c20.9-1.4,41.8-3,62.6-5.2c24.5-2.5,48.9-5.4,73.3-8.7c32.4-4.4,64.8-9.4,97.2-14.2c2-0.3,3.9-0.6,6.3-1
	c0.4,37.7,0.4,75.4,0,113.6c-22.8,2.2-45.3,3.8-67.8,5.3c-13,0.9-26.1,1.8-39.2,2.5c-15.6,0.9-31.1,1.6-47,2.1
	c-2.8-1.7-5.3-3.5-8-4.7c-23.4-10.9-46.7-22-70.3-32.4c-17.4-7.6-35.4-14.3-54.9-12.4c-9.5,1-19,3-28.4,5.4
	c-61,15.5-121.9,31.3-182.8,46.7c-10,2.5-20.2,5.4-30.3,5.5c-47.1,0.3-94.2-0.2-141.3-0.8c-23.4-0.3-46.9-1-70.3-2
	c-18.9-0.7-37.9-1.7-56.7-3.2c-23.2-1.9-46.3-4.2-69.4-6.9c-18-2.2-35.8-5.5-52.8-12.4c-14.6-6-29.4-11.8-44.3-16.8
	c-21.6-7.2-44-9.2-65.6-1.2c-15.8,5.9-31.5,13.1-45.8,22c-21.9,13.5-45,21.1-70.6,20.2c1.4-1.6,2.9-2.8,4-4.2
	c3.4-4.7,6.7-9.6,10.2-14.7c5.2-10.2,10.3-20.1,15.7-29.9c6,1.9,11.6,2.8,17.2,0.1C669.9,238.9,671.6,231.1,666.9,220.1z"/>
<path class="st4" d="M1607,284.8c15.6-0.8,31.2-1.5,46.7-2.3c13.1-0.7,26.1-1.6,39.2-2.5c22.5-1.6,44.9-3.2,67.8-4.9
	c0.4,76.2,0.4,152.6,0.4,229.4c-44.3,0.5-88.6,0.5-133.4,0c-0.2-16.5,0.1-32.5,0.9-48.5c7.4-0.2,14.4-0.5,21.4-0.7
	c3.8-0.1,5.2-2,5.1-5.7c-0.2-5.3-0.2-10.7,0-16c0.1-3.4-1.1-4.7-4.6-4.7c-7.7,0.1-15.3-0.1-23-0.7c-0.9-5.5,2-11.6-3.8-15.2
	c5.3-0.1,10.1-0.1,14.9-0.1c2.9,0,4.7-1.1,4.6-4.4c-0.1-4,0.3-8-0.2-11.9c-0.1-1.3-2-3.2-3.3-3.4c-3.8-0.5-7.6-0.3-11.4-0.7
	c-0.4-2.4-0.7-4.3-0.6-6.4c3.9-0.1,7.4-0.3,10.9-0.1c3.3,0.1,4.9-0.8,4.7-4.5c-0.2-3.8-0.2-7.6,0-11.4c0.1-3.1-1.3-4.1-4.1-4
	c-4,0.1-7.9-0.1-11.9-0.6c0-2.1,0.1-3.8,0.5-5.5c1.4,0,2.4,0,3.4,0c12-0.1,12-0.1,12-11.9c0-1.5,0.4-3.2-0.1-4.4
	c-0.7-1.4-2.1-3.3-3.4-3.5c-3.8-0.5-7.6-0.3-11.5-0.8c-1.3-6.5-2.7-7.5-8.5-7.4c-5.9,0-4,4.9-5.8,7.8c-62.9,0.1-125.3,0.1-187.7,0.1
	c-16.6,0-33.3-0.2-49.9-0.6c-0.3-3.4,0.2-7.1-4.5-7.2c-4-0.1-8.7-1.4-9.3,5c-0.1,0.9-0.7,1.8-1.5,2.8c-15.5,0.5-15.7,0.8-14.6,15.6
	c0,0.2-0.1,0.4,0,0.5c0.9,1,1.8,2.9,2.9,3c4.3,0.4,8.7,0.3,13.1,0.8c0,2.4,0,4.4-0.5,6.4c-3.8,0.1-7.1,0.2-10.4,0.1
	c-2.8-0.1-4.4,0.9-4.6,3.8c-0.2,3.6-0.3,7.3-0.6,10.9c-0.3,3.8,1.2,5.5,5.1,5.3c3.3-0.2,6.6,0.1,9.9,0.6c0,2.4,0,4.3-0.5,6.3
	c-14.7,0.3-14.7,0.3-14.6,14.6c0,0.7-0.3,1.5,0.1,1.9c1.1,1.3,2.3,3.3,3.5,3.3c4.8,0.2,9.5-0.3,14.4-0.3c0,0.2,0.1,0.7,0.1,1.1
	c-0.1,5.3-0.3,10.2-0.8,15.1c-8.1,0.1-15.8,0-23.4,0.4c-1.6,0.1-4.3,1.6-4.3,2.6c-0.4,6.5-0.5,13.1-0.1,19.7
	c0.1,1.3,2.4,3.4,3.8,3.5c7.3,0.7,14.6,0.8,21.9,1.5c0.3,16.4,0.6,32.4,0.9,48.4c-13.7,0.1-27.3,0.2-41.4-0.2
	c1-13.2,2.4-26,4.2-38.7c0.9-6.4,0.4-7.8-5.6-10.2c0-0.2,0-0.6,0.4-0.6c2.4,0,4.4,0,6.4,0c0-0.9-0.1-1.8-0.1-2.8
	c-19.1-0.2-38.3-1-57.4,0.6c0,0.6,0,1.2-0.1,1.8c2.6,0.1,5.1,0.3,7.7,0.6c0,0.2,0,0.6-0.4,0.7c-5.1,2.1-6.1,5-5.3,11.4
	c1.6,12.3,2.9,24.6,4.4,36.9c-70.9,0.2-141.8,0.3-213.2,0.1c-0.5-16.4-0.5-32.4,0-48.4c6.8,0,13.1,0.1,19.4-0.1
	c5.9-0.2,7-1.3,7.1-7.1c0.1-4.8-0.1-9.6,0.1-14.4c0.1-4-1.3-5.7-5.5-5.6c-7.1,0.2-14.3,0-21.5-0.4c-0.4-5.4-0.8-10.4-0.7-15.4
	c19.8-1.6,14.8,1.8,15.7-15.7c0-0.2,0.1-0.4,0-0.5c-1.2-1.2-2.2-3.2-3.6-3.4c-3.8-0.5-7.6-0.3-11.5-0.7c-0.7-2.4-1.3-4.5-1.4-6.5
	c4.6-0.1,8.8,0.2,12.9-0.3c1.3-0.1,3.4-2.1,3.5-3.3c0.4-4.3,0.4-8.7-0.1-12.9c-0.1-1.3-2.1-3.2-3.4-3.4c-4.1-0.5-8.3-0.2-12.4-0.6
	c2-2,3.9-3.7,6.3-5.5c10.1-0.2,10.5-0.6,10.6-10.5c0-1.8-0.1-3.6,0-5.5c0.2-2.9-1-4.2-4.1-4.1c-4.6,0.1-9.3-0.2-13.7-0.6
	c1.1-1.9,2-3.5,3.4-5.1c3,0.2,5.7,0.8,8.3,0.6c13.2-1.2,26.3-2.6,39.5-3.9c21.5-2.2,43-4.5,64.4-6.4c-2.7,6.3-5.3,12.4-8.3,18.4
	c-5.4,1.2-10.4,2.4-15.4,3.5c-5.6,1.2-11.4,2.2-17,3.6c-5.7,1.4-11.6,2.6-16.9,5.1c-4.7,2.2-7.6,6.7-8.3,12.3
	c-1.1,9.5-2.2,19.1-3.7,28.6c-2.6,16.2,2.3,26.2,16.7,31.1c6,2.1,12.6,2.6,19.2,4c1.3,1.7,2.3,3.2,3.3,4.7c2,3,3.9,6.1,6.2,8.9
	c3.9,4.8,5.9,4.6,9.3-0.3c3.2-4.6,6.7-9,10.4-13.5c1.5-0.1,2.6-0.1,4-0.1c18.3,8,36.7,13.4,56.9,12.2c1.9,2.4,3.4,4.8,5.4,6.7
	c2.7,2.6,5.1,2.6,6.6-1.5c1.1-2.9,2.5-5.7,4.1-8.5c22.8,2.6,43.7-0.7,59.9-18c11.7-12.4,13.7-30.8,4-43.5c-9-11.9-16.1-24-18.3-39.1
	c-1.7-11.7-12.2-17.7-19.5-25.3c7.4-0.4,14.3-0.6,21.3-1.2c14.5-1.2,29-2.6,43.5-3.9c5.1-0.5,10.2-0.9,15.3-1.5
	c11.8-1.4,23.6-3.2,35.5-4.4c9.4-1,18.8-1.3,28.2-2.2c12-1.1,24-2.7,36-3.8c12.3-1.1,24.7-2,37.1-2.9c23.3-1.7,46.6-3.3,69.8-5.1
	C1575.7,287.8,1591.3,286.2,1607,284.8z"/>
<path class="st5" d="M161,637.5c27-6.8,52.9,2.5,68.5,24.9c4.3,6.2,6.9,13.6,10.2,20.5c0.9,1.8,1.5,3.7,2.4,5.5
	c5.3,10.3,13.6,14,24.9,11.1c3.4-0.9,6.7-2,9.9-3.3c16.7-6.4,31.8-2.9,45.3,8.1c3.6,2.9,6,7.5,8.5,11.6c2.5,4.1,4.3,8.7,6.7,12.8
	c6.2,10.7,11.7,13,23.9,11.1c5.7-0.9,11.5-1.2,17.3-1.7c16.7-1.5,34.9,14.5,38.2,31.9c2.1,11.1,1.2,21.8-2.8,32.7
	c-32.8,0.3-65.5,0.3-98.6,0c6.1-8.6,12-17.1,11.2-28.5c-2,2.1-3.3,4.6-4.6,7.1c-3.1,5.8-6.2,11.6-9.3,17.3c-0.8,1.5-1.8,3-2.7,4.5
	c-16,0-32,0-48.7-0.4c2.2-17,5-33.5,7.9-50.1c-0.6-0.2-1.3-0.5-1.9-0.7c-1.1,2.2-2.6,4.2-3.2,6.5c-1.2,4.8-1.9,9.7-2.8,14.6
	c-1.8,10-3.6,20.1-5.3,30.1c-2.4,0-4.7,0-7.5-0.4c-8.5-10.8-9.5-23.6-12.4-36.1c-1.1,2.1-2.1,4.2-2,6.2c0.3,11,3.9,21,9.9,30.2
	c-27,0-54,0-81.5-0.4c0.9-3.9,2.4-7.5,3.6-11.1c2.7-8.7,7.3-15.9,15.9-20.1c3.3-1.6,6.2-3.9,9.1-6.1c7.5-5.4,14.4-11.4,18.6-20.1
	c-0.2-0.3-0.6-0.4-1.2-0.3c-3.4,3.4-6.5,6.6-9.6,9.9c-6.4,6.9-14,11.8-23.7,16.2c8.3-24.5,20-46.5,26.5-70.5c-1.4,1.4-2.2,3-2.9,4.7
	c-7.9,19-15.8,38-23.8,57c-4.5,10.7-9.3,21.2-14,31.8C161,742,161,690,161,637.5z"/>
<path class="st6" d="M217.1,504.6c-18.4,0.1-36.8,0.3-55.6,0.4c-0.5-61-0.5-122,0-183.6c8.4-0.1,16.3-0.1,24.1,0.7
	c9.8,1,19.5,2.6,29.1,4.2c-2,4.3-5.6,8.4-5.4,12.3c0.6,13.9-3.3,27-4.9,40.4c-1.5,12.3,2.5,22.2,14.2,28.3c10.1,5.2,21.1,6.7,32.4,8
	c4.2,6.1,8.1,12.1,12.6,17.6c3.4,4.2,6.5,4,8.8-1c2.2-4.7,3.1-10,5-15.1c11.4-2.6,22.4-5.2,33.5-7.4c-0.2,3.4-0.7,6.4-0.6,9.3
	c0.2,6.4,0.7,12.7,1.1,19.1c0.9,0,1.7,0,2.6-0.1c0-9.9,0-19.8,0.3-29.9c11.2-6.2,17.5-15.2,18.3-27.9c2.4-0.3,4.3-0.6,6.3-1
	c22.8-4.7,41.9-14.5,52.2-36.5c1.9,1.4,3.7,3,5.6,3.3c12.1,2,24.3,3.8,36.4,6c-0.8,1.8-1.5,3.3-2.3,4.7
	c-16.7,27.5-31.8,55.8-39.3,87.5c-0.3,1.5-1.5,2.7-2.7,4.1c-50.7,12.4-100,27.7-148.7,45.2C232.1,496.2,224.7,500.8,217.1,504.6z"/>
<path class="st7" d="M214.9,326c-9.8-1.3-19.5-3-29.3-3.9c-7.9-0.8-15.8-0.8-24.1-1.1c-0.5-22-0.5-44-0.1-66.4
	c7.6,0.8,14.8,2.1,22,3c15.8,1.9,31.6,3.6,47.6,5.7c8.8,16.7,11.8,34.2,9.5,52.6C230.8,317.1,222.7,321.1,214.9,326z"/>
<path class="st3" d="M230.8,263c-15.8-1.8-31.6-3.5-47.4-5.4c-7.2-0.9-14.4-2.3-22-3.5c-0.4-19.4-0.4-38.8-0.4-58.6
	c21.2,1.1,41.3,7.1,61.5,14.7c-0.3,4.6-1.3,8.7-1.4,12.7C220.4,237.2,225.6,250.1,230.8,263z"/>
<path class="st8" d="M161,794.5c4.7-11.1,9.5-21.6,14-32.3c8-19,15.9-38,23.8-57c0.7-1.7,1.5-3.3,2.9-4.7
	c-6.4,23.9-18.2,45.9-26.5,70.5c9.6-4.4,17.3-9.3,23.7-16.2c3-3.3,6.2-6.5,9.8-9.7c0.6,0.2,0.8,0.3,0.9,0.4
	c-4.1,8.6-10.9,14.6-18.5,19.9c-3,2.1-5.9,4.5-9.1,6.1c-8.6,4.2-13.1,11.3-15.9,20.1c-1.1,3.6-2.6,7.2-4,11.1
	C161.7,800.3,161.3,797.7,161,794.5z"/>
<path class="st9" d="M256.4,803c1.4-10,3.1-20.1,4.9-30.1c0.9-4.9,1.6-9.8,2.8-14.6c0.6-2.3,2.1-4.3,3.2-6.5
	c0.6,0.2,1.3,0.5,1.9,0.7c-2.8,16.6-5.6,33.1-8.3,50.1C259.6,803,258.2,803,256.4,803z"/>
<path class="st10" d="M244.4,803c-6.5-9.1-10.1-19.1-10.3-30.2c-0.1-2.1,0.9-4.2,2-6.2c2.9,12.4,3.9,25.2,11.9,36.1
	C246.9,803,245.9,803,244.4,803z"/>
<path class="st11" d="M310.4,803c0.5-1.5,1.5-3,2.3-4.5c3.1-5.8,6.2-11.6,9.3-17.3c1.3-2.5,2.6-4.9,4.6-7.1
	c0.9,11.5-5.1,19.9-11.6,28.5C313.6,803,312.2,803,310.4,803z"/>
<path class="st12" d="M231,263.3c-5.4-13.2-10.6-26.1-9.9-40.4c0.2-4.1,1.1-8.1,1.8-12.6c7.3-11.6,14.4-22.8,21.7-33.9
	c3.8-5.7,5.8-11.8,5.5-18.8c-0.6-13.1-1.3-26.3-0.9-39.4c0.4-12.4,2.3-24.8,9-35.9c11.7-19.5,36.9-31,59.2-26.8
	c25.7,4.9,42.9,21.5,46.1,46.5c1.1,8.7-0.9,17.9-1,26.8c-0.3,13.1-1,26.4,0.2,39.4c0.5,5.3,5.3,10.5,8.7,15.3
	c2.2,3.1,5.2,5.6,8.3,8.9c1.6,2.1,2.7,3.7,3.9,5.3c8.5,11,14,23.3,12.2,37.3c-1.1,8.7-4.5,17.2-6.7,25.8c-1.8,7.3-3.3,14.7-5,22.6
	c0.8,6.7,0.8,13.2,2.7,19c4.4,13,4.6,26.3,4.1,39.7c-10.2,22.4-29.4,32.2-52.1,36.9c-1.9,0.4-3.9,0.7-6.4,0.7
	c-3.2-7.1-6-13.9-8.5-20.9c15.4-15.8,25.2-37.9,22.1-51.4c-2,5.8-3.8,10.6-5.2,15.5c-3.6,13-10.3,24.1-20.2,33.3
	c-5.4-4.4-5.8-10.4-6.8-16.7c0.4-10.7,1-21,1-31.3c0.1-24.1,0.1-48.3,0-72.5c0-3.7,0.8-6.4,3.9-9c11-8.9,16.2-21.2,19.1-34.7
	c0.1-0.7-0.2-1.4-0.3-2.1c-8.1,10.9-8.7,26.3-22.6,34.2c0-16.2,0.1-31.7,0-47.1c-0.2-15.4-0.6-30.7-1-46.1c-0.6-0.1-1.2-0.2-1.7-0.3
	c-0.4,1.9-1.2,3.7-1.3,5.6c-0.2,8.2-0.1,16.3-0.2,24.5c-0.3,38-0.5,75.9-0.8,113.9c0,1.3-0.3,2.7-0.5,4.9
	c-9.5-8.1-16.3-16.5-18.4-28.2c-0.6-3-1.8-5.9-2.8-8.8c-0.6,0.1-1.2,0.3-1.8,0.4c0,2.3-0.3,4.7,0.1,7c2.1,12.2,8.3,22.1,17.7,29.8
	c5.1,4.2,6.9,9.4,6.7,15.8c-0.2,10.5-0.2,21-0.5,31.3c-1-0.8-1.7-1.4-2.4-2.1c-13.6-13.7-28.5-21.1-48.2-12.6
	c-5.7,2.5-12.5,2.6-18.8,3.9C242.8,297.5,239.8,280,231,263.3z"/>
<path class="st3" d="M384.1,282.9c1.6-7.4,3.1-14.8,5-22.1c2.2-8.6,5.6-17,6.7-25.8c1.8-14-3.7-26.3-12.2-37.3
	c-1.2-1.6-2.4-3.2-3.7-5.1c7.6-4.1,15.2-8.2,23.2-11.6c15.9-6.8,32-13.2,49.2-16.2c10-1.7,19.9-1.7,29.6,1.3
	c34.5,10.6,69,21.2,103.7,32.2c-2.2,1.6-4.5,2.9-6.9,4.2c-5.2,2.9-9.6,6.5-11.9,12.3c-5.8,14.8-2,29,2.4,43.1
	c0.1,0.3,1.8,0.1,2.7,0.5c-2,3.9-3.7,7.7-6,10.9c-3,4.1-6.6,7.8-10.2,11.4c-1.5-1.4-2.6-3.3-4-3.6c-22.2-4.6-43.5-3.7-62.2,11.9
	c-3.5,0.3-6.7,0.9-9.8,0.8c-8.1-0.2-16.2-0.5-24.3-1c-9.7-0.6-19.5-1.4-29.2-2.2C412.1,285.5,398.1,284.2,384.1,282.9z"/>
<path class="st13" d="M572,258.1c-0.9,0-2.6,0.2-2.7-0.1c-4.4-14.2-8.2-28.4-2.4-43.1c2.3-5.8,6.7-9.4,11.9-12.3
	c2.3-1.3,4.7-2.5,7.2-4.1c1.6-0.8,3.1-1.2,4.3-2c17-9.9,32.2-5.3,47.1,5c9.3,6.5,19.2,12.2,29.1,18.4c5,11.2,3.3,19-4.7,22.9
	c-5.6,2.7-11.2,1.8-17.4-0.4c-5.7-2.4-10.6-4.8-15.8-6.3c-8.3-2.3-16.7-4.2-23.8-9.5c-0.8-0.6-3.1,0-4.1,0.8
	c-3.3,2.4-6.3,5.2-10.2,8.5c-0.7-2.9-0.9-4.9-1.7-6.6c-0.8-1.6-2.2-4.2-3.3-4.1c-1.7,0.1-3.7,1.7-4.9,3.2c-1.1,1.3-1.3,3.3-1.7,5.1
	c-1.5,5.3-2.8,10.7-4.4,16.1C573.9,252.5,572.9,255.3,572,258.1z"/>
<path class="st14" d="M621.1,657.1c-6.1-0.4-7.7-4.5-9-9.7c-5.6-22.9-11.6-45.7-17.3-68.5c-0.9-3.6-2.4-5.5-6.5-6.1
	c-14.9-2.3-29.7-5.1-45.2-8.1c-13.5-15-30.1-24.7-45.7-35.7c-0.6,0.6-1.2,1.3-1.8,1.9c9.7,11.3,19.4,22.6,29,33.9
	c17.3,18.8,33.3,38.6,46.2,60.7c7.6,13,14.6,26.3,16.6,41.5c2.3,17.7-0.9,33.6-16.1,45.1c-9.4,7.2-27.7,10.5-39.6,1.2
	c-13.4-10.5-30-15.2-45.8-20.6c-32.6-11.1-65.4-21.7-98.2-32.4c-2.3-0.8-5.2-0.8-4.6-5.2c5.2-13.8,10.2-27,15.2-40.1
	c3.4-8.4,3.4-8.3,12.1-5.7c6,1.9,12.1,3.5,18.1,5.5c-0.8,0.5-1.7,0.7-3.3,1.1c2.4,1.6,4.1,2.7,5.8,3.7c14.3,8.2,28.5,16.4,42.9,24.5
	c4.6,2.6,9.4,4.7,14.2,7.1c0,0.1,0.2,0.1,0.2,0.1s-0.2-0.2-0.4-0.4c-10.5-10.1-20.8-20-31.1-30c-0.3-0.4-0.5-0.6-0.7-0.7
	c0,0,0,0,0,0c-5.1-5.9-9.8-12.2-15.3-17.7c-19.1-19.5-37.7-39.4-53.6-61.7c-7.6-10.6-15-21.3-14.7-35.8c2.7-17.7,8.8-33.7,16.5-48.7
	c0,3.2-0.1,5.8,0.1,8.5c0.7,10.2,4.1,18.3,15,21.6c8.9,2.7,17.5,6.3,26.4,8.9c24.4,7.3,49.3,8.4,74.5,5.7c9.2-1,12.5-5,12-14.3
	c-0.2-4.3-1.3-8.5-1.5-12.7c1.7,0.2,3.1,0.3,4.4,0.6c13.1,3.1,26.2,6.3,39.2,9.5c0,0,0,0,0.1,0.2c0.8,0.4,1.3,0.6,2.2,1
	c10.4,4.5,19.5,9.9,24.7,20.2c0.8,1.5,2.3,3,3.8,3.8c8.8,4.9,23,8.6,34.5-0.9c3.2-2.6,6.8-4.6,10.6-6.7c3.9,1.6,7.4,3,11.3,4.5
	c10.4,7.5,14.5,17.8,14.8,29.9c0.2,9.4,0.5,18.9,1.1,28.3c1.2,19.2,2.7,38.3,3.9,57.4c0.5,8.4-0.2,17,1.3,25.3
	c1.1,5.8-0.7,7.8-5.9,9c-9.3,0.6-18.1,1.5-27,1.9C630,658.1,625.6,657.4,621.1,657.1z"/>
<path class="st15" d="M897.3,705.4c-10.7,6.1-22.6,8.1-34.6,8.5c-23.1,0.8-46.3,1.1-69.4,1c-11.1,0-22.2-1.3-33.3-2.1
	c-0.8-0.1-1.5-0.5-3-1c2.6-7.6,7.8-12.4,14.8-15.1c4.6-1.8,9.7-2.3,14.5-3.5c8.8-2.2,10.7-9.8,4.9-16.7c-12.2-14.3-24-28.9-36-43.4
	c-0.9-1.1-1.8-2.3-3.4-4.4c-1.3,7.4-2.8,13.8-3.6,20.3c-1.9,16.7-3.7,33.4-5.2,50.1c-1,11-3.6,13.7-17,14.8
	c-5.1,0.4-10.3,0.3-15.5,0c-1.2-0.1-2.3-2-3.4-3.4c-0.1-0.4-0.1-0.4,0.2-0.6c0.8-1.8,1.2-3.5,1.9-5.4c8-5.8,14.9-11.5,16.4-22.1
	c2.6-18.6,4.1-37.2,3.2-55.9c-0.4-9.5-2-18.8-7.1-27.4c-5.6-9.5-10.9-19.4-14.7-29.7c-3.7-10-6.3-20.5-7.8-31
	c-1.5-11.1-0.1-22.4,3.7-33.6c3.4-9.8,6.7-19.3,10.4-28.8c2.7,0.4,4.9,0.8,7.2,1c6.4,0.6,12.7,1.2,19.1,1.6c2.6,0.2,5.4,0.7,7.9,0.2
	c12.1-2.5,24.2-5.2,36.5-7.6c3.4,5.5,6.5,10.6,9.8,16.2c8.4,11.1,16.7,21.9,25.2,32.8c0.6,0.4,1.1,0.7,1.6,1.2
	c5.2,6.8,10.2,13.2,15.3,19.6c6.3,6.8,12.6,13.7,19,20.5c13.7,14.4,22.1,31.9,29.8,49.9c9.2,21.7,15.2,44.3,16.3,68
	c0.1,1.5,0.5,3,0.4,4.9c-8.6,3.5-10,6.6-7,14.7C895.4,701.2,896.4,703.3,897.3,705.4z"/>
<path class="st4" d="M1614.1,505.7c-17.6-0.3-35.2-0.7-52.8-0.7c-60-0.1-120-0.1-180,0c-1.9,0-3.7,1.7-5.9,2.4
	c-0.2-17.5-0.1-34.9,0.4-52.2c24.4,0.2,48.4,0.6,72.3,0.6c55.3-0.1,110.5-0.4,165.9-0.1C1614,472.7,1614,489.2,1614.1,505.7z"/>
<path class="st4" d="M1046.9,504.8c-60.9,0.1-121.9,0.1-182.8,0.1c-3.1,0-6.2-0.6-9.8-1.4c-0.1-7.5,0.2-14.4,0.5-21.8
	c-1.6-1.2-3.1-2.6-4.7-2.6c-14.3-0.2-28.5-0.1-42.8-0.5c0.2-7.9,0.5-15.3,1.2-22.7c79.8,0,159.2,0,238.6,0.5
	C1047,472.8,1047,488.8,1046.9,504.8z"/>
<path class="st16" d="M389,455.7c-7.7,15.4-13.8,31.4-16.8,48.8c-42.5,0.4-84.8,0.4-127.2,0.4c-9,0-18-0.2-27.5-0.3
	c7.2-3.9,14.5-8.5,22.5-11.3c48.7-17.6,98-32.8,148.7-44.8C389.1,451.1,389,453.4,389,455.7z"/>
<path class="st17" d="M1274.8,504.7c-1.5-12.7-2.8-25.1-4.5-37.3c-0.9-6.4,0.1-9.3,5.8-11.4c14.9,0,28.9-0.1,43-0.1
	c6,2.2,6.5,3.7,5.6,10c-1.8,12.7-3.1,25.5-4.6,38.7c-0.5,3.2-1,5.9-1.6,9.5c-3.9,0-8.2,0-12.5,0c-7.1,0-14.3,0-21.4,0
	C1275.5,514,1275.5,514,1274.8,504.7z"/>
<path class="st18" d="M854.8,482.1c-0.3,7-0.6,13.9-0.9,21.3c-1.6,8.3-3.2,16.1-4.8,24c-0.1,0.5,0,1,0,1.5
	c-0.3,11.2-1.2,12.1-12.5,12.2c-5.5-6.4-10.6-12.8-15.7-20c-0.5-7.3-0.9-13.8-1.3-20.3c-0.2,0-0.4,0-0.6,0c0,6.4,0,12.9,0,19.3
	c-8.3-10.8-16.6-21.5-25-33.1c3.2-11.4,2.3-22,0-32.6c4.9,0.5,9.4,1,13.9,1.5c-0.3,7.4-0.5,14.8-0.6,23c3,1.6,5.8,3,8.6,3
	C828.9,482.2,841.9,482.1,854.8,482.1z"/>
<path class="st19" d="M348.1,669c2.7,3.7,5.3,7.3,8.1,11.2c-1.7,2-3.2,3.8-5.3,5.7c-6.6,0-12.6,0.4-18.4-0.4
	c-9.1-1.3-9.7-2.6-8.1-11.7c0.1-0.3,0.2-0.6,0.2-1c6.5-24.8,12.9-49.6,19.4-74.4c10.2,2.7,20.5,5.3,31,8.7c0,2.1-0.1,3.6-0.5,5.1
	c-3.5,13.6-7.1,27.1-10.7,40.7c-3.9,1.5-7.7,3-11.8,4.6c-0.8-2.3-1.3-4-2-6.3c-1-3-2.3-3.4-3.1-0.8c-1.2,3.6-2.6,7.3-2.5,10.9
	C344.4,663.8,346.7,666.4,348.1,669z"/>
<path class="st20" d="M617.5,703.8c0.2-10,0.3-19.9,1.1-30.3c10.2-0.8,19.9-1.7,29.4-1.1c6.3,0.4,13.4-1.4,19,4.2
	c1.5,2.2,2.8,4,4.2,6c-1.7,1.4-3.2,2.7-4.7,4c0.1,0.3,0.3,0.5,0.4,0.8c4.2-1.4,8.4-2.9,13-4.5c0.2,2.4,0.3,4.2,0.4,6.1
	c6-5.9,10.5-6.4,16.7-2c5.8,4.2,7.8,10,6.7,17c-9.4,0.1-18.4,0-27.4,0C656.6,703.9,637,703.8,617.5,703.8z"/>
<path class="st21" d="M364.2,652.9c3.1-13.6,6.7-27.2,10.2-40.7c0.4-1.4,0.5-2.9,0.7-4.8c4.4,6.2,11.6,5.3,18,6.6
	c1.4,0.3,2.9,0.4,4.8,0.8c-4.6,13.3-9.6,26.5-14.8,39.9C376.9,654.3,370.8,653.6,364.2,652.9z"/>
<path class="st22" d="M1047,505.2c0-16.4,0-32.4,0.4-49.1c4.8-0.5,9.2-0.3,13.7-0.1c0,16,0,31.9,0,48.4c-2.2,9.8-4.2,8.3-14,6
	C1047,508.9,1047,507.3,1047,505.2z"/>
<path class="st23" d="M1614.3,506.1c-0.3-16.9-0.3-33.4,0.1-50.4c4.8-0.2,9.3,0.1,13.7,0.4c-0.3,16-0.6,32-0.9,48.5
	c-0.1,2.2-0.3,4-0.5,6.1c-3.8,0-7.5,0-11.4,0C1615.1,509.3,1614.8,507.8,1614.3,506.1z"/>
<path class="st24" d="M1375.2,455.2c-0.1,17.3-0.2,34.7-0.2,52.5c-1.3,5.2-5.7,4.3-8.5,3.9c-1.7-0.2-2.9-3.9-4.5-6.4
	c-0.4-16.4-0.7-32.3-0.7-49C1366.2,455.4,1370.7,455.3,1375.2,455.2z"/>
<path class="st25" d="M666.8,676.1c-5.4-5.2-12.5-3.5-18.8-3.9c-9.6-0.6-19.2,0.4-29.3,0.7c4-4.3,2-9.9,2.5-15.4
	c4.4-0.2,8.9,0.5,13.3,0.3c8.9-0.4,17.7-1.3,27-1.4c1.3,6-1.9,12.6,5.1,16.4C667.1,673.1,666.7,675,666.8,676.1z"/>
<path class="st26" d="M343.7,598.2c-6.3,25-12.7,49.8-19.2,74.6c-0.1,0.3-0.2,0.6-0.2,1c-1.6,9.1-1,10.5,8.1,11.7
	c5.8,0.8,11.8,0.4,18.1,0.6c-2.6,4.6-6.3,6.9-12.2,5.2c-5.5-1.6-11.3-2.3-16.9-3.7c-3.8-1-5.1-3.7-4-7.7
	c7.2-26.4,14.3-52.9,21.5-79.3C339.6,598.6,339.6,594.4,343.7,598.2z"/>
<path class="st27" d="M488,651c-4.7-2.3-9.5-4.5-14.1-7c-14.3-8.1-28.6-16.3-42.9-24.5c-1.7-1-3.3-2.1-5.8-3.7
	c1.6-0.4,2.5-0.6,3.6-0.9c7.1,1.3,13.8,2.7,20.5,4.1c1.9,0.4,3.9,0.7,6.2,1.1c0.4,0,0.4-0.1,0.5,0.1c0.3,0.4,0.5,0.6,0.7,0.7
	c10.3,9.8,20.6,19.7,31.1,29.8C488,651,488,651,488,651z"/>
<path class="st28" d="M525.1,564.6c-10.1-11.1-19.7-22.4-29.4-33.7c0.6-0.6,1.2-1.3,1.8-1.9c15.7,11,32.3,20.7,45.3,35.7
	C537.1,564.7,531.3,564.6,525.1,564.6z"/>
<path class="st29" d="M897.8,705.5c-1.4-2.2-2.4-4.3-3.2-6.5c-3-8.2-1.6-11.2,7-14.3c2.3,1.1,4.3,2.3,6.3,3.6c5.8,4,7,9.8,2.7,15.3
	c-1.1,1.5-3.8,2-5.9,2.3C902.5,706.2,900.3,705.7,897.8,705.5z"/>
<path class="st30" d="M617.4,704.2c19.7-0.3,39.3-0.2,58.9-0.2c9,0,17.9,0,27.6,0.1c1.2,0.4,1.7,0.7,2.1,1.4c0,0.7,0,1.1-0.5,1.5
	c-29.7,0-58.9,0.1-88.1,0.1C617.3,706.2,617.3,705.4,617.4,704.2z"/>
<path class="st31" d="M617.3,707.4c29.2-0.4,58.5-0.4,88.3-0.2c0.9,1.1,1.1,1.9,1.4,2.8c0,0,0,0,0,0c-28.1,0-56.3,0-84.4-0.1
	C620.8,709.9,619.1,708.5,617.3,707.4z"/>
<path class="st32" d="M348.3,668.7c-1.6-2.3-3.9-4.9-4-7.5c-0.1-3.6,1.4-7.3,2.5-10.9c0.8-2.6,2.1-2.2,3,0.5
	c-0.2,4.1-0.5,8-0.8,11.8C348.9,664.5,348.7,666.4,348.3,668.7z"/>
<path class="st33" d="M1174.9,324.2c-21.5,2.2-43,4.5-64.6,6.7c-13.2,1.4-26.3,2.7-39.5,3.9c-2.6,0.2-5.3-0.3-8.7-0.7
	c-5.5-2.5-10.4-2.9-15.3-1.4c0,2,0,3.6-0.3,5.4c-2,0.8-3.7,1.7-5.4,1.8c-26.6,0.1-53.2,0.1-79.8,0.1c-50.7,0-101.5-0.1-152.2-0.6
	c-1.8-7.1-1.8-7-10-6.4c-4.9,0.3-3.5,4.1-4.6,6.9c-5.3,0.1-10.2,0.1-15.6,0.1c0,6.5,0,12.2-0.2,17.6c-3.8-2-7.3-5.1-11-5.4
	c-11.7-0.9-23.5-1-35.3-1c-27.6-0.1-55.3,0-82.9-0.1c-22.8-0.1-45.5-0.5-68.5-0.8c-0.4-0.1-0.6,0-1.1-0.2c-1.4-1.2-2.6-2.2-3.7-3.6
	c0.3-5.5,1-10.6,0.9-15.7c0-9.6-0.1-19.2,3.6-28.6c2.6-3.2,5-6.2,7.8-9.2c9.1-0.3,17.7-0.6,26.3-1c25.7,0.5,48.8-7,70.8-20.5
	c14.4-8.9,30-16.1,45.8-22c21.7-8,44-6,65.6,1.2c15,5,29.7,10.9,44.3,16.8c17,6.9,34.8,10.3,52.8,12.4c23.1,2.8,46.2,5.1,69.4,6.9
	c18.9,1.5,37.8,2.5,56.7,3.2c23.4,0.9,46.9,1.7,70.3,2c47.1,0.5,94.2,1,141.3,0.8c10.1-0.1,20.4-2.9,30.3-5.5
	c61-15.4,121.9-31.2,182.8-46.7c9.3-2.4,18.8-4.4,28.4-5.4c19.5-2,37.5,4.7,54.9,12.4c23.6,10.4,46.9,21.5,70.3,32.4
	c2.7,1.3,5.2,3,8,4.7c-15.4,1.6-31.1,3.1-46.8,4.4c-23.3,1.8-46.6,3.4-69.8,5.1c-12.4,0.9-24.7,1.8-37.1,2.9c-12,1.1-24,2.7-36,3.8
	c-9.4,0.9-18.8,1.2-28.2,2.2c-11.9,1.2-23.7,3-35.5,4.4c-5.1,0.6-10.2,1.1-15.3,1.5c-14.5,1.3-29,2.7-43.5,3.9
	c-6.9,0.6-13.9,0.8-21.5,0.9c-13.2-9.4-26.6-10-40.8-4.7c-6.3,2.4-12.9,5.6-19.4,5.6C1199.3,314.7,1186.6,317.2,1174.9,324.2z"/>
<path class="st34" d="M588,292.9c-2.4,3-4.8,6-7.8,9.2c-1.3,0.7-2,1.1-2.6,1.6c-5.5,4.3-7.3,4.8-10.9-0.8c-4.4-6.8-7.2-14.6-10.7-22
	c3.4-3.9,7-7.5,10-11.6c2.4-3.2,4.1-7,6-10.9c0.9-3.2,1.9-6,2.7-8.8c1.5-5.3,2.9-10.7,4.4-16.1c0.5-1.7,0.7-3.8,1.7-5.1
	c1.2-1.5,3.2-3.1,4.9-3.2c1-0.1,2.5,2.5,3.3,4.1c0.8,1.7,1,3.6,1.7,6.6c3.9-3.3,6.9-6,10.2-8.5c1.1-0.8,3.3-1.4,4.1-0.8
	c7.1,5.3,15.5,7.1,23.8,9.5c5.2,1.5,10.1,3.9,15.4,6.2c-4.8,10.2-9.9,20.1-15.4,30.4c-1.9,1.5-3.6,2.5-4.7,3.9
	c-6.7,8.9-16.2,11.2-26.5,11.2C593.2,287.9,590.2,289.4,588,292.9z"/>
<path class="st35" d="M588.4,292.9c1.8-3.6,4.8-5.1,9.1-5.1c10.3,0,19.8-2.3,26.5-11.2c1.1-1.4,2.8-2.3,4.5-3.6
	c-3,4.7-6.3,9.6-9.7,14.3c-1.1,1.5-2.5,2.6-4,4.2C606.1,292.3,597.5,292.6,588.4,292.9z"/>
<path class="st12" d="M1174.7,324.5c11.9-7.3,24.5-9.8,38.2-9.8c6.5,0,13.1-3.2,19.4-5.6c14.2-5.3,27.6-4.7,40.4,4.7
	c8,7.8,18.5,13.8,20.2,25.5c2.2,15.1,9.3,27.2,18.3,39.1c9.7,12.8,7.7,31.1-4,43.5c-16.2,17.3-37.1,20.6-59.9,17.7
	c0.4-7.5,3.7-12.6,9.6-16.8c8.9-6.4,16.7-14.3,21.4-24.8c0.1-0.5,0.1-0.9,0.1-1.3c-0.3,0.3-0.6,0.6-1.2,1c-2.4,2.7-4.5,5.3-6.6,7.8
	c-5.2,6.2-9.6,13.2-17.6,16.5c0,0,0,0-0.1-0.5c2.1-11.5,4.4-22.6,6.6-33.7c1.4-7.1,2.7-14.2,4-21.3c-0.6-0.2-1.2-0.3-1.8-0.5
	c-1.6,5.2-3.3,10.4-5,16c-1.4-2-2.6-3.7-3.8-5.4c-0.4,2.5,0.2,4.7,0.5,6.9c0.6,3.9,2.1,8.1,1.3,11.8c-3.1,14.3-6.8,28.5-10.6,42.6
	c-0.9,3.4-3.1,6.4-5.1,10.5c-2.1-3.8-4-6.2-5-8.9c-5.4-14.1-10.7-28.3-15.6-42.6c-0.8-2.4,0-5.9,1.2-8.2c5.3-10.1,8.4-20.7,8-32.2
	c-3.7,10.3-4.7,21.5-11.2,32.3c-1.8-4.7-3.3-8.2-4.3-11.8c-2.6-9.3-4.8-18.7-7.3-28c-0.6-2.4-1.8-4.6-2.8-6.9
	c-0.7,0.2-1.3,0.5-2,0.7c7.6,26.9,15.2,53.7,22.8,80.6c-0.4,0.3-0.8,0.5-1.2,0.8c-3.1-2.1-6.2-4.3-9.5-6.1c-4.1-2.3-5-5.9-3.9-9.8
	c2-7.7-0.3-14.2-5-20c-4.9-6.1-8.1-12.8-9.5-20.6c-1.5-8.1-6.1-14.4-13.3-18.4c-4.3-2.4-9-4.3-13.5-6.4
	C1169.5,336.9,1172,330.8,1174.7,324.5z"/>
<path class="st36" d="M1375.7,455.2c-5,0.1-9.5,0.2-14.4,0.5c-7.6-0.1-14.9-0.2-22.2-0.9c-1.4-0.1-3.7-2.2-3.8-3.5
	c-0.4-6.5-0.3-13.1,0.1-19.7c0.1-1,2.8-2.6,4.3-2.6c7.6-0.3,15.3-0.3,23.9-0.3c4.4,0,8,0,11.9,0c60.2,0.1,120,0.1,179.8,0.2
	c19.5,0,39-0.1,58.9-0.2c4.7,0,8.9-0.1,13.1-0.1c7.7,0.1,15.3,0.4,23,0.3c3.5,0,4.7,1.2,4.6,4.7c-0.2,5.3-0.2,10.7,0,16
	c0.1,3.7-1.3,5.6-5.1,5.7c-7,0.2-14,0.5-21.4,0.7c-4.9-0.3-9.3-0.6-14.2-0.8c-55.7,0.3-111,0.6-166.3,0.6
	C1424.1,455.8,1400.1,455.4,1375.7,455.2z"/>
<path class="st36" d="M1061.5,456c-4.9-0.2-9.3-0.4-14.1-0.4c-79.7,0.2-159.1,0.2-238.9,0.2c-5-0.5-9.5-1-14.8-1.6
	c-6.1-0.1-11.5-1.1-15.5,3.3c0.2-9.5,0.5-18.6,0.9-27.9c0.4-0.4,0.7-0.6,1.5-0.8c5.4,0,10.3-0.1,15.7-0.1c4.6-0.2,8.7-0.5,13.1-0.6
	c2.5,0.3,4.7,0.6,6.8,0.6c42.4,0.1,84.9,0.2,127.3,0.2c34.4,0,68.9-0.1,103.8-0.1c4.9,0,9.4,0,13.9,0c7.1,0,14.3,0.2,21.4,0
	c4.2-0.1,5.6,1.6,5.5,5.6c-0.2,4.8,0,9.6-0.1,14.4c-0.1,5.8-1.2,6.9-7.1,7.1C1074.6,456.1,1068.3,456,1061.5,456z"/>
<path class="st37" d="M1278.2,398.2c-4.5,10.4-12.3,18.2-21.2,24.6c-5.9,4.2-9.2,9.4-10,16.7c-1.3,3.2-2.6,6-3.7,8.9
	c-1.5,4.1-4,4-6.6,1.5c-2-1.9-3.5-4.3-5.4-7.1c-2.1-7.8-5.7-13.6-12.4-17.4c-3.4-1.9-6.4-4.8-9.8-6.7c-1.3-0.7-3.6-0.7-5-0.1
	c-6,2.7-11.7,5.9-17.8,8.5c-3.9,1.7-8.1,2.6-12.2,3.8c-1.1,0-2.2,0.1-4.1,0.1c-4.6,0.3-5.4-1.8-4.7-5c1.4-6.3,2.9-12.6,4.2-18.9
	c1.1-5.8,2-11.6,2.9-17.5c-0.6-0.1-1.1-0.2-1.7-0.3c-0.9,3.1-2,6.2-2.7,9.4c-2.1,9.2-3.8,18.5-6.1,27.7c-0.5,2.1-2.8,4.5-4.8,5.2
	c-3,1.1-6.2,0.4-8-3c-2.3-4.3-6-4.4-10.3-3c0.9,2,1.5,3.7,2.2,5.3c-6.3-1.2-12.9-1.7-19-3.8c-14.4-4.9-19.4-14.9-16.7-31.1
	c1.5-9.5,2.6-19,3.7-28.6c0.7-5.6,3.6-10.1,8.3-12.3c5.3-2.5,11.2-3.7,16.9-5.1c5.6-1.4,11.3-2.3,17-3.6c5-1.1,10-2.3,15.4-3.5
	c4.9,2.1,9.6,3.9,13.9,6.3c7.2,4.1,11.8,10.3,13.3,18.4c1.4,7.8,4.7,14.5,9.5,20.6c4.7,5.8,7,12.3,5,20c-1,3.9-0.1,7.5,3.9,9.8
	c3.3,1.8,6.3,4.1,9.5,6.1c0.4-0.3,0.8-0.5,1.2-0.8c-7.6-26.9-15.2-53.7-22.8-80.6c0.7-0.2,1.3-0.5,2-0.7c0.9,2.3,2.1,4.5,2.8,6.9
	c2.5,9.3,4.8,18.7,7.3,28c1,3.6,2.6,7.1,4.3,11.8c6.5-10.8,7.5-22,11.2-32.3c0.4,11.5-2.7,22.1-8,32.2c-1.2,2.4-2,5.9-1.2,8.2
	c4.9,14.3,10.2,28.5,15.6,42.6c1,2.7,2.9,5.2,5,8.9c2.1-4.1,4.2-7.2,5.1-10.5c3.8-14.1,7.5-28.3,10.6-42.6c0.8-3.7-0.7-7.9-1.3-11.8
	c-0.3-2.2-0.9-4.4-0.5-6.9c1.2,1.7,2.4,3.4,3.8,5.4c1.8-5.6,3.4-10.8,5-16c0.6,0.2,1.2,0.3,1.8,0.5c-1.3,7.1-2.6,14.2-4,21.3
	c-2.2,11.1-4.4,22.2-6.7,33.7c0,0.4-0.1,0.8-0.1,0.8l0.3-0.3c8-3.3,12.4-10.3,17.6-16.5c2.1-2.5,4.2-5.1,6.8-7.7
	C1277.9,397.9,1278.2,398.2,1278.2,398.2z"/>
<path class="st38" d="M1627,365.9c4,0.1,7.9,0.3,11.9,0.2c2.9,0,4.3,1,4.1,4c-0.2,3.8-0.2,7.6,0,11.4c0.2,3.6-1.5,4.6-4.7,4.5
	c-3.5-0.1-6.9,0-11.3,0.1c-4.6,0-8.3,0-12.4,0c-79-0.1-157.6-0.1-236.1-0.1c-0.8,0-1.7,0.1-3,0.1c-5.1,0-9.8,0.1-14.5,0.1
	c-3.3-0.1-6.6-0.4-9.9-0.2c-3.9,0.2-5.4-1.5-5.1-5.3c0.3-3.6,0.3-7.2,0.6-10.9c0.2-2.9,1.8-3.9,4.6-3.8c3.3,0.2,6.6,0,10.8,0
	c5,0,9.1,0,13.6,0c58.9,0,117.4,0,175.9,0c21.2,0,42.3-0.1,63.9,0C1619.6,366,1623.3,366,1627,365.9z"/>
<path class="st39" d="M1060,365.9c4.2,0,8.3-0.2,12.4,0.3c1.3,0.2,3.3,2.1,3.4,3.4c0.4,4.3,0.5,8.7,0.1,12.9
	c-0.1,1.3-2.2,3.2-3.5,3.3c-4.1,0.5-8.3,0.2-13.4,0.2c-4.6,0-8.3,0.1-12.4,0.1C970.1,386,894,386,817.9,386c-3.3,0-6.7,0.1-10.4,0.1
	c-4.1,0-7.7,0.1-11.8,0c-1.5-0.1-2.4-0.1-3.4-0.1c-12.7-0.1-12.7-0.1-13.4-13.4c2.1-8,2.1-8,9.5-6.9c2.1,0.3,4.3,0.3,6.7,0.7
	c4.5,0,8.7-0.2,13.4-0.4c28.9,0.1,57.3,0.1,85.8,0.1c50.9,0,101.8,0,153.1,0C1051.9,366.1,1056,366,1060,365.9z"/>
<path class="st40" d="M1363.9,412.2c-4.8,0.2-9.6,0.7-14.3,0.6c-1.2,0-2.5-2.1-3.5-3.3c-0.3-0.4-0.1-1.3-0.1-1.9
	c-0.1-14.3-0.1-14.3,15-14.5c6.2,0,11.6-0.1,17.3-0.1c65,0.1,129.6,0.1,194.2,0.1c14.1,0,28.3-0.1,42.9-0.1c4.5,0,8.6,0,12.7-0.1
	c3.8,0,7.7-0.2,11.4,0.3c1.3,0.2,3.2,2.1,3.3,3.4c0.4,3.9,0.1,7.9,0.2,11.9c0.1,3.3-1.7,4.4-4.6,4.4c-4.8,0-9.6,0-15.3,0
	c-2.9-0.2-4.9-0.3-7.4-0.5c-20.6,0-40.8,0.3-60.9,0.3c-32.6,0.1-65.3,0.1-97.9,0c-28.6-0.1-57.3-0.3-86.3-0.6
	C1368.1,412.2,1366,412.2,1363.9,412.2z"/>
<path class="st41" d="M1061,393c3.8,0.1,7.7-0.2,11.4,0.3c1.3,0.2,2.4,2.2,3.6,3.4c0.1,0.1,0,0.3,0,0.5c-0.8,17.5,4.2,14-16.1,15.6
	c-4.6,0-8.3,0-12.5,0c-76-0.1-151.6-0.1-227.2-0.2c-4.4,0-8.9,0.1-13.8,0.1c-3.1,0.1-5.8,0.1-8.7-0.1c-2.9,0.2-5.6,0.6-8.3,0.7
	c-0.4-7.6-3.8-13.3-8.3-18.7c4.8-0.8,9.3-1.3,14.3-1.7c4.5,0,8.5,0,13,0c60.4,0.1,120.2,0.1,180.1,0.1c19.5,0,38.9-0.1,58.8-0.1
	C1052.3,393.1,1056.6,393.1,1061,393z"/>
<path class="st42" d="M809,339.8c50.7,0.1,101.5,0.1,152.2,0.2c26.6,0,53.2,0,79.8-0.1c1.7,0,3.4-1,5.7-1.4
	c4.5,0.4,8.3,0.8,12.2,1.2c4.6,0.1,9.3,0.4,13.9,0.3c3,0,4.2,1.2,4.1,4.1c-0.1,1.8,0,3.6,0,5.5c-0.1,10-0.4,10.3-11,10.5
	c-6.9-0.3-12.9-0.6-19.3-0.9c-62.1,0.2-123.6,0.5-185.2,0.6c-17.8,0-35.6-0.3-53.9-0.5c-5.1,0-9.8,0.1-14.9,0
	c-4.5-0.1-8.5-0.1-12.8-0.3c-0.5-0.5-0.8-0.9-1-1.2c0-5.6,0-11.2,0-17.8c5.4,0,10.3,0,16.1,0C800.2,339.9,804.6,339.8,809,339.8z"/>
<path class="st43" d="M1376,339.6c16.6,0.1,33.3,0.2,49.9,0.3c62.4,0,124.8,0,188.2,0c5.3,0,9.6-0.1,13.9-0.1
	c3.8,0.1,7.7-0.1,11.5,0.4c1.3,0.2,2.7,2,3.4,3.5c0.6,1.2,0.1,2.9,0.1,4.4c0,11.8,0,11.8-12,11.9c-1,0-2,0-3.8-0.3
	c-4.6-0.3-8.4-0.4-12.7-0.6c-63-0.1-125.6-0.1-188.2-0.1c-17.5,0-34.9,0.1-52.9,0.1c-4.1,0-7.8,0-11.5,0.1c-4.4-0.1-8.8,0-13.1-0.4
	c-1-0.1-1.9-1.9-2.9-3c-0.1-0.1,0-0.3,0-0.5c-1.1-14.8-0.9-15.1,15.1-15.5C1366.7,339.8,1371.3,339.7,1376,339.6z"/>
<path class="st44" d="M1174.4,431c3.7-1.3,8-2.2,11.9-3.9c6-2.6,11.8-5.8,17.8-8.5c1.4-0.6,3.7-0.6,5,0.1c3.4,2,6.4,4.8,9.8,6.7
	c6.7,3.8,10.3,9.6,12.2,17.1C1211.1,444.4,1192.7,439,1174.4,431z"/>
<path class="st45" d="M1141.2,431.2c-0.9-1.9-1.6-3.5-2.5-5.6c4.3-1.3,8-1.2,10.3,3c1.9,3.5,5.1,4.1,8,3c2-0.8,4.3-3.2,4.8-5.2
	c2.4-9.1,4.1-18.4,6.1-27.7c0.7-3.2,1.8-6.3,2.7-9.4c0.6,0.1,1.1,0.2,1.7,0.3c-1,5.8-1.8,11.7-2.9,17.5c-1.2,6.3-2.8,12.6-4.2,18.9
	c-0.7,3.2,0.1,5.3,4.3,5c-2.9,4.5-6.4,9-9.6,13.5c-3.5,4.9-5.5,5.1-9.3,0.3c-2.3-2.8-4.1-5.9-6.2-8.9
	C1143.4,434.4,1142.4,432.9,1141.2,431.2z"/>
<path class="st46" d="M1047.9,413c3.7,0,7.4-0.1,11.6,0c0.8,5,1.2,10,1.6,15.4c-4.4,0.4-8.9,0.5-13.8,0
	C1047.2,422.9,1047.6,418,1047.9,413z"/>
<path class="st47" d="M1616.2,412.6c2,0.1,4.1,0.3,6.5,0.5c6.6,3.6,3.7,9.7,4.6,15.2c-4.1,0.5-8.3,0.5-13,0.1
	C1614.7,422.8,1615.4,417.7,1616.2,412.6z"/>
<path class="st48" d="M1276,455.1c-2.6-0.1-5.1-0.3-7.7-0.4c0-0.6,0-1.2,0.1-1.8c19.1-1.6,38.3-0.8,57.4-0.6c0,0.9,0.1,1.8,0.1,2.8
	c-2,0-4,0-6.8,0C1304.1,455,1290,455.1,1276,455.1z"/>
<path class="st49" d="M1375.2,428.8c-3.5,0-7,0-11,0c-0.4-4.9-0.2-9.8,0.3-15.1c2.1-0.5,3.8-0.5,5.8-0.3c1.7,2.1,3.9,3.9,4.5,6.1
	C1375.5,422.3,1375.1,425.6,1375.2,428.8z"/>
<path class="st50" d="M1377.9,392.8c-5.3,0-10.6,0.1-16.4,0.1c-0.5-2-0.5-3.9-0.5-6.3c4.7-0.5,9.3-0.5,14.6-0.2
	C1376.7,388.8,1377.3,390.8,1377.9,392.8z"/>
<path class="st51" d="M1059.1,339.4c-4-0.1-7.9-0.5-12.1-1.2c-0.2-1.9-0.2-3.5-0.2-5.5c4.9-1.6,9.8-1.2,14.9,1.3
	C1061.2,335.9,1060.2,337.5,1059.1,339.4z"/>
<path class="st52" d="M1376,339.2c-4.7,0.5-9.3,0.6-14.4,0.6c-0.1-1,0.5-1.9,0.6-2.8c0.6-6.4,5.3-5,9.3-5
	C1376.2,332.1,1375.6,335.8,1376,339.2z"/>
<path class="st53" d="M1628,339.4c-4.3,0.4-8.7,0.5-13.4,0.4c0.9-3-0.9-7.8,4.9-7.9C1625.3,331.9,1626.7,332.9,1628,339.4z"/>
<path class="st54" d="M1047.1,359.2c6,0.3,11.9,0.6,18.4,0.9c-1.5,1.8-3.4,3.5-5.4,5.5c-4.1,0.4-8.1,0.5-12.6,0
	C1047,363.2,1047,361.2,1047.1,359.2z"/>
<path class="st55" d="M1060.9,392.7c-4.3,0.4-8.7,0.4-13.5,0c-0.4-2.5-0.4-4.5-0.4-6.5c3.7,0,7.4-0.1,11.5-0.1
	C1059.7,388.2,1060.3,390.3,1060.9,392.7z"/>
<path class="st56" d="M1362,359.6c3.7-0.5,7.4-0.5,11.6-0.1c0.9,2.5,1.2,4.5,1.6,6.5c-4.1,0-8.2,0-12.7,0
	C1362,364,1362,362,1362,359.6z"/>
<path class="st57" d="M1628.1,392.5c-4.1,0.4-8.1,0.5-12.6,0c-0.4-2.4-0.4-4.4-0.4-6.4c3.7,0,7.4-0.1,11.5,0
	C1627.3,388.2,1627.7,390.2,1628.1,392.5z"/>
<path class="st56" d="M1615.1,359.2c3.8,0.1,7.6,0.2,11.7,0.5c0.3,2,0.3,3.7,0.2,5.8c-3.7,0.5-7.4,0.5-11.6,0.1
	C1615,363.2,1615,361.2,1615.1,359.2z"/>
<path class="st58" d="M1276,455.3c14-0.2,28.1-0.2,42.6-0.2c0.5,0,0.5,0.4,0.5,0.6c-14,0.2-28.1,0.3-42.6,0.3
	C1276,455.9,1276,455.5,1276,455.3z"/>
<path class="st59" d="M1370,413.1c-1.7,0-3.4,0-5.5,0c-0.4,0-0.5-0.4-0.5-0.6c2-0.3,4.1-0.3,6.5-0.1
	C1370.5,412.8,1370.2,412.9,1370,413.1z"/>
<path class="st8" d="M209,745c0.1-0.1,0.5,0,0.7,0.3C209.5,745.4,209.3,745.3,209,745z"/>
<path class="st60" d="M555.7,280.7c3.7,7.6,6.5,15.5,11,22.3c3.7,5.6,5.4,5.1,10.9,0.8c0.6-0.5,1.4-0.9,2.4-1.4
	c-3.2,9.1-3.1,18.7-3.1,28.3c0,5.1-0.6,10.2-1.2,16c-6.1,14.9-12,29-18.2,43.3c-6.1,7.4-11.8,14.7-17.8,22.1c-2.8,3-5.3,5.8-8.1,8.4
	c-5.8-6.6-8-13.7-5.7-22.3c1.6-5.9,2.2-12,3.5-18.2c0.6-0.3,0.8-0.6,1.1-0.7c3.4-2.1,6.1-5.3,4-8.9c-1.1-1.8-5.4-2.3-8.2-2.3
	c-14.6,0.4-29.2,1.2-43.9,1.8c-3.8,0.1-7.7,0.1-9.1,4.4c-1.3,4-0.1,7.5,3.7,10.4c0,4.9-0.1,9.4,0,13.9c0.4,11.4,3.3,21.9,10.3,31.2
	c7.5,10,16.4,18.3,26.6,25.8c0.4,6.4,0.7,12.3,1.1,18.3c0.7,4.2,1.7,8.5,2,12.8c0.5,9.2-2.8,13.3-12,14.3
	c-25.2,2.7-50.1,1.6-74.5-5.7c-8.9-2.7-17.5-6.3-26.4-8.9c-10.9-3.3-14.3-11.4-15-21.6c-0.2-2.6-0.1-5.3-0.1-8.5
	c0-2.8,0.1-5,0.2-7.7c0.8-1.8,2-3,2.3-4.5c7.4-31.7,22.5-60,39.3-87.5c0.9-1.4,1.5-2.9,2.6-4.9c1-1.5,1.8-2.4,2.4-3.3
	c9.6-14.3,20.2-27.6,33.3-39.1c7.2-6.4,13.9-13.3,20.9-20.1c18.4-15.7,39.6-16.5,61.8-11.9C553.1,277.4,554.2,279.3,555.7,280.7z"/>
<path class="st61" d="M240.5,315.9c6.7-1.3,13.5-1.4,19.2-3.9c19.6-8.5,34.6-1.1,48.2,12.6c0.7,0.7,1.4,1.3,2.5,2.6
	c1.4,4.6,2.4,8.6,3.4,12.6c1,5.9,1.5,11.9,6.9,16.6c1.3,1.1,2.1,1.9,3,2.6c2.7,6.8,5.5,13.5,8.3,20.7c-0.3,13.1-6.6,22-18.1,28.3
	c-1.4,0.5-2.3,0.8-3.1,1.1c-11,2.6-22,5.2-33.4,7.4c2.9-17.7,6.2-35,9.5-52.3c-0.6-0.2-1.2-0.3-1.7-0.5c-0.7,2.2-1.6,4.4-2.1,6.7
	c-3,13.6-6,27.2-9,40.8c-0.6,2.7-1.5,5.3-5.1,4.7c-4-0.7-9.3,2.4-11.4-4c-1.3-4-2.9-7.9-4.3-11.4c-0.8,4.8-1.5,9.6-2.3,14.4
	c-11.1-0.9-22.2-2.4-32.3-7.6c-11.7-6.1-15.7-16-14.2-28.3c1.6-13.5,5.5-26.6,4.9-40.4c-0.2-3.9,3.4-8,5.4-12.3
	C222.7,321.1,230.8,317.1,240.5,315.9z"/>
<path class="st7" d="M489.5,289.1c-6.5,6.7-13.2,13.7-20.5,20c-13,11.4-23.7,24.8-33.3,39.1c-0.6,1-1.4,1.8-2.4,3
	c-12.4-1.6-24.6-3.4-36.7-5.4c-2-0.3-3.7-1.9-5.6-3.3c0.4-13.8,0.2-27-4.2-40.1c-2-5.8-1.9-12.3-2.7-19c14,0.8,28,2.1,42.1,3.3
	c9.7,0.8,19.5,1.6,29.2,2.2c8.1,0.5,16.2,0.8,24.3,1C482.8,290,485.9,289.4,489.5,289.1z"/>
<path class="st62" d="M251,415.3c0.7-5.1,1.5-9.9,2.2-14.7c1.3,3.5,2.9,7.4,4.3,11.4c2.1,6.4,7.4,3.3,11.4,4c3.6,0.6,4.5-2,5.1-4.7
	c3-13.6,5.9-27.2,9-40.8c0.5-2.3,1.4-4.5,2.1-6.7c0.6,0.2,1.2,0.3,1.7,0.5c-3.3,17.3-6.6,34.6-9.9,52.3c-1.5,5.5-2.4,10.8-4.6,15.5
	c-2.3,4.9-5.4,5.1-8.8,1C259.1,427.5,255.3,421.5,251,415.3z"/>
<path class="st42" d="M310.9,409.5c0.8-0.7,1.6-1,2.7-1.4c0.3,9.9,0.3,19.8,0.3,29.7c-0.9,0-1.7,0-2.6,0.1
	c-0.4-6.4-0.9-12.7-1.1-19.1C310.1,415.9,310.7,412.9,310.9,409.5z"/>
<path class="st63" d="M313.9,339.3c-1.1-3.6-2.1-7.6-3.2-12.1c0-10.9-0.1-21.4,0.1-31.8c0.1-6.4-1.6-11.6-6.7-15.8
	c-9.4-7.8-15.6-17.7-17.7-29.8c-0.4-2.3-0.1-4.7-0.1-7c0.6-0.1,1.2-0.3,1.8-0.4c0.9,2.9,2.2,5.8,2.8,8.8
	c2.1,11.6,8.9,20.1,18.4,28.2c0.2-2.2,0.5-3.6,0.5-4.9c0.3-38,0.6-75.9,0.8-113.9c0.1-8.2,0-16.3,0.2-24.5c0-1.9,0.8-3.7,1.3-5.6
	c0.6,0.1,1.2,0.2,1.7,0.3c0.3,15.4,0.8,30.7,1,46.1c0.2,15.4,0,30.9,0,47.1c13.9-7.9,14.5-23.3,22.6-34.2c0.1,0.7,0.4,1.5,0.3,2.1
	c-2.9,13.5-8.1,25.8-19.1,34.7c-3.1,2.6-3.9,5.2-3.9,9c0.1,24.2,0.2,48.3,0,72.5C314.9,318.3,314.3,328.6,313.9,339.3z"/>
<path class="st64" d="M324,358.7c-1.1-0.5-1.9-1.2-2.9-2.2c9.5-9.7,16.3-20.8,19.8-33.8c1.3-4.9,3.2-9.7,5.2-15.5
	C349.1,320.8,339.3,342.9,324,358.7z"/>
<path class="st65" d="M706,705.2c-0.5-0.3-0.9-0.7-1.7-1.1c0.4-7.1-1.7-12.9-7.5-17.1c-6.2-4.5-10.7-4-16.7,2
	c-0.1-1.9-0.2-3.7-0.4-6.1c-4.6,1.6-8.8,3-13,4.5c-0.1-0.3-0.3-0.5-0.4-0.8c1.5-1.3,3-2.6,4.7-4c-1.4-2-2.8-3.8-4.2-6
	c-0.2-1.4,0.2-3.3-0.4-3.6c-7-3.8-3.9-10.4-4.7-16.4c4.8-1.6,6.5-3.7,5.5-9.5c-1.5-8.2-0.8-16.8-1.3-25.3
	c-1.2-19.2-2.7-38.3-3.9-57.4c-0.6-9.4-0.8-18.9-1.1-28.3c-0.3-12.1-4.4-22.4-14.4-30.1c1.4-0.6,2.7-0.9,4-0.9c17.4,0,34.9,0,52.3,0
	c-3.7,10.8-5.1,22.1-3.6,33.2c1.4,10.5,4.1,21.1,7.8,31c3.8,10.3,9.1,20.2,14.7,29.7c5.1,8.6,6.7,17.9,7.1,27.4
	c0.9,18.7-0.6,37.3-3.2,55.9c-1.5,10.7-8.5,16.3-16.8,22.2C707.5,705,706.8,705.1,706,705.2z"/>
<path class="st66" d="M703,504.7c-17.6,0.3-35,0.3-52.5,0.3c-1.3,0-2.6,0.3-4.3,0.7c-3.9-1.1-7.4-2.5-11.2-4.5
	c0.4-11.2-6.9-21.8-17.2-25.4c-8.7-3.1-18-5.4-25.9-10c-15.1-8.7-29.6-18.4-43.8-28.5c-6.2-4.4-10.9-10.9-16.3-16.5
	c2.5-2.8,5.1-5.6,8.2-8.5c7.7,0.7,14.5-0.3,21.3-3.1c3.5,3.3,6.7,6.5,9.9,9.7c6.2,6.2,12,13,18.9,18.4c3.9,3.1,9.7,5.6,14.4,5.3
	c9.7-0.6,19.3-3.1,28.9-5.1c12.2-2.6,24.3-5.5,36.5-8c0.2,6.1,3.5,10,8.6,11.3c8.7,2.3,17.5,3.7,26.6,5.7c8,3.5,10.7,9.7,10.1,18.1
	c-0.8,4.1-1.4,7.8-2.1,11.4C709.8,485.4,706.5,494.9,703,504.7z"/>
<path class="st67" d="M531.6,420.6c5.6,5.8,10.4,12.3,16.6,16.7c14.2,10.1,28.7,19.8,43.8,28.5c7.9,4.6,17.2,6.9,25.9,10
	c10.3,3.7,17.6,14.2,16.8,25.2c-3.5,2.7-7.2,4.7-10.4,7.3c-11.5,9.4-25.7,5.8-34.5,0.9c-1.5-0.8-3-2.3-3.8-3.8
	c-5.2-10.3-14.3-15.7-24.9-20.4c-1.1-0.6-1.6-0.8-2.2-1c0,0,0,0-0.1-0.3c-1.8-1.6-3.4-3.1-5.2-4.2c-13.2-8.2-26.5-16.3-39.7-24.4
	c-10.2-7-19.2-15.4-26.6-25.3c-7-9.3-9.9-19.8-10.3-31.2c-0.1-4.5,0-9,0.4-14c2.6-0.7,4.7-0.9,6.8-1.2c14.8-2.2,29.7-4.5,44.8-3.2
	c-1,6-1.6,12.2-3.2,18.1C523.6,406.9,525.8,414,531.6,420.6z"/>
<path class="st68" d="M514,455.6c13.2,7.7,26.5,15.8,39.7,23.9c1.8,1.1,3.4,2.6,5.2,4.2c-12.9-2.9-26-6.1-39.1-9.2
	c-1.3-0.3-2.6-0.4-4.4-0.6C514.7,467.9,514.3,462,514,455.6z"/>
<path class="st68" d="M559.2,484.2c0.4-0.1,0.9,0.1,1.7,0.5C560.5,484.8,559.9,484.7,559.2,484.2z"/>
<path class="st27" d="M488,651c0,0,0.2,0.2,0.2,0.2S488.1,651.1,488,651C488,651,488,651,488,651z"/>
<path class="st2" d="M456.7,620.7c-0.1,0-0.3-0.2-0.6-0.6C456.2,620.1,456.4,620.3,456.7,620.7z"/>
<path class="st69" d="M713.4,476c0.3-3.7,1-7.4,2.1-11.4c8.3,0.9,16,2.9,23.8,3.3c13.6,0.8,26.9-1.7,40.1-5.9c1.7,3.1,3.1,6,4.5,9
	c-12.1,2.7-24.1,5.4-36.3,7.9c-2.5,0.5-5.3,0-7.9-0.2c-6.4-0.5-12.7-1-19.1-1.6C718.4,476.8,716.1,476.3,713.4,476z"/>
<path class="st70" d="M784.1,471.2c-1.6-3.2-3-6.1-4.7-9.6c-0.6-1.6-0.9-2.6-1.3-3.6c4-4.8,9.4-3.8,15-3.7c3.1,10.7,4,21.3,0.7,32.3
	C790.7,481.8,787.5,476.7,784.1,471.2z"/>
<path class="st71" d="M819.2,520.2c-0.2-6.6-0.2-13.1-0.2-19.5c0.2,0,0.4,0,0.6,0c0.4,6.5,0.8,13,1.2,20
	C820.3,520.9,819.8,520.6,819.2,520.2z"/>
<path class="st2" d="M706,705.5c0.8-0.4,1.5-0.5,2.6-0.7c-0.1,1.5-0.6,3.2-1.4,5c-0.5-0.6-0.8-1.4-1.2-2.5
	C706,706.6,706,706.2,706,705.5z"/>
<path class="st72" d="M854.8,481.7c-12.9,0.4-25.9,0.5-38.8,0.2c-2.8-0.1-5.6-1.5-8.5-2.6c14.1-0.3,28.4-0.4,42.6-0.3
	C851.7,479.1,853.2,480.5,854.8,481.7z"/>
<path class="st61" d="M778.6,357.5c0.5,0.5,0.8,0.9,1.5,1.7c4.6,0.9,8.7,1.3,13,2.1c0.7,1.8,1.2,3.4,1.7,4.9
	c-2.1-0.1-4.3-0.1-6.4-0.4c-7.5-1.1-7.5-1.1-9.9,6.9c-5.5,1.7-10.5,3-16,4.4c-10.5,1.3-20.6,2.6-31.1,4c-14,1.8-27.6,3.5-41.1,5.6
	c-2.2,0.3-4.2,2.1-6.8,3.3c-1.8,0.1-3.1,0.2-4.9,0.2c-5.3-0.3-10-0.6-15.2-1c-6.7-1.2-13.1-2.5-19.4-3.6
	c-16.4-2.8-32.9-5.6-49.5-8.6c-4.7-8.7-9.1-17.2-13.5-26c0.1-0.2,0.1-0.7,0.1-0.7c22.8,0.2,45.5,0.6,68.3,0.7
	c27.6,0.1,55.3,0,82.9,0.1c11.8,0.1,23.6,0.1,35.3,1C771.2,352.4,774.7,355.5,778.6,357.5z"/>
<path class="st73" d="M580.9,351.2c4.4,8.5,8.9,17,13.7,26.1c3.2,5,5.7,9.6,8.9,13.9c4.2,5.7,9.9,9.1,17.6,9.2
	c7,1.4,13.7,3.7,20.3,3.5c10.9-0.2,21.7-2,32.6-2.6c-1.4,9.5-2.8,18.7-4.1,27.8c-12.1,2.8-24.3,5.7-36.4,8.3
	c-9.6,2-19.2,4.5-28.9,5.1c-4.7,0.3-10.5-2.2-14.4-5.3c-6.9-5.4-12.6-12.2-18.9-18.4c-3.2-3.2-6.4-6.3-10-10
	c-5.7-5.9-7.5-12-3.3-18.9c5.9-14.2,11.8-28.3,17.9-42.8c1.4,0.7,2.5,1.7,4.1,3.1C580.4,350.8,580.6,351,580.9,351.2z"/>
<path class="st74" d="M809,339.4c-4.4,0.4-8.8,0.5-13.6,0.5c0.1-2.8-1.3-6.6,3.6-6.9C807.2,332.4,807.2,332.3,809,339.4z"/>
<path class="st75" d="M580.9,350.9c-0.3,0.1-0.5-0.1-0.8-0.6c0.1-0.2,0.2-0.2,0.7-0.2C581.1,350.3,581,350.7,580.9,350.9z"/>
<path class="st37" d="M1277.7,397.7c0.1-0.4,0.4-0.7,0.7-1c0,0.4,0.1,0.8-0.1,1.3C1278.2,398.2,1277.9,397.9,1277.7,397.7z"/>
<path class="st76" d="M1370.3,413.3c-0.1-0.4,0.2-0.5,0.6-0.8c28.8,0,57.4,0.3,86.1,0.4c32.6,0.1,65.3,0.1,97.9,0
	c20.1,0,40.3-0.3,60.9-0.3c-0.3,5.2-1.1,10.3-1.9,15.9c-19.5,0.5-39,0.6-58.5,0.6c-59.8,0-119.5-0.1-179.8-0.2
	c-0.5-3.2-0.1-6.5-0.9-9.5C1374.2,417.2,1372,415.4,1370.3,413.3z"/>
<path class="st77" d="M778.1,457.5c0.4,1.5,0.7,2.5,1,3.9c-12.9,4.7-26.1,7.2-39.7,6.4c-7.8-0.5-15.6-2.4-23.8-3.7
	c0.1-8-2.6-14.2-10.2-17.8c1.3-2,2.8-3.4,3.4-5.2c2.9-8.8,5-17.9,8.5-26.4c2.1-5.2,1.5-8.9-1.9-12.6c-2.4-2.7-5-5.3-7.1-7.9
	c8.6-0.7,16.2-3,23-8.3c0.5-0.2,0.7-0.5,0.7-0.8c0,0,0,0,0.4,0c5.8-1.2,11.1-1.8,14.7,4.2c0.3,0.5,0.6,0.7,0.9,0.8
	c0,0,0-0.1-0.1,0.3c0.5,2.3,0.8,4.3,1.5,6.1c4.2,11.7,10.2,22.8,9.6,35.8c-0.2,3.4,2.7,3.1,4.7,2.6c5.1-1.4,10.1-3.2,15.1-4.9
	C778.6,439,778.3,448,778.1,457.5z"/>
<path class="st78" d="M1047.4,413c0.1,5-0.2,10-0.6,15.4c-34.5,0.5-68.9,0.6-103.4,0.6c-42.4,0-84.9-0.1-127.3-0.2
	c-2.1,0-4.3-0.3-6.8-1c-1.1-5.3-1.8-10.1-2.5-14.9c4.4,0,8.9-0.1,13.3-0.1C895.8,412.8,971.4,412.9,1047.4,413z"/>
<path class="st79" d="M779,429.7c-5.2,1.9-10.1,3.7-15.2,5.2c-1.9,0.5-4.8,0.9-4.7-2.6c0.6-13-5.4-24.1-9.6-35.8
	c-0.7-1.9-1-3.8-1.2-6c2.5,1.5,4.4,3.7,6.8,5.1c5.8,3.6,10.8,1.5,12.6-5c0.4-1.6,0.9-3.1,1.7-4.6c4.1,3.1,7.8,6.1,11.5,9.1
	c4.8,5.1,8.2,10.8,8.4,18.7c-3.2,5.5-6.3,10.3-9.3,15C779.7,429,779.4,429.2,779,429.7z"/>
<path class="st80" d="M780.5,428.9c2.6-4.8,5.7-9.5,8.9-14.6c2.8-0.8,5.5-1.2,8.4-1c-0.5,5.6-1.3,10.6-2,15.5
	C790.8,428.8,785.9,428.8,780.5,428.9z"/>
<path class="st21" d="M796.2,428.8c0.3-5,1-10,1.8-15.3c2.7-0.4,5.4-0.5,8.4-0.5c1.1,4.8,1.8,9.5,2.5,14.7
	C804.8,428.3,800.7,428.6,796.2,428.8z"/>
<path class="st12" d="M1253,422c0,0-0.3,0.3-0.3,0.3s0-0.3,0.1-0.3C1253,422,1253,422,1253,422z"/>
<path class="st81" d="M1614.6,359.2c0.4,2,0.4,4,0.4,6.4c-21.2,0.5-42.3,0.5-63.5,0.5c-58.5,0-116.9,0-175.9,0
	c-0.8-2.1-1.1-4.1-1.6-6.5c17.4-0.4,34.9-0.5,52.3-0.5C1489,359.1,1551.5,359.1,1614.6,359.2z"/>
<path class="st82" d="M1614.6,386.1c0.4,2,0.4,4,0.4,6.4c-14.1,0.5-28.3,0.5-42.4,0.5c-64.6,0-129.1,0-194.2-0.1
	c-1.1-2-1.7-4-2.3-6.4c0.8-0.4,1.6-0.5,2.4-0.5C1457,386,1535.5,386,1614.6,386.1z"/>
<path class="st83" d="M1046.6,386.1c0.4,2,0.4,4,0.4,6.5c-19.5,0.5-38.9,0.5-58.4,0.5c-59.9,0-119.8,0-180.1-0.5
	c-0.5-2.5-0.5-4.5-0.5-6.5c3.3-0.1,6.7-0.1,10-0.1C894,386,970.1,386,1046.6,386.1z"/>
<path class="st84" d="M1046.6,359.2c0.4,2,0.4,4,0.4,6.4c-50.9,0.5-101.8,0.5-152.7,0.5c-28.4,0-56.9,0-85.8-0.5
	c-0.5-2.4-0.5-4.3-0.5-6.3c17.8,0.2,35.6,0.5,53.4,0.5C923,359.6,984.5,359.3,1046.6,359.2z"/>
<path class="st66" d="M781.1,394.8c-4-2.7-7.7-5.7-12-9c-2.4-3.2-4.3-6-6.2-8.8c5-1.3,10-2.6,15.4-4c1.1,12.8,1.1,12.8,13.8,13
	c1,0,2,0.1,3.4,0.5c0.1,2.5-0.3,4.5-0.7,6.5C790.5,393.5,785.9,394,781.1,394.8z"/>
<path class="st85" d="M807.5,359.2c0.5,2,0.5,3.9,0.5,6.3c-4.2,0.7-8.4,0.9-12.9,0.9c-0.8-1.8-1.4-3.3-2-5.4c-0.1-0.9-0.1-1.3,0-1.6
	C797.8,359.3,802.4,359.2,807.5,359.2z"/>
<path class="st86" d="M795.4,393.1c-0.1-2.1,0.3-4.1,0.7-6.5c3.7-0.4,7.3-0.5,11.4-0.5c0.5,2.1,0.5,4.1,0.5,6.5
	C804,393.1,799.9,393.1,795.4,393.1z"/>
<path class="st87" d="M792.7,359.3c0.4,0.5,0.4,0.8,0.3,1.4c-4.1-0.2-8.2-0.6-12.6-1.3C784.1,359.2,788.2,359.2,792.7,359.3z"/>
<path class="st88" d="M529.4,380.1c-15.4-1.2-30.3,1.1-45.1,3.3c-2.1,0.3-4.2,0.5-6.8,0.8c-4.2-2.3-5.4-5.9-4.1-9.9
	c1.4-4.3,5.3-4.2,9.1-4.4c14.6-0.6,29.2-1.4,43.9-1.8c2.8-0.1,7.1,0.5,8.2,2.3c2.1,3.6-0.5,6.8-4,8.9
	C530.2,379.5,530,379.7,529.4,380.1z"/>
<path class="st89" d="M557.6,390c-3.8,6.8-2.1,12.9,3.4,18.6c-6.3,3.3-13.1,4.3-20.5,3.4C545.7,404.7,551.5,397.4,557.6,390z"/>
<path class="st79" d="M707.9,394.2c2.5,2.6,5.1,5.2,7.6,7.9c3.4,3.8,4,7.5,1.9,12.6c-3.5,8.5-5.6,17.6-8.5,26.4
	c-0.6,1.8-2.2,3.3-3.7,5c-9.2-1.7-18.1-3.1-26.7-5.4c-5.1-1.3-8.4-5.2-8.6-11.3c1.3-9.5,2.7-18.6,4.2-28.3c0.3-0.9,0.5-1,1.2-1.1
	c8,1.6,12.6-3.7,18.1-7.9C698.5,392.7,703.2,393.4,707.9,394.2z"/>
<path class="st90" d="M620.7,400.1c-7.4,0.1-13-3.3-17.3-9c-3.1-4.2-5.7-8.8-8.6-13.6c16.3,2.5,32.8,5.2,49.2,8
	c6.3,1.1,12.7,2.4,19.3,3.9c-5,1.8-10.3,3.3-15.7,4.5C638.7,396.1,629.7,398.1,620.7,400.1z"/>
<path class="st91" d="M621,400.3c8.6-2.3,17.6-4.2,26.6-6.4c5.4-1.3,10.7-2.8,16.1-4.5c4.9,0,9.7,0.3,14.9,1
	c-0.9,3.4-2.3,6.5-3.6,9.5c-0.3,0.1-0.5,0.3-0.9,0.7c-11,1.3-21.9,3-32.7,3.2C634.7,404,628,401.7,621,400.3z"/>
<path class="st92" d="M762.5,377c2.4,2.8,4.2,5.6,6.3,8.6c-0.3,1.8-0.7,3.4-1.2,5c-1.8,6.5-6.8,8.6-12.6,5c-2.3-1.5-4.3-3.6-6.7-5.5
	c-0.3-0.1-0.3-0.1-0.4-0.3c-0.3-0.4-0.6-0.6-0.9-0.8c-3.5-5.8-8.8-5.1-14.6-4.4c-0.4-1.5-0.5-2.6-0.5-3.7
	C742,379.6,752,378.3,762.5,377z"/>
<path class="st93" d="M731.5,381c0.4,1.1,0.5,2.2,0.5,3.7c0,0.4,0,0.4-0.2,0.5c-0.4,0.3-0.6,0.5-0.7,0.8c-6.5,5.3-14.1,7.6-22.7,8.3
	c-5.1-0.7-9.8-1.4-15.3-2.1c-3.6-0.7-6.3-1.5-9-2.2c2.1-1.1,4.1-2.9,6.4-3.2C703.9,384.5,717.5,382.8,731.5,381z"/>
<path class="st94" d="M683.6,389.9c3.1,0.7,5.9,1.4,9,2.2c-4.7,4.2-9.3,9.5-17.3,7.9c1-3.1,2.3-6.2,3.8-9.6
	C680.5,390,681.8,390,683.6,389.9z"/>
<path class="st79" d="M747.2,389.2c0.1,0,0.4,0.1,0.8,0.6C747.8,389.9,747.5,389.7,747.2,389.2z"/>
<path class="st92" d="M731.3,385.8c-0.1-0.2,0.1-0.4,0.5-0.7C732,385.3,731.8,385.5,731.3,385.8z"/>
</svg>
