<?xml version="1.0" encoding="utf-8"?>
<!-- Generator: Adobe Illustrator 26.1.0, SVG Export Plug-In . SVG Version: 6.00 Build 0)  -->
<svg version="1.1" id="katman_1" xmlns="http://www.w3.org/2000/svg" xmlns:xlink="http://www.w3.org/1999/xlink" x="0px" y="0px"
	 viewBox="0 0 448.7 108.7" style="enable-background:new 0 0 448.7 108.7;" xml:space="preserve">
<style type="text/css">
	.st0{fill:#718096;}
	.st1{fill:#FFFFFF;}
	.st2{fill:#A0AEC0;}
	.st3{enable-background:new    ;}
</style>
<path class="st0" d="M7.7,43.4c1,0.2,1.3,0.1,1.4-0.6l0.2,0.1l-0.6,2.8l-0.2-0.1c0.2-0.6,0-1-1-1.2L1.4,43l-0.3,1.2
	c-0.2,1,0,1.6,0.8,1.9l-0.1,0.2L0,45.9l0.1-0.2c0.1-0.1,0.3-0.2,0.3-0.4c0.1-0.2,0.2-0.5,0.3-0.7l1-4.2c0.1-0.4,0.1-0.9,0-1.3v-0.2
	l1.8,0.4v0.2c-0.7,0-1.2,0.2-1.5,1.4l-0.3,1.2L7.7,43.4L7.7,43.4z"/>
<path class="st0" d="M8.1,34.4l2.1,1c0.9,0.4,1.2,0.3,1.6-0.3l0.2,0.1l-1.3,2.7l-0.2-0.1c0.3-0.6,0.2-1-0.8-1.4l-4.5-2.2
	c-0.9-0.4-1.2-0.4-1.6,0.2l-0.2-0.1l1.3-2.6l0.2,0.1c-0.3,0.6-0.2,1,0.8,1.4l2.1,1l1.9-4l-2.1-1c-0.9-0.4-1.2-0.4-1.5,0.2l-0.2-0.2
	l1.2-2.6l0.2,0.1c-0.3,0.6-0.1,1,0.8,1.4l4.6,2.2c0.9,0.4,1.2,0.4,1.6-0.3l0.2,0.1L13.2,33l-0.3-0.2c0.3-0.5,0.2-0.9-0.8-1.4l-2.1-1
	L8.1,34.4L8.1,34.4z"/>
<path class="st0" d="M17.7,21.1l-0.2,0.2c-0.6-0.4-0.8-0.3-1.3,0.4l-1.3,1.6l2.2,1.9c0.3,0.2,0.5,0.2,0.8-0.1l0.9-1
	c0.8-0.9,0.9-1.2,0.4-2.2l0.2-0.2l0.9,1.2l-3.8,4.5L16.5,27c0.4-0.5,0.4-0.8-0.4-1.5l-3.9-3.3c-0.8-0.6-1.1-0.6-1.6-0.1L10.4,22
	l3.7-4.5l1,0.9l-0.1,0.1c-0.8-0.4-1-0.3-1.6,0.4L12,20.7l2.6,2.2l1.4-1.8c0.4-0.4,0.4-0.6,0-1.2l0.2-0.2L17.7,21.1z"/>
<path class="st0" d="M32.8,12c-0.1,1-0.7,2-1.7,2.5c-1.2,0.8-2.8,0.5-3.6-0.7c-0.1-0.1-0.1-0.2-0.2-0.3l-2-3.5c-0.5-1-0.9-1-1.4-0.6
	l-0.1-0.2l2.6-1.4l0.1,0.2c-0.6,0.3-0.6,0.6-0.2,1.6l2,3.6c0.4,1,1.5,1.4,2.5,1c0.1,0,0.2-0.1,0.3-0.2c0.8-0.5,1.3-1.3,1.4-2.2
	l-2.4-4.3c-0.4-0.8-0.8-1-1.4-0.8l-0.1-0.2L31.2,5l0.1,0.2c-0.6,0.3-0.6,0.7-0.2,1.6l2.5,4.4c0.5,1,0.9,1,1.4,0.6l0.1,0.2l-1.8,1
	L32.8,12L32.8,12z"/>
<path class="st0" d="M45.7,8.8h-0.2l-7.3-5.4h0l1.4,5.5c0.2,0.8,0.6,1,1.3,0.8v0.2l-2.4,0.6l-0.1-0.2c0.6-0.2,1-0.4,0.6-1.6
	l-1.2-4.6c-0.2-0.9-0.6-1.3-1.5-1.2l-0.1-0.2l2-0.5l6.5,4.8h0.1l-1.2-4.6c-0.3-1-0.6-1.2-1.3-1l-0.1-0.2l2.4-0.6l0.1,0.2
	c-0.8,0.2-1,0.6-0.7,1.5L45.7,8.8L45.7,8.8z"/>
<path class="st0" d="M52.3,6.6c0,1,0.3,1.2,1,1.2v0.3l-2.9,0.2V8c0.6,0,0.9-0.3,0.8-1.3l-0.2-5c-0.1-1-0.3-1.3-1-1.2l-0.1-0.3
	L52.8,0l0,0.3c-0.6,0-0.9,0.4-0.8,1.3L52.3,6.6L52.3,6.6z"/>
<path class="st0" d="M60.5,8.7h-0.2l-1.6-6.8c-0.2-1-0.4-1.5-1.2-1.6V0l2.9,0.4v0.2c-0.6-0.1-0.9,0.2-0.7,0.8l1.2,5.4l2.6-4.8
	c0.3-0.6,0.3-1.1-0.5-1.2L63,0.7L65.3,1v0.2c-0.6,0-1.1,0.3-1.7,1.4L60.5,8.7L60.5,8.7z"/>
<path class="st0" d="M73.2,8.8L73,8.7c0.1-0.8,0-0.8-0.8-1.1l-1.9-0.7l-1,2.7c-0.2,0.4-0.1,0.6,0.3,0.7l1.3,0.5
	c1.1,0.4,1.4,0.4,2.2-0.4l0.2,0.1l-0.8,1.3l-5.5-2l0.1-0.2c0.6,0.2,1,0.2,1.3-0.9L70.2,4c0.3-1,0.2-1.3-0.4-1.5l0.1-0.2l5.5,2
	l-0.5,1.3l-0.2-0.1c0.2-0.9-0.1-1-0.9-1.3l-2.2-0.8l-1.2,3.3l2.1,0.8c0.5,0.2,0.8,0.2,1.1-0.4L73.8,7L73.2,8.8L73.2,8.8z"/>
<path class="st0" d="M82.4,8.3l0.8,0.5c0.9,0.5,1.3,1.5,0.8,2.4c0,0.1-0.1,0.1-0.1,0.2c-0.5,0.9-1.6,1.1-2.4,0.6
	c-0.1,0-0.1-0.1-0.2-0.1l-0.9-0.6L82.4,8.3L82.4,8.3z M80.2,11.6l0.6,0.3c1.2,0.8,0.6,2.7,0.8,5l1.4,0.9l0.2-0.2c-1-0.8,0-3.4-0.8-5
	c0.9,0.4,2,0,2.5-0.8c0.6-0.9,0.4-2.2-1.1-3.3l-2.8-1.8l-0.2,0.3c0.6,0.3,0.7,0.6,0.1,1.5l-2.8,4.2c-0.6,0.9-1,0.9-1.4,0.6l-0.2,0.2
	l2.4,1.6L79,15c-0.6-0.4-0.6-0.8-0.1-1.6L80.2,11.6L80.2,11.6z"/>
<path class="st0" d="M93.1,19l-0.2-0.2c0.7-0.7,0.6-1.8-0.1-2.4c0,0,0,0,0,0c-0.6-0.6-1.4-0.7-1.9-0.2c-1.1,1,0.1,2.8,0.1,4.4
	c0,0.6-0.2,1.2-0.6,1.6c-0.9,0.9-2.4,0.9-3.3,0c-0.4-0.5-0.7-1.1-1-1.6c-0.1-0.1-0.2-0.1-0.4,0l-0.2-0.2l1.6-1.5l0.2,0.2
	c-0.8,0.8-0.8,2,0,2.8c0.5,0.6,1.4,0.8,2,0.3c0,0,0.1-0.1,0.1-0.1c1-1-0.1-3-0.1-4.3c0-0.6,0.2-1.3,0.7-1.7c0.8-0.8,2.1-0.8,2.9,0
	c0,0,0.1,0.1,0.1,0.1c0.3,0.4,0.6,0.9,0.8,1.3c0.1,0.1,0.2,0.1,0.3,0l0.2,0.2L93.1,19z"/>
<path class="st0" d="M93.8,27.7c-0.8,0.5-1,0.9-0.5,1.5l-0.2,0.2l-1.7-2.4l0.2-0.2c0.4,0.6,0.8,0.6,1.6,0l4.1-2.9
	c0.8-0.6,1-1,0.5-1.5l0.2-0.2l1.7,2.4l-0.2,0.2c-0.4-0.6-0.8-0.6-1.6,0L93.8,27.7L93.8,27.7z"/>
<path class="st0" d="M97.8,35c-0.9,0.4-1,0.6-0.8,1.3l-0.2,0.1l-1.2-2.6l0.2-0.1c0.2,0.5,0.5,0.8,1.5,0.3l5.6-2.6l-0.5-1.1
	c-0.4-1-1-1.3-1.8-1l-0.1-0.2l1.7-0.8l0.1,0.2c0,0.2,0,0.3,0,0.5c0,0.3,0.1,0.5,0.3,0.7l1.8,3.8c0.1,0.4,0.4,0.8,0.8,1l0.1,0.2
	l-1.7,0.8l-0.1-0.1c0.6-0.4,0.9-0.9,0.3-2l-0.6-1.1L97.8,35L97.8,35z"/>
<path class="st0" d="M101,44.8c-1,0.2-1.2,0.5-1.1,1.1L99.7,46L99,43.1l0.2-0.1c0.2,0.6,0.4,1,1.4,0.7l2.5-0.5l2.3-2.2
	c0.8-0.7,0.9-1,0.8-1.6l0.2-0.1l0.6,3.1l-0.2,0.1c-0.2-0.9-0.5-0.9-0.9-0.5l-2.1,2l2.2,0.8c0.7,0.2,1.3,0.2,1.2-0.5h0.2l0.4,2.2
	l-0.2,0.1c-0.2-0.6-0.4-0.8-1.2-1.1l-3.2-1.2L101,44.8L101,44.8z"/>
<path class="st0" d="M5,65.3c2.2-0.6,4.1,0.1,4.6,1.9c0.4,1.6-0.5,3.3-3,4c-1.9,0.6-4,0.1-4.6-1.9C1.5,67.6,2.7,66,5,65.3 M4.7,64.1
	c-2.3,0.6-3.7,3-3.1,5.3s3,3.7,5.3,3.1c2.3-0.6,3.7-3,3.1-5.3c0,0,0-0.1,0-0.1c-0.5-2.2-2.8-3.6-5-3.1C4.8,64.1,4.7,64.1,4.7,64.1"
	/>
<path class="st0" d="M7.9,79.8c-0.9,0.5-1,0.9-0.6,1.4l-0.2,0.1l-1.4-2.6l0.2-0.1c0.3,0.6,0.7,0.6,1.6,0.2l4.4-2.5
	c0.9-0.5,1-0.8,0.6-1.4l0.2-0.1l2.8,4.8l-1.2,0.7l-0.1-0.2c0.8-0.6,0.7-0.9,0.3-1.7l-1-1.8l-3,1.6l1,1.9c0.3,0.5,0.6,0.6,1.3,0.3
	l0.1,0.2l-2,1.2l-0.1-0.2c0.4-0.2,0.6-0.7,0.5-1.1c0,0,0-0.1-0.1-0.1l-1-1.8L7.9,79.8L7.9,79.8z"/>
<path class="st0" d="M23.5,95.4l-0.2-0.1c0.3-0.6,0.3-0.8-0.4-1.3l-1.5-1.3l-1.9,2.2c-0.2,0.3-0.2,0.5,0.1,0.8l1.1,0.8
	c1,0.8,1.2,0.9,2.2,0.4l0.2,0.2l-1.2,1l-4.5-3.7l0.1-0.2c0.5,0.4,0.8,0.4,1.5-0.4l3.2-3.9c0.6-0.8,0.6-1.2,0.1-1.6l0.2-0.2l4.5,3.7
	l-0.9,1L26,92.8c0.4-0.8,0.2-1-0.4-1.6l-1.8-1.4l-2.1,2.6l1.8,1.4c0.4,0.3,0.6,0.4,1.2-0.1l0.2,0.2L23.5,95.4L23.5,95.4z"/>
<path class="st0" d="M32.6,95.7l1.4,0.6c2.3,1.1,2.4,3.2,1.6,5c-1,2-2.6,2.8-4.4,1.9l-0.8-0.3c-0.6-0.3-0.8-0.6-0.3-1.8L32.6,95.7
	L32.6,95.7z M29,100.9c-0.4,1-0.8,1-1.4,0.8l-0.1,0.2l3.5,1.6c2.9,1.3,4.8,0.2,5.7-1.7c1-2.1,0.1-4.5-2-5.5
	c-0.1-0.1-0.3-0.1-0.4-0.2l-3.4-1.6l-0.1,0.2c0.6,0.3,0.7,0.6,0.3,1.5L29,100.9L29,100.9z"/>
<path class="st0" d="M43.3,106c-0.2,1,0,1.3,0.6,1.4l-0.1,0.2l-2.8-0.6l0.1-0.2c0.6,0.2,0.9-0.1,1.2-1l1.1-4.9
	c0.2-1,0.1-1.3-0.6-1.4l0.1-0.2l2.8,0.6l-0.1,0.2c-0.7-0.1-1,0.1-1.2,1L43.3,106L43.3,106z"/>
<path class="st0" d="M57.9,108.6h-0.2l-5.8-7l0,0l0.1,5.7c0,0.8,0.3,1.1,1.1,1.1v0.2h-2.4v-0.2c0.6,0,1-0.2,1-1.4v-4.8
	c0-0.9-0.3-1.4-1.2-1.5v-0.2h2.1l5.1,6.2l0,0l-0.1-4.7c0-1-0.3-1.3-1-1.3v-0.2h2.4v0.2c-0.8,0-1,0.3-1,1.3L57.9,108.6z"/>
<path class="st0" d="M66.4,102.8l-0.9-3.3l0.8-0.2c0.9-0.3,1.9,0.2,2.2,1.1c0.3,0.9-0.2,1.9-1.1,2.2c0,0-0.1,0-0.1,0L66.4,102.8
	L66.4,102.8z M66.1,105.8c0.3,1,0.1,1.3-0.6,1.5l0.1,0.2l3.6-1c1.4-0.4,2.3-1.4,2-2.6c-0.4-1.1-1.5-1.8-2.6-1.7
	c1-0.6,1.3-1.3,1.1-2.2s-1.4-1.7-3.2-1.1l-2.9,0.8l0.1,0.2c0.6-0.2,1,0,1.2,1L66.1,105.8L66.1,105.8z M66.4,103.1l0.7-0.2
	c1.4-0.4,2.5,0.1,2.8,1.3c0.3,0.8-0.1,1.7-0.9,2c-0.1,0-0.1,0-0.2,0.1l-0.6,0.2c-0.6,0.2-0.8,0-1.2-1.1L66.4,103.1z"/>
<path class="st0" d="M82.8,99.2c-0.1,1.1-0.8,2-1.7,2.5c-1.2,0.8-2.8,0.5-3.6-0.7c-0.1-0.1-0.1-0.2-0.2-0.3l-2-3.4
	c-0.6-1-0.9-1-1.4-0.6l-0.1-0.2l2.5-1.5l0.1,0.2c-0.6,0.3-0.6,0.6-0.2,1.6l2.1,3.5c0.4,1,1.5,1.4,2.5,1c0.1-0.1,0.2-0.1,0.3-0.2
	c0.8-0.5,1.3-1.4,1.3-2.3l-2.4-4.2c-0.5-0.8-0.8-1-1.4-0.6l-0.2-0.2l2.5-1.4l0.1,0.2c-0.6,0.3-0.6,0.7-0.2,1.6l2.6,4.3
	c0.5,1,0.9,1,1.4,0.6l0.1,0.2l-1.7,1L82.8,99.2L82.8,99.2z"/>
<path class="st0" d="M86.1,88.2l0.6-0.6c0.6-0.8,1.8-0.9,2.6-0.3c0.1,0,0.1,0.1,0.2,0.2c0.7,0.6,0.8,1.7,0.2,2.5
	c-0.1,0.1-0.1,0.1-0.2,0.2l-0.7,0.7L86.1,88.2z M89,91.1l0.4-0.5c1-1.1,2.7-0.1,5.1,0.2l1.2-1.2l-0.2-0.2c-1,0.9-3.3-0.7-5.1-0.2
	c0.6-0.8,0.5-1.9-0.2-2.6c-0.8-0.8-2.1-0.9-3.4,0.4l-2.3,2.4l0.2,0.2c0.5-0.4,0.8-0.5,1.6,0.2l3.6,3.6c0.8,0.8,0.7,1.1,0.3,1.6
	l0.2,0.2l2-2.1l-0.2-0.2c-0.5,0.5-0.8,0.4-1.6-0.2L89,91.1L89,91.1z"/>
<path class="st0" d="M102.2,79.8c-0.3,0.7-0.6,1.4-1,2c-1.8,3-4.3,2.9-5.9,2c-2.1-1.2-2.8-3.8-1.7-5.8c0,0,0,0,0,0
	c0.6-1,1.2-1.2,1.4-1.7c0.1-0.1,0.2-0.3,0-0.5c0,0,0,0,0,0l0.2-0.2l2,1.2L97.2,77c-1.2-0.5-2.6,0-3.3,1.2c-0.8,1.4-0.3,3.2,1.7,4.4
	s4.2,1,5.2-0.7c0.3-0.5,0.6-1.2,0-1.6l-0.8-0.4c-0.8-0.5-1.2-0.5-1.6,0.1l-0.2,0.3L98.1,80l1.7-2.8l0.2,0.1c-0.4,0.7-0.2,1,0.4,1.4
	L102.2,79.8L102.2,79.8z"/>
<path class="st0" d="M102,70.5l2.2,0.6c0.9,0.3,1.3,0.1,1.5-0.6l0.2,0.1l-0.8,2.8l-0.2-0.1c0.2-0.6,0.1-1-1-1.2l-4.9-1.4
	c-1-0.2-1.3-0.2-1.5,0.6l-0.2-0.1l0.8-2.8l0.2,0.1c-0.2,0.6,0,1,1,1.2l2.2,0.6l1.2-4.2l-2.2-0.6c-1-0.3-1.3-0.1-1.5,0.6l-0.2,0
	l0.8-2.8l0.2,0.1c-0.2,0.6,0.1,1,1,1.2l4.8,1.4c0.9,0.3,1.3,0.2,1.5-0.5l0.3,0.1l-0.8,2.8l-0.2-0.1c0.2-0.6,0.1-1-1-1.2l-2.3-0.6
	L102,70.5L102,70.5z"/>
<path class="st0" d="M4.3,55.1c0,0.4-0.3,0.7-0.7,0.7c0,0,0,0-0.1,0c-0.4,0-0.7-0.3-0.7-0.7c0-0.4,0.3-0.7,0.7-0.7c0,0,0,0,0,0
	C4,54.4,4.3,54.7,4.3,55.1"/>
<path class="st0" d="M105.4,55.1c0,0.4-0.3,0.7-0.7,0.7c0,0,0,0-0.1,0c-0.4,0-0.7-0.3-0.7-0.7c0-0.4,0.3-0.7,0.7-0.7c0,0,0,0,0,0
	C105.1,54.4,105.4,54.7,105.4,55.1"/>
<path class="st0" d="M74.9,91.8c0.6-0.3,1.1-0.6,1.6-1l1.4-0.8l1.2-1l1.3-1l0.3-0.3l0.3-0.2c0.4-0.3,0.8-0.6,1.1-1l0.8-0.8l1-0.8
	c0.1-0.1,0.2-0.2,0.3-0.4s0.5-0.5,0.7-0.7l0.5-0.6c0.5-0.5,1-1.1,1.5-1.7l1.1-1.4c0.2-0.4,0.5-0.7,0.8-1l0.4-0.4l1.2-1.7
	c0.1-0.2,0.2-0.4,0.3-0.6c0.1-0.1,0.2-0.3,0.3-0.4c0.1-0.2,0.2-0.3,0.2-0.5l0.8-1.4c0.2-0.3,0.4-0.7,0.6-1.1s0.3-0.8,0.4-1.1
	s0.4-0.8,0.6-1.2c0.6-1.7,1.2-3.4,1.8-5.1c0-0.2,0-0.5,0.1-0.7c0.2-0.6,0.3-1.3,0.4-1.9l0.1-1c0.1-0.6,0.2-1.1,0.3-1.7l0.1-1.3
	l0.1-0.5l0.1-1.1l0.1-0.6V56c0.1-1.7,0.1-3.5,0.1-5.2c-0.1-0.9-0.2-1.8-0.4-2.6s-0.2-1.8-0.3-2.7c-0.5-2.3-1.2-4.6-2-6.9
	c-0.2-0.3-0.3-0.7-0.4-1c-0.3-0.6-0.6-1.2-0.9-1.9l-0.3-0.5c-0.2-0.6-0.5-1.1-0.7-1.7c-0.2-0.3-0.4-0.6-0.6-0.9l-0.5-1
	c-0.6-1-1.2-1.9-1.8-2.8l-0.7-0.8l-0.8-1c-0.3-0.2-0.5-0.5-0.7-0.8c-0.2-0.2-0.2-0.4-0.3-0.5s-0.4-0.4-0.6-0.6L85.4,25
	c-0.3-0.3-0.6-0.6-0.9-1l-0.8-0.8l-0.8-0.8l-1.1-0.8l-1.1-1c-0.2-0.2-0.5-0.3-0.8-0.5l-1-0.7c-0.2-0.2-0.5-0.3-0.7-0.6l-0.5-0.3
	l-0.7-0.5c-0.8-0.4-1.6-0.9-2.4-1.2c-0.3-0.2-0.6-0.4-0.9-0.6c-0.5-0.2-1-0.5-1.5-0.8L71.1,15c-0.2-0.1-0.4-0.2-0.6-0.3L70,14.5
	c-0.3-0.1-0.6-0.1-0.8-0.3c-0.8-0.3-1.6-0.5-2.4-0.7c-0.4-0.1-0.8-0.3-1.2-0.4c-0.8-0.2-1.7-0.4-2.6-0.6c-0.6-0.2-1.2-0.3-1.7-0.4
	L60.2,12c-0.7-0.2-1.3-0.3-2-0.3h-0.8l-0.5-0.1h-1c-0.8-0.1-1.6-0.1-2.4-0.1c-0.4,0.1-0.7,0.1-1.1,0h-1.1c-0.1,0-0.2,0-0.3,0h-0.9
	l-0.5,0.1l-0.5,0.1c-0.1,0-0.3,0-0.4,0c-0.1,0-0.2,0-0.3,0c-0.2,0-0.4,0-0.5,0.1c-0.4,0-0.9,0.1-1.3,0.2c-0.1,0-0.2,0-0.3,0
	c-0.3,0-0.5,0-0.8,0.1c-0.6,0.1-1.2,0.2-1.8,0.4c-0.3,0-0.7,0.1-1,0.3c-0.3,0-0.6,0.1-0.8,0.2c-0.4,0.1-0.8,0.2-1.1,0.4
	c-0.2,0.1-0.5,0.1-0.6,0.2c-0.4,0-0.8,0.2-1.1,0.4l-0.7,0.3c-1.3,0.6-2.6,1.1-3.8,1.8c-0.2,0.2-0.4,0.3-0.6,0.4
	c-1.5,0.8-2.9,1.7-4.2,2.7c-0.4,0.3-0.8,0.5-1.2,0.8c-0.2,0.2-0.4,0.3-0.6,0.5c-0.4,0.3-0.8,0.5-1.1,0.8c-0.7,0.6-1.4,1.3-2.1,2
	c-0.4,0.4-0.9,0.8-1.3,1.1c-0.1,0.2-0.3,0.3-0.4,0.5c-0.2,0.2-0.4,0.4-0.6,0.6s-0.5,0.7-0.8,1c-0.3,0.2-0.5,0.5-0.8,0.8l-0.3,0.4
	c-0.5,0.5-0.9,1-1.2,1.5l-0.8,1.3c-0.4,0.5-0.8,1.1-1.1,1.6c-0.1,0.2-0.2,0.4-0.2,0.5L16.4,34c-0.2,0.5-0.4,1-0.6,1.4l-0.2,0.4
	c-0.2,0.4-0.4,0.8-0.6,1.2c-0.1,0.3-0.2,0.5-0.3,0.8c-0.1,0.3-0.3,0.5-0.4,0.8L14,39.5c-0.2,0.3-0.2,0.6-0.4,1
	c-0.6,2.1-1.2,4.2-1.6,6.4l-0.1,1.2c-0.1,0.5-0.2,1-0.3,1.4c0,0.4,0,0.7-0.1,1.1c0,0.3-0.1,0.6-0.1,0.9c-0.1,1.8,0,3.5,0,5.1
	c0,0.8,0.2,1.7,0.2,2.5l0.1,1c0.1,1.1,0.3,2.2,0.5,3.3c0.1,0.3,0.2,0.6,0.2,0.8c0.2,0.8,0.4,1.7,0.6,2.5l0.2,0.6
	c0,0.2,0.1,0.4,0.1,0.6l1,2.7c0.2,0.4,0.3,0.6,0.5,1c0.1,0.2,0.2,0.5,0.2,0.7c0.2,0.6,0.5,1.1,0.9,1.7c0.2,0.4,0.5,0.9,0.7,1.4
	c0,0.2,0.1,0.3,0.2,0.5c0,0.1,0.2,0.2,0.2,0.3s0.2,0.4,0.2,0.6c0.2,0.4,0.5,0.8,0.8,1.1l0.5,0.6c0.2,0.3,0.5,0.6,0.7,0.8l0.5,0.7
	c0.3,0.4,0.6,0.7,1,1.1c0.3,0.3,0.5,0.6,0.8,1s0.6,0.6,1,1c0.2,0.4,0.5,0.7,0.8,1c0.4,0.4,0.8,0.8,1.2,1.2l0.6,0.6
	c0.4,0.3,0.8,0.5,1.1,0.8l1,1l0.7,0.5c0.3,0.3,0.5,0.5,0.9,0.8l1.1,0.8c0.3,0.1,0.5,0.2,0.8,0.4c0.3,0.2,0.6,0.4,0.9,0.6l0.9,0.5
	c1.1,0.6,2.2,1.2,3.4,1.8c0.5,0.2,1,0.6,1.6,0.7s1,0.4,1.5,0.6c0.2,0.1,0.4,0.1,0.6,0.2c0.5,0.2,1,0.4,1.4,0.6l0.4,0.1
	c0.4,0.2,0.8,0.3,1.3,0.5l1.6,0.3c0.8,0.2,1.6,0.4,2.4,0.5c0.3,0,0.6,0.1,0.9,0.1c0.4,0.1,0.8,0.1,1.2,0.2l1,0.1l0.6,0.1
	c0.2,0,0.4,0.1,0.6,0.1c0.5,0.1,1,0.2,1.4,0.2c0.3,0,0.5,0,0.8,0l0.4-0.1c0.5,0,1,0.1,1.5,0.1c0.3,0,0.5,0,0.8,0
	c0.5,0,1.1,0,1.6-0.2h0.8c0.3-0.1,0.7-0.1,1-0.1c1.2-0.1,2.3-0.2,3.4-0.4c0.4-0.1,0.8-0.2,1.1-0.3L65,96c0.2-0.1,0.5-0.2,0.7-0.3
	c0.4-0.1,0.8-0.2,1.1-0.3l0.5-0.2l0.8-0.2c0.6-0.2,1.1-0.4,1.7-0.6l1-0.5c0.3-0.2,0.7-0.3,1-0.4l0.3-0.2c0.3-0.2,0.7-0.3,1-0.5
	l1.2-0.7C74.4,92.1,74.6,92,74.9,91.8"/>
<path class="st1" d="M53.7,93.6L53.7,93.6L53.7,93.6c-0.1,0-0.1,0-0.1-0.1l-0.4-0.7l-0.9-1c-0.9-0.9-1.9-1.6-3-2.1l-0.7-0.2
	c-0.2-0.1-0.5-0.2-0.8-0.3c-0.3-0.1-0.5-0.1-0.8-0.2c-0.3-0.1-0.5-0.2-0.8-0.2l-1.7-0.4c-0.6-0.1-1.1-0.2-1.7-0.2
	c-0.4,0-0.9,0-1.3,0c-2-0.2-4-0.4-6-0.7c-0.7-0.1-1.3-0.1-2-0.2c-0.7-0.1-1.3-0.3-1.9-0.5c-0.3-0.1-0.7-0.2-1-0.3
	c-0.3-0.2-0.6-0.3-1-0.4s-0.5-0.2-0.7-0.3c-0.2-0.1-0.3-0.2-0.5-0.3c-0.1-0.1-0.2-0.2-0.2-0.3c-0.5-0.5-1-1-1.4-1.5
	c-0.3-0.4-0.5-0.9-0.6-1.4c0-0.3-0.1-0.5-0.2-0.8c-0.2-1.1-0.3-2.3-0.3-3.5c0-0.2,0-0.5,0-0.7c0-0.9,0.1-1.8,0.1-2.7v-0.6v-2.7
	c0-0.6,0.1-1.2,0-1.8c0-2.4,0-4.9,0.1-7.4l-0.1-1v-1.1v-0.5l0.2-1.7c0-0.4,0-0.9,0-1.3s0.1-0.6,0-0.9c0-0.3-0.1-0.5-0.1-0.8
	c0-0.2,0.1-0.5,0-0.7v-1.5c0-0.3,0-0.6,0-0.9c0-0.3-0.1-0.7-0.1-1c0-0.4,0-0.8,0.1-1.2c0-0.4,0-0.8,0-1.2v-2.6v-0.5l0-1.1l0.1-1
	c0-1.6,0-3.2,0.1-4.7v-1.5c0-0.4-0.1-0.7-0.1-1.1c0-0.3,0.1-0.5,0-0.8v-4c0-0.5,0-0.9,0-1.4v-1.6v-1.1c-0.1-0.3-0.1-0.7,0-1
	c0-0.1,0.1-0.1,0.2-0.1c0.7-0.1,1.3-0.2,2-0.1c0.7,0.1,1.4,0.1,2.2,0h2c0.4,0,0.8,0,1.2-0.1c0.8,0,1.4,0,2.2,0h3.5
	c0.4,0,0.7,0,1.1,0c0.3,0,0.6,0.1,1,0.1h1.1c0.6,0,1.3,0,1.9,0l0.8,0.1c0.9,0,1.8,0,2.7-0.1l1.8,0.1c0.5,0,1-0.1,1.5-0.1h1.1h1
	l1.2,0.1c0.3,0,0.6,0,0.9,0l1.8,0.1c0.3,0,0.5,0,0.8-0.1c1.6,0,3.1,0,4.7,0l1-0.1c0.7,0,1.4,0,2.2,0c0,0,0.2,0,0.4,0
	c0.6,0.1,1.3,0,2,0c0.3,0,0.5,0.1,0.8,0.1c0.3,0,0.6,0,0.9,0c0.4,0,1,0.1,1.4,0.1s0.7-0.1,1-0.1l0.7,0.1h1l0.7,0.1h0.6
	c0.2,0,0.4,0,0.7,0h0.6l1.1,0c0.6,0,1.2,0,1.9,0l0.9-0.1c0.2,0,0.4,0.1,0.6,0c0.2,0,0.4,0,0.6,0l0,0c0.1,0.2,0,0.6,0,0.8
	c0,0.8,0,1.6,0,2.5c0,0.5,0,1.1,0,1.6v0.5c0,0.4,0,0.8,0,1.1l-0.1,1.1l0.3,1.5l-0.1,0.6c0,0.3,0,0.7,0.1,1l-0.1,1v1.2l-0.1,0.9
	l0.1,1.4c-0.1,0.2-0.1,0.3-0.1,0.5c0,0.4,0,0.8,0,1.2c0,0.7,0.1,1.4,0.1,2.1l-0.1,0.4c0,0.3,0,0.6,0,1s-0.1,0.8-0.1,1.2
	s0.1,0.6,0.1,0.8l-0.1,0.5c0,0.2,0,0.4,0,0.6c0,0.8-0.1,1.4-0.1,2.2c0,0.4,0,0.8,0,1.1l0.1,0.4v0.8v0.5l-0.1,0.8
	c0,0.4,0.1,0.8,0.1,1.2c0,1.1-0.1,2.1-0.1,3.2c0,0.5,0.1,0.8,0.1,1.2c0,0.2-0.1,0.5-0.1,0.7c0,0.5,0,1,0,1.5v0.8c0,1,0,2.1,0,3.1
	c0,0.8-0.1,1.5-0.1,2.2l0.1,1.2c0,0.2,0,0.3,0,0.4v0.8v2c0,0.8,0,1.6,0,2.4v0.6l0.1,0.4c0,0.5,0,1-0.1,1.4s0,0.8,0,1.2
	c0,0.2-0.1,0.5-0.2,0.8c0,0.3,0,0.5-0.1,0.8c-0.1,0.5-0.4,1.1-0.6,1.5c-0.2,0.3-0.5,0.6-0.8,0.8c-0.2,0.2-0.4,0.3-0.5,0.4
	c-0.3,0.3-0.6,0.5-1,0.8c-0.2,0.1-0.5,0.2-0.7,0.3c-0.5,0.2-1,0.4-1.4,0.6S75.4,86,75,86.2l-0.3,0.1c-0.3,0-0.5,0.1-0.8,0.2
	c-0.2,0-0.4,0-0.6,0.1c-0.3,0-0.5,0.1-0.8,0.2c-0.1,0.1-0.2,0.1-0.2,0.1c-0.1,0-0.3,0-0.4,0.1c-0.3,0-0.7,0.1-1,0.2
	c-0.2,0-0.4,0-0.6,0c-0.1,0-0.3,0-0.4,0.1c-0.2,0-0.4,0-0.6,0.1h-0.3c-0.2,0-0.3,0-0.4,0.1c-0.1,0-0.3,0-0.4,0.1
	c-0.3,0-0.6,0-0.9,0.1h-0.3c-0.3,0-0.6-0.1-0.8,0c-0.1,0-0.3,0-0.4,0h-0.2c-0.3,0-0.5,0-0.8,0c-0.1,0-0.2,0-0.3,0h-0.2
	c-0.1,0-0.1,0-0.2,0h-0.3c-0.1,0-0.3,0-0.4,0.1h-0.3c-0.2,0-0.3,0-0.5,0.1c-0.2,0-0.3,0-0.5,0.1c-0.1,0-0.3,0-0.4,0.1
	c-0.1,0-0.2,0-0.3,0.1h-0.2c-0.2,0-0.4,0.1-0.6,0.2c-0.1,0-0.2,0-0.4,0c-0.4,0-0.7,0.1-1,0.3c-0.3,0.1-0.5,0.2-0.8,0.3
	c-0.5,0.1-1,0.4-1.4,0.8c-0.3,0.3-0.7,0.4-1,0.7c-0.8,0.9-1.4,2-1.8,3.2"/>
<path class="st0" d="M57.9,88.2c0.2-0.1,0.4-0.2,0.7-0.3c0.5-0.1,1-0.2,1.4-0.3c0.9-0.2,1.8-0.4,2.6-0.6h0.6
	c0.4-0.1,0.7-0.2,1.1-0.2l1.4-0.1c0.6,0,1.1-0.2,1.7-0.2l1.5-0.1c0.4-0.1,0.9-0.2,1.4-0.2c0.1,0,0.3,0,0.4,0c0.7-0.1,1.4-0.3,2-0.4
	c0.2-0.1,0.4-0.1,0.6-0.2c0.6-0.2,1.3-0.4,1.9-0.7c0.5-0.1,1-0.3,1.5-0.5c0.4-0.2,0.8-0.5,1.2-0.8c0.8-0.4,1.5-1,2-1.7
	c0.2-0.4,0.3-0.8,0.4-1.2c0-0.2,0-0.4,0-0.6c0.1-0.8,0.2-1.7,0.1-2.6c0-0.3,0-0.6,0-0.9c0-0.2,0-0.3,0-0.5v-1l-0.1-0.4v-0.7
	c0-0.2,0-0.4,0-0.6s-0.1-0.4-0.1-0.6s0-0.5,0-0.8c0-1,0-2,0-2.9v-0.7V66c0.1-2.3,0-4.8,0.1-7.2c0-0.3,0-0.5,0-0.8c0-0.1,0-0.1,0-0.2
	c0-0.2,0-0.4,0-0.6c0-0.1,0-0.3,0-0.4c0-0.2,0.1-0.4,0.1-0.6c0-0.4-0.1-0.8-0.1-1.2c0-0.3,0-0.6,0.1-0.8c0-0.1,0-0.3,0-0.4l0.1-0.4
	l-0.1-0.5l0.1-0.6c0-0.2-0.1-0.3-0.1-0.5v-3c0-0.2,0.1-0.4,0.1-0.6s-0.1-0.4-0.1-0.6l0.1-0.3l0.1-1v-1.6l-0.1-0.5
	c0-0.4,0.1-0.8,0.1-1.2L80.5,42c0-2.4-0.1-4.7,0-7.1c0-1.3,0-2.6,0-4c0-0.7,0-1.5,0-2.2s0-1.3,0-2c0-0.1-0.3,0-0.4,0H78
	c-0.4,0-0.9-0.1-1.4-0.1c-0.2,0-0.3,0-0.4,0l-0.5,0.1L75,26.6h-2.6c-0.3,0-0.7,0-1,0h-1.3c-0.4-0.1-0.8-0.1-1.2,0
	c-0.1,0-0.2,0-0.3,0c-0.3,0-0.7,0-1,0c-0.5,0-1-0.1-1.5-0.1s-0.9-0.1-1.3,0.1c-0.1,0-0.2,0-0.3,0h-1.1c-0.2,0-0.4,0-0.6,0
	c-0.1,0-0.3,0-0.4,0c-0.3,0-0.6-0.1-0.9-0.1h-2.3c-0.3,0-0.7,0-1,0c0,0.1,0,0.1-0.2,0.1c-0.1,0-0.2,0-0.3,0c-0.5-0.1-1-0.1-1.5-0.1
	c0,0-0.1,0-0.2,0c-0.2,0-0.3,0-0.5,0.1H52h-0.8c-0.2,0-0.3-0.1-0.4,0c-0.3,0-0.6,0-0.8,0c-0.5-0.1-1-0.1-1.6,0h-0.8
	c-0.2-0.1-0.4-0.1-0.5,0c-0.2,0-0.5,0-0.7,0c-0.5,0-0.8-0.1-1.3-0.1c-0.1,0-0.3,0-0.5,0c-0.3,0-0.6,0-0.9,0h-1.2c-0.2,0-0.4,0-0.6,0
	c-0.5,0-1.1,0-1.6,0c-0.4-0.1-0.9-0.1-1.3,0c-0.4,0-0.8,0-1.2,0c-0.7,0-1.3,0-2-0.1c-0.3-0.1-0.6-0.1-0.9,0c-0.2,0-0.3,0-0.4,0
	c-0.3-0.1-0.6-0.1-0.9,0c-0.3,0-0.5,0-0.8,0c-0.9,0-1.8,0-2.8-0.1c-0.3,0-0.6,0-0.9,0c-0.4-0.1-0.9-0.1-1.4,0c-0.2,0-0.6-0.1-0.6,0
	c-0.2,0.3-0.1,1.3-0.1,1.6v2.6l-0.1,2.9c0,0.3-0.1,0.5-0.1,0.7v0.7l-0.1,0.7c0.1,0.5,0.1,1,0.1,1.5c0,0.8-0.1,1.8-0.1,2.6
	c0,0.4,0,0.7,0,1c0,0.1,0,0.2,0,0.3c0,0.2-0.1,0.4-0.1,0.6c0,1.5,0,3,0,4.5v2c0,0.3-0.1,0.7-0.1,1v1.4v3c0,0.3,0,0.7,0,1L26.6,56
	v5.4c0,0.4-0.1,0.8-0.1,1.3V64c0,0.2,0,0.4,0,0.6c0,1.6-0.1,3.1-0.1,4.8c0,0.7-0.1,1.4-0.1,2.1v1l0.1,0.4l-0.1,0.4
	c0,0.4,0,0.7,0,1.1c0,0.4,0,0.9,0,1.4c0,0.2,0.1,0.4,0.1,0.6s-0.1,0.3-0.1,0.6s0.1,0.4,0.1,0.7c-0.2,1.8,0.1,3.6,0.9,5.2
	c0.7,1,1.7,1.9,2.8,2.3c0.7,0.4,1.4,0.6,2.2,0.8c0.6,0.2,1.1,0.2,1.7,0.3l1.4,0.2c0.5,0,0.9,0.1,1.3,0.1c1,0.1,1.9,0.3,2.9,0.4
	c0.5,0,1,0.1,1.4,0.1c0.2,0,0.4,0.1,0.6,0.2h1.1l1.2,0.1c0.2,0,0.4,0,0.6,0c0.2,0,0.4,0.1,0.5,0.2l1.4,0.2l0.5,0.2
	c0.3,0.1,0.7,0.2,1,0.3c0.5,0.2,1,0.3,1.4,0.5l1,0.5l0.6,0.3c0.4,0.2,0.7,0.4,1.1,0.6c0.4,0.4,0.7,0.8,1.1,1.2
	c0.1,0.2,0.2,0.3,0.4,0.4c0,0.1,0,0,0.1,0s0.2-0.2,0.2-0.2l0.2-0.3c0.8-1.2,2-2.1,3.3-2.7C57.4,88.4,57.6,88.3,57.9,88.2"/>
<path class="st1" d="M58.1,31.3L58.1,31.3L58,31c0.1-0.4,0.4-0.6,0.6-0.8C59,30.5,58.4,31.1,58.1,31.3"/>
<path class="st1" d="M60,28.2c0.1-0.2,0.3-0.4,0.4-0.6l0.4-0.4c0.3,0,0.5,0.1,0.8,0.1v0.1c-0.4,0-1.4,1.3-1.7,1.7
	c-0.1,0.2-0.2,0.5-0.4,0.6c-0.1,0-0.2,0-0.3-0.1c-0.3-0.2-0.1-0.4,0-0.6c0-0.1,0.1-0.2,0.1-0.3c0.1-0.1,0.2-0.1,0.3-0.2
	C59.7,28.4,59.8,28.3,60,28.2"/>
<path class="st1" d="M57.5,29.1c0.1-0.2,0.1-0.4,0.2-0.6s0.4-0.3,0.6-0.5s0.2-0.4,0.3-0.5c0.1-0.1,0.3-0.2,0.5-0.3h0.5
	c0,0.2-0.3,0.4-0.4,0.5c-0.1,0.2-0.2,0.4-0.3,0.6c-0.2,0.2-0.3,0.4-0.4,0.6s-0.2,0.3-0.3,0.5s-0.2,0.2-0.3,0.2
	c-0.1,0.1-0.2,0.2-0.2,0.2l-0.2,0.2c-0.2,0.2-0.2,0.5-0.3,0.6c-0.2,0.2-0.5,0.2-0.8,0.2h-0.1c0.2-0.4,0.4-0.7,0.6-1
	c0.1-0.1,0.2-0.1,0.4-0.2c0-0.1,0.1-0.2,0.1-0.4C57.3,29.3,57.4,29.3,57.5,29.1"/>
<path class="st1" d="M54.7,28.6c0-0.2,0.2-0.3,0.3-0.5s0-0.4,0.2-0.6s1.1,0,1.4-0.2h0.6v0.1c0,0,0,0,0,0.1c-0.2,0.4-0.5,0.9-0.6,1.3
	l-0.3,0.5L56,29.8c-0.2,0.4-0.6,1-1.1,1c0,0,0-0.4,0-0.4c-0.1-0.2-0.1-0.3-0.1-0.5c0-0.2,0.2-0.4,0.2-0.6
	C54.8,29.1,54.7,28.8,54.7,28.6"/>
<path class="st1" d="M51.7,27.3c0.2-0.2,0.6-0.1,0.9-0.1c0.4,0.1,0.7,0.1,1.1,0.1v0.5c0,0.1,0.1,0.3,0.1,0.4l-0.1,0.4
	c0,0.6-0.1,1.2-0.1,1.8l0.1,1.1l0,0l0,0c-0.5,0-1-1.4-1.2-1.8s-0.3-0.3-0.4-0.5C51.7,28.8,51.3,27.8,51.7,27.3"/>
<path class="st1" d="M48.6,27.6c0.1-0.2,0.6-0.2,0.9-0.4s0.5,0,0.6,0.1c0.5,0.3,0.8,1,1,1.5l0.5,1l0.3,0.5c0.1,0.2,0.1,0.4,0.1,0.5
	c0,0.2,0,0.4-0.1,0.5c-0.1,0.1-0.3,0.1-0.4,0c-1-1.1-2-2.3-2.9-3.6v0"/>
<path class="st1" d="M47.2,27.3c0.2,0.1,0.5,0.2,0.6,0.3c0.3,0.3,0.6,0.6,0.8,1c0.1,0.2,0.2,0.4,0.3,0.5c0.2,0.2,0.4,0.4,0.6,0.6
	c0.2,0.2,0.3,0.4,0.5,0.6l0.2,0.3l0.4,0.3c0.2,0.2,0.4,0.5,0.6,0.8c-0.1,0-0.1,0.1-0.1,0.1c-0.2,0-0.4,0-0.6-0.2L49.7,31
	c-0.2-0.2-0.4-0.2-0.5-0.4c-0.2-0.4-0.5-0.7-0.8-1.1c-0.2-0.2-0.4-0.2-0.6-0.4v0c-0.2-0.2-0.3-0.5-0.4-0.7S47,28,46.8,27.8v-0.1
	C46.8,27.4,47,27.4,47.2,27.3"/>
<path class="st1" d="M55.6,35.1c0.1,0,0.2,0,0.3,0c0.4,0.2,0.6,0.6,0.5,1c-0.1,0.2-0.3,0.3-0.4,0.5c-0.1,0-0.3,0.2-0.4,0.2
	s-0.2-0.5-0.1-0.6s0.2-0.2,0.2-0.4S55.5,35.3,55.6,35.1"/>
<path class="st1" d="M56.1,33.5c-0.2,0.1-0.3,0.3-0.4,0.3s-0.3-0.3-0.5-0.5s-0.5-0.2-0.5-0.5c0-0.2,0.2-0.2,0.2-0.2l0,0
	c0.2,0.1,0.4,0.2,0.6,0.3c0.3,0.1,0.5,0.2,0.8,0.3c0,0,0,0.1,0,0.2C56.3,33.4,56.2,33.5,56.1,33.5"/>
<path class="st1" d="M55.6,38.1c-0.1,0.3-0.6,0.4-0.9,0.2s0.3-0.6,0.4-0.7C55.3,37.7,55.6,37.9,55.6,38.1"/>
<path class="st1" d="M54,37.9c-0.1,0-0.2-0.1-0.2-0.1c-0.1,0-0.2-0.1-0.3-0.1c-0.1-0.2-0.2-0.5-0.2-0.7c0-0.2,0-0.3,0-0.5
	c0-0.1,0.2-0.2,0.3-0.2c0.1,0,0.2,0,0.3,0.1c0.3,0.3,0.6,0.6,0.9,0.9C54.8,37.4,54.2,37.9,54,37.9"/>
<path class="st1" d="M58.4,35.5c0,0.3-0.1,0.5-0.4,0.6c0,0.1-0.2,0-0.2,0C57.8,35.9,58.1,35.7,58.4,35.5L58.4,35.5z"/>
<path class="st1" d="M57.7,35c-0.1,0.1-0.2,0.2-0.3,0.2s-0.2-0.1-0.2-0.2c0-0.5,0-1,0-1.5c0-0.1,0.2-0.2,0.3-0.3
	c0.3,0.1,0.3,0.3,0.4,0.5C58,34.2,58.1,34.7,57.7,35"/>
<path class="st1" d="M57.2,37.2L57.2,37.2c0,0.2-0.5,0.5-0.6,0.3s0.1-0.4,0.2-0.6C56.9,37,57.1,37,57.2,37.2"/>
<path class="st1" d="M53.8,33.3h0.4c0.2,0.1,1,0.7,0.9,1s-0.3,0.4-0.5,0.6c-0.2,0.2-0.5,0.4-0.7,0.4c-0.3,0-0.6-1.2-0.6-1.4
	C53.3,33.6,53.5,33.4,53.8,33.3L53.8,33.3"/>
<path class="st1" d="M52.9,36.3c-0.2,0.2-0.3,0.3-0.5,0.3s-0.2-0.1-0.4-0.2c-0.3-0.3-0.4-0.6-0.3-1l0.2-0.3c0.1-0.3,0.1-0.3,0.3-0.6
	c0.3,0.1,1.3,0.8,1.2,1.2C53.3,36,53.1,36.2,52.9,36.3"/>
<path class="st1" d="M53.1,38.3L53.1,38.3c0,0.1-0.2,0-0.2,0c-0.6-0.1-1.2-0.3-0.8-1c0.1,0,0.2,0,0.2,0s0.2,0.2,0.3,0.4
	S53.1,38,53.1,38.3"/>
<path class="st1" d="M50.5,33.6c0.1-0.1,0.3-0.3,0.4-0.4l0,0c0.5,0.3,0.8,0.8,0.3,1.4c-0.1,0.1-0.2,0.2-0.4,0.2
	c-0.4,0.1-0.2-0.5-0.3-0.7C50.6,33.9,50.6,33.8,50.5,33.6"/>
<path class="st1" d="M51.3,32.9v-0.1c0.1,0,0.2,0,0.2-0.1c0.4,0,0.8-0.2,1.2-0.3c0.1,0,0.3,0,0.4,0.2c0.2,0.3-0.8,1-1,1
	S51.6,33.1,51.3,32.9"/>
<path class="st1" d="M50.8,36c0.1,0,0.2,0,0.2,0s0.8,0.7,0.8,1s-0.5,0.6-0.7,0.6s-0.2-0.1-0.2-0.2C50.7,37,50.6,36.5,50.8,36"/>
<path class="st1" d="M50,35.5c-0.3,0.1-0.3-0.6-0.3-0.8C50,34.8,50.6,35.4,50,35.5"/>
<path class="st1" d="M54.6,74.4c0.3-0.5,0.6-1,1-1.4c0-0.1,0.1-0.2,0.2-0.2l0,0h0.5c-0.3,0.6-0.6,1.1-1.1,1.6
	C55.1,74.5,54.9,74.5,54.6,74.4L54.6,74.4L54.6,74.4z"/>
<path class="st1" d="M49,74.3c-0.3,0.1-0.5,0.1-0.8,0c0-0.3,1.4-1.3,1.7-1.6h0.6C50.1,73.3,49.6,73.9,49,74.3"/>
<path class="st1" d="M59.1,81.7c-0.2,0.1-0.6-0.1-0.7-0.3c-0.1-0.2-0.2-0.4-0.3-0.6c-0.1-0.4-0.2-0.7-0.4-1.1
	c-0.2-0.3-0.2-0.5-0.2-0.8c0-0.2,0.2-0.2,0.3-0.3c0.1,0,0.2,0.1,0.2,0.2l0.2,0.3l0.3,1.1c0.1,0.4,0.3,0.8,0.5,1.2
	C59,81.4,59.3,81.6,59.1,81.7"/>
<path class="st1" d="M57.9,72.7c0.2,0.3,1.2,1.4,1.2,1.7c0,0.1-0.1,0.1-0.2,0.1h-2.7l0,0l0,0c0-0.2,0.1-0.2,0.2-0.3
	c0.2-0.4,0.8-1.3,0.8-1.6c0-0.1-0.1-0.2-0.2-0.2c-0.5-0.1-1-0.1-1.5,0c-0.3,0-0.8-0.1-1.1,0c-0.5,0-2.2-0.2-2.4,0.2
	c-0.1,0.1,0,0.2,0.1,0.3c0.2,0.4,0.5,0.8,0.8,1.1c0.2,0.2,0.3,0.4,0.4,0.6l0,0c0,0-0.1,0-0.1,0c-1,0-2.1-0.1-3.1-0.1l0,0
	c0,0,1.5-1.8,1.7-2l0,0c-0.2,0-0.4-0.1-0.6-0.1l-1-0.1c-0.8,0-1.8,0-2.7-0.1c0.5-0.6,1-1.1,1.5-1.6c1.1-1.1,2.2-2.2,3.4-3.4
	c0.4-0.4,0.8-0.8,1.2-1.2c0.2-0.1,0.2-0.2,0.4-0.3v-0.1c0.2,0.2,0.5,0.4,0.6,0.6c0.4,0.3,0.6,0.7,1,1c0.2,0.2,0.4,0.4,0.6,0.6
	c1,1,2,1.9,3,2.9c0.4,0.4,0.9,0.8,1.2,1.3h-0.2h-1c-0.1,0-0.2,0-0.4,0c-0.4-0.1-0.9,0-1.3,0.1C57.6,72.4,57.8,72.6,57.9,72.7"/>
<path class="st1" d="M47.3,77c0.2-0.3,3,0,3.5,0c0.8,0,1.5-0.1,2.1-0.1c1,0,2,0.1,3,0.1h1.6c1.2,0,2.4,0,3.6,0l0,0
	c0.1,0,0.1-0.3,0.1-0.4v-2.3c0-0.5,0-1,0.1-1.6c0.6,0.3,0.5,1.1,0.6,1.8v1.3l-0.1,0.7c0.1,0.4,0.1,0.7,0,1.1v0.1l0,0
	c0,0-0.2,0-0.3,0h-1.8c-0.3,0-0.6,0-0.8,0c-0.2,0-0.5,0-0.7,0c-0.7,0-1.3,0-2-0.1c-0.3,0-0.7-0.1-1,0c-0.5,0-1,0-1.5,0
	c-0.1,0-0.2,0-0.3,0c-0.3,0-0.9-0.1-1.1,0c-0.2,0-0.3,0-0.5,0h-1.5c-0.3,0-0.6,0-0.9,0h-0.3c-0.1,0-0.2,0-0.3,0
	c-0.6,0-1,0.1-1.2-0.4C47.3,77.2,47.3,77.1,47.3,77"/>
<path class="st1" d="M61.6,86.3c-0.1,0.2-0.5,0.2-0.6,0.2v-2.9c0-0.3,0-0.6,0-0.8c0-0.1,0.1-0.2,0.2-0.2c0.2,0,0.3,0,0.5,0
	c0.1,0,0.1,0.4,0.1,0.5c0,0.2,0,0.4,0,0.6c0,0.3-0.1,0.6,0,1S61.7,86.1,61.6,86.3"/>
<path class="st1" d="M72.8,85.1c-0.1,0-0.3,0-0.4,0.1c-0.3,0-0.5,0.1-0.7,0.2c-0.3,0-0.7,0.1-1,0.2L70,85.6c-0.1,0-0.3,0-0.4,0
	c-0.1,0-0.2,0-0.3,0c-0.1,0-0.2,0.1-0.2,0.1s-0.5,0-0.6,0.1c-0.1,0-0.2,0-0.3,0c-0.4-0.1-0.7,0-1.1,0.1c-0.2,0-0.3,0-0.4,0
	c-0.2,0-0.3,0-0.4-0.1c0,0.1-0.4,0.2-0.5,0.2c-0.3,0-0.5,0-0.8,0c-0.1,0-0.2,0-0.3,0c-0.3,0-0.5,0-0.8,0.1c-0.2,0-0.3,0-0.5,0.1
	c-0.2,0-0.9,0.1-1-0.1s-0.1-2.6-0.1-3v-0.6c0-0.2,0.1-1-0.3-0.9c-0.3,0-0.6,0-0.9,0c-0.2,0-0.9,0-1-0.1s-0.4-1.1-0.5-1.5
	c-0.3-0.5-0.5-1.1-0.6-1.6c0-0.1,0-0.1,0-0.2c0.1-0.2,0.6-0.1,0.8-0.1c0.4,0,2.4,0,2.6-0.3c0.1-0.3,0.1-0.7,0-1c0-0.3,0-0.7,0-1.1
	c-0.1-0.6,0-1.1,0.1-1.7c1.3,1.4,2.7,2.7,4,4c0.1,0.1,0.2,0.3,0.3,0.5c0.3,0.3,0.7,0.6,1,0.9c0.9,0.9,1.8,1.9,2.7,2.8l2.1,2
	c0.2,0.2,0.3,0.3,0.4,0.4c0,0.1,0,0.3-0.2,0.3c0,0,0,0,0,0"/>
<path class="st1" d="M70.3,49.6l0.6-0.7c0.2-0.2,0.5-0.5,0.8-0.6c0.3-0.4,0.6-0.7,1-1s0.8-0.7,1.1-1L76,44c1.1-1,2.2-2.1,3.3-3.2
	c0.3-0.3,0.6-0.6,0.8-0.9c0.1,0.4,0.1,0.9,0.1,1.3c0.1,0.8,0,1.7,0,2.6l0.1,1.2c0,0.5-0.1,0.9-0.1,1.4l0.1,0.8v0.4
	c0,0.1,0,0.3,0,0.4l-0.1,0.3c-0.1,0.7-0.1,1.4-0.1,2.1l0.1,1.1l-0.1,0.6c0,0.4,0,0.9,0,1.3c0,0.1,0,0.3,0,0.5c0,0.3,0.1,0.6,0.1,0.9
	c-0.1,0.4-0.1,0.8-0.2,1.2l0.1,1.5c-0.1,0.3-0.1,0.7-0.1,1c0,0.1,0,0.2,0,0.3v1l0.1,0.7c0,0.2,0,0.3-0.1,0.5c0,0.3,0,0.7,0,1
	c0.1,0.6,0.1,1.1,0,1.7l-0.1,0.4c0,0.3,0.1,0.6,0.1,0.9l-0.1,0.5v0.5c0,0.3,0,0.5,0,0.8c0,0.2,0.2,1.6-0.1,1.6
	c-0.5-0.4-1.1-0.9-1.5-1.4l-4.5-4.5c-0.2-0.2-0.4-0.5-0.6-0.7l-0.6-0.6l-0.3-0.4c-1.4-1.4-2.9-2.9-4.3-4.2c-0.8-0.7-1.5-1.5-2.1-2.2
	v-0.1c0.2-0.4,0.7-0.8,1-1s0.6-0.6,0.8-1l0.8-0.8l0.3-0.3c0.2-0.2,0.5-0.5,0.7-0.7c0.2-0.3,0.4-0.5,0.7-0.8"/>
<path class="st1" d="M61.7,28.8c0.2-0.1,0.2-0.1,0.3-0.2c0.1-0.1,0.2-0.2,0.2-0.4c0.2-0.3,0.4-0.6,0.6-0.8l0.3-0.2
	c0.2-0.1,0.4,0,0.6,0c0.4,0,0.8,0,1.2-0.1c0.2,0,0.4,0,0.5-0.1s0.6,0,0.9,0c0.3,0.1,0.7,0.1,1,0.1c0.3,0,0.6-0.1,0.9-0.1l0.3,0.1
	c0.4,0,0.8,0,1.1-0.1l0,0l0,0c0,0.1,0,0,0,0v0.1c-0.4,0.5-0.8,0.9-1.3,1.3l-2.4,2.4c-0.2,0.2-0.4,0.3-0.6,0.5
	c-0.7,0.7-1.4,1.5-2.1,2.2l-0.8,0.8c-0.2,0.2-0.3,0.3-0.5,0.4c-0.2,0.2-0.3,0.4-0.5,0.6c-0.5,0.5-1,1-1.4,1.4
	c-0.2,0.3-0.5,0.5-0.6,0.8c-0.5,0.5-1,1-1.5,1.4c-0.8,0.8-1.7,1.7-2.6,2.5c-0.2,0.3-0.5,0.6-0.8,0.8l0,0l0,0l0,0l0,0
	c0-0.1,0-0.2,0-0.3v-0.8l0.1-0.4c0-0.3-0.1-0.5,0-0.7s0.2-0.2,0.3-0.3c0.2-0.2,0.4-0.5,0.6-0.6c0.3-0.2,0.6-0.3,0.9-0.4l0.5-0.3
	c0.4-0.2,0.8-0.5,1.2-0.9l0.2-0.5l0.3-0.4c0.1-0.2,0.1-0.4,0.2-0.7c0.1-0.3,0.2-0.6,0.2-0.8L59.2,34c0-0.4-0.2-0.7-0.5-1
	c-0.1-0.1-0.2-0.2-0.3-0.4c0,0,0-0.1,0-0.2s0.1-0.2,0.2-0.2c0.2-0.4,0.6-0.8,0.9-1.1c0.2-0.2,0.2-0.4,0.4-0.5
	c0.2-0.2,0.4-0.4,0.6-0.5c0.1-0.1,0.2-0.3,0.2-0.4c0.1-0.1,0.1-0.3,0.2-0.4c0.1-0.2,0.3-0.2,0.4-0.3L61.7,28.8"/>
<path class="st1" d="M40.1,27.2c0.4,0,0.8,0,1.2,0c0.3,0,0.6,0,0.9,0h1.6c0.1,0,0.3,0.1,0.4,0.1c0.3-0.1,0.6-0.1,0.9-0.1
	c0.3,0.2,0.6,0.4,0.9,0.7c0.4,0.4,0.8,0.8,1.2,1.2c0.3,0.3,0.5,0.6,0.8,0.9s0.7,0.6,1,1c0.2,0.2,0.3,0.4,0.5,0.6
	c0.1,0.1,0.2,0.2,0.3,0.3c0.2,0.2,0.4,0.4,0.5,0.6c-0.1,0-0.3,0.3-0.4,0.4c-0.3,0.3-0.5,0.7-0.6,1.1c-0.1,0.2-0.1,0.3-0.1,0.5
	c-0.1,0.3-0.1,0.6-0.1,0.9l0.2,0.6l0.2,0.6c0.1,0.2,0.1,0.5,0.3,0.6s0.3,0.2,0.4,0.3s0.2,0.3,0.3,0.4C50.7,38,50.9,38,51,38
	c0.2,0.2,0.4,0.3,0.6,0.4c0.3,0.1,0.5,0.3,0.8,0.5l0.4,0.6c0.2,0.1,0.3,0.3,0.5,0.5l0.2,0.5c0,0.1,0,0.3,0,0.5
	c0.1,0.4,0.1,0.8,0.1,1.2c-0.3,0-1-0.8-1.2-1L51,39.8c-0.3-0.4-0.6-0.8-1-1.1c-0.6-0.7-1.4-1.3-2-2c-0.3-0.4-0.7-0.7-1.1-1.1
	l-0.5-0.5c-1.2-1.2-2.5-2.4-3.6-3.5l-1-1c-0.7-0.7-1.3-1.4-2.1-2.1c-0.4-0.4-1.1-0.8-1.3-1.3L40.1,27.2"/>
<path class="st1" d="M32.2,64c-0.6,0.5-1,1.1-1.5,1.6L28.2,68c-0.3,0.3-0.6,0.5-0.8,0.8h0c0,0.1-0.1-0.2-0.1-0.2c0-0.3,0-0.5,0-0.8
	l0.1-2.5c0-0.6,0-1.3,0-2v-0.7c0-0.6,0.1-1.3,0-2v-0.8v-1.2v-0.8c0-0.7,0-1.4,0-2.1c0-0.2,0-0.4,0-0.6c0-0.3,0.1-0.5,0.1-0.8
	c0.1-0.6,0-1.2,0-1.7s0-0.9,0.1-1.3c0-1-0.1-1.8,0-2.8l0.1-1.3l-0.1-0.8c0-1,0-1.9,0-2.8c0-0.2,0-0.4,0-0.6c0-0.2,0.1-0.5,0-0.7
	c0-0.3,0-0.6,0-0.8c0-0.2,0.1-0.3,0.1-0.5v-1.4c0.4,0.2,0.6,0.6,1,0.8c0.6,0.6,1.3,1.2,2,1.9c0.2,0.2,0.5,0.5,0.6,0.7
	c0.5,0.5,1,1,1.5,1.4l0.4,0.5c0.3,0.3,0.6,0.6,1,0.9c0.2,0.1,0.2,0.3,0.4,0.4c0.8,0.7,1.5,1.4,2.3,2.1s1.4,1.4,2.2,2.2
	c0.4,0.4,3.3,3.1,3.1,3.5l-0.1,0.3c-0.5,0.6-1,1.2-1.6,1.7c-0.2,0.2-0.3,0.4-0.5,0.6l-3,3l-1.2,1.2c-0.1,0.1-0.2,0.2-0.3,0.3
	L32.2,64"/>
<path class="st1" d="M48,81.8c-0.5-0.1-1-0.1-1.6,0c-0.1,0.1-0.1,0.2-0.1,0.2v3c0,0.5,0,1,0,1.5c0,0.1-0.1,0.2-0.2,0.3l0,0
	c-0.3,0-0.6-0.2-0.9-0.2c-0.3,0-0.5,0-0.8,0c-0.2,0-0.4-0.1-0.6-0.1l-1.2-0.1c-0.2,0-0.3,0-0.5,0c-0.9,0-1.7-0.1-2.6-0.3
	c-0.4,0-0.8,0-1.2-0.1l-1-0.2c-0.1,0-0.3,0-0.4-0.1c-0.2,0-0.4,0-0.6,0l-1.4-0.2c-0.4,0-0.7-0.1-1.1-0.2l0,0v-0.1c0.1,0,0,0,0.1,0
	c0.3-0.3,0.6-0.7,0.9-1l0.8-0.8c0.4-0.4,0.8-0.8,1.2-1.1l0.6-0.6c0.2-0.2,0.3-0.4,0.5-0.6c1-1,2.1-2,3.1-3c0.6-0.6,1.2-1.3,1.8-1.9
	c0.9-0.8,1.8-1.7,2.6-2.6l0.7-0.8c0.1,0.5,0.1,0.9,0,1.4c0,0.5-0.1,1-0.1,1.5c0,0.3,0,0.7,0.1,1c0.1,0.2,0.3,0.5,0.4,0.7
	c0.1,0.2,0.2,0.3,0.3,0.4c0.4,0.1,0.8,0.2,1.2,0.2c0.5,0,1.1-0.1,1.6-0.1c0,0.4-0.2,0.8-0.3,1.1c-0.2,0.6-0.5,1.1-0.6,1.7
	c-0.1,0.2-0.2,0.4-0.3,0.6c-0.1,0.1-0.3,0-0.4,0.1C48.3,81.7,48.2,81.8,48,81.8"/>
<path class="st1" d="M50.6,88.5c-0.4-0.1-0.7-0.3-1.1-0.5c-0.3-0.1-0.6-0.2-0.8-0.3l0,0l0,0l0,0c0-0.1,0,0,0,0
	c0.6,0,3.1,0.1,3.4-0.2c0.1-0.1,0.1-0.6,0.1-0.8c0-1.2-0.2-2.8,1-3.4c0.2-0.1,0.4-0.1,0.5-0.2c0.3,0,1,0.1,1,0.5
	c0,0.1-0.2,0.1-0.2,0.1c-0.7,0.1-0.9,0.5-1.2,1c-0.2,0.6-0.3,1.2-0.2,1.9c0,0.6,0,1.2,0,1.8c0,0-0.4,0-0.5,0s-0.4,0.1-0.5,0.1
	L50.6,88.5"/>
<path class="st1" d="M54.8,89.2c-0.1,0.2-0.3,0.3-0.4,0.5c-0.3,0.3-0.6,0.6-0.9,1l0,0c-0.2-0.3-0.4-0.5-0.7-0.8
	c-0.3-0.3-0.6-0.5-1-0.6l0,0h0v-0.1l0,0c0-0.1,0.1,0,0.1-0.1c0.1,0,0.3-0.1,0.4-0.1c0.4,0,0.9,0,1.3,0c0-0.1,0-0.2,0.1-0.2
	c0-0.2,0.1-0.4,0.1-0.6l-0.1-0.5c0-0.2,0-0.4,0-0.5c0-0.4-0.1-0.8,0-1.2c0.1-0.2,0.1-0.4,0.2-0.6c0-0.3,0.2-0.5,0.3-0.8
	c0.2-0.2,0.4-0.2,0.6-0.3c0.1,0,0.2,0.1,0.2,0.2c0,0.3,0,0.6,0,0.8c0,0.6,0,1.3,0,1.9c0,0.1,0.2,0.3,0.2,0.4
	c0.1,0.2,0.2,0.4,0.3,0.6l0,0C55.3,88.7,55,89,54.8,89.2"/>
<path class="st1" d="M56.3,88.2C56.1,88,56,87.7,56,87.4c0.2,0,0.4,0,0.5,0h1.2v0.1c-0.1,0-0.3,0.1-0.4,0.2L56.3,88.2L56.3,88.2"/>
<path class="st1" d="M43.3,57.5c0-0.3,0.1-0.7,0.1-1l-0.1-1.2c0-0.6,0.1-1.2,0.1-1.9l-0.1-1.1c0-0.3,0-0.6,0-0.9l-0.1-0.9
	c0-0.5,0.2-0.9,0.2-1.3c0-0.3,0-0.5-0.1-0.8c0-0.2,0-0.3,0-0.5c0-0.5,0.1-1.1,0.1-1.6c0-0.4,0-0.9,0-1.3c0.4-0.7,0.9-1.2,1.6-1.7
	l0,0c0.1,0.3,0.1,0.7,0,1c0,0.4,0,0.7,0,1.1c0,0.3,0,0.5,0,0.8v1.3L45,48.3c0,0.2,0,0.5,0,0.8c0,0.6-0.1,1.4,0,2.1s-0.1,1.5-0.1,2.2
	c0,0.3,0,0.5,0,0.8c0,0.6,0,1.1,0,1.7l-0.1,0.8V58c0.1,0.6,0.1,1.2,0,1.9c-0.1,0.2-0.2,0.2-0.3,0.4l-0.3,0.5
	c-0.1,0.1-0.2,0.2-0.3,0.4c-0.2,0.2-0.2,0.5-0.4,0.7l0,0h0c0-0.7-0.1-1.4-0.1-2.2c0-0.4,0.1-0.8,0.1-1.2
	C43.4,58,43.3,57.7,43.3,57.5"/>
<path class="st1" d="M44,62.1c0.1-0.4,0.4-0.7,0.7-0.9c0.2-0.2,0.4-0.4,0.6-0.5c1.1-0.6,2.4-0.7,3.6-0.4c0.2,0.1,0.4,0.1,0.6,0.2
	c0.7,0.1,1.4,0.3,2.1,0.6c0.4,0.3,0.8,0.6,1.2,0.9c0.1,0.1,0.2,0.1,0.3,0.2c0.2,0.2,0.3,0.4,0.6,0.4s0.6-0.4,0.8-0.6
	c0.3-0.2,0.6-0.4,0.9-0.6c0.9-0.5,1.8-0.8,2.7-1.1c0.4-0.1,0.7-0.2,1.1-0.2c0.2,0,0.4-0.1,0.6-0.1h0.9c0.5,0.1,1,0.3,1.4,0.6
	l0.5,0.6c0.3,0.3,0.5,0.6,0.6,1h0c0,0.1-0.3,0-0.4,0c-0.8,0-1.6,0-2.4,0c-0.3,0-0.6,0-0.9,0.1c-0.3,0-0.6-0.2-0.9,0
	c-0.1,0-0.2,0-0.3,0c-0.3,0-0.6,0-0.9,0.1c-0.1,0-0.3,0-0.4,0.1c-0.3-0.1-0.7-0.1-1,0c0,0.1-0.2,0.1-0.3,0.1c-0.1,0-0.2,0-0.4,0
	c-0.2,0-0.4,0-0.5,0.2c-0.1,0,0,0.2,0,0.3c0,0.6-0.5,1.2-1.1,1.2c0,0,0,0,0,0c-0.5,0-1-0.4-1.1-0.9c0-0.2,0-0.4-0.1-0.6
	s-0.2-0.1-0.2-0.1h-1c-0.6,0-1.2,0-1.8-0.1c-0.2,0-0.4,0-0.5,0h-1.3c-0.2,0-0.4,0-0.6,0.1c-0.6,0-1.3-0.1-2-0.1c-0.3,0-0.5,0-0.8,0
	c-0.2,0-0.4,0-0.6-0.1c0.1,0,0.2-0.2,0.2-0.3"/>
<path class="st1" d="M64.4,47.3c0-0.3,0-0.7-0.1-1v-0.6c0-0.1,0-0.4,0-0.4h-0.1c-0.1,0.7,0,1.5-0.1,2.3c0,0.3-0.2,0.5-0.2,0.8v0.5
	c0,0.1,0,0.3,0,0.4c-0.2,0-0.3,0-0.3-0.2s0.1-0.5,0.1-0.7L63.6,48c0-0.9,0.1-1.8,0.1-2.7c0-0.1,0-0.3,0-0.5c0-0.1,0-0.2-0.1-0.2
	h-0.1l0,0h0c0,0.6-0.1,1.2-0.2,1.8c0,0.1,0,0.2,0,0.4h-0.1c-0.1-0.6-0.2-1.1-0.2-1.7c0-0.3,0-0.6,0-0.9c-0.1,0.2-0.1,0.4-0.2,0.6v1
	c0,0.3,0,0.7,0,1c-0.2,2.1-0.1,4.2-0.1,6.4c0,0.4,0,0.9,0,1.3s-0.1,0.8-0.1,1.2c0,0.6,0,1.1,0,1.7c0,0.5,0,1.1,0,1.7
	c0,0.1,0,0.3,0.1,0.3l0,0l0,0l0,0l0,0c0.1-0.3,0.1-0.7,0.1-1c0.1-0.6,0.1-1.2,0.1-1.8c-0.1-0.4-0.1-0.8,0-1.2c0-0.1,0.1-0.1,0.2-0.1
	s0.2,0.3,0.2,0.4c0,0.5-0.1,0.9-0.2,1.4v1.1c0,0.4,0,0.8,0,1.2c0,0.2,0,0.4,0,0.6c0,0.1,0.1,0.4,0.2,0.4c0-0.7,0.1-1.3,0.1-2v-0.9
	c0-0.3,0-0.6,0-0.9l0.1-0.6c0-0.3-0.1-0.6-0.1-0.8c0-0.4,0-0.9,0-1.3c0-0.2,0-0.4,0.1-0.6c0-0.1,0.2-0.2,0.2-0.2l0,0
	c0.1,0.1,0.2,0.3,0.2,0.4c0,0.5,0,1,0,1.5c0,0.2-0.1,0.3-0.1,0.5c0,0.4,0.1,0.8,0.1,1.3c0,0.2,0,0.4,0,0.5c0,0.8,0,1.4,0,2.2
	c0,0.6,0.1,1.1,0.1,1.6v0.3h0.1c0.1-0.4,0.2-0.7,0.1-1.1c0-0.4,0-0.9,0-1.3c0-0.3-0.1-0.6-0.2-0.9c0-0.3,0.1-0.6,0.1-0.9
	c0-0.5-0.1-0.8-0.1-1.3c0.1-0.5,0.1-1,0.1-1.4v-1.1l-0.1-0.5c0-0.2,0.1-0.4,0.1-0.6v-1.2v-1.8C64.3,48.7,64.3,48,64.4,47.3 M63,53.1
	c0,0-0.2,0.3-0.2,0.1c0-0.1,0-0.3,0-0.4c0-0.4,0-0.8,0-1.1v-1.5c0-0.4,0.1-0.7,0.2-1.1c0.1,0.1,0.2,0.2,0.2,0.3
	c0.1,0.4,0.1,0.9,0,1.3c0.1,0.7,0.1,1.5-0.1,2.2 M63.2,47.6c-0.3,0-0.4-0.3-0.2-0.5C63.2,47.2,63.3,47.6,63.2,47.6 M63.8,52.2h-0.1
	c-0.1-0.3-0.1-0.6-0.1-0.9c-0.1-0.4,0-0.8,0.1-1.2c0.1,0,0.2,0.1,0.3,0.2C64.1,50.5,64.1,52.3,63.8,52.2"/>
<path class="st1" d="M62,51.3l0-0.6c0-1,0-1.9,0.1-2.8v-0.9c0-0.7,0-1.4,0-2.1L62,44.2c0-0.2,0-0.5,0-0.8c0-0.1,0-0.3,0-0.3
	c-0.2-0.1-0.4-0.1-0.6-0.1c-0.3,0-0.5-0.1-0.8-0.1c-0.3,0.1-0.6,0.1-1,0.2c-1.3,0.2-2.6,0.5-3.9,1.1c-0.3,0.1-0.6,0.3-0.8,0.6
	c-0.1,0.2-0.2,0.5-0.2,0.7c-0.1,0.7-0.1,1.3-0.1,2c0,0.4-0.1,0.7-0.1,1.1c0,0.5,0,1,0,1.5l-0.1,0.6l-0.1,1.4c0,0.7,0,1.4,0,2.1
	s0,1.4,0,2c0,0.2,0,0.4,0,0.6c0,0.1,0,0.2,0,0.3c0,0.3,0.1,0.6,0.1,1c-0.1,1,0,1.9,0.3,2.8c0,0,0.2,0.2,0.2,0.1
	c0.4-0.2,0.8-0.5,1.2-0.7s0.7-0.3,1-0.5c0.3-0.3,0.8-0.4,1.2-0.4c0.3-0.1,0.5-0.2,0.8-0.2c0.1,0,0.2,0,0.3,0h0.2
	c0.6-0.1,1.2-0.1,1.7,0.1l0.6,0.2c0.1-0.6,0.1-1.2,0-1.8l0.1-1v-1.2l0.1-0.6c0-0.5,0-1,0-1.4c0-0.3,0.1-0.6,0.1-0.8
	C62.1,52.4,62.1,51.8,62,51.3 M55.2,52.7c0.9-0.8,2-1.4,3.1-1.7c0.4-0.2,0.8-0.3,1.2-0.4c0.2-0.1,0.4-0.2,0.6-0.3l0,0
	c0.2,0,0.4,0.2,0.4,0.4c0,0.2-0.1,0.4-0.3,0.5c-0.3,0.2-0.7,0.3-1.1,0.4c-0.4,0.2-0.8,0.3-1.3,0.4c-0.3,0.1-0.6,0.2-0.9,0.3
	c-0.5,0.2-1,0.5-1.5,0.8c-0.2,0.1-0.4,0.2-0.6,0.3c-0.1,0-0.1,0-0.2,0C54.6,53.1,55,52.9,55.2,52.7 M60.3,55.8
	c-0.3,0.1-0.7,0.2-1,0.3l-1,0.2c-1.1,0.3-2.1,0.7-3,1.3c-0.1,0.1-0.4,0.3-0.6,0.2s0.2-0.3,0.2-0.4c0.4-0.3,0.8-0.6,1.2-0.8
	c0.4-0.3,0.9-0.5,1.4-0.7c0.2-0.1,0.3-0.2,0.5-0.3c0.6-0.2,1.2-0.4,1.9-0.6c0.2,0,0.4,0,0.5,0.1C60.7,55.2,60.6,55.6,60.3,55.8
	 M60.4,46.6c-0.2,0.1-0.3,0.2-0.5,0.2c-0.4,0.2-0.8,0.3-1.2,0.4c-0.6,0.2-1.2,0.4-1.7,0.6l-1.2,0.6c-0.1,0-0.6,0.3-0.6,0.2l0,0
	c0.1-0.4,0.5-0.6,0.8-0.8s0.3-0.2,0.5-0.3c0.4-0.2,0.8-0.5,1.2-0.6c0.4-0.2,0.9-0.4,1.3-0.5l0.5-0.2c0.2-0.1,0.4-0.2,0.6-0.2
	c0.2,0,0.3,0,0.5,0C60.8,46.1,60.7,46.5,60.4,46.6"/>
<path class="st1" d="M53.5,46.3c-0.1-0.6,0-1.1-0.3-1.5c-0.6-0.7-1.4-1.2-2.2-1.4c-0.2-0.1-0.5-0.2-0.7-0.2L49.5,43
	c-0.4-0.1-0.8-0.2-1.3-0.2h-1.8c-0.2,0.1-0.5,0.1-0.6,0.2c-0.1,0.4-0.1,0.7-0.1,1.1c0,1-0.1,2-0.1,3c0,0.6,0,1.2,0,1.8l-0.1,1.6
	c0,0.3,0.2,0.7,0.2,1.1L45.7,54c0,0.3-0.1,0.6-0.1,1c0,0.7,0,1.3,0,2c0,0.3-0.1,0.6-0.1,1s0.1,0.6,0.1,0.9s-0.1,0.6-0.1,1H46
	c0.1-0.1,0.2-0.1,0.4-0.1c0.1-0.1,0.2-0.1,0.4-0.1c0.1,0,0.2,0,0.3,0c0.6-0.1,1.1,0,1.7,0.1c0.5,0.1,0.9,0.1,1.3,0.2
	c0.6,0.1,1.2,0.3,1.8,0.6c0.4,0.3,0.8,0.6,1.2,0.8l0,0c0.2-0.4,0.3-0.9,0.3-1.4c0.1-0.6,0.1-1.1,0.1-1.7c0-0.8,0.1-1.8,0.1-2.6v-1.1
	l0.1-3.2C53.5,49.7,53.6,47.9,53.5,46.3 M52.1,57.7c-0.6-0.3-1.3-0.6-2-0.8l-0.7-0.1l-1.1-0.2c-0.4,0-0.9-0.1-1.3-0.2l-0.2-0.1
	c-0.3-0.2-0.3-0.8,0.2-0.8l0,0c0.3,0,0.5,0.1,0.8,0.2c0.3,0,0.5,0.1,0.8,0.1l0.6,0.2c0.7,0.2,1.3,0.4,1.9,0.7
	c0.2,0.1,0.3,0.1,0.5,0.2c0.4,0.2,0.8,0.5,1.1,0.8c0.1,0.1,0.3,0.2,0.3,0.3C52.6,58.2,52.4,57.8,52.1,57.7 M53,53.6L53,53.6L53,53.6
	c-0.4,0-1.4-0.8-1.7-1s-0.8-0.3-1.2-0.5c-0.5-0.2-1.1-0.4-1.6-0.5l-0.6-0.1c-0.3,0-0.8,0-1-0.2c-0.2-0.2-0.2-0.5,0-0.7
	c0.1-0.1,0.2-0.1,0.3-0.1l0,0c1.6,0.2,3.1,0.8,4.4,1.6c0.6,0.3,1.1,0.7,1.5,1.2C53,53.3,53.1,53.6,53,53.6 M53.1,48.9
	c0,0.1-0.2,0.1-0.3,0.1c-0.2-0.1-0.4-0.2-0.6-0.3c-0.2-0.2-0.4-0.3-0.7-0.4c-1.2-0.6-2.4-1-3.7-1.3c-0.4,0-0.8-0.1-1.2-0.3
	c-0.2-0.1-0.2-0.4-0.1-0.6c0,0,0.1-0.1,0.1-0.1c0.5,0,1,0.1,1.5,0.3l0.4,0.1c0.3,0.1,0.7,0.2,1,0.3c0.2,0.1,0.5,0.2,0.8,0.3
	c0.1,0.1,0.2,0.2,0.4,0.2c0.4,0.2,0.8,0.3,1.1,0.5S53.4,48.6,53.1,48.9"/>
<path class="st2" d="M51.1,13.4c-0.6,0.1-1.1,0.2-1.7,0.2c-0.5,0.1-1,0.1-1.5,0.2c-1.2,0.2-2.3,0.5-3.5,0.7
	c-1.6,0.4-3.2,0.9-4.7,1.6c-2.8,1.1-5.5,2.5-8,4.2c-0.6,0.4-4.8,3.4-4.8,3.8l2,0.1c1.7,0.1,3.4,0,5,0l3,0.2c0.5-0.1,1-0.2,1.6-0.1
	c1.4,0,2.7,0.1,4,0.1c0.8-0.1,1.7-0.1,2.5,0h6.7l7.5,0.2c4.7,0,9.3-0.1,13.9-0.2c0.3-0.2,0.9,0,1.2,0c0.8,0,1.7,0.1,2.4,0.1
	c0.4,0,0.9,0,1.3,0c0.8,0,1.7,0.1,2.5,0.1h0.9c0.6,0-0.4-0.8-0.7-1c-0.6-0.6-1.2-1.1-1.9-1.6l-1.2-1c-0.8-0.6-1.7-1.1-2.6-1.7
	c-5.1-3.2-11-5.2-17-5.8c-1,0-1.9,0-2.8-0.1c-1.4,0.1-3,0-4.4,0"/>
<path class="st2" d="M24.7,26.2c-0.6,0.6-1.4,1.4-2,2L19.1,33c-2.4,4.2-4.2,8.8-5.1,13.6c-0.1,0.8-0.2,1.6-0.2,2.4
	c-0.4,4.2-0.4,8.5,0.2,12.7c0.2,0.6,0.3,1.3,0.5,2c0.2,1,0.4,2.1,0.7,3.1c0.4,0.8,0.6,1.7,1,2.6c0.4,1.2,1,2.4,1.6,3.5
	c1.4,2.7,3.1,5.3,5,7.8c0.3,0.4,1,1.4,1.5,1.4v-0.1c0.4-0.8,0.1-3,0.1-4c0-1.5,0-3.1,0-4.7c0-1.4-0.1-2.9,0-4.3
	c0.2-3.1,0-6.2,0.1-9.4c0-2.6,0.2-5.4,0.2-8.1s-0.1-5.3,0.1-7.8c0-0.3,0-0.6,0-0.8v-2.3c0-1.1,0.1-2.2,0.2-3.2
	c-0.1-2.2-0.1-4.6-0.2-6.9C24.6,28.7,24.8,27.1,24.7,26.2"/>
<path class="st2" d="M83.8,26.4c-0.2,1.6,0.2,4,0.1,5.7c-0.1,3.6-0.1,7.1-0.1,10.8v17.4c0,3.3-0.2,6.5,0,9.9v4c0,2.5,0.3,5-0.2,7.4
	c0,0.2-0.3,1.2-0.1,1.2c0.8,0,4.7-5.6,5.3-6.5c0.4-0.7,0.8-1.4,1.2-2.2l0.6-1.4c0.8-1.4,1.5-2.9,2.1-4.5c1-3.2,1.8-6.4,2.2-9.7
	c0.1-1.1,0.2-2.2,0.2-3.3c0-0.6,0-1.3,0-1.9c0-3.3-0.5-6.7-1.3-9.9c-0.9-2.9-2.1-5.7-3.6-8.4c-0.5-1-1.2-1.8-1.7-2.7
	C87.5,31.1,84.3,26.1,83.8,26.4"/>
<path class="st2" d="M78.4,87.1c-2.3,1.8-7,1.9-10.1,2.2c-0.8,0.1-1.6,0.2-2.3,0.3c-3.8,0.2-8.8,0.5-10.1,4.4
	c-0.1,0.3-0.2,0.6-0.3,0.9c-0.1,0.4,1.7,0,2.5,0c0.3-0.1,0.6-0.1,0.9-0.1l0.6-0.1c0.6-0.2,1.1-0.3,1.7-0.3c0.4-0.2,0.9-0.2,1.3-0.2
	c0.8-0.3,1.6-0.4,2.4-0.4c1.1-0.4,2.2-0.7,3.2-1.1c3-1.2,6.2-2.5,8.8-4.5C77.5,87.9,78,87.5,78.4,87.1"/>
<path class="st2" d="M31.2,87.9c0.6,0.8,1.6,1,2.5,1.6c0.5,0.3,1.2,0.7,1.7,1.1c1.7,0.8,3.3,1.6,5.1,2.2c2.1,0.7,4.2,1.3,6.3,1.7
	c0.8,0.2,5.8,1.1,6.1,0.6c0.3-0.8-1.4-2.7-2-3.2c-0.6-0.4-1.1-0.8-1.8-1.1c-0.6-0.3-1.2-0.5-1.9-0.6c-0.8-0.2-1.6-0.5-2.6-0.6
	c-0.9-0.1-1.7-0.2-2.6-0.2c-0.8-0.2-1.5-0.3-2.3-0.4c-1-0.2-2-0.2-3-0.2C34.9,88.3,33,88.1,31.2,87.9"/>
<path class="st0" d="M144.9,12.2H141V32c-0.1,1.1,0.1,2.2,0.6,3.1c0.6,0.6,1.4,0.9,2.2,0.8v0.8h-9.1V36c0.9,0.1,1.8-0.3,2.3-1
	c0.5-1,0.7-2,0.6-3.1V12.2h-3.7c-1.3-0.1-2.7,0.2-3.9,0.8c-0.9,0.7-1.4,1.7-1.4,2.8h-0.8V10h0.8c0.7,0.6,2,1,3.8,1h13.5
	c1.9,0,3.3-0.3,4-1h0.8v5.9h-0.5c-0.1-1.2-0.7-2.2-1.7-2.9C147.3,12.4,146.1,12.1,144.9,12.2"/>
<path class="st0" d="M174.2,31.9v-7.5h-14v7.5c-0.1,1.1,0.1,2.2,0.6,3.2c0.6,0.7,1.4,1,2.3,0.9v0.7h-9.3v-0.8
	c0.9,0.1,1.7-0.2,2.3-0.9c0.5-1,0.7-2.1,0.6-3.2v-16c0.1-1.1-0.1-2.2-0.6-3.2c-0.6-0.6-1.4-1-2.2-0.9v-0.8h9.3v0.8
	c-0.9-0.1-1.8,0.3-2.4,1c-0.5,1-0.7,2.1-0.6,3.2v7.3h14v-7.3c0.1-1.1-0.1-2.2-0.6-3.2c-0.6-0.6-1.4-1-2.2-0.9V11h9.2v0.7
	c-0.9-0.1-1.7,0.3-2.2,0.9c-0.5,1-0.7,2.1-0.6,3.2v16c-0.1,1.1,0.1,2.2,0.6,3.2c0.6,0.6,1.4,1,2.2,0.9v0.8h-9.2v-0.8
	c0.9,0.1,1.7-0.2,2.3-0.8C174.1,34.1,174.3,33,174.2,31.9"/>
<path class="st0" d="M200.6,20.7h0.8v6.2h-0.8c-0.1-0.8-0.5-1.5-1-2c-0.8-0.4-1.7-0.5-2.6-0.4h-6.4v9.2c0,0.5,0.1,1,0.4,1.4
	c0.4,0.3,0.9,0.4,1.4,0.4h4.5c1.1,0,2.3-0.1,3.4-0.3c0.6-0.2,1.1-0.5,1.5-1c0.5-0.7,1-1.5,1.4-2.4h0.8l-1.2,4.8h-18.5v-0.8
	c0.9,0.1,1.7-0.2,2.3-0.9c0.5-1,0.7-2.1,0.6-3.1v-16c0.1-1.1-0.1-2.2-0.6-3.2c-0.6-0.6-1.4-1-2.3-0.9V11h18.5v4.3h-0.5
	c-0.1-0.9-0.5-1.7-1.1-2.4c-1-0.5-2.1-0.7-3.2-0.6h-7.4v11h7.2c0.7,0.1,1.4-0.1,2-0.5C200.3,22.1,200.6,21.4,200.6,20.7"/>
<path class="st0" d="M237.2,31.3V15.8c0.1-1.1-0.1-2.2-0.6-3.1c-0.5-0.7-1.3-1-2.2-1V11h9.1v0.8c-0.9-0.1-1.7,0.3-2.2,0.9
	c-0.5,1-0.7,2.1-0.6,3.2v16c-0.1,1.1,0.1,2.2,0.6,3.2c0.5,0.7,1.4,1,2.2,0.9v0.8h-6.3v-3.6c-2.1,2.6-5.2,4.2-8.6,4.2
	c-2.4,0.2-4.7-0.7-6.4-2.4c-1.6-1.8-2.4-4.1-2.3-6.5V15.9c0.1-1.1-0.1-2.2-0.6-3.2c-0.6-0.7-1.5-1-2.4-0.9V11h9.3v0.7
	c-0.9-0.1-1.8,0.2-2.4,0.9c-0.5,1-0.7,2.1-0.6,3.2v13c-0.1,1.8,0.5,3.6,1.8,5c1.3,1.3,3,1.9,4.8,1.8C232.9,35.6,235.7,34,237.2,31.3
	"/>
<path class="st0" d="M266.6,11.7v-0.8h7.8v0.8c-0.9-0.1-1.9,0.2-2.6,0.9c-0.6,0.9-0.9,2.1-0.8,3.2v20.9h-0.8l-18.2-22.4v18.1
	c-0.1,1,0.2,1.9,0.8,2.7c0.7,0.6,1.7,0.9,2.6,0.8v0.7h-7.8v-0.8c1,0.1,1.9-0.3,2.6-1c0.5-1.1,0.7-2.3,0.6-3.5v-15
	c0.1-1.2-0.2-2.4-0.9-3.4c-0.8-0.8-1.8-1.3-2.9-1.2v-0.8h6.6l16.2,20V16c0.1-1.1-0.1-2.3-0.6-3.3C268.5,12,267.6,11.6,266.6,11.7"/>
<path class="st0" d="M287.3,11v0.8c-0.9-0.1-1.7,0.2-2.2,0.9c-0.5,1-0.7,2.1-0.6,3.2v16c-0.1,1.1,0.1,2.2,0.6,3.2
	c0.6,0.6,1.4,1,2.2,0.8v0.7h-9.3v-0.8c0.9,0.1,1.7-0.2,2.3-0.8c0.5-1,0.7-2.1,0.6-3.2v-16c0.1-1.1-0.1-2.2-0.6-3.2
	c-0.6-0.7-1.5-1-2.4-0.9v-0.8L287.3,11L287.3,11z"/>
<path class="st0" d="M315.7,11v0.8c-1.9,0-3.4,1.7-4.6,5L303.4,37h-0.7l-8-20.9c-0.4-1.3-1.1-2.6-1.9-3.7c-0.7-0.5-1.5-0.8-2.3-0.8
	V11h9.4v0.8c-1.5,0-2.2,0.6-2.2,1.8c0,0.4,0.1,0.9,0.3,1.3l6.3,16.6l6-16c0.2-0.6,0.4-1.2,0.4-1.8c0-1.2-0.8-1.9-2.3-1.9V11H315.7z"
	/>
<path class="st0" d="M334.5,20.7h0.8v6.2h-0.8c-0.1-0.8-0.5-1.5-1-2c-0.8-0.4-1.7-0.5-2.6-0.4h-6.4v9.2c0,0.5,0.1,1,0.5,1.3
	c0.4,0.3,0.9,0.4,1.5,0.4h4.5c1.1,0,2.3-0.1,3.4-0.3c0.6-0.2,1.1-0.5,1.6-1c0.6-0.7,1-1.5,1.4-2.4h0.8l-1.2,4.8h-18.6v-0.8
	c0.9,0.1,1.7-0.2,2.3-0.9c0.5-1,0.7-2.1,0.6-3.1v-16c0.1-1.1-0.1-2.2-0.6-3.2c-0.6-0.6-1.4-1-2.3-0.9V11h18.5v4.3h-0.5
	c-0.1-0.9-0.5-1.7-1.1-2.4c-1-0.5-2.1-0.7-3.2-0.6h-7.4v11h7.2c0.7,0.1,1.4-0.1,2-0.5C334.2,22.1,334.5,21.4,334.5,20.7"/>
<path class="st0" d="M349.7,24.8h-2.1v7c-0.1,1.1,0.1,2.2,0.6,3.2c0.6,0.7,1.4,1,2.3,0.9v0.8h-9.3v-0.8c0.9,0.1,1.7-0.2,2.3-0.9
	c0.5-1,0.7-2.1,0.6-3.2V15.7c0.1-1.1-0.1-2.2-0.6-3.1c-0.6-0.7-1.5-1-2.3-0.9v-0.8h10.6c2.2-0.1,4.4,0.6,6.2,1.9
	c1.5,1.1,2.4,2.9,2.3,4.8c0,3.1-1.8,5.3-5.3,6.3c0.9,0.6,1.6,1.3,2.2,2c1.1,1.4,2,2.8,2.9,4.3c0.9,1.6,1.9,3.1,3.1,4.4
	c0.6,0.7,1.5,1.1,2.4,1.1v0.8h-5.2c-1.5-1.8-2.8-3.7-3.9-5.8c-1-1.9-2.3-3.6-3.9-5.1C351.8,25.2,350.7,24.8,349.7,24.8 M350.3,12
	h-2.7v11.7h3.2c1.6,0.1,3.2-0.5,4.4-1.6c1.1-1.1,1.7-2.7,1.6-4.3c0.1-1.6-0.6-3.2-1.8-4.2C353.7,12.5,352,11.9,350.3,12"/>
<path class="st0" d="M381,10.6h0.7v6H381c-0.1-1.5-0.7-2.9-1.8-3.9c-1.1-1-2.5-1.5-3.9-1.4c-1.2-0.1-2.4,0.3-3.4,1
	c-0.8,0.7-1.3,1.8-1.2,2.8c0,1.1,0.3,2.1,1,3c1.3,1.4,2.9,2.5,4.6,3.4c2.1,1.1,3.9,2.5,5.5,4.2c0.9,1.2,1.4,2.7,1.4,4.2
	c0,4-3.3,7.3-7.3,7.3c-1.5-0.1-3-0.4-4.5-1c-0.5-0.2-0.9-0.3-1.4-0.4c-0.4,0-0.8,0.4-1,1h-0.8V30h0.8c-0.1,3.4,2.6,6.3,6,6.4
	c0.1,0,0.1,0,0.2,0c1.4,0.1,2.7-0.4,3.8-1.3c1-0.8,1.5-2.1,1.4-3.3c0-1.1-0.5-2.2-1.2-3c-1.4-1.5-3.1-2.7-4.8-3.7
	c-1.4-0.8-2.8-1.8-4-2.9c-0.6-0.7-1.2-1.5-1.5-2.4c-0.4-0.9-0.5-1.8-0.5-2.8c-0.1-1.8,0.6-3.6,2-4.8c1.4-1.2,3.2-1.9,5-1.9
	c1.3,0,2.5,0.2,3.7,0.6c0.4,0.2,0.9,0.3,1.3,0.3c0.2,0,0.4,0,0.4-0.1C380.8,11,380.9,10.8,381,10.6"/>
<path class="st0" d="M396.6,11v0.8c-0.9-0.1-1.7,0.2-2.2,0.9c-0.5,1-0.7,2.1-0.6,3.2v16c-0.1,1.1,0.1,2.2,0.6,3.2
	c0.6,0.6,1.4,1,2.2,0.8v0.7h-9.2v-0.8c0.9,0.1,1.7-0.2,2.3-0.8c0.5-1,0.7-2.1,0.6-3.2v-16c0.1-1.1-0.1-2.2-0.6-3.2
	c-0.6-0.7-1.5-1-2.3-0.9V11L396.6,11L396.6,11z"/>
<path class="st0" d="M417.1,12.2h-3.9V32c-0.1,1.1,0.1,2.2,0.5,3.1c0.6,0.6,1.4,0.9,2.2,0.8v0.8h-9.1V36c0.9,0.1,1.8-0.3,2.3-1
	c0.5-1,0.7-2,0.6-3.1V12.2H406c-1.3-0.1-2.7,0.2-3.9,0.8c-0.9,0.7-1.4,1.7-1.4,2.8H400V10h0.8c0.6,0.6,2,1,3.9,1h13.5
	c2,0,3.3-0.3,4.1-1h0.8v5.9h-0.5c-0.1-1.2-0.8-2.2-1.7-2.9C419.6,12.4,418.4,12.1,417.1,12.2"/>
<path class="st0" d="M444.6,14.6l-5.8,9.1v8.1c-0.1,1.1,0.1,2.2,0.6,3.2c0.5,0.7,1.4,1,2.2,0.9v0.7h-9.4v-0.8c1,0.1,1.9-0.3,2.6-1
	c0.5-1,0.7-2.1,0.6-3.2v-8l-5.5-8.5c-0.6-1-1.3-2-2.2-2.8c-0.7-0.5-1.5-0.7-2.4-0.7v-0.7h10.1v0.8c-1.8,0-2.7,0.4-2.7,1.2
	c0,0.5,0.2,1,0.5,1.4l5.1,7.8l4.1-6.4c0.5-0.7,0.8-1.6,0.9-2.5c0-1-0.6-1.4-1.7-1.4V11h7v0.8c-0.8,0-1.5,0.2-2.2,0.6
	C445.7,13,445.1,13.8,444.6,14.6"/>
<path class="st0" d="M137,56.5c1.2,0,2.4,0.6,3.2,1.5c0.9,1,1.4,2.2,1.4,3.5c-0.1,2.6-1,5.1-2.7,7.1c-1.4,2.2-3.8,3.5-6.4,3.6
	c-1.3,0-2.5-0.5-3.4-1.4c-0.9-1.1-1.4-2.4-1.3-3.8c0-2.7,1-5.3,2.9-7.3C132.2,57.8,134.5,56.6,137,56.5 M133.4,70.9
	c1.4,0,2.7-0.9,3.9-2.7c1.1-2,1.7-4.2,1.6-6.4c0-1-0.3-2-0.9-2.8c-0.5-0.7-1.3-1.2-2.2-1.2c-1.4,0-2.6,0.9-3.8,2.7
	c-1.2,1.9-1.7,4.1-1.7,6.3c-0.1,1.1,0.2,2.1,0.8,3C131.7,70.6,132.5,71,133.4,70.9"/>
<path class="st0" d="M152.6,56.9l-0.2,1.2h-3.1l-2.5,13.1c-0.4,2.6-1.1,5.2-2.2,7.7c-0.7,1.5-1.9,2.8-3.4,3.7
	c-1.4,0.9-3,1.3-4.6,1.3c-1.8,0.1-3.6-0.3-5.2-1.2l0.6-3.1h0.8c0.5,2.3,1.8,3.5,3.9,3.5c1.6,0,3.1-0.6,4.2-1.8
	c1.2-1.2,2.2-3.8,3.1-8.1l2.8-15.2h-3.2l0.2-1.2h3.2l1.1-5.5c0.6-2.9,1.5-4.9,2.9-6c1.3-1.1,3-1.7,4.7-1.6c1,0,2.1,0.2,3.1,0.6
	l0.2-0.5h0.9l-0.9,4h-0.9c-0.2-2.1-1.1-3.2-2.8-3.2c-2.2,0-3.6,1.8-4.4,5.5l-1.4,6.7L152.6,56.9L152.6,56.9z"/>
<path class="st0" d="M183.6,55.8h0.8V62h-0.8c-0.1-0.8-0.5-1.5-1-2.1c-0.8-0.4-1.7-0.5-2.6-0.4h-6.4v9.2c0,0.5,0.1,1,0.4,1.4
	c0.4,0.3,0.9,0.4,1.4,0.4h4.5c1.1,0,2.3-0.1,3.4-0.3c0.6-0.2,1.1-0.5,1.6-1c0.6-0.7,1-1.5,1.4-2.4h0.7l-1.2,4.8h-18.5V71
	c0.9,0.1,1.7-0.2,2.3-0.9c0.5-1,0.7-2.1,0.6-3.1V50.8c0.1-1.1-0.1-2.2-0.6-3.2c-0.6-0.6-1.4-1-2.3-0.8V46h18.5v4.3h-0.5
	c-0.1-0.9-0.5-1.8-1.1-2.4c-1-0.5-2.1-0.7-3.2-0.6h-7.4v11h7.2c0.7,0.1,1.4-0.1,2-0.5C183.3,57.1,183.5,56.5,183.6,55.8"/>
<path class="st0" d="M190.6,71.7V71c0.9,0.1,1.7-0.3,2.2-0.9c0.5-1,0.7-2.1,0.6-3.2v-16c0.1-1.1-0.1-2.2-0.6-3.2
	c-0.6-0.7-1.4-1-2.2-0.9V46h11.9c4.4,0,7.9,1.2,10.6,3.8c2.6,2.5,4.1,5.9,4,9.5c0.1,3.4-1.3,6.7-3.8,9c-2.5,2.2-6,3.4-10.4,3.4
	L190.6,71.7L190.6,71.7z M201.8,47h-4.9v19c-0.1,1.3,0.1,2.6,0.6,3.8c0.7,0.8,1.7,1.1,2.7,1h2.7c2.8,0.2,5.5-0.9,7.4-3
	c1.8-2,2.7-4.8,2.7-8.4c0-3.8-1-6.7-3-9C207.9,48.1,204.9,46.8,201.8,47"/>
<path class="st0" d="M229.6,46v0.8c-0.8-0.1-1.7,0.2-2.2,0.9c-0.5,1-0.7,2.1-0.6,3.2v16c-0.1,1.1,0.1,2.2,0.6,3.2
	c0.6,0.6,1.4,1,2.2,0.9v0.8h-9.2V71c0.9,0.1,1.7-0.2,2.3-0.9c0.5-1,0.7-2.1,0.6-3.2V50.8c0.1-1.1-0.1-2.2-0.6-3.2
	c-0.6-0.7-1.5-1-2.3-0.8V46H229.6L229.6,46z"/>
<path class="st0" d="M252.4,46.7V46h7.8v0.8c-0.9-0.1-1.9,0.2-2.6,0.9c-0.6,1-0.9,2.1-0.8,3.2v20.9h-0.8l-18.2-22.4v18.1
	c-0.1,1,0.2,1.9,0.8,2.7c0.7,0.6,1.7,0.9,2.6,0.8v0.8h-7.8V71c1,0.1,1.9-0.3,2.5-1c0.5-1.1,0.7-2.3,0.6-3.5v-15
	c0.1-1.2-0.2-2.5-0.9-3.5c-0.8-0.8-1.8-1.2-2.9-1.2V46h6.6l16.2,20V51c0.1-1.1-0.1-2.3-0.7-3.3C254.3,47,253.4,46.7,252.4,46.7"/>
<path class="st0" d="M274.9,71.7H263v-0.8c0.9,0.1,1.7-0.2,2.3-0.9c0.5-1,0.7-2.1,0.6-3.2v-16c0.1-1.1-0.1-2.2-0.6-3.2
	c-0.6-0.7-1.5-1-2.3-0.8V46h9.7c2.3-0.1,4.6,0.5,6.6,1.7c1.5,1,2.4,2.7,2.4,4.5c0,2.7-1.7,4.7-5.2,5.8v0.1c1.8,0.3,3.5,1.2,4.8,2.6
	c1.2,1.3,1.8,2.9,1.8,4.6c0.1,1.8-0.8,3.5-2.2,4.6C279.1,71.2,277,71.8,274.9,71.7 M269.4,47v10.9h2.6c1.6,0.1,3.2-0.4,4.5-1.4
	c2.2-2.2,2.2-5.8,0-8c-1.3-1-2.9-1.5-4.6-1.4H269.4z M271.8,58.8h-2.5v7.6c-0.1,1.2,0.1,2.3,0.6,3.4c0.5,0.7,1.3,1,2.1,0.9h2.1
	c1.4,0,2.7-0.5,3.6-1.5c1-1.1,1.5-2.5,1.4-4c0.1-1.8-0.7-3.5-2-4.6C275.7,59.4,273.8,58.8,271.8,58.8"/>
<path class="st0" d="M306,66.3V50.9c0.1-1.1-0.1-2.2-0.6-3.1c-0.5-0.7-1.3-1-2.1-1V46h9v0.8c-0.9-0.1-1.7,0.3-2.2,0.9
	c-0.5,1-0.7,2.1-0.6,3.2V67c-0.1,1.1,0.1,2.2,0.6,3.2c0.5,0.7,1.4,1,2.2,0.9v0.8H306v-3.6c-2.1,2.6-5.2,4.2-8.6,4.2
	c-2.4,0.1-4.7-0.7-6.4-2.4c-1.6-1.8-2.4-4.1-2.3-6.4V50.9c0.1-1.1-0.1-2.2-0.6-3.2c-0.6-0.7-1.5-1-2.4-0.9V46h9.3v0.8
	c-0.9-0.1-1.8,0.2-2.3,0.9c-0.5,1-0.7,2.1-0.6,3.2v13c-0.1,1.8,0.5,3.6,1.8,5c1.3,1.3,3,1.9,4.8,1.8C301.7,70.6,304.5,69,306,66.3"
	/>
<path class="st0" d="M324.6,59.8h-2.1v7.1c-0.1,1.1,0.1,2.2,0.6,3.2c0.6,0.6,1.4,1,2.2,0.9v0.7h-9.3v-0.7c0.9,0.1,1.8-0.2,2.3-0.9
	c0.5-1,0.7-2.1,0.6-3.2V50.8c0.1-1.1-0.1-2.2-0.6-3.1c-0.6-0.7-1.5-1-2.3-0.8V46h10.6c2.2-0.1,4.4,0.6,6.2,1.9
	c1.5,1.1,2.4,2.9,2.3,4.8c0,3.2-1.8,5.3-5.3,6.3c0.8,0.6,1.6,1.2,2.2,2c1.1,1.4,2,2.8,2.8,4.4c0.9,1.6,1.9,3.1,3.2,4.4
	c0.6,0.6,1.5,1,2.4,1.1v0.7h-5.3c-1.5-1.8-2.8-3.8-3.9-5.8c-1-1.9-2.3-3.6-3.8-5.1C326.7,60.2,325.6,59.8,324.6,59.8 M325.2,47h-2.7
	v11.7h3.1c1.6,0.1,3.2-0.5,4.4-1.6c1.1-1.1,1.7-2.7,1.6-4.3c0.1-1.6-0.6-3.1-1.8-4.2C328.6,47.5,326.9,46.9,325.2,47"/>
<path class="st0" d="M366.2,60.6v0.7c-0.9-0.1-1.8,0.2-2.4,0.8c-0.6,0.8-0.8,1.7-0.7,2.7v6.9c-1.1,0.2-2.2,0.4-3.4,0.4
	c-1.6,0.2-2.9,0.2-3.8,0.2c-4.8,0-8.4-1.2-11.1-3.5c-2.7-2.3-4.1-5.7-4-9.3c0-2.5,0.6-5,1.7-7.2c1.1-2.1,2.8-3.9,4.9-5.1
	c2-1.2,4.3-1.9,6.6-1.9c1.6,0,3.1,0.3,4.6,0.8c0.8,0.3,1.6,0.4,2.4,0.5c0.6,0.1,1.2-0.3,1.4-0.8h0.8v7.6h-0.7c-0.2-2-1.3-3.8-2.9-5
	c-1.6-1.3-3.6-2-5.6-2c-2.6-0.1-5.1,1.2-6.7,3.3c-1.8,2.4-2.7,5.4-2.6,8.4c-0.1,3.4,0.9,6.7,3,9.4c1.8,2.4,4.6,3.8,7.6,3.7
	c2.9,0,4.3-1,4.3-2.8v-2.8c0.1-1.1-0.1-2.3-0.6-3.3c-0.5-0.7-1.3-1.1-2.2-1h-1v-0.7c-0.1,0,10.3,0,10.3,0L366.2,60.6z"/>
<path class="st0" d="M388.6,66.9v-7.5h-14v7.5c-0.1,1.1,0.1,2.2,0.6,3.2c0.6,0.7,1.4,1,2.3,0.9v0.8h-9.3V71c0.9,0.1,1.7-0.2,2.3-0.9
	c0.5-1,0.7-2.1,0.6-3.2v-16c0.1-1.1-0.1-2.2-0.6-3.2c-0.6-0.6-1.4-1-2.3-0.8V46h9.3v0.8c-0.9-0.1-1.8,0.3-2.3,1
	c-0.5,1-0.7,2.1-0.6,3.2v7.3h14v-7.3c0.1-1.1-0.1-2.2-0.6-3.2c-0.6-0.7-1.4-1-2.3-0.9V46h9.2v0.8c-0.9-0.1-1.7,0.2-2.2,0.9
	c-0.5,1-0.7,2.1-0.6,3.2v16c-0.1,1.1,0.1,2.2,0.6,3.2c0.6,0.7,1.4,1,2.2,0.9v0.8h-9.2V71c0.9,0.1,1.7-0.2,2.3-0.9
	C388.5,69.1,388.7,68,388.6,66.9"/>
<g class="st3">
	<path class="st0" d="M128.1,107.3c-0.2,0-0.3-0.1-0.2-0.3l5.1-17.8c0.1-0.2,0.2-0.3,0.4-0.3h3.7c0.2,0,0.3,0.1,0.4,0.3l5.1,17.8
		c0.1,0.2,0,0.3-0.2,0.3h-3.1c-0.2,0-0.3-0.1-0.3-0.3L136,95.7c-0.2-0.6-0.3-1.3-0.4-1.9c-0.1-0.6-0.3-1.2-0.4-1.9h-0.1
		c-0.1,0.6-0.3,1.2-0.4,1.9c-0.1,0.6-0.3,1.3-0.4,1.9l-2.8,11.4c0,0.2-0.1,0.3-0.3,0.3H128.1z M131.8,103.3l0.6-2.6h5.3l0.6,2.6
		H131.8z"/>
</g>
<g class="st3">
	<path class="st0" d="M144.6,107.3c-0.2,0-0.3-0.1-0.3-0.3V97c0-0.7,0-1.2,0-1.8c0-0.5-0.1-1-0.1-1.4c0-0.2,0.1-0.4,0.3-0.4h2.4
		c0.2,0,0.3,0.1,0.3,0.3c0,0.3,0.1,0.7,0.1,1.2c0.1,0.5,0.1,0.9,0.1,1.3l0.2,0.8v10c0,0.2-0.1,0.3-0.3,0.3H144.6z M152,107.3
		c-0.2,0-0.3-0.1-0.3-0.3v-9.3c0-0.6-0.1-1-0.3-1.3c-0.2-0.3-0.6-0.4-1.1-0.4c-0.4,0-0.9,0.1-1.4,0.4c-0.5,0.3-1,0.7-1.5,1.2
		l-0.3-1.9c0.7-0.7,1.4-1.3,2.1-1.8c0.8-0.4,1.6-0.7,2.5-0.7c1.1,0,2,0.3,2.5,1c0.6,0.6,0.8,1.6,0.8,3v9.8c0,0.2-0.1,0.3-0.3,0.3
		H152z"/>
	<path class="st0" d="M159.6,91.4c-0.6,0-1.1-0.1-1.5-0.4c-0.3-0.3-0.5-0.7-0.5-1.2v-0.4c0-0.5,0.2-1,0.5-1.3
		c0.3-0.3,0.8-0.4,1.5-0.4c0.7,0,1.1,0.1,1.5,0.4c0.3,0.3,0.5,0.7,0.5,1.3v0.4c0,0.5-0.2,0.9-0.5,1.2
		C160.8,91.3,160.3,91.4,159.6,91.4z M158.2,107.3c-0.2,0-0.3-0.1-0.3-0.3V93.8c0-0.2,0.1-0.3,0.3-0.3h2.8c0.2,0,0.3,0.1,0.3,0.3
		v13.2c0,0.2-0.1,0.3-0.3,0.3H158.2z"/>
	<path class="st0" d="M164.5,107.3c-0.2,0-0.3-0.1-0.3-0.3V97c0-0.7,0-1.2,0-1.8c0-0.5-0.1-1-0.1-1.4c0-0.2,0.1-0.4,0.3-0.4h2.4
		c0.2,0,0.3,0.1,0.3,0.3c0,0.2,0.1,0.5,0.1,0.8c0,0.3,0.1,0.6,0.1,0.9c0.6-0.7,1.2-1.2,1.9-1.6c0.7-0.4,1.4-0.6,2.3-0.6
		c0.8,0,1.4,0.2,1.9,0.5c0.5,0.3,0.8,0.9,1,1.5c0.6-0.6,1.3-1.1,1.9-1.5c0.7-0.4,1.4-0.5,2.2-0.5c1,0,1.8,0.3,2.4,1
		c0.6,0.6,0.8,1.6,0.8,2.9v9.9c0,0.2-0.1,0.3-0.3,0.3h-2.8c-0.2,0-0.3-0.1-0.3-0.3v-9.4c0-0.5-0.1-0.9-0.3-1.2
		c-0.2-0.3-0.5-0.4-1-0.4c-0.4,0-0.8,0.1-1.2,0.3c-0.4,0.2-0.8,0.6-1.3,1v9.7c0,0.2-0.1,0.3-0.3,0.3h-2.8c-0.2,0-0.3-0.1-0.3-0.3
		v-9.4c0-0.5-0.1-0.9-0.3-1.2c-0.2-0.3-0.5-0.4-1-0.4c-0.4,0-0.8,0.1-1.2,0.3c-0.4,0.2-0.8,0.6-1.3,1v9.7c0,0.2-0.1,0.3-0.3,0.3
		H164.5z"/>
	<path class="st0" d="M187.1,107.5c-1,0-1.7-0.3-2.3-1c-0.5-0.7-0.8-1.6-0.8-2.8c0-1.4,0.4-2.4,1.1-3.1c0.7-0.7,2-1.2,3.8-1.3
		l2.2-0.3v1.9l-1.7,0.2c-0.8,0.1-1.4,0.3-1.7,0.7c-0.3,0.3-0.5,0.9-0.5,1.6c0,0.6,0.1,1,0.3,1.3c0.2,0.3,0.5,0.4,0.9,0.4
		c0.4,0,0.9-0.1,1.3-0.4c0.4-0.3,1-0.8,1.6-1.5l0.2,2c-0.8,0.8-1.5,1.4-2.1,1.8S187.9,107.5,187.1,107.5z M191.6,107.3
		c-0.2,0-0.3-0.1-0.3-0.3c0-0.3-0.1-0.6-0.1-1.1c-0.1-0.5-0.1-0.9-0.1-1.3l-0.3-0.6v-6.4c0-0.7-0.1-1.2-0.3-1.4
		c-0.2-0.3-0.6-0.4-1.2-0.4c-1.1,0-1.6,0.5-1.5,1.6c0,0.2-0.1,0.3-0.3,0.3h-2.5c-0.2,0-0.3-0.1-0.4-0.4c-0.1-1.3,0.2-2.3,1.1-2.9
		c0.8-0.7,2.1-1,3.7-1c1.7,0,2.9,0.3,3.7,1c0.8,0.7,1.1,1.8,1.1,3.3v6.2c0,0.7,0,1.4,0,1.9c0,0.5,0.1,0.9,0.1,1.3
		c0,0.2-0.1,0.4-0.3,0.4H191.6z"/>
	<path class="st0" d="M197.3,107.3c-0.2,0-0.3-0.1-0.3-0.3V88.4c0-0.2,0.1-0.3,0.3-0.3h2.8c0.2,0,0.3,0.1,0.3,0.3v18.5
		c0,0.2-0.1,0.3-0.3,0.3H197.3z"/>
</g>
<g class="st3">
	<path class="st0" d="M208.6,107.3c-0.2,0-0.3-0.1-0.3-0.3V89.2c0-0.2,0.1-0.3,0.3-0.3h4.8c2.1,0,3.6,0.4,4.6,1.1
		c1,0.8,1.5,1.9,1.5,3.4c0,1-0.2,1.9-0.7,2.5c-0.4,0.6-1.1,1.2-2.1,1.6v0.1c1.1,0.3,2,0.8,2.6,1.5s0.9,1.7,0.9,2.9
		c0,1.8-0.5,3.1-1.6,4c-1.1,0.9-2.8,1.3-5,1.3H208.6z M211.7,96.6h1.7c0.9,0,1.6-0.2,2-0.7c0.4-0.4,0.7-1.1,0.7-1.9
		s-0.2-1.5-0.7-1.9c-0.4-0.4-1.2-0.6-2.2-0.6h-1.6V96.6z M211.7,104.6h1.9c1.1,0,1.9-0.2,2.4-0.7c0.5-0.4,0.8-1.2,0.8-2.1
		c0-0.9-0.3-1.6-0.8-2.1c-0.5-0.5-1.3-0.7-2.4-0.7h-1.9V104.6z"/>
</g>
<g class="st3">
	<path class="st0" d="M227.8,107.5c-1.8,0-3.2-0.4-4.1-1.2c-0.9-0.8-1.4-2.1-1.4-3.8v-4.1c0-1.7,0.5-3,1.4-3.8
		c0.9-0.9,2.2-1.3,4-1.3c1.8,0,3.1,0.4,4,1.3c0.9,0.9,1.3,2.1,1.3,3.8v2.4c0,0.2-0.1,0.3-0.3,0.3h-7.1v1.4c0,0.9,0.2,1.5,0.5,1.9
		c0.3,0.4,0.9,0.6,1.6,0.6c0.6,0,1.1-0.1,1.4-0.4c0.3-0.2,0.4-0.6,0.4-1.1c0-0.2,0.1-0.3,0.3-0.3h2.6c0.2,0,0.3,0.1,0.3,0.3
		c0,1.3-0.4,2.3-1.2,3C230.8,107.1,229.5,107.5,227.8,107.5z M225.7,99h4.1v-0.9c0-0.8-0.2-1.4-0.5-1.8c-0.3-0.4-0.8-0.6-1.5-0.6
		c-0.7,0-1.2,0.2-1.6,0.6s-0.5,1-0.5,1.8V99z"/>
	<path class="st0" d="M236,107.3c-0.2,0-0.3-0.1-0.3-0.3V88.4c0-0.2,0.1-0.3,0.3-0.3h2.8c0.2,0,0.3,0.1,0.3,0.3v18.5
		c0,0.2-0.1,0.3-0.3,0.3H236z M243.4,107.3c-0.2,0-0.3-0.1-0.3-0.3v-9.3c0-0.6-0.1-1-0.3-1.3c-0.2-0.3-0.6-0.4-1.1-0.4
		c-0.5,0-0.9,0.1-1.4,0.4c-0.5,0.3-1,0.7-1.5,1.2l-0.3-1.9c0.7-0.7,1.4-1.3,2.1-1.8s1.6-0.7,2.5-0.7c1.1,0,2,0.3,2.5,1
		s0.8,1.6,0.8,3v9.8c0,0.2-0.1,0.3-0.3,0.3H243.4z"/>
</g>
<g class="st3">
	<path class="st0" d="M251.9,107.5c-1,0-1.7-0.3-2.3-1s-0.8-1.6-0.8-2.8c0-1.4,0.4-2.4,1.1-3.1c0.7-0.7,2-1.2,3.8-1.3L256,99v1.9
		l-1.7,0.2c-0.8,0.1-1.4,0.3-1.7,0.7c-0.3,0.3-0.5,0.9-0.5,1.6c0,0.6,0.1,1,0.3,1.3c0.2,0.3,0.5,0.4,0.9,0.4c0.4,0,0.9-0.1,1.3-0.4
		s1-0.8,1.6-1.5l0.2,2c-0.8,0.8-1.5,1.4-2.1,1.8S252.8,107.5,251.9,107.5z M256.5,107.3c-0.2,0-0.3-0.1-0.3-0.3
		c0-0.3-0.1-0.6-0.1-1.1c-0.1-0.5-0.1-0.9-0.1-1.3l-0.3-0.6v-6.4c0-0.7-0.1-1.2-0.3-1.4s-0.6-0.4-1.2-0.4c-1.1,0-1.6,0.5-1.5,1.6
		c0,0.2-0.1,0.3-0.3,0.3h-2.5c-0.2,0-0.3-0.1-0.4-0.4c-0.1-1.3,0.2-2.3,1.1-2.9c0.8-0.7,2.1-1,3.7-1c1.7,0,2.9,0.3,3.7,1
		c0.8,0.7,1.1,1.8,1.1,3.3v6.2c0,0.7,0,1.4,0,1.9c0,0.5,0.1,0.9,0.1,1.3c0,0.2-0.1,0.4-0.3,0.4H256.5z"/>
</g>
<g class="st3">
	<path class="st0" d="M264.9,107.3c-0.2,0-0.3-0.1-0.4-0.3l-3.8-13.2c0-0.2,0-0.3,0.2-0.3h3c0.2,0,0.3,0.1,0.3,0.3l1.6,7
		c0.1,0.6,0.3,1.2,0.4,1.8c0.1,0.6,0.2,1.2,0.3,1.8h0.1c0.1-0.6,0.2-1.2,0.4-1.8c0.1-0.6,0.3-1.2,0.4-1.8l1.6-7
		c0.1-0.2,0.2-0.3,0.3-0.3h3c0.2,0,0.3,0.1,0.2,0.4l-3.8,13.2c-0.1,0.2-0.2,0.3-0.4,0.3H264.9z"/>
	<path class="st0" d="M276.2,91.4c-0.6,0-1.1-0.1-1.5-0.4c-0.3-0.3-0.5-0.7-0.5-1.2v-0.4c0-0.5,0.2-1,0.5-1.3s0.8-0.4,1.5-0.4
		c0.7,0,1.2,0.1,1.5,0.4s0.5,0.7,0.5,1.3v0.4c0,0.5-0.2,0.9-0.5,1.2C277.3,91.3,276.8,91.4,276.2,91.4z M274.8,107.3
		c-0.2,0-0.3-0.1-0.3-0.3V93.8c0-0.2,0.1-0.3,0.3-0.3h2.8c0.2,0,0.3,0.1,0.3,0.3v13.2c0,0.2-0.1,0.3-0.3,0.3H274.8z"/>
	<path class="st0" d="M286,107.5c-1.8,0-3.1-0.4-4.1-1.3c-1-0.9-1.4-2.1-1.4-3.8v-4c0-1.7,0.5-3,1.4-3.8c1-0.9,2.3-1.3,4.1-1.3
		c1.8,0,3.1,0.4,4.1,1.3c1,0.9,1.4,2.1,1.4,3.8v4c0,1.7-0.5,3-1.4,3.8C289.1,107.1,287.7,107.5,286,107.5z M286,104.8
		c0.7,0,1.3-0.2,1.6-0.6c0.3-0.4,0.5-1,0.5-1.9v-3.8c0-0.9-0.2-1.5-0.5-1.9c-0.3-0.4-0.9-0.6-1.6-0.6c-0.7,0-1.3,0.2-1.6,0.6
		c-0.3,0.4-0.5,1-0.5,1.9v3.8c0,0.9,0.2,1.5,0.5,1.9C284.7,104.6,285.2,104.8,286,104.8z"/>
	<path class="st0" d="M297.4,107.5c-1.1,0-2-0.3-2.5-1c-0.5-0.6-0.8-1.6-0.8-3v-9.7c0-0.2,0.1-0.3,0.3-0.3h2.8
		c0.2,0,0.3,0.1,0.3,0.3v9.3c0,0.6,0.1,1.1,0.3,1.3s0.5,0.4,0.9,0.4c0.5,0,1-0.2,1.5-0.5c0.5-0.3,1-0.8,1.5-1.3l0.3,2
		c-0.6,0.8-1.3,1.4-2.1,1.8C299.1,107.2,298.2,107.5,297.4,107.5z M302.1,107.3c-0.2,0-0.3-0.1-0.4-0.3c-0.1-0.3-0.1-0.7-0.2-1.2
		c0-0.5-0.1-0.9-0.1-1.2l-0.3-0.9v-10c0-0.2,0.1-0.3,0.3-0.3h2.7c0.2,0,0.3,0.1,0.3,0.3v10c0,0.6,0,1.2,0,1.8s0.1,1,0.1,1.4
		c0,0.2-0.1,0.4-0.3,0.4H302.1z"/>
	<path class="st0" d="M307.8,107.3c-0.2,0-0.3-0.1-0.3-0.3V97c0-0.7,0-1.3,0-1.8c0-0.5-0.1-1-0.1-1.4c0-0.2,0.1-0.3,0.3-0.3h2.4
		c0.2,0,0.3,0.1,0.3,0.3c0.1,0.3,0.1,0.7,0.2,1.2c0,0.5,0.1,0.9,0.1,1.2l0.3,1v9.8c0,0.2-0.1,0.3-0.3,0.3H307.8z M310.6,98.3
		l-0.2-2.7c0.3-0.4,0.7-0.8,1.1-1.2s0.8-0.7,1.3-0.9c0.4-0.2,0.9-0.4,1.4-0.4c0.1,0,0.3,0,0.4,0c0.1,0,0.2,0,0.3,0.1
		c0.1,0,0.2,0.1,0.2,0.1c0,0.1,0,0.1,0,0.3c0,0.4,0,0.9,0,1.3c0,0.5,0,0.9-0.1,1.3c0,0.2-0.1,0.3-0.3,0.3c-0.1,0-0.3,0-0.4-0.1
		c-0.1,0-0.3,0-0.5,0c-0.3,0-0.7,0.1-1.1,0.2s-0.7,0.4-1.1,0.6S310.9,98,310.6,98.3z"/>
	<path class="st0" d="M324.3,107.5c-1,0-1.7-0.3-2.3-1s-0.8-1.6-0.8-2.8c0-1.4,0.4-2.4,1.1-3.1c0.7-0.7,2-1.2,3.8-1.3l2.2-0.3v1.9
		l-1.7,0.2c-0.8,0.1-1.4,0.3-1.7,0.7c-0.3,0.3-0.5,0.9-0.5,1.6c0,0.6,0.1,1,0.3,1.3c0.2,0.3,0.5,0.4,0.9,0.4c0.4,0,0.9-0.1,1.3-0.4
		s1-0.8,1.6-1.5l0.2,2c-0.8,0.8-1.5,1.4-2.1,1.8S325.2,107.5,324.3,107.5z M328.9,107.3c-0.2,0-0.3-0.1-0.3-0.3
		c0-0.3-0.1-0.6-0.1-1.1c-0.1-0.5-0.1-0.9-0.1-1.3l-0.3-0.6v-6.4c0-0.7-0.1-1.2-0.3-1.4s-0.6-0.4-1.2-0.4c-1.1,0-1.6,0.5-1.5,1.6
		c0,0.2-0.1,0.3-0.3,0.3h-2.5c-0.2,0-0.3-0.1-0.4-0.4c-0.1-1.3,0.2-2.3,1.1-2.9c0.8-0.7,2.1-1,3.7-1c1.7,0,2.9,0.3,3.7,1
		c0.8,0.7,1.1,1.8,1.1,3.3v6.2c0,0.7,0,1.4,0,1.9c0,0.5,0.1,0.9,0.1,1.3c0,0.2-0.1,0.4-0.3,0.4H328.9z"/>
	<path class="st0" d="M334.6,107.3c-0.2,0-0.3-0.1-0.3-0.3V97c0-0.7,0-1.2,0-1.8c0-0.5-0.1-1-0.1-1.4c0-0.2,0.1-0.4,0.3-0.4h2.4
		c0.2,0,0.3,0.1,0.3,0.3c0,0.3,0.1,0.7,0.1,1.2c0.1,0.5,0.1,0.9,0.1,1.3l0.2,0.8v10c0,0.2-0.1,0.3-0.3,0.3H334.6z M342,107.3
		c-0.2,0-0.3-0.1-0.3-0.3v-9.3c0-0.6-0.1-1-0.3-1.3c-0.2-0.3-0.6-0.4-1.1-0.4c-0.4,0-0.9,0.1-1.4,0.4c-0.5,0.3-1,0.7-1.5,1.2
		l-0.3-1.9c0.7-0.7,1.4-1.3,2.1-1.8c0.8-0.4,1.6-0.7,2.5-0.7c1.1,0,2,0.3,2.5,1s0.8,1.6,0.8,3v9.8c0,0.2-0.1,0.3-0.3,0.3H342z"/>
	<path class="st0" d="M351.1,107.5c-1.1,0-2-0.3-2.6-1s-0.9-1.7-0.9-3.1v-5.5c0-1.6,0.4-2.7,1.1-3.5s1.8-1.2,3.1-1.2
		c0.6,0,1.3,0.1,1.9,0.2c0.6,0.2,1.2,0.4,1.6,0.6l0,2.4c-0.4-0.2-0.9-0.4-1.3-0.5c-0.4-0.1-0.8-0.2-1.2-0.2c-0.6,0-1.1,0.2-1.4,0.6
		c-0.3,0.4-0.5,1-0.5,1.7v4.9c0,0.6,0.1,1,0.4,1.3c0.2,0.3,0.6,0.4,1.1,0.4c0.5,0,0.9-0.1,1.4-0.4s1-0.7,1.5-1.3l0.3,2
		c-0.7,0.7-1.3,1.3-2.1,1.8C352.9,107.3,352.1,107.5,351.1,107.5z M355.9,107.3c-0.2,0-0.3-0.1-0.3-0.3c-0.1-0.3-0.1-0.7-0.2-1.2
		s-0.1-0.9-0.1-1.2l-0.3-0.8V88.4c0-0.2,0.1-0.3,0.3-0.3h2.7c0.2,0,0.3,0.1,0.3,0.3v15.4c0,0.6,0,1.2,0,1.8c0,0.5,0.1,1,0.1,1.3
		c0,0.3-0.1,0.4-0.3,0.4H355.9z"/>
</g>
<g class="st3">
	<path class="st0" d="M369.4,107.3c-0.2,0-0.3-0.1-0.3-0.3L365,89.3c-0.1-0.2,0-0.4,0.3-0.4h2.9c0.2,0,0.3,0.1,0.3,0.3l2,8.9
		c0.2,1,0.3,1.9,0.5,2.9c0.1,1,0.2,1.9,0.3,2.9h0.1c0.1-0.7,0.3-1.3,0.4-1.9c0.1-0.6,0.3-1.3,0.5-1.9l1.8-7l-0.9-3.4
		c0-0.1,0-0.2,0-0.3c0.1-0.1,0.1-0.1,0.2-0.1h2.8c0.2,0,0.3,0.1,0.3,0.3l2.3,10.4c0.1,0.7,0.3,1.3,0.4,2s0.2,1.3,0.3,2h0
		c0.1-1,0.2-1.9,0.3-2.9s0.3-2,0.4-3l1.9-8.9c0-0.2,0.2-0.3,0.3-0.3h2.9c0.2,0,0.3,0.1,0.2,0.4l-4,17.7c-0.1,0.2-0.2,0.3-0.3,0.3
		h-3.4c-0.2,0-0.3-0.1-0.3-0.3l-1.3-6.1c-0.1-0.6-0.3-1.2-0.4-1.8c-0.1-0.6-0.2-1.2-0.3-1.8h-0.1c-0.1,0.6-0.2,1.2-0.4,1.8
		c-0.1,0.6-0.3,1.2-0.5,1.9L373,107c0,0.2-0.2,0.3-0.3,0.3H369.4z"/>
</g>
<g class="st3">
	<path class="st0" d="M392,107.5c-1.8,0-3.2-0.4-4.1-1.2c-0.9-0.8-1.4-2.1-1.4-3.8v-4.1c0-1.7,0.5-3,1.4-3.8c0.9-0.9,2.2-1.3,4-1.3
		c1.8,0,3.1,0.4,4,1.3c0.9,0.9,1.3,2.1,1.3,3.8v2.4c0,0.2-0.1,0.3-0.3,0.3h-7.1v1.4c0,0.9,0.2,1.5,0.5,1.9c0.3,0.4,0.9,0.6,1.6,0.6
		c0.6,0,1.1-0.1,1.4-0.4c0.3-0.2,0.4-0.6,0.4-1.1c0-0.2,0.1-0.3,0.3-0.3h2.6c0.2,0,0.3,0.1,0.3,0.3c0,1.3-0.4,2.3-1.2,3
		C395,107.1,393.7,107.5,392,107.5z M389.9,99h4.1v-0.9c0-0.8-0.2-1.4-0.5-1.8c-0.3-0.4-0.8-0.6-1.5-0.6c-0.7,0-1.2,0.2-1.6,0.6
		c-0.3,0.4-0.5,1-0.5,1.8V99z"/>
	<path class="st0" d="M400.2,107.3c-0.2,0-0.3-0.1-0.3-0.3V88.4c0-0.2,0.1-0.3,0.3-0.3h2.8c0.2,0,0.3,0.1,0.3,0.3v18.5
		c0,0.2-0.1,0.3-0.3,0.3H400.2z"/>
</g>
<g class="st3">
	<path class="st0" d="M407.5,107.3c-0.1,0-0.2,0-0.2-0.1c-0.1-0.1-0.1-0.1-0.1-0.2V96.2h-1.7c-0.2,0-0.3-0.1-0.3-0.3v-2.1
		c0-0.2,0.1-0.3,0.3-0.3h1.7v-1.3c0-1.4,0.3-2.5,1-3.2c0.7-0.7,1.7-1.1,3.1-1.1c0.6,0,1.1,0,1.6,0.1c0.5,0.1,0.9,0.2,1.2,0.3
		c0.2,0.1,0.3,0.2,0.3,0.4v1.9c0,0.3-0.2,0.3-0.5,0.2c-0.3-0.1-0.6-0.1-0.9-0.2c-0.3-0.1-0.6-0.1-1-0.1c-0.6,0-1,0.1-1.2,0.4
		c-0.3,0.3-0.4,0.7-0.4,1.4v1.2h2.8c0.2,0,0.3,0.1,0.3,0.3v2.1c0,0.2-0.1,0.3-0.3,0.3h-2.8v10.8c0,0.1,0,0.1-0.1,0.2
		s-0.1,0.1-0.2,0.1H407.5z"/>
</g>
<g class="st3">
	<path class="st0" d="M418,107.5c-1,0-1.7-0.3-2.3-1s-0.8-1.6-0.8-2.8c0-1.4,0.4-2.4,1.1-3.1c0.7-0.7,2-1.2,3.8-1.3L422,99v1.9
		l-1.7,0.2c-0.8,0.1-1.4,0.3-1.7,0.7c-0.3,0.3-0.5,0.9-0.5,1.6c0,0.6,0.1,1,0.3,1.3c0.2,0.3,0.5,0.4,0.9,0.4c0.4,0,0.9-0.1,1.3-0.4
		s1-0.8,1.6-1.5l0.2,2c-0.8,0.8-1.5,1.4-2.1,1.8S418.8,107.5,418,107.5z M422.5,107.3c-0.2,0-0.3-0.1-0.3-0.3c0-0.3-0.1-0.6-0.1-1.1
		c-0.1-0.5-0.1-0.9-0.1-1.3l-0.3-0.6v-6.4c0-0.7-0.1-1.2-0.3-1.4s-0.6-0.4-1.2-0.4c-1.1,0-1.6,0.5-1.5,1.6c0,0.2-0.1,0.3-0.3,0.3
		h-2.5c-0.2,0-0.3-0.1-0.4-0.4c-0.1-1.3,0.2-2.3,1.1-2.9c0.8-0.7,2.1-1,3.7-1c1.7,0,2.9,0.3,3.7,1c0.8,0.7,1.1,1.8,1.1,3.3v6.2
		c0,0.7,0,1.4,0,1.9c0,0.5,0.1,0.9,0.1,1.3c0,0.2-0.1,0.4-0.3,0.4H422.5z"/>
</g>
<g class="st3">
	<path class="st0" d="M428.2,107.3c-0.2,0-0.3-0.1-0.3-0.3V97c0-0.7,0-1.3,0-1.8c0-0.5-0.1-1-0.1-1.4c0-0.2,0.1-0.3,0.3-0.3h2.4
		c0.2,0,0.3,0.1,0.3,0.3c0.1,0.3,0.1,0.7,0.2,1.2c0,0.5,0.1,0.9,0.1,1.2l0.3,1v9.8c0,0.2-0.1,0.3-0.3,0.3H428.2z M431,98.3l-0.2-2.7
		c0.3-0.4,0.7-0.8,1.1-1.2s0.8-0.7,1.3-0.9c0.4-0.2,0.9-0.4,1.4-0.4c0.1,0,0.3,0,0.4,0c0.1,0,0.2,0,0.3,0.1c0.1,0,0.2,0.1,0.2,0.1
		c0,0.1,0,0.1,0,0.3c0,0.4,0,0.9,0,1.3c0,0.5,0,0.9-0.1,1.3c0,0.2-0.1,0.3-0.3,0.3c-0.1,0-0.3,0-0.4-0.1c-0.1,0-0.3,0-0.5,0
		c-0.3,0-0.7,0.1-1.1,0.2s-0.7,0.4-1.1,0.6S431.3,98,431,98.3z"/>
</g>
<g class="st3">
	<path class="st0" d="M442.2,107.5c-1.8,0-3.2-0.4-4.1-1.2c-0.9-0.8-1.4-2.1-1.4-3.8v-4.1c0-1.7,0.5-3,1.4-3.8
		c0.9-0.9,2.2-1.3,4-1.3c1.8,0,3.1,0.4,4,1.3c0.9,0.9,1.3,2.1,1.3,3.8v2.4c0,0.2-0.1,0.3-0.3,0.3h-7.1v1.4c0,0.9,0.2,1.5,0.5,1.9
		c0.3,0.4,0.9,0.6,1.6,0.6c0.6,0,1.1-0.1,1.4-0.4c0.3-0.2,0.4-0.6,0.4-1.1c0-0.2,0.1-0.3,0.3-0.3h2.6c0.2,0,0.3,0.1,0.3,0.3
		c0,1.3-0.4,2.3-1.2,3C445.2,107.1,443.9,107.5,442.2,107.5z M440.1,99h4.1v-0.9c0-0.8-0.2-1.4-0.5-1.8c-0.3-0.4-0.8-0.6-1.5-0.6
		c-0.7,0-1.2,0.2-1.6,0.6c-0.3,0.4-0.5,1-0.5,1.8V99z"/>
</g>
</svg>
