<?xml version="1.0" encoding="utf-8"?>
<!-- Generator: Adobe Illustrator 26.1.0, SVG Export Plug-In . SVG Version: 6.00 Build 0)  -->
<svg version="1.1" id="Layer_1" xmlns="http://www.w3.org/2000/svg" xmlns:xlink="http://www.w3.org/1999/xlink" x="0px" y="0px"
	 viewBox="0 0 768.2 190.9" style="enable-background:new 0 0 768.2 190.9;" xml:space="preserve">
<style type="text/css">
	.st0{fill:#718096;}
	.st1{fill:#FFFFFF;}
	.st2{enable-background:new    ;}
</style>
<rect class="st0" width="255.3" height="190.9"/>
<g id="Layer_2_00000061471176308187806160000000927027213525279378_">
	<g id="Layer_1-2">
		<path class="st1" d="M28.3,106.9c-1.6,0-3.4,0.1-5.3,0.2c-1.6,0.2-3.2,0.3-4.8,0.3c-0.4,0-0.8,0-1.2-0.1c-0.5-0.1-0.9-0.5-0.8-1
			c0.1-0.5,0.4-1,0.8-1.3c1-0.6,2.2-1,3.4-1.1c0.6-0.1,1.2-0.2,1.8-0.4c0.6-0.2,1.2-0.5,1.6-1c0.6-0.6,1-1.3,1.2-2.1
			c0.3-1.2,0.5-2.5,0.4-3.8V43.8c0-0.5-0.3-1-0.8-1.2c-0.6-0.3-1.3-0.5-2-0.6c-0.8-0.1-1.7-0.2-2.5-0.2c-0.8,0-1.6-0.1-2.4-0.2
			c-0.8,0-1.7-0.1-2.5-0.3c-0.5-0.1-0.9-0.5-0.8-1c0-0.4,0.2-0.8,0.5-1.1c0.4-0.3,0.8-0.5,1.2-0.6c0.5-0.1,0.9-0.2,1.4-0.2H29
			c2.8,0,5.6-0.1,8.4-0.3c2.8-0.2,6-0.3,9.6-0.3c5.6-0.1,11.2,0.7,16.6,2.2c4.9,1.4,9.5,3.7,13.5,6.9c3.9,3.2,7.1,7.3,9.1,12
			c2.3,5.5,3.5,11.4,3.4,17.4c0,4.1-0.9,8.2-2.8,11.9c-1.8,3.7-4.3,7-7.5,9.7c-3.2,2.8-7,5.1-11,6.6c-4.3,1.6-8.9,2.4-13.5,2.4H28.3
			 M35,92.9c-0.1,3.4,1.6,6.7,4.5,8.5c1.4,0.9,3,1.6,4.6,2.1c1.7,0.4,3.5,0.7,5.3,0.7c1.8,0,3.6-0.3,5.3-0.7
			c2.2-0.5,4.3-1.2,6.3-2.1c2.3-1,4.5-2.3,6.5-3.8c2.2-1.6,4.2-3.5,5.8-5.7c1.8-2.3,3.2-4.9,4.2-7.7c1.1-3.3,1.6-6.7,1.6-10.1
			c0.1-3.5-0.5-7-1.6-10.4c-1-3-2.4-5.8-4.3-8.4c-1.8-2.4-3.8-4.6-6.2-6.4c-2.3-1.8-4.8-3.3-7.4-4.5c-2.5-1.2-5.1-2.1-7.8-2.6
			c-2.4-0.5-4.9-0.8-7.4-0.8c-1.8,0-3.5,0.2-5.3,0.4c-1,0.1-1.9,0.4-2.8,0.8c-0.5,0.2-0.9,0.7-1.1,1.2c-0.1,0.4-0.2,0.8-0.2,1.2
			V92.9z"/>
		<path class="st1" d="M112.4,109c-2.2,0-4.5-0.3-6.6-1.1c-1.7-0.6-3.1-1.7-4.1-3.2c-1-1.5-1.8-3.2-2.1-5c-0.4-2.1-0.6-4.3-0.6-6.5
			c0-1.7,0-3.6,0.1-5.7s0.1-4.2,0.1-6.3s0-4.3,0.1-6.3s0.1-3.9,0.1-5.5c0-0.7-0.4-1.4-1.1-1.6c-0.7-0.2-1.5-0.4-2.1-0.6
			c-1.3-0.4-2.2-0.7-2.7-0.8c-0.4-0.1-0.7-0.4-0.7-0.8c0-0.5,0.3-0.9,0.8-0.9c0.7-0.1,1.3-0.1,2-0.1c0.8,0,1.6,0,2.4,0.1
			c0.8,0.1,1.6,0.1,2.4,0.1c0.8,0,1.7,0,2.5-0.1c0.7-0.3,1.5-0.4,2.2-0.3c0.5-0.1,1,0.1,1.4,0.4c0.2,0.5,0.3,1.1,0.3,1.7
			c0,5,0,10-0.1,15s-0.1,10-0.1,15c-0.1,2,0.7,4,2.3,5.3c1.9,1.3,4.2,1.9,6.5,1.8c2.5,0.1,4.9-0.2,7.3-0.9c1.5-0.4,2.9-1.2,4-2.3
			c0.9-0.9,1.5-2,1.7-3.2c0.3-1.1,0.4-2.3,0.4-3.5c0-4,0-8,0.1-12s0.1-8,0.1-12c0-0.3-0.1-0.6-0.2-0.8c-0.2-0.3-0.5-0.5-0.8-0.6
			c-0.4-0.1-1-0.3-1.7-0.5s-1.8-0.5-3.1-0.8c-0.4-0.1-1.1-0.4-2-0.7s-1.3-0.7-1.3-1.1s0.3-0.6,0.8-0.7c0.6-0.1,1.1-0.2,1.7-0.2
			c1,0,1.9,0,2.9,0.1c1,0.1,1.9,0.1,2.9,0.1c1.1,0,2.2,0,3.3-0.1s2.2-0.1,3.3-0.1c0.5,0,1,0.2,1.5,0.4c0.6,0.3,0.9,0.9,0.9,2
			c0,5.7-0.1,11.3-0.2,17s-0.2,11.3-0.2,17c0,1.2,0.4,1.9,1.1,2.2c0.6,0.3,1.2,0.4,1.8,0.4c2.2,0,3.7,0,4.5,0.1s1.3,0.4,1.3,1
			c0,0.4-0.2,0.7-0.5,0.9c-0.6,0.2-1.1,0.3-1.7,0.4c-4,0.6-7.1,1.1-9.3,1.5c-2.3,0.4-3.7,0.7-4.2,0.7c-0.3,0-0.7-0.2-0.8-0.5
			c-0.1-0.4-0.1-0.9-0.1-1.3v-2.6c0-0.9-0.3-1.3-0.8-1.3c-0.7,0.1-1.4,0.5-1.9,1c-0.8,0.7-1.9,1.4-3.2,2.3c-1.4,0.9-3,1.7-4.6,2.3
			C116.5,108.6,114.5,109,112.4,109"/>
		<path class="st1" d="M154.8,43.2c0.1-1.1-0.2-2.2-0.8-3.2c-0.5-0.6-1.2-1-1.9-1.3c-0.6-0.3-1.2-0.5-1.9-0.6
			c-0.5,0-0.8-0.5-0.8-0.9c0,0,0,0,0-0.1l0,0c0-0.4,0.2-0.7,0.6-0.8c0.4-0.2,1-0.4,1.8-0.7l7.6-2.9c0.3-0.1,0.6-0.2,0.9-0.2h1
			c0.3,0,0.6,0.1,0.8,0.4c0.3,0.5,0.5,1,0.4,1.6v45.9c0,1.2,0.3,1.8,1,1.8c0.6-0.1,1.2-0.4,1.7-0.7c1-0.5,2.2-1.1,3.5-1.9
			s2.8-1.7,4.3-2.6s2.9-1.9,4.2-2.8s2.3-1.7,3.2-2.4s1.3-1.3,1.3-1.6c0-0.6-0.2-1.3-0.7-1.7c-0.5-0.4-1-0.7-1.5-1
			c-0.5-0.3-1-0.5-1.5-0.8c-0.4-0.2-0.7-0.6-0.7-1.1c0-0.3,0.2-0.6,0.5-0.8c0.3-0.2,0.7-0.3,1.1-0.3c1.2,0,2.6,0,4.1,0.1
			s3,0.1,4.5,0.1s2.9,0,4.4-0.1s2.9-0.1,4-0.1c0.5,0,1,0.1,1.5,0.2c0.5,0.1,0.8,0.6,0.7,1.1c0,0.4-0.3,0.7-0.6,0.8
			c-0.5,0.3-1,0.5-1.5,0.7l-1.8,0.6c-0.6,0.2-1.1,0.4-1.5,0.5c-0.8,0.4-2.4,1.2-4.8,2.5s-4.8,2.7-7.3,4.2s-4.7,2.9-6.7,4.2
			s-2.9,2.1-2.9,2.4c0,0.7,0.3,1.3,0.9,1.6l19.4,17.6c1,0.9,2.1,1.7,3.3,2.4c1.1,0.5,2,1,2.9,1.3s1.5,0.6,2,0.8
			c0.4,0.1,0.7,0.5,0.7,0.9c0,0.7-1,1.1-2.9,1.1c-1.2,0-2.5-0.1-3.9-0.2s-3-0.2-4.7-0.2c-1.5,0-2.9,0.1-4.3,0.2s-2.7,0.2-4,0.2
			c-0.9,0-1.7-0.1-2.6-0.2c-0.5,0-0.8-0.4-0.8-0.9c0-0.5,0.4-1,0.9-1.1c0.8-0.3,1.6-0.4,2.4-0.5c0.5-0.1,1.1-0.3,1.5-0.6
			c0.4-0.2,0.6-0.6,0.6-1c0-0.4-0.4-1-1.2-1.8l-16.9-16c-0.5-0.4-0.8-0.7-1-0.7c-0.5,0-0.8,0.2-0.8,0.6v15.9
			c-0.1,0.9,0.2,1.9,0.8,2.6c0.4,0.4,1,0.7,1.6,0.9c0.7,0.3,1.5,0.5,2.3,0.6c0.6,0.1,1,0.4,1,1c0,0.4-0.3,0.7-0.8,0.9
			c-0.6,0.1-1.1,0.2-1.7,0.2c-1.3,0-2.6-0.1-3.8-0.2s-2.4-0.2-3.7-0.2s-2.8,0.1-4.3,0.2s-2.8,0.2-3.8,0.2c-0.5,0-1.1-0.1-1.6-0.2
			c-0.7-0.1-1.1-0.4-1.1-1c0-0.5,0.2-0.9,0.6-1.1c0.5-0.2,1-0.4,1.5-0.5c0.7-0.2,1.5-0.4,2.1-0.6c0.6-0.2,1.2-0.4,1.8-0.7
			c0.5-0.3,0.9-0.8,1.2-1.3c0.3-0.9,0.5-1.8,0.4-2.7v-56"/>
		<path class="st1" d="M207.6,80.9c-0.1,0.5-0.2,1.1-0.2,1.6v2.4c0,2.3,0.2,4.7,0.6,7c0.4,2.1,1.2,4.2,2.3,6
			c1.3,1.8,2.9,3.2,4.9,4.2c2.6,1.2,5.4,1.7,8.3,1.6c1.7,0.1,3.4-0.1,5-0.7c1-0.4,1.9-0.9,2.8-1.5c0.6-0.5,1.1-1,1.6-1.6
			c0.3-0.4,0.7-0.7,1.2-0.7c0.7,0,1,0.3,1,0.9c-0.2,0.6-0.5,1.2-0.9,1.7c-0.8,1.1-1.8,2.1-2.9,3c-1.5,1.2-3.2,2.2-5.1,2.9
			c-2.4,0.9-4.9,1.4-7.4,1.3c-6.2,0-11-2-14.4-6.1s-5.1-9.6-5.1-16.7c0-2.7,0.4-5.5,1.2-8.1c0.8-2.7,2.1-5.3,3.7-7.6
			c1.7-2.3,3.8-4.2,6.3-5.7c2.8-1.5,5.9-2.3,9.1-2.2c2.8-0.1,5.6,0.5,8.1,1.8c2,1,3.9,2.5,5.3,4.3c1.2,1.6,2.2,3.3,2.9,5.2
			c0.5,1.4,0.8,3,0.9,4.5c0.1,0.7-0.1,1.5-0.4,2.1c-0.5,0.4-1.2,0.6-1.8,0.5h-27 M218.3,77.6c2,0,3.9-0.1,5.9-0.3
			c1.2-0.1,2.4-0.4,3.5-1c0.7-0.3,1.3-0.9,1.6-1.7c0.3-0.8,0.4-1.7,0.4-2.6c0-1.9-0.9-3.7-2.4-4.9c-1.7-1.3-3.8-2.1-5.9-2
			c-1.9,0-3.7,0.4-5.4,1.3c-1.5,0.8-2.8,1.9-4,3.1c-1,1.1-1.9,2.3-2.5,3.7c-0.5,1-0.8,2.1-0.9,3.2c0,0.2,0.1,0.4,0.2,0.5
			c0.3,0.2,0.7,0.3,1.1,0.3c0.6,0.1,1.6,0.1,2.9,0.2S215.9,77.6,218.3,77.6L218.3,77.6z"/>
		<path class="st1" d="M26,122.7v12.5h-2.2v-12.5h-4.2v-2.2h10.8v2.2H26z"/>
		<path class="st1" d="M41.2,129.2l3,6h-2.5l-2.9-5.8h-3.3v5.8h-2.2v-14.7h6.4c2.6,0,4.7,1.4,4.7,4.4
			C44.6,126.9,43.2,128.8,41.2,129.2z M39.7,122.6h-4.3v4.7h4.3c1.2,0.1,2.3-0.7,2.5-2c0,0,0,0,0,0c0-0.1,0-0.3,0-0.4
			c0.1-1.2-0.9-2.3-2.1-2.3C40,122.6,39.8,122.6,39.7,122.6z"/>
		<path class="st1" d="M47.9,135.2v-14.7h2.2v14.7H47.9z"/>
		<path class="st1" d="M63.1,135.2l-5.9-9.2c-0.4-0.6-0.8-1.2-1.1-1.8v11H54v-14.7h2.2l5.6,9c0.4,0.6,1,1.7,1.2,2.1v-11.1h2.1v14.7
			H63.1z"/>
		<path class="st1" d="M69.1,135.2v-14.7h2.2v14.7H69.1z"/>
		<path class="st1" d="M80.8,122.7v12.5h-2.2v-12.5h-4.3v-2.2h10.8v2.2H80.8z"/>
		<path class="st1" d="M94.4,129.4v5.8h-2.2v-5.8l-5.3-8.9h2.6l2.3,4.1c0.5,0.9,1.3,2.4,1.5,2.9c0.3-0.5,1-2,1.5-2.9l2.3-4.1h2.5
			L94.4,129.4z"/>
		<path class="st1" d="M113.7,135.4c-3.8,0-6.2-3.1-6.2-7.6s2.4-7.6,6.2-7.6c2.1-0.1,4,1,5,2.8l-2,1.2c-0.6-1.1-1.7-1.9-3-1.8
			c-2.6,0-3.9,2.1-3.9,5.4c0,3.3,1.4,5.4,3.9,5.4c1.3,0.1,2.6-0.6,3.2-1.8l1.8,1.2C117.7,134.4,115.8,135.5,113.7,135.4z"/>
		<path class="st1" d="M126.9,135.4c-3.7,0-6.2-3-6.2-7.6s2.6-7.6,6.3-7.6s6.3,3,6.3,7.6S130.7,135.4,126.9,135.4z M126.9,122.5
			c-2.3,0-4,2-4,5.4c0,3.4,1.7,5.4,4.1,5.4c2.4,0,4-2,4-5.4S129.3,122.5,126.9,122.5z"/>
		<path class="st1" d="M136.4,135.2v-14.7h2.2V133h7.3v2.2H136.4z"/>
		<path class="st1" d="M148.9,135.2v-14.7h2.2V133h7.3v2.2H148.9z"/>
		<path class="st1" d="M161.3,135.2v-14.7h9.5v2.1h-7.3v3.6h4.2v2.1h-4.2v4.6h7.6v2.1h-9.8V135.2z"/>
		<path class="st1" d="M179.1,135.4c-3.8,0-6.2-3.1-6.2-7.6s2.4-7.6,6.2-7.6c2.1-0.1,4,1,5,2.8l-1.9,1.2c-0.6-1.1-1.8-1.8-3.1-1.7
			c-2.6,0-4,2.1-4,5.4c0,3.3,1.4,5.4,4,5.4c1.6,0.2,3.1-1,3.3-2.7c0-0.2,0-0.4,0-0.6v-0.1H180v-2.1h4.6v1.7
			C184.7,133.2,182.4,135.4,179.1,135.4z"/>
		<path class="st1" d="M187.8,135.2v-14.7h9.5v2.1H190v3.6h4.2v2.1H190v4.6h7.6v2.1h-9.8V135.2z"/>
		<path class="st1" d="M211.9,135.4c-3.7,0-6.2-3-6.2-7.6s2.6-7.6,6.3-7.6s6.3,3,6.3,7.6S215.7,135.4,211.9,135.4z M211.9,122.5
			c-2.3,0-4,2-4,5.4c0,3.4,1.7,5.4,4.1,5.4s4-2,4-5.4S214.2,122.5,211.9,122.5z"/>
		<path class="st1" d="M223.5,122.7v3.8h4.2v2.2h-4.2v6.5h-2.2v-14.7h9.5v2.2H223.5z"/>
		<path class="st1" d="M31.5,158.2l-1.2-3.5h-5.9l-1.2,3.5h-2.3l5.3-14.7h2.3l5.4,14.7H31.5z M28.4,149.4c-0.4-1.1-0.9-2.8-1.1-3.4
			c-0.2,0.6-0.7,2.3-1.1,3.4l-1.2,3.4h4.5L28.4,149.4z"/>
		<path class="st1" d="M44.7,152.2l3,6h-2.5l-2.9-5.8H39v5.8h-2.2v-14.7h6.4c2.6,0,4.7,1.4,4.7,4.4
			C48.1,149.9,46.7,151.8,44.7,152.2z M43.2,145.6h-4.3v4.7h4.3c1.2,0.1,2.3-0.7,2.5-2c0,0,0,0,0,0c0-0.1,0-0.3,0-0.4
			c0.1-1.2-0.9-2.3-2.1-2.3C43.5,145.6,43.3,145.6,43.2,145.6L43.2,145.6z"/>
		<path class="st1" d="M56.4,145.7v12.5h-2.2v-12.5h-4.3v-2.2h10.8v2.2H56.4z"/>
		<path class="st1" d="M67.5,158.4c-2,0-3.9-0.9-5.2-2.4l1.6-1.5c1,1.1,2.4,1.7,3.8,1.7c2.1,0,3-0.7,3-2.1c0-1.1-0.9-1.7-3.3-2.4
			c-3.1-0.9-4.6-1.7-4.6-4.3s2.1-4.1,4.9-4.1c1.8,0,3.6,0.7,4.8,2l-1.6,1.6c-0.9-0.9-2.1-1.4-3.4-1.4c-1.7,0-2.5,0.8-2.5,1.8
			s0.7,1.5,3.2,2.3c2.9,0.9,4.7,1.8,4.7,4.4S71.2,158.4,67.5,158.4z"/>
		<path class="st1" d="M91.6,158.2l-1.2-3.5h-5.9l-1.2,3.5H81l5.3-14.7h2.3l5.4,14.7H91.6z M88.5,149.4c-0.4-1.1-0.9-2.8-1.1-3.4
			c-0.2,0.6-0.7,2.3-1.1,3.4l-1.2,3.4h4.5L88.5,149.4z"/>
		<path class="st1" d="M105.9,158.2L100,149c-0.4-0.6-0.8-1.2-1.1-1.8v11h-2.1v-14.7h2.3l5.6,9c0.4,0.6,1,1.7,1.2,2.1v-11.1h2.1
			v14.7H105.9z"/>
		<path class="st1" d="M115.8,158.2h-4v-14.7h4c3.9,0,7.2,2.2,7.2,7.3S119.7,158.2,115.8,158.2z M115.8,145.7H114v10.4h1.8
			c3.5,0,4.9-2.1,4.9-5.2S119.3,145.7,115.8,145.7z"/>
		<path class="st1" d="M136.2,158.4c-2,0-3.9-0.9-5.2-2.4l1.6-1.5c1,1.1,2.4,1.7,3.8,1.7c2.1,0,3-0.7,3-2.1c0-1.1-0.9-1.7-3.3-2.4
			c-3.1-0.9-4.6-1.7-4.6-4.3s2.1-4.1,4.8-4.1c1.8,0,3.6,0.7,4.8,2l-1.6,1.6c-0.9-0.9-2.1-1.4-3.4-1.4c-1.7,0-2.5,0.8-2.5,1.8
			s0.7,1.5,3.2,2.3c2.9,0.9,4.7,1.8,4.7,4.4S139.9,158.4,136.2,158.4z"/>
		<path class="st1" d="M150.3,158.4c-3.8,0-6.2-3.1-6.2-7.6s2.4-7.6,6.2-7.6c2.1-0.1,4,1,5,2.8l-2,1.2c-0.6-1.1-1.7-1.9-3-1.8
			c-2.6,0-3.9,2.1-3.9,5.4s1.4,5.4,3.9,5.4c1.3,0.1,2.6-0.6,3.2-1.8l1.8,1.2C154.3,157.4,152.4,158.5,150.3,158.4z"/>
		<path class="st1" d="M158.7,158.2v-14.7h2.2v14.7H158.7z"/>
		<path class="st1" d="M164.8,158.2v-14.7h9.5v2.1H167v3.6h4.2v2.1H167v4.6h7.6v2.1h-9.8V158.2z"/>
		<path class="st1" d="M186.8,158.2l-5.9-9.2c-0.4-0.6-0.8-1.2-1.1-1.8v11h-2.1v-14.7h2.2l5.6,9c0.4,0.6,1,1.7,1.2,2.1v-11.1h2.1
			v14.7H186.8z"/>
		<path class="st1" d="M198.2,158.4c-3.8,0-6.2-3.1-6.2-7.6s2.4-7.6,6.2-7.6c2.1-0.1,4,1,5,2.8l-2,1.2c-0.6-1.1-1.7-1.9-3-1.8
			c-2.6,0-3.9,2.1-3.9,5.4s1.4,5.4,3.9,5.4c1.3,0.1,2.6-0.6,3.2-1.8l1.8,1.2C202.2,157.4,200.3,158.5,198.2,158.4z"/>
		<path class="st1" d="M206.5,158.2v-14.7h9.5v2.1h-7.3v3.6h4.2v2.1h-4.2v4.6h7.6v2.1h-9.8V158.2z"/>
		<path class="st1" d="M223.5,158.4c-2,0-3.9-0.9-5.2-2.4l1.6-1.5c1,1.1,2.4,1.7,3.8,1.7c2.1,0,3-0.7,3-2.1c0-1.1-0.9-1.7-3.3-2.4
			c-3.1-0.9-4.6-1.7-4.6-4.3s2.1-4.1,4.8-4.1c1.8,0,3.6,0.7,4.8,2l-1.6,1.6c-0.9-0.9-2.1-1.4-3.4-1.4c-1.7,0-2.5,0.8-2.5,1.8
			s0.7,1.5,3.2,2.3c2.9,0.9,4.7,1.8,4.7,4.4S227.2,158.4,223.5,158.4z"/>
	</g>
</g>
<g class="st2">
	<path class="st0" d="M281.4,75.7c-0.7,0-1.1-0.3-1.1-1V16.8c0-0.7,0.3-1,1-1h16.2c8.6,0,15,2.1,19.3,6.4c4.3,4.2,6.4,10.6,6.4,19.1
		v7.1c0,9.2-2.1,16.1-6.3,20.6c-4.2,4.5-10.6,6.8-19.1,6.8H281.4z M291.6,66.5h5.6c5.1,0,8.8-1.5,11.1-4.4c2.3-3,3.5-7.5,3.5-13.6
		v-7.4c0-5.5-1.2-9.6-3.6-12.2c-2.4-2.7-6.2-4-11.4-4h-5.3V66.5z"/>
</g>
<g class="st2">
	<path class="st0" d="M349.4,76.4c-5.8,0-10.3-1.4-13.5-4.2c-3.2-2.8-4.8-7-4.8-12.4V46.6c0-5.5,1.6-9.6,4.7-12.5
		c3.1-2.8,7.7-4.3,13.6-4.3c5.8,0,10.3,1.4,13.5,4.3c3.1,2.8,4.7,7,4.7,12.5v13.2c0,5.5-1.6,9.6-4.7,12.4
		C359.8,75,355.3,76.4,349.4,76.4z M349.4,67.5c2.4,0,4.2-0.7,5.3-2c1.1-1.3,1.7-3.4,1.7-6.3V47.1c0-2.9-0.6-5-1.7-6.3
		c-1.1-1.3-2.9-1.9-5.3-1.9c-2.4,0-4.2,0.6-5.4,1.9c-1.2,1.3-1.7,3.4-1.7,6.3v12.3c0,2.9,0.6,5,1.7,6.3
		C345.2,66.9,347,67.5,349.4,67.5z"/>
</g>
<g class="st2">
	<path class="st0" d="M392,93.3c-6.7,0-11.6-0.9-14.6-2.7c-3-1.8-4.5-4.5-4.5-8.2c0-2.4,0.6-4.6,1.9-6.4c1.3-1.8,3.2-3.3,5.8-4.4
		l8,2.4c-1.5,0.6-2.6,1.5-3.4,2.6c-0.8,1.1-1.2,2.3-1.2,3.7c0,1.8,0.6,3,1.9,3.8c1.3,0.8,3.5,1.2,6.5,1.2c3.5,0,5.8-0.4,7.1-1.2
		c1.2-0.8,1.9-2.2,1.9-4.1c0-1.6-0.4-2.8-1.1-3.5c-0.7-0.8-2-1.2-3.9-1.2l-12-0.8c-2.8-0.2-4.9-1.1-6.4-2.5
		c-1.5-1.4-2.3-3.4-2.3-5.8c0-2.2,0.6-4,1.9-5.4c1.3-1.4,2.9-2.7,5-3.7l6.4,2.9c-1.2,0.4-2.2,0.9-2.8,1.5c-0.6,0.6-1,1.4-1,2.1
		c0,0.8,0.3,1.4,0.9,1.9c0.6,0.5,1.5,0.7,2.9,0.9l11,0.8c4.3,0.3,7.4,1.5,9.3,3.6s2.8,5.2,2.8,9.4c0,4.6-1.6,7.9-4.8,10.1
		C404.3,92.3,399.1,93.3,392,93.3z M392.9,61.2c-5.6,0-9.7-1.3-12.3-3.8c-2.6-2.5-3.9-6.5-3.9-11.9c0-5.4,1.3-9.4,3.9-11.9
		c2.6-2.5,6.7-3.8,12.5-3.8c5.7,0,9.8,1.3,12.3,3.8c2.5,2.5,3.8,6.5,3.8,11.9c0,5.5-1.3,9.5-3.9,12C402.7,60,398.5,61.2,392.9,61.2z
		 M392.9,53.2c2.2,0,3.7-0.5,4.5-1.6s1.2-3.1,1.2-5.9c0-2.9-0.4-4.9-1.2-6c-0.8-1.1-2.3-1.7-4.5-1.7c-2.2,0-3.6,0.6-4.4,1.7
		c-0.8,1.1-1.2,3.1-1.2,6c0,2.9,0.4,4.8,1.2,5.9C389.2,52.6,390.7,53.2,392.9,53.2z M404.1,34.5l-7.7-2.8c0.1-2.5,0.2-4.7,0.5-6.7
		c0.2-2,0.5-3.6,0.7-5c0.1-0.7,0.5-1.1,1-1.1h7.1c0.8,0,1.1,0.4,0.9,1.1c-0.5,2.3-1,4.5-1.5,6.7C404.6,28.9,404.3,31.5,404.1,34.5z"
		/>
</g>
<g class="st2">
	<path class="st0" d="M436.4,75.7c-0.7,0-1-0.3-1-1V16.8c0-0.7,0.3-1,1-1h31.8c0.7,0,1,0.3,1,1V24c0,0.7-0.3,1-1,1h-21.4v15.9h19.6
		c0.7,0,1,0.3,1,1v6.8c0,0.7-0.3,1-1,1h-19.6v16.7h21.4c0.7,0,1,0.3,1,1v7.2c0,0.7-0.3,1-1,1H436.4z"/>
</g>
<g class="st2">
	<path class="st0" d="M479.5,75.7c-0.7,0-1-0.3-1-1V42.1c0-2.1,0-4.1-0.1-5.8c-0.1-1.7-0.2-3.2-0.3-4.4c-0.1-0.8,0.3-1.2,1-1.2h7.9
		c0.5,0,0.9,0.3,1,0.8c0.1,0.8,0.3,1.6,0.4,2.5c0.1,0.9,0.2,1.8,0.3,2.8c2-2.1,4.1-3.8,6.3-5.1c2.2-1.2,4.7-1.9,7.5-1.9
		c2.6,0,4.6,0.5,6.2,1.6c1.6,1.1,2.7,2.8,3.5,5c2-2.1,4.1-3.7,6.3-4.9c2.2-1.2,4.6-1.8,7.3-1.8c3.5,0,6.1,1.1,7.9,3.2
		c1.8,2.1,2.7,5.3,2.7,9.5v32.2c0,0.7-0.3,1-1,1h-9.1c-0.7,0-1-0.3-1-1V43.9c0-1.8-0.3-3.1-1-3.9c-0.7-0.8-1.7-1.2-3.1-1.2
		c-1.3,0-2.6,0.4-3.9,1.1c-1.3,0.7-2.7,1.8-4.2,3.2v31.6c0,0.7-0.3,1-1,1h-9.1c-0.7,0-1-0.3-1-1V43.9c0-1.8-0.3-3.1-1-3.9
		c-0.7-0.8-1.7-1.2-3.1-1.2c-1.3,0-2.6,0.4-3.9,1.1c-1.3,0.7-2.7,1.8-4.2,3.2v31.6c0,0.7-0.3,1-1,1H479.5z"/>
	<path class="st0" d="M563.2,76.4c-5.8,0-10.3-1.4-13.5-4.2c-3.2-2.8-4.8-7-4.8-12.4V46.6c0-5.5,1.6-9.6,4.7-12.5
		c3.1-2.8,7.7-4.3,13.6-4.3c5.8,0,10.3,1.4,13.5,4.3c3.1,2.8,4.7,7,4.7,12.5v13.2c0,5.5-1.6,9.6-4.7,12.4
		C573.6,75,569.1,76.4,563.2,76.4z M563.2,67.5c2.4,0,4.2-0.7,5.3-2c1.1-1.3,1.7-3.4,1.7-6.3V47.1c0-2.9-0.6-5-1.7-6.3
		c-1.1-1.3-2.9-1.9-5.3-1.9s-4.2,0.6-5.4,1.9c-1.2,1.3-1.7,3.4-1.7,6.3v12.3c0,2.9,0.6,5,1.7,6.3C559,66.9,560.8,67.5,563.2,67.5z"
		/>
	<path class="st0" d="M607.2,76.4c-4.9,0-8.4-1.1-10.5-3.4c-2.1-2.3-3.1-6.1-3.1-11.4V39.5h-5.7c-0.7,0-1-0.3-1-1v-6.8
		c0-0.7,0.3-1,1-1h5.9l1.3-11c0.1-0.6,0.4-0.9,1.1-0.9h7.5c0.6,0,0.9,0.3,0.9,1l0.1,10.9h10.8c0.7,0,1.1,0.3,1.1,1v6.8
		c0,0.7-0.4,1-1.1,1h-10.8V61c0,2.3,0.4,4,1.1,5c0.7,1,2.1,1.6,4,1.6c0.9,0,1.9-0.1,2.9-0.3c1-0.2,1.9-0.5,2.8-0.8
		c0.8-0.3,1.2-0.1,1.2,0.7V74c0,0.6-0.3,1-0.9,1.1c-1.1,0.4-2.4,0.7-3.9,1C610.4,76.3,608.8,76.4,607.2,76.4z"/>
	<path class="st0" d="M629.2,24.1c-2.1,0-3.7-0.5-4.9-1.5c-1.2-1-1.7-2.3-1.7-4v-1.3c0-1.8,0.6-3.1,1.7-4.1c1.1-1,2.8-1.5,4.9-1.5
		c2.2,0,3.8,0.5,4.9,1.5c1.1,1,1.7,2.3,1.7,4.1v1.3c0,1.7-0.6,3-1.7,4C633,23.6,631.3,24.1,629.2,24.1z M624.6,75.7
		c-0.7,0-1-0.3-1-1v-43c0-0.7,0.3-1,1-1h9.1c0.7,0,1,0.3,1,1v43c0,0.7-0.3,1-1,1H624.6z"/>
	<path class="st0" d="M661.6,76.4c-5.8,0-10.3-1.4-13.5-4.2c-3.2-2.8-4.8-7-4.8-12.4V46.6c0-5.5,1.6-9.6,4.7-12.5
		c3.1-2.8,7.7-4.3,13.6-4.3c5.8,0,10.3,1.4,13.5,4.3c3.1,2.8,4.7,7,4.7,12.5v13.2c0,5.5-1.6,9.6-4.7,12.4
		C672,75,667.5,76.4,661.6,76.4z M661.6,67.5c2.4,0,4.2-0.7,5.3-2c1.1-1.3,1.7-3.4,1.7-6.3V47.1c0-2.9-0.6-5-1.7-6.3
		c-1.1-1.3-2.9-1.9-5.3-1.9s-4.2,0.6-5.4,1.9c-1.2,1.3-1.7,3.4-1.7,6.3v12.3c0,2.9,0.6,5,1.7,6.3C657.3,66.9,659.1,67.5,661.6,67.5z
		"/>
	<path class="st0" d="M689.5,75.7c-0.7,0-1-0.3-1-1V42.1c0-2.1,0-4.1-0.1-5.8c-0.1-1.7-0.2-3.2-0.3-4.4c-0.1-0.8,0.2-1.2,0.9-1.2
		h7.9c0.6,0,1,0.3,1.1,0.9c0.1,1,0.3,2.3,0.5,3.9c0.2,1.6,0.3,3,0.4,4.2l0.8,2.5v32.5c0,0.7-0.3,1-1,1H689.5z M714,75.7
		c-0.7,0-1.1-0.3-1.1-1V44.3c0-2-0.4-3.4-1.1-4.2c-0.7-0.9-2-1.3-3.7-1.3c-1.5,0-3,0.4-4.5,1.3c-1.5,0.9-3.2,2.2-5,4l-1.1-6.2
		c2.2-2.4,4.6-4.4,7.1-5.9c2.5-1.5,5.3-2.2,8.3-2.2c3.7,0,6.5,1.1,8.4,3.2s2.8,5.4,2.8,9.8v31.8c0,0.7-0.3,1-1,1H714z"/>
</g>
<g class="st2">
	<path class="st0" d="M288.1,166.6c-3.2,0-5.8-1.1-7.6-3.2c-1.8-2.1-2.7-5.2-2.7-9.1c0-4.5,1.2-7.8,3.7-10.2
		c2.5-2.3,6.7-3.8,12.6-4.3l7.2-0.8v6.3l-5.5,0.5c-2.6,0.3-4.5,1-5.6,2.1c-1.1,1.1-1.7,2.8-1.7,5.1c0,1.8,0.3,3.2,0.9,4.1
		c0.6,0.9,1.6,1.4,2.8,1.4c1.4,0,2.9-0.5,4.3-1.4c1.5-0.9,3.2-2.5,5.2-4.8l0.7,6.5c-2.6,2.6-4.9,4.6-7.1,5.9
		C293.3,166,290.9,166.6,288.1,166.6z M303.1,165.9c-0.5,0-0.9-0.3-1.1-1c-0.1-0.9-0.3-2.1-0.5-3.6c-0.2-1.6-0.3-2.9-0.3-4.2l-1-2.1
		v-20.9c0-2.3-0.4-3.8-1.1-4.6c-0.7-0.8-2.1-1.2-4.1-1.2c-3.7,0-5.3,1.7-5.1,5.2c0.1,0.7-0.3,1-1.1,1h-8.1c-0.7,0-1.2-0.5-1.2-1.4
		c-0.4-4.1,0.8-7.3,3.6-9.6c2.8-2.3,6.9-3.4,12.4-3.4c5.5,0,9.6,1.1,12.1,3.3c2.5,2.2,3.8,5.8,3.8,10.7v20.3c0,2.4,0.1,4.5,0.2,6.1
		c0.1,1.6,0.2,3,0.3,4.1c0.1,0.8-0.2,1.2-0.9,1.2H303.1z"/>
	<path class="st0" d="M322,165.9c-0.7,0-1-0.3-1-1v-32.6c0-2.1,0-4.1-0.1-5.8c-0.1-1.7-0.2-3.2-0.3-4.4c-0.1-0.8,0.2-1.2,0.9-1.2
		h7.9c0.6,0,1,0.3,1.1,0.9c0.1,1,0.3,2.3,0.5,3.9c0.2,1.6,0.3,3,0.4,4.2l0.8,2.5v32.5c0,0.7-0.3,1-1,1H322z M346.6,165.9
		c-0.7,0-1.1-0.3-1.1-1v-30.4c0-2-0.4-3.4-1.1-4.2c-0.7-0.9-2-1.3-3.7-1.3c-1.5,0-3,0.4-4.5,1.3c-1.5,0.9-3.2,2.2-5,4l-1.1-6.2
		c2.2-2.4,4.6-4.4,7.1-5.9c2.5-1.5,5.3-2.2,8.3-2.2c3.7,0,6.5,1.1,8.4,3.2c1.9,2.1,2.8,5.4,2.8,9.8v31.8c0,0.7-0.3,1-1,1H346.6z"/>
	<path class="st0" d="M376.8,166.6c-3.8,0-6.6-1.1-8.5-3.3c-1.9-2.2-2.8-5.6-2.8-10.2v-17.9c0-5.1,1.2-8.9,3.6-11.4
		c2.4-2.5,5.8-3.8,10.2-3.8c2.1,0,4.2,0.3,6.3,0.8c2.1,0.5,3.9,1.2,5.3,2l0.1,8c-1.4-0.7-2.8-1.3-4.3-1.6c-1.4-0.3-2.7-0.5-3.9-0.5
		c-2.1,0-3.7,0.6-4.7,1.9c-1,1.3-1.6,3.1-1.6,5.6v16c0,1.9,0.4,3.3,1.2,4.2c0.8,0.9,2,1.4,3.6,1.4c1.6,0,3.1-0.5,4.6-1.4
		c1.5-0.9,3.2-2.3,5-4.2l0.9,6.5c-2.2,2.4-4.5,4.4-6.9,5.8S379.9,166.6,376.8,166.6z M392.5,165.9c-0.7,0-1.1-0.3-1.1-1
		c-0.2-1-0.4-2.3-0.5-3.8c-0.1-1.5-0.2-2.8-0.2-3.8l-1-2.6v-50.2c0-0.7,0.4-1,1.1-1h9c0.7,0,1,0.3,1,1v50.1c0,2.1,0,4,0.1,5.8
		c0.1,1.8,0.2,3.2,0.3,4.3c0.1,0.9-0.2,1.3-0.9,1.3H392.5z"/>
</g>
<g class="st2">
	<path class="st0" d="M447.8,166.6c-7,0-12.4-1.7-16.1-5.2c-3.7-3.4-5.6-8.7-5.6-15.7v-19.6c0-7,1.9-12.2,5.6-15.7
		c3.7-3.5,9.1-5.3,16.1-5.3c4.9,0,9,0.9,12.4,2.6c3.4,1.7,5.9,4.1,7.4,7.3c1.6,3.1,2,6.8,1.4,11.1c-0.1,0.7-0.4,1-1,1h-9.3
		c-0.7,0-1.1-0.3-1-1c0.3-3.8-0.3-6.7-1.9-8.7c-1.6-2-4.2-3-7.8-3c-3.5,0-6.1,1-7.8,2.9c-1.8,1.9-2.6,5-2.6,9.1v18.8
		c0,4.2,0.9,7.3,2.7,9.2c1.8,1.9,4.4,2.9,7.8,2.9c3.7,0,6.4-1.1,7.9-3.2c1.6-2.1,2.2-5,1.9-8.5c-0.1-0.7,0.2-1.1,0.9-1.1h9.3
		c0.7,0,1,0.4,1.1,1.2c0.6,6.4-0.9,11.5-4.7,15.2C460.7,164.7,455.1,166.6,447.8,166.6z"/>
</g>
<g class="st2">
	<path class="st0" d="M495,166.6c-5.8,0-10.3-1.4-13.5-4.2c-3.2-2.8-4.8-7-4.8-12.4v-13.2c0-5.5,1.6-9.6,4.7-12.5
		c3.1-2.8,7.7-4.3,13.6-4.3c5.8,0,10.3,1.4,13.5,4.3c3.1,2.8,4.7,7,4.7,12.5V150c0,5.5-1.6,9.6-4.7,12.4
		C505.4,165.2,500.9,166.6,495,166.6z M495,157.8c2.4,0,4.2-0.7,5.3-2c1.1-1.3,1.7-3.4,1.7-6.3v-12.3c0-2.9-0.6-5-1.7-6.3
		c-1.1-1.3-2.9-1.9-5.3-1.9s-4.2,0.6-5.4,1.9c-1.2,1.3-1.7,3.4-1.7,6.3v12.3c0,2.9,0.6,5,1.7,6.3C490.7,157.1,492.5,157.8,495,157.8
		z"/>
</g>
<g class="st2">
	<path class="st0" d="M537.6,183.5c-6.7,0-11.6-0.9-14.6-2.7c-3-1.8-4.5-4.5-4.5-8.2c0-2.4,0.6-4.6,1.9-6.4c1.3-1.8,3.2-3.3,5.8-4.4
		l8,2.4c-1.5,0.6-2.6,1.5-3.4,2.6c-0.8,1.1-1.2,2.3-1.2,3.7c0,1.8,0.6,3,1.9,3.8c1.3,0.8,3.5,1.2,6.5,1.2c3.5,0,5.8-0.4,7.1-1.2
		c1.3-0.8,1.9-2.2,1.9-4.1c0-1.6-0.4-2.8-1.1-3.5c-0.7-0.8-2-1.2-3.9-1.2l-12-0.8c-2.8-0.2-4.9-1.1-6.4-2.5s-2.3-3.4-2.3-5.8
		c0-2.2,0.6-4,1.9-5.4c1.3-1.4,2.9-2.7,5-3.7l6.4,2.9c-1.2,0.4-2.1,0.9-2.8,1.5c-0.6,0.6-1,1.4-1,2.2c0,0.8,0.3,1.4,0.9,1.9
		c0.6,0.5,1.5,0.7,2.9,0.9l11,0.8c4.3,0.3,7.4,1.5,9.3,3.6c1.9,2.1,2.8,5.2,2.8,9.4c0,4.6-1.6,7.9-4.8,10.1
		C549.9,182.5,544.7,183.5,537.6,183.5z M538.4,151.4c-5.6,0-9.7-1.3-12.3-3.8c-2.6-2.5-3.9-6.5-3.9-11.9c0-5.4,1.3-9.4,3.9-11.9
		c2.6-2.5,6.7-3.8,12.5-3.8c5.7,0,9.8,1.3,12.3,3.8c2.5,2.5,3.8,6.5,3.8,11.9c0,5.5-1.3,9.5-3.9,12
		C548.2,150.2,544.1,151.4,538.4,151.4z M538.4,143.4c2.2,0,3.7-0.5,4.5-1.6c0.8-1.1,1.2-3.1,1.2-5.9c0-2.9-0.4-4.9-1.2-6
		c-0.8-1.1-2.3-1.7-4.5-1.7s-3.6,0.6-4.4,1.7c-0.8,1.1-1.2,3.1-1.2,6c0,2.9,0.4,4.8,1.2,5.9C534.8,142.8,536.3,143.4,538.4,143.4z
		 M549.7,124.7l-7.7-2.8c0.1-2.5,0.2-4.7,0.5-6.7c0.2-2,0.5-3.6,0.7-5c0.1-0.7,0.5-1.1,1-1.1h7.1c0.8,0,1.1,0.4,0.9,1.1
		c-0.5,2.3-1,4.5-1.5,6.7C550.2,119.1,549.9,121.7,549.7,124.7z"/>
	<path class="st0" d="M565.3,165.9c-0.7,0-1-0.3-1-1v-32.6c0-2.1,0-4.1-0.1-5.8c-0.1-1.7-0.2-3.2-0.3-4.4c-0.1-0.8,0.2-1.2,0.9-1.2
		h7.9c0.6,0,1,0.3,1.1,0.9c0.1,1,0.3,2.3,0.5,3.9s0.3,3,0.4,4.2l0.8,2.5v32.5c0,0.7-0.3,1-1,1H565.3z M589.9,165.9
		c-0.7,0-1.1-0.3-1.1-1v-30.4c0-2-0.4-3.4-1.1-4.2c-0.7-0.9-2-1.3-3.7-1.3c-1.5,0-3,0.4-4.5,1.3c-1.5,0.9-3.2,2.2-5,4l-1.1-6.2
		c2.2-2.4,4.6-4.4,7.1-5.9c2.5-1.5,5.3-2.2,8.3-2.2c3.7,0,6.5,1.1,8.4,3.2s2.8,5.4,2.8,9.8v31.8c0,0.7-0.3,1-1,1H589.9z"/>
	<path class="st0" d="M615.1,114.3c-2.1,0-3.7-0.5-4.9-1.5c-1.2-1-1.7-2.3-1.7-4v-1.3c0-1.8,0.6-3.1,1.7-4.1c1.1-1,2.8-1.5,4.9-1.5
		c2.2,0,3.8,0.5,4.9,1.5c1.1,1,1.7,2.3,1.7,4.1v1.3c0,1.7-0.6,3-1.7,4C618.9,113.8,617.2,114.3,615.1,114.3z M610.5,165.9
		c-0.7,0-1-0.3-1-1v-43c0-0.7,0.3-1,1-1h9.1c0.7,0,1,0.3,1,1v43c0,0.7-0.3,1-1,1H610.5z"/>
	<path class="st0" d="M647.1,166.6c-4.9,0-8.4-1.1-10.5-3.4c-2.1-2.3-3.1-6.1-3.1-11.4v-22.1h-5.7c-0.7,0-1-0.3-1-1v-6.8
		c0-0.7,0.3-1,1-1h5.9l1.3-11c0.1-0.6,0.4-0.9,1.1-0.9h7.5c0.6,0,0.9,0.3,0.9,1l0.1,10.9h10.8c0.7,0,1.1,0.3,1.1,1v6.8
		c0,0.7-0.4,1-1.1,1h-10.8v21.6c0,2.3,0.4,4,1.1,5c0.7,1,2.1,1.6,4,1.6c0.9,0,1.9-0.1,2.9-0.3c1-0.2,1.9-0.5,2.8-0.8
		c0.8-0.3,1.2-0.1,1.2,0.7v6.8c0,0.6-0.3,1-0.9,1.1c-1.1,0.4-2.4,0.7-3.9,1C650.4,166.5,648.8,166.6,647.1,166.6z"/>
	<path class="st0" d="M669.2,114.3c-2.1,0-3.7-0.5-4.9-1.5c-1.2-1-1.7-2.3-1.7-4v-1.3c0-1.8,0.6-3.1,1.7-4.1c1.1-1,2.8-1.5,4.9-1.5
		c2.2,0,3.8,0.5,4.9,1.5c1.1,1,1.7,2.3,1.7,4.1v1.3c0,1.7-0.6,3-1.7,4C673,113.8,671.3,114.3,669.2,114.3z M664.6,165.9
		c-0.7,0-1-0.3-1-1v-43c0-0.7,0.3-1,1-1h9.1c0.7,0,1,0.3,1,1v43c0,0.7-0.3,1-1,1H664.6z"/>
	<path class="st0" d="M701.6,166.6c-5.8,0-10.3-1.4-13.5-4.2c-3.2-2.8-4.8-7-4.8-12.4v-13.2c0-5.5,1.6-9.6,4.7-12.5
		c3.1-2.8,7.7-4.3,13.6-4.3c5.8,0,10.3,1.4,13.5,4.3c3.1,2.8,4.7,7,4.7,12.5V150c0,5.5-1.6,9.6-4.7,12.4
		C711.9,165.2,707.4,166.6,701.6,166.6z M701.6,157.8c2.4,0,4.2-0.7,5.3-2c1.1-1.3,1.7-3.4,1.7-6.3v-12.3c0-2.9-0.6-5-1.7-6.3
		c-1.1-1.3-2.9-1.9-5.3-1.9s-4.2,0.6-5.4,1.9c-1.2,1.3-1.7,3.4-1.7,6.3v12.3c0,2.9,0.6,5,1.7,6.3
		C697.3,157.1,699.1,157.8,701.6,157.8z"/>
	<path class="st0" d="M729.5,165.9c-0.7,0-1-0.3-1-1v-32.6c0-2.1,0-4.1-0.1-5.8c-0.1-1.7-0.2-3.2-0.3-4.4c-0.1-0.8,0.2-1.2,0.9-1.2
		h7.9c0.6,0,1,0.3,1.1,0.9c0.1,1,0.3,2.3,0.5,3.9s0.3,3,0.4,4.2l0.8,2.5v32.5c0,0.7-0.3,1-1,1H729.5z M754,165.9
		c-0.7,0-1.1-0.3-1.1-1v-30.4c0-2-0.4-3.4-1.1-4.2c-0.7-0.9-2-1.3-3.7-1.3c-1.5,0-3,0.4-4.5,1.3c-1.5,0.9-3.2,2.2-5,4l-1.1-6.2
		c2.2-2.4,4.6-4.4,7.1-5.9c2.5-1.5,5.3-2.2,8.3-2.2c3.7,0,6.5,1.1,8.4,3.2s2.8,5.4,2.8,9.8v31.8c0,0.7-0.3,1-1,1H754z"/>
</g>
</svg>
