<svg xmlns="http://www.w3.org/2000/svg" viewBox="0 0 580.09 135.63"><defs><style>.cls-1{fill:#1a206c;}.cls-2,.cls-6{fill:#718096;}.cls-3{fill:#fff;}.cls-4{fill:#a0aec0;}.cls-5{fill:#c54c9c;}.cls-6{font-size:51.03px;font-family:SofiaSansCondensed-Medium, Sofia Sans Condensed;font-weight:500;}.cls-7{letter-spacing:-0.01em;}.cls-8{letter-spacing:0em;}.cls-9{letter-spacing:-0.01em;}.cls-10{letter-spacing:0em;}.cls-11{letter-spacing:0em;}.cls-12{letter-spacing:0em;}.cls-13{letter-spacing:-0.01em;}.cls-14{letter-spacing:0em;}.cls-15{letter-spacing:-0.02em;}.cls-16{letter-spacing:-0.01em;}.cls-17{letter-spacing:0em;}.cls-18{letter-spacing:-0.07em;}.cls-19{letter-spacing:-0.02em;}.cls-20{letter-spacing:-0.01em;}.cls-21{letter-spacing:0em;}</style></defs><g id="Layer_2" data-name="Layer 2"><g id="Layer_1-2" data-name="Layer 1"><path class="cls-1" d="M0,67.82A67.82,67.82,0,1,0,67.81,0,67.89,67.89,0,0,0,0,67.82Z"/><path class="cls-2" d="M0,67.82A67.82,67.82,0,1,0,67.81,0,67.89,67.89,0,0,0,0,67.82Z"/><path class="cls-3" d="M2.18,67.82A65.63,65.63,0,1,0,67.81,2.18,65.7,65.7,0,0,0,2.18,67.82Z"/><path class="cls-4" d="M21.21,42.31c3.77,7.18,13.19,10,16,10.18S49.12,54.07,52.1,55.9s1,3-1.15,2.1-8.07-1.52-8.1-.71,3,6.19,6.89,9.49a14.41,14.41,0,0,1-1.54-3.11s2.65-1.44,4.51-.57,3.94,2.5,7.67,3.22,7,.07,11.74,4.8,6.81,4.87,7.74,4.79,3.44-6.58,4.66-9.23S90.9,62,90.9,62a6.89,6.89,0,0,0-4.37.79s.57-4.3.85-7.88-8.66-6-12-7.24-3.87-3.08-3.87-4.22A5.64,5.64,0,0,1,72.27,41c-.65-.79-1.94-4.23-.93-5.8s4.73-.5,8.66.07,4.73.14,6.1-1.43,4.58-1,7.09-1c0,0,2.79-4,3.51-5.3s.14-5.16.42-5.44,1.87,2.5,1.51,5.73a50.77,50.77,0,0,1-1.79,7.73C98.77,34.3,99.2,31,99.2,31s4.73-4.08,6.88-4.66,1.58,2.51,1.08,4.52A77.1,77.1,0,0,1,103.71,39c-.57-1.58-4.08-2.86-4.08-2.86a10.08,10.08,0,0,1,4.16,5.3c1.14,3.58,3.15,9.67,5.08,14.9s6.38,8.38,10.32,11.39a85.19,85.19,0,0,1,10.74,10.73,63.9,63.9,0,0,0,1-11.06A63.25,63.25,0,0,0,14,33.84,28,28,0,0,1,21.21,42.31Z"/><path class="cls-5" d="M114.75,101.56c.5-.5,2.15.07,2.15.07-1-1-4.45-1.5-8.38-2.29a59.85,59.85,0,0,1-8-2.29s-.72,12.25-.72,13.46-3.08,9.1-4.52,10.82c-1,1.22-6.37.72-6.87,0s-2.08-.43-2.08-.43c.86-2.58,5.09-2.86,6.38-3.15s1.93-3.51,2.29-5.66A41.73,41.73,0,0,0,94,99.48a52.75,52.75,0,0,1-1.65-6.94,12.84,12.84,0,0,0,6.09,2.57c-6.67-3.36-10.25-10.45-10.25-10.45a7.22,7.22,0,0,1,5.45-.86c3,.78,6.3,6.3,6.3,6.3A11.12,11.12,0,0,0,92,82.22c-2.94-.57-7,2.44-8.46,3.94s-3.93,1.15-5.8-.65-8-7.23-11.53-11.1a10.81,10.81,0,0,0-3-2.32,2.69,2.69,0,0,1-.33.62C61.44,74.88,54,75.1,49.65,74s-12-9-16.25-12.07S14.81,51.05,9.5,47.82c-.54-.33-1.1-.69-1.68-1.06a63.25,63.25,0,0,0,107.8,61.8A10.48,10.48,0,0,1,114.75,101.56Z"/><text class="cls-6" transform="translate(146.73 52.37)"><tspan class="cls-7">T</tspan><tspan x="20.72" y="0">he </tspan><tspan class="cls-8" x="71.74" y="0">A</tspan><tspan class="cls-9" x="94.45" y="0">s</tspan><tspan class="cls-10" x="112.61" y="0">sociation </tspan><tspan class="cls-11" x="280.53" y="0">o</tspan><tspan x="301.86" y="0">f </tspan><tspan class="cls-12" x="0" y="61.23">P</tspan><tspan class="cls-13" x="21.94" y="61.23">r</tspan><tspan class="cls-14" x="36.13" y="61.23">o</tspan><tspan class="cls-15" x="57.45" y="61.23">f</tspan><tspan x="71.54" y="61.23">e</tspan><tspan class="cls-16" x="92.41" y="61.23">s</tspan><tspan x="110.57" y="61.23">sional D</tspan><tspan class="cls-17" x="245.84" y="61.23">o</tspan><tspan x="267.17" y="61.23">g </tspan><tspan class="cls-18" x="295.89" y="61.23">T</tspan><tspan class="cls-19" x="313.5" y="61.23">r</tspan><tspan x="327.68" y="61.23">aine</tspan><tspan class="cls-20" x="400.39" y="61.23">r</tspan><tspan class="cls-21" x="414.68" y="61.23">s</tspan></text></g></g></svg>