<?xml version="1.0" encoding="utf-8"?>
<!-- Generator: Adobe Illustrator 26.1.0, SVG Export Plug-In . SVG Version: 6.00 Build 0)  -->
<svg version="1.1" id="Layer_1" xmlns="http://www.w3.org/2000/svg" xmlns:xlink="http://www.w3.org/1999/xlink" x="0px" y="0px"
	 viewBox="0 0 544 118.9" style="enable-background:new 0 0 544 118.9;" xml:space="preserve">
<style type="text/css">
	.st0{fill:#1A206C;}
	.st1{fill:#718096;}
	.st2{fill:#FFFFFF;}
	.st3{fill:#718098;}
	.st4{fill:#F9F9F9;}
	.st5{fill:#A0AEC0;}
	.st6{enable-background:new    ;}
	.st7{fill:#718097;}
</style>
<path class="st0" d="M6.3,59.2C6.3,88.4,30,112,59.2,112S112,88.4,112,59.2S88.4,6.3,59.2,6.3C30,6.3,6.3,30,6.3,59.2z"/>
<path class="st1" d="M4.4,58.9c0,30.4,24.6,55,55,55s55-24.6,55-55s-24.6-55-55-55l0,0C29.1,3.9,4.4,28.5,4.4,58.9z"/>
<path class="st2" d="M8,59.2c0,28.3,22.9,51.2,51.2,51.2c28.3,0,51.2-22.9,51.2-51.2C110.3,30.9,87.4,8,59.2,8c0,0,0,0,0,0
	C30.9,8,8,30.9,8,59.2z"/>
<circle class="st3" cx="59.4" cy="58.9" r="55"/>
<circle class="st4" cx="59.2" cy="59.2" r="51.2"/>
<path class="st5" d="M22.8,39.3c2.9,5.6,10.3,7.8,12.5,7.9s9.3,1.2,11.6,2.7s0.8,2.3-0.9,1.6s-6.3-1.2-6.3-0.5s2.4,4.8,5.4,7.4
	c-0.5-0.8-0.9-1.6-1.2-2.4c0,0,2.1-1.1,3.5-0.4s3.1,2,6,2.5s5.5,0.1,9.2,3.7c3.7,3.7,5.3,3.8,6,3.7s2.7-5.1,3.6-7.2s5-3.6,5-3.6
	c-1.2-0.2-2.4,0-3.4,0.6c0,0,0.4-3.3,0.7-6.1s-6.8-4.7-9.4-5.6s-3-2.4-3-3.3c0.1-0.7,0.3-1.3,0.6-1.9c-0.5-0.6-1.5-3.3-0.7-4.5
	s3.7-0.4,6.8,0.1s3.7,0.1,4.8-1.1s3.6-0.8,5.6-0.8c0,0,2.2-3.1,2.7-4.1s0.1-4,0.3-4.2s1.5,2,1.2,4.5c-0.3,2-0.8,4-1.4,6
	c1.5-1,1.8-3.6,1.8-3.6s3.7-3.2,5.4-3.6s1.2,2,0.8,3.5c-0.8,2.2-1.7,4.3-2.7,6.3c-0.5-1.2-3.2-2.2-3.2-2.2c1.5,1,2.7,2.4,3.2,4.1
	c0.9,2.8,2.5,7.5,4,11.6s5,6.5,8,8.9c3,2.5,5.8,5.3,8.4,8.4c0.5-2.8,0.7-5.7,0.8-8.6c0-27.2-22.1-49.3-49.3-49.3
	c-17,0-32.8,8.8-41.9,23.2C19.5,34.5,21.4,36.7,22.8,39.3z"/>
<g class="st6">
	<path class="st3" d="M130.5,45c-0.3,0-0.5-0.2-0.5-0.5V20.8h-5.8c-0.3,0-0.5-0.2-0.5-0.5v-4.1c0-0.4,0.2-0.5,0.5-0.5h17.5
		c0.3,0,0.5,0.2,0.5,0.5v4.1c0,0.4-0.2,0.5-0.5,0.5h-5.8v23.6c0,0.4-0.1,0.5-0.4,0.5H130.5z"/>
</g>
<g class="st6">
	<path class="st3" d="M146,45c-0.4,0-0.5-0.2-0.5-0.5V14.9c0-0.4,0.2-0.5,0.5-0.5h4.7c0.3,0,0.5,0.2,0.5,0.5v29.6
		c0,0.4-0.2,0.5-0.5,0.5H146z M156.7,45c-0.3,0-0.4-0.2-0.4-0.5V29.8c0-0.8-0.2-1.4-0.4-1.8c-0.3-0.4-0.8-0.6-1.4-0.6
		c-0.6,0-1.2,0.2-1.8,0.6c-0.6,0.4-1.2,0.9-1.9,1.6l-0.6-3.2c0.9-1.1,1.9-2.1,3.1-2.8c1.2-0.8,2.4-1.1,3.8-1.1
		c1.7,0,2.9,0.5,3.7,1.5c0.8,1,1.2,2.7,1.2,4.9v15.6c0,0.4-0.2,0.5-0.5,0.5H156.7z"/>
	<path class="st3" d="M173.8,45.4c-2.8,0-4.9-0.7-6.3-2c-1.4-1.3-2.1-3.4-2.1-6.1v-6.4c0-2.8,0.7-4.8,2.1-6.3
		c1.4-1.4,3.5-2.1,6.2-2.1c2.8,0,4.9,0.7,6.2,2.1c1.4,1.4,2.1,3.5,2.1,6.3v3.9c0,0.4-0.2,0.5-0.5,0.5H171v2.2c0,1.2,0.2,2.1,0.7,2.6
		c0.4,0.5,1.1,0.8,2.1,0.8c0.8,0,1.4-0.2,1.8-0.5c0.4-0.3,0.6-0.9,0.6-1.7c0-0.3,0.2-0.5,0.5-0.5h4.5c0.3,0,0.5,0.2,0.5,0.5
		c0,2.2-0.6,3.8-1.9,5C178.4,44.8,176.4,45.4,173.8,45.4z M171,31.7h5.3v-1.4c0-1.2-0.2-2-0.6-2.6c-0.4-0.5-1.1-0.8-2-0.8
		c-1,0-1.7,0.3-2.1,0.8c-0.4,0.5-0.7,1.4-0.7,2.6V31.7z"/>
</g>
<g class="st6">
	<path class="st3" d="M192,45c-0.4,0-0.5-0.2-0.4-0.6L199,16c0.1-0.3,0.2-0.4,0.5-0.4h6.3c0.3,0,0.5,0.1,0.6,0.4l7.4,28.4
		c0.1,0.4,0,0.6-0.4,0.6h-5.4c-0.3,0-0.4-0.1-0.5-0.4l-3.7-17.5c-0.2-1-0.4-2-0.6-3.1c-0.2-1-0.4-2-0.5-3h-0.1c-0.2,1-0.4,2-0.6,3
		c-0.2,1-0.4,2-0.6,3.1l-3.8,17.5c0,0.3-0.2,0.4-0.5,0.4H192z M198.1,39.1l0.9-4.8h7.3l1,4.8H198.1z"/>
</g>
<g class="st6">
	<path class="st3" d="M224.1,45.4c-2.7,0-4.6-0.6-5.8-1.7c-1.2-1.2-1.7-2.9-1.5-5.3c0-0.4,0.2-0.5,0.5-0.5h4.3
		c0.3,0,0.5,0.2,0.5,0.6c0,1,0.1,1.7,0.4,2.1c0.3,0.4,0.8,0.7,1.6,0.7c0.7,0,1.2-0.2,1.6-0.5c0.3-0.3,0.5-0.8,0.5-1.5
		c0-0.6-0.1-1.1-0.4-1.5c-0.3-0.4-0.8-0.8-1.5-1.2l-4.1-2.3c-1.1-0.7-1.9-1.4-2.5-2.3c-0.6-0.9-0.9-2-0.9-3.4c0-2,0.6-3.5,1.8-4.5
		c1.2-1,3-1.5,5.5-1.5c2.6,0,4.5,0.5,5.7,1.6c1.2,1.1,1.8,2.6,1.7,4.7c0,0.4-0.2,0.5-0.5,0.5h-4.3c-0.1,0-0.3-0.1-0.4-0.2
		c-0.1-0.1-0.1-0.3-0.1-0.5c0.1-0.7-0.1-1.2-0.4-1.5c-0.3-0.3-0.8-0.5-1.5-0.5c-0.6,0-1.1,0.1-1.4,0.4c-0.3,0.3-0.5,0.7-0.5,1.2
		s0.1,1,0.4,1.3c0.3,0.3,0.7,0.7,1.4,1.1l3.9,2.2c1.3,0.7,2.2,1.6,2.8,2.5c0.6,0.9,0.9,2.1,0.9,3.5c0,2.2-0.6,3.8-1.9,4.8
		C228.7,44.8,226.7,45.4,224.1,45.4z"/>
</g>
<g class="st6">
	<path class="st3" d="M242.3,45.4c-2.7,0-4.6-0.6-5.8-1.7c-1.2-1.2-1.7-2.9-1.5-5.3c0-0.4,0.2-0.5,0.5-0.5h4.3
		c0.3,0,0.5,0.2,0.5,0.6c0,1,0.1,1.7,0.4,2.1c0.3,0.4,0.8,0.7,1.6,0.7c0.7,0,1.2-0.2,1.6-0.5c0.3-0.3,0.5-0.8,0.5-1.5
		c0-0.6-0.1-1.1-0.4-1.5c-0.3-0.4-0.8-0.8-1.5-1.2l-4.1-2.3c-1.1-0.7-1.9-1.4-2.5-2.3c-0.6-0.9-0.9-2-0.9-3.4c0-2,0.6-3.5,1.8-4.5
		c1.2-1,3-1.5,5.5-1.5c2.6,0,4.5,0.5,5.7,1.6c1.2,1.1,1.8,2.6,1.7,4.7c0,0.4-0.2,0.5-0.5,0.5H245c-0.1,0-0.3-0.1-0.4-0.2
		c-0.1-0.1-0.1-0.3-0.1-0.5c0.1-0.7-0.1-1.2-0.4-1.5c-0.3-0.3-0.8-0.5-1.5-0.5c-0.6,0-1.1,0.1-1.4,0.4c-0.3,0.3-0.5,0.7-0.5,1.2
		s0.1,1,0.4,1.3c0.3,0.3,0.7,0.7,1.4,1.1l3.9,2.2c1.3,0.7,2.2,1.6,2.8,2.5c0.6,0.9,0.9,2.1,0.9,3.5c0,2.2-0.6,3.8-1.9,4.8
		C246.9,44.8,244.9,45.4,242.3,45.4z"/>
	<path class="st3" d="M261.3,45.4c-2.7,0-4.7-0.7-6.2-2.1c-1.5-1.4-2.2-3.5-2.2-6.2v-6.3c0-2.7,0.7-4.8,2.2-6.2
		c1.5-1.4,3.6-2.1,6.2-2.1c2.7,0,4.8,0.7,6.2,2.1c1.5,1.4,2.2,3.5,2.2,6.2v6.3c0,2.7-0.7,4.8-2.2,6.2
		C266.1,44.7,264,45.4,261.3,45.4z M261.3,40.4c1,0,1.7-0.3,2.1-0.9c0.4-0.6,0.6-1.5,0.6-2.7V31c0-1.3-0.2-2.2-0.6-2.8
		c-0.4-0.6-1.1-0.8-2.1-0.8c-0.9,0-1.6,0.3-2.1,0.8c-0.4,0.6-0.7,1.5-0.7,2.8v5.8c0,1.3,0.2,2.2,0.7,2.7
		C259.6,40.1,260.3,40.4,261.3,40.4z"/>
	<path class="st3" d="M281.2,45.4c-2.8,0-4.8-0.7-6.3-2.1c-1.4-1.4-2.2-3.5-2.2-6.3v-6.1c0-2.7,0.7-4.8,2.2-6.2
		c1.5-1.4,3.5-2.1,6.3-2.1c1.7,0,3.2,0.3,4.4,1c1.2,0.7,2.1,1.6,2.7,2.8s0.8,2.5,0.7,4.1c0,0.5-0.2,0.8-0.5,0.8h-4.2
		c-0.4,0-0.5-0.2-0.5-0.6c0.1-1-0.1-1.8-0.6-2.3c-0.4-0.5-1.1-0.7-1.9-0.7c-1,0-1.7,0.3-2.1,0.8c-0.5,0.5-0.7,1.5-0.7,2.8v5.6
		c0,1.3,0.2,2.3,0.7,2.9s1.2,0.9,2.1,0.9c0.9,0,1.5-0.2,1.9-0.7c0.4-0.5,0.6-1.2,0.6-2.3c0-0.4,0.2-0.6,0.5-0.6h4.3
		c0.3,0,0.5,0.2,0.5,0.6c0.1,2.6-0.6,4.6-1.9,6C285.9,44.7,283.9,45.4,281.2,45.4z"/>
	<path class="st3" d="M295.4,19.9c-1,0-1.8-0.3-2.4-0.8c-0.6-0.5-0.9-1.2-0.9-2.1v-0.8c0-0.9,0.3-1.7,0.9-2.2
		c0.6-0.5,1.4-0.8,2.4-0.8c1.1,0,1.9,0.3,2.4,0.8c0.6,0.5,0.8,1.2,0.8,2.2V17c0,0.9-0.3,1.6-0.8,2.1
		C297.3,19.6,296.5,19.9,295.4,19.9z M293.1,45c-0.4,0-0.5-0.2-0.5-0.5V23.3c0-0.3,0.2-0.5,0.5-0.5h4.7c0.3,0,0.5,0.2,0.5,0.5v21.1
		c0,0.4-0.2,0.5-0.5,0.5H293.1z"/>
	<path class="st3" d="M306,45.4c-1.5,0-2.7-0.5-3.5-1.6c-0.8-1.1-1.2-2.5-1.2-4.5c0-2.2,0.6-3.8,1.7-5c1.1-1.2,3-1.9,5.7-2.1
		l3.2-0.4l0,3.3l-2.2,0.3c-1.1,0.1-1.8,0.4-2.3,0.9c-0.4,0.5-0.7,1.3-0.7,2.3c0,0.8,0.1,1.4,0.4,1.8c0.2,0.4,0.6,0.6,1.2,0.6
		c0.6,0,1.2-0.2,1.8-0.6s1.3-1.1,2.1-2.2l0.4,3.3c-1.1,1.3-2.2,2.3-3.2,2.9S307.3,45.4,306,45.4z M312.8,45c-0.3,0-0.4-0.2-0.5-0.5
		c-0.1-0.4-0.1-0.9-0.2-1.7c-0.1-0.7-0.1-1.4-0.2-2l-0.5-1.1V29.3c0-1-0.1-1.6-0.4-2c-0.3-0.4-0.8-0.5-1.6-0.5c-1.5,0-2.1,0.8-2,2.4
		c0.1,0.4-0.1,0.5-0.5,0.5h-4.2c-0.3,0-0.5-0.2-0.6-0.7c-0.2-2.2,0.4-3.8,1.7-5c1.3-1.2,3.2-1.7,5.8-1.7c2.6,0,4.5,0.6,5.7,1.7
		c1.2,1.1,1.8,2.9,1.8,5.4v9.8c0,1.2,0,2.2,0,3c0,0.8,0.1,1.5,0.1,2.1c0.1,0.4-0.1,0.6-0.4,0.6H312.8z"/>
	<path class="st3" d="M329,45.4c-2.4,0-4-0.6-5-1.7s-1.5-3.1-1.5-5.9v-10H320c-0.3,0-0.5-0.2-0.5-0.5v-3.9c0-0.3,0.2-0.5,0.5-0.5
		h2.6l0.6-5.3c0.1-0.4,0.2-0.5,0.5-0.5h3.9c0.3,0,0.4,0.2,0.4,0.5v5.3h4.7c0.4,0,0.5,0.2,0.5,0.5v3.9c0,0.4-0.2,0.5-0.5,0.5h-4.7
		v9.6c0,1.1,0.2,1.9,0.5,2.3s0.9,0.7,1.7,0.7c0.4,0,0.8,0,1.2-0.1c0.4-0.1,0.8-0.2,1.3-0.4c0.4-0.1,0.6,0,0.6,0.4v3.8
		c0,0.3-0.2,0.5-0.4,0.6c-0.5,0.2-1.1,0.3-1.8,0.4C330.5,45.3,329.8,45.4,329,45.4z"/>
	<path class="st3" d="M339,19.9c-1,0-1.8-0.3-2.4-0.8c-0.6-0.5-0.9-1.2-0.9-2.1v-0.8c0-0.9,0.3-1.7,0.9-2.2c0.6-0.5,1.4-0.8,2.4-0.8
		c1.1,0,1.9,0.3,2.4,0.8c0.6,0.5,0.8,1.2,0.8,2.2V17c0,0.9-0.3,1.6-0.8,2.1C340.9,19.6,340.1,19.9,339,19.9z M336.7,45
		c-0.4,0-0.5-0.2-0.5-0.5V23.3c0-0.3,0.2-0.5,0.5-0.5h4.7c0.3,0,0.5,0.2,0.5,0.5v21.1c0,0.4-0.2,0.5-0.5,0.5H336.7z"/>
</g>
<g class="st6">
	<path class="st3" d="M357.9,45.4c-2.7,0-4.7-0.7-6.2-2.1c-1.5-1.4-2.2-3.5-2.2-6.2v-6.3c0-2.7,0.7-4.8,2.2-6.2
		c1.5-1.4,3.6-2.1,6.2-2.1c2.7,0,4.8,0.7,6.2,2.1c1.5,1.4,2.2,3.5,2.2,6.2v6.3c0,2.7-0.7,4.8-2.2,6.2
		C362.7,44.7,360.6,45.4,357.9,45.4z M357.9,40.4c1,0,1.7-0.3,2.1-0.9s0.6-1.5,0.6-2.7V31c0-1.3-0.2-2.2-0.6-2.8
		c-0.4-0.6-1.1-0.8-2.1-0.8c-0.9,0-1.6,0.3-2.1,0.8c-0.4,0.6-0.7,1.5-0.7,2.8v5.8c0,1.3,0.2,2.2,0.7,2.7S357,40.4,357.9,40.4z"/>
</g>
<g class="st6">
	<path class="st3" d="M370.9,45c-0.4,0-0.5-0.2-0.5-0.5V28.5c0-1,0-2,0-2.8c0-0.9-0.1-1.6-0.1-2.3c0-0.4,0.1-0.6,0.4-0.6h4
		c0.3,0,0.5,0.1,0.5,0.4c0.1,0.5,0.1,1.1,0.2,1.9c0.1,0.8,0.1,1.4,0.2,2l0.4,1.5v15.8c0,0.4-0.2,0.5-0.5,0.5H370.9z M381.7,45
		c-0.3,0-0.5-0.2-0.5-0.5V29.8c0-0.8-0.2-1.4-0.4-1.8c-0.3-0.4-0.8-0.6-1.4-0.6c-0.6,0-1.2,0.2-1.8,0.6c-0.6,0.4-1.2,0.9-1.9,1.6
		l-0.7-3.2c0.9-1.1,2-2.1,3.1-2.8c1.1-0.8,2.4-1.1,3.9-1.1c1.7,0,2.9,0.5,3.7,1.5c0.8,1,1.2,2.7,1.2,4.9v15.6c0,0.4-0.2,0.5-0.5,0.5
		H381.7z"/>
</g>
<g class="st6">
	<path class="st3" d="M406,45.4c-2.7,0-4.7-0.7-6.2-2.1c-1.5-1.4-2.2-3.5-2.2-6.2v-6.3c0-2.7,0.7-4.8,2.2-6.2
		c1.5-1.4,3.6-2.1,6.2-2.1c2.7,0,4.8,0.7,6.2,2.1c1.5,1.4,2.2,3.5,2.2,6.2v6.3c0,2.7-0.7,4.8-2.2,6.2
		C410.8,44.7,408.7,45.4,406,45.4z M406,40.4c1,0,1.7-0.3,2.1-0.9s0.6-1.5,0.6-2.7V31c0-1.3-0.2-2.2-0.6-2.8
		c-0.4-0.6-1.1-0.8-2.1-0.8c-0.9,0-1.6,0.3-2.1,0.8c-0.4,0.6-0.7,1.5-0.7,2.8v5.8c0,1.3,0.2,2.2,0.7,2.7S405.1,40.4,406,40.4z"/>
</g>
<g class="st6">
	<path class="st3" d="M420.6,45c-0.1,0-0.2-0.1-0.3-0.2c-0.1-0.1-0.1-0.2-0.1-0.4V27.7h-2.5c-0.4,0-0.5-0.2-0.5-0.5v-3.9
		c0-0.3,0.2-0.5,0.5-0.5h2.5V21c0-2.3,0.5-4,1.6-5.2c1.1-1.2,2.7-1.8,4.8-1.8c1,0,1.8,0.1,2.6,0.2c0.8,0.1,1.4,0.2,1.8,0.4
		c0.3,0.2,0.4,0.4,0.4,0.6v3.5c0,0.4-0.2,0.6-0.6,0.4c-0.4-0.1-0.8-0.2-1.3-0.3c-0.4-0.1-0.9-0.2-1.4-0.2c-0.8,0-1.3,0.2-1.7,0.6
		c-0.4,0.4-0.5,1.1-0.5,2v1.6h3.8c0.4,0,0.5,0.2,0.5,0.5v3.9c0,0.4-0.2,0.5-0.5,0.5h-3.8v16.7c0,0.1-0.1,0.3-0.2,0.4
		c-0.1,0.1-0.2,0.2-0.4,0.2H420.6z"/>
</g>
<g class="st6">
	<path class="st3" d="M125.6,98.8c-0.3,0-0.5-0.2-0.5-0.5V70c0-0.4,0.2-0.5,0.5-0.5h7.2c3.3,0,5.8,0.8,7.4,2.4
		c1.6,1.6,2.4,4.1,2.4,7.3c0,3.1-0.8,5.5-2.4,7.2c-1.6,1.7-4,2.5-7.3,2.5H131v9.5c0,0.4-0.2,0.5-0.5,0.5H125.6z M131,83.7h1.8
		c1.3,0,2.3-0.4,3-1.1c0.6-0.7,1-1.8,1-3.4c0-1.6-0.3-2.8-1-3.5c-0.6-0.7-1.6-1.1-3-1.1H131V83.7z"/>
</g>
<g class="st6">
	<path class="st3" d="M146.7,98.8c-0.4,0-0.5-0.2-0.5-0.5v-16c0-1,0-1.9,0-2.8c0-0.8-0.1-1.6-0.1-2.3c-0.1-0.4,0.1-0.6,0.4-0.6h4.1
		c0.3,0,0.4,0.1,0.5,0.4c0.1,0.5,0.2,1.1,0.2,1.9c0.1,0.7,0.1,1.4,0.1,1.9l0.5,1.7v15.7c0,0.4-0.2,0.5-0.5,0.5H146.7z M151.4,84.9
		l-0.4-4.8c0.5-0.7,1-1.3,1.6-1.9c0.6-0.6,1.2-1.1,1.9-1.4c0.7-0.4,1.3-0.5,2-0.5c0.2,0,0.4,0,0.5,0c0.1,0,0.3,0.1,0.4,0.1
		c0.2,0.1,0.3,0.1,0.3,0.2s0.1,0.2,0.1,0.4c0,0.7,0,1.5,0,2.3c0,0.8-0.1,1.6-0.2,2.4c0,0.3-0.2,0.5-0.5,0.4c-0.2,0-0.4-0.1-0.6-0.1
		c-0.2,0-0.4,0-0.7,0c-0.5,0-1,0.1-1.6,0.3c-0.5,0.2-1.1,0.5-1.6,0.9C152.3,83.8,151.9,84.3,151.4,84.9z"/>
</g>
<g class="st6">
	<path class="st3" d="M168.9,99.2c-2.7,0-4.7-0.7-6.2-2.1c-1.5-1.4-2.2-3.5-2.2-6.2v-6.3c0-2.7,0.7-4.8,2.2-6.2
		c1.5-1.4,3.6-2.1,6.2-2.1c2.7,0,4.8,0.7,6.2,2.1c1.5,1.4,2.2,3.5,2.2,6.2v6.3c0,2.7-0.7,4.8-2.2,6.2
		C173.7,98.5,171.7,99.2,168.9,99.2z M168.9,94.3c1,0,1.7-0.3,2.1-0.9c0.4-0.6,0.6-1.5,0.6-2.7v-5.8c0-1.3-0.2-2.2-0.6-2.8
		c-0.4-0.6-1.1-0.8-2.1-0.8c-0.9,0-1.6,0.3-2.1,0.8c-0.4,0.6-0.7,1.5-0.7,2.8v5.8c0,1.3,0.2,2.2,0.7,2.7
		C167.3,94,168,94.3,168.9,94.3z"/>
</g>
<g class="st6">
	<path class="st3" d="M183.6,98.8c-0.1,0-0.2-0.1-0.3-0.2c-0.1-0.1-0.1-0.2-0.1-0.4V81.6h-2.5c-0.4,0-0.5-0.2-0.5-0.5v-3.9
		c0-0.3,0.2-0.5,0.5-0.5h2.5v-1.9c0-2.3,0.5-4,1.6-5.2c1.1-1.2,2.7-1.8,4.8-1.8c1,0,1.8,0.1,2.6,0.2c0.8,0.1,1.4,0.2,1.8,0.4
		c0.3,0.2,0.4,0.4,0.4,0.6v3.5c0,0.4-0.2,0.6-0.6,0.4c-0.4-0.1-0.8-0.2-1.3-0.3c-0.4-0.1-0.9-0.2-1.4-0.2c-0.8,0-1.3,0.2-1.7,0.6
		s-0.5,1.1-0.5,2v1.6h3.8c0.4,0,0.5,0.2,0.5,0.5V81c0,0.4-0.2,0.5-0.5,0.5h-3.8v16.7c0,0.1-0.1,0.3-0.2,0.4
		c-0.1,0.1-0.2,0.2-0.4,0.2H183.6z"/>
</g>
<g class="st6">
	<path class="st3" d="M204.1,99.2c-2.8,0-4.9-0.7-6.3-2c-1.4-1.3-2.1-3.4-2.1-6.1v-6.4c0-2.8,0.7-4.8,2.1-6.3
		c1.4-1.4,3.5-2.1,6.2-2.1c2.8,0,4.9,0.7,6.2,2.1c1.4,1.4,2.1,3.5,2.1,6.3v3.9c0,0.4-0.2,0.5-0.5,0.5h-10.5v2.2
		c0,1.2,0.2,2.1,0.7,2.6c0.4,0.5,1.1,0.8,2.1,0.8c0.8,0,1.4-0.2,1.8-0.5c0.4-0.3,0.6-0.9,0.6-1.7c0-0.3,0.2-0.5,0.5-0.5h4.5
		c0.3,0,0.5,0.2,0.5,0.5c0,2.2-0.6,3.8-1.9,5C208.7,98.6,206.7,99.2,204.1,99.2z M201.3,85.5h5.3v-1.4c0-1.2-0.2-2-0.6-2.6
		c-0.4-0.5-1.1-0.8-2-0.8c-1,0-1.7,0.3-2.1,0.8c-0.4,0.5-0.7,1.4-0.7,2.6V85.5z"/>
</g>
<g class="st6">
	<path class="st3" d="M223.3,99.2c-2.7,0-4.6-0.6-5.8-1.7c-1.2-1.2-1.7-2.9-1.5-5.3c0-0.4,0.2-0.5,0.5-0.5h4.3
		c0.3,0,0.5,0.2,0.5,0.6c0,1,0.1,1.7,0.4,2.1c0.3,0.4,0.8,0.7,1.6,0.7c0.7,0,1.2-0.2,1.6-0.5c0.3-0.3,0.5-0.8,0.5-1.5
		c0-0.6-0.1-1.1-0.4-1.5c-0.3-0.4-0.8-0.8-1.5-1.2l-4.1-2.3c-1.1-0.7-1.9-1.4-2.5-2.3c-0.6-0.9-0.9-2-0.9-3.4c0-2,0.6-3.5,1.8-4.5
		c1.2-1,3-1.5,5.5-1.5c2.6,0,4.5,0.5,5.7,1.6c1.2,1.1,1.8,2.6,1.7,4.7c0,0.4-0.2,0.5-0.5,0.5H226c-0.1,0-0.3-0.1-0.4-0.2
		c-0.1-0.1-0.1-0.3-0.1-0.5c0.1-0.7-0.1-1.2-0.4-1.5c-0.3-0.3-0.8-0.5-1.5-0.5c-0.6,0-1.1,0.1-1.4,0.4c-0.3,0.3-0.5,0.7-0.5,1.2
		s0.1,1,0.4,1.3c0.3,0.3,0.7,0.7,1.4,1.1l3.9,2.2c1.3,0.7,2.2,1.6,2.8,2.5c0.6,0.9,0.9,2.1,0.9,3.5c0,2.2-0.6,3.8-1.9,4.8
		C227.9,98.7,225.9,99.2,223.3,99.2z"/>
</g>
<g class="st6">
	<path class="st3" d="M241.4,99.2c-2.7,0-4.6-0.6-5.8-1.7c-1.2-1.2-1.7-2.9-1.5-5.3c0-0.4,0.2-0.5,0.5-0.5h4.3
		c0.3,0,0.5,0.2,0.5,0.6c0,1,0.1,1.7,0.4,2.1c0.3,0.4,0.8,0.7,1.6,0.7c0.7,0,1.2-0.2,1.6-0.5c0.3-0.3,0.5-0.8,0.5-1.5
		c0-0.6-0.1-1.1-0.4-1.5c-0.3-0.4-0.8-0.8-1.5-1.2l-4.1-2.3c-1.1-0.7-1.9-1.4-2.5-2.3c-0.6-0.9-0.9-2-0.9-3.4c0-2,0.6-3.5,1.8-4.5
		c1.2-1,3-1.5,5.5-1.5c2.6,0,4.5,0.5,5.7,1.6c1.2,1.1,1.8,2.6,1.7,4.7c0,0.4-0.2,0.5-0.5,0.5h-4.3c-0.1,0-0.3-0.1-0.4-0.2
		c-0.1-0.1-0.1-0.3-0.1-0.5c0.1-0.7-0.1-1.2-0.4-1.5c-0.3-0.3-0.8-0.5-1.5-0.5c-0.6,0-1.1,0.1-1.4,0.4c-0.3,0.3-0.5,0.7-0.5,1.2
		s0.1,1,0.4,1.3c0.3,0.3,0.7,0.7,1.4,1.1l3.9,2.2c1.3,0.7,2.2,1.6,2.8,2.5c0.6,0.9,0.9,2.1,0.9,3.5c0,2.2-0.6,3.8-1.9,4.8
		C246,98.7,244.1,99.2,241.4,99.2z"/>
	<path class="st3" d="M255.2,73.7c-1,0-1.8-0.3-2.4-0.8c-0.6-0.5-0.9-1.2-0.9-2.1V70c0-0.9,0.3-1.7,0.9-2.2c0.6-0.5,1.4-0.8,2.4-0.8
		c1.1,0,1.9,0.3,2.4,0.8c0.6,0.5,0.8,1.2,0.8,2.2v0.8c0,0.9-0.3,1.6-0.8,2.1C257.1,73.4,256.3,73.7,255.2,73.7z M252.9,98.8
		c-0.4,0-0.5-0.2-0.5-0.5V77.2c0-0.3,0.2-0.5,0.5-0.5h4.7c0.3,0,0.5,0.2,0.5,0.5v21.1c0,0.4-0.2,0.5-0.5,0.5H252.9z"/>
</g>
<g class="st6">
	<path class="st3" d="M271.1,99.2c-2.7,0-4.7-0.7-6.2-2.1c-1.5-1.4-2.2-3.5-2.2-6.2v-6.3c0-2.7,0.7-4.8,2.2-6.2
		c1.5-1.4,3.6-2.1,6.2-2.1c2.7,0,4.8,0.7,6.2,2.1c1.5,1.4,2.2,3.5,2.2,6.2v6.3c0,2.7-0.7,4.8-2.2,6.2
		C275.9,98.5,273.8,99.2,271.1,99.2z M271.1,94.3c1,0,1.7-0.3,2.1-0.9c0.4-0.6,0.6-1.5,0.6-2.7v-5.8c0-1.3-0.2-2.2-0.6-2.8
		c-0.4-0.6-1.1-0.8-2.1-0.8c-0.9,0-1.6,0.3-2.1,0.8c-0.4,0.6-0.7,1.5-0.7,2.8v5.8c0,1.3,0.2,2.2,0.7,2.7
		C269.5,94,270.2,94.3,271.1,94.3z"/>
</g>
<g class="st6">
	<path class="st3" d="M284.1,98.8c-0.4,0-0.5-0.2-0.5-0.5V82.4c0-1,0-2,0-2.8c0-0.9-0.1-1.6-0.1-2.3c0-0.4,0.1-0.6,0.4-0.6h4
		c0.3,0,0.5,0.1,0.5,0.4c0.1,0.5,0.1,1.1,0.2,1.9c0.1,0.8,0.1,1.4,0.2,2l0.4,1.5v15.8c0,0.4-0.2,0.5-0.5,0.5H284.1z M294.9,98.8
		c-0.3,0-0.5-0.2-0.5-0.5V83.6c0-0.8-0.2-1.4-0.4-1.8c-0.3-0.4-0.8-0.6-1.4-0.6c-0.6,0-1.2,0.2-1.8,0.6c-0.6,0.4-1.2,0.9-1.9,1.6
		l-0.7-3.2c0.9-1.1,2-2.1,3.1-2.8c1.1-0.8,2.4-1.1,3.9-1.1c1.7,0,2.9,0.5,3.7,1.5c0.8,1,1.2,2.7,1.2,4.9v15.6c0,0.4-0.2,0.5-0.5,0.5
		H294.9z"/>
	<path class="st3" d="M307.8,99.2c-1.5,0-2.7-0.5-3.5-1.6s-1.2-2.5-1.2-4.5c0-2.2,0.6-3.8,1.7-5c1.1-1.2,3-1.9,5.7-2.1l3.2-0.4
		l0,3.3l-2.2,0.3c-1.1,0.1-1.8,0.4-2.3,0.9c-0.4,0.5-0.7,1.3-0.7,2.3c0,0.8,0.1,1.4,0.4,1.8c0.2,0.4,0.6,0.6,1.2,0.6
		c0.6,0,1.2-0.2,1.8-0.6c0.6-0.4,1.3-1.1,2.1-2.2l0.4,3.3c-1.1,1.3-2.2,2.3-3.2,2.9C310.2,98.9,309.1,99.2,307.8,99.2z M314.6,98.8
		c-0.3,0-0.4-0.2-0.5-0.5c-0.1-0.4-0.1-0.9-0.2-1.7c-0.1-0.7-0.1-1.4-0.2-2l-0.5-1.1V83.2c0-1-0.1-1.6-0.4-2
		c-0.3-0.4-0.8-0.5-1.6-0.5c-1.5,0-2.1,0.8-2,2.4c0.1,0.4-0.1,0.5-0.5,0.5h-4.2c-0.3,0-0.5-0.2-0.6-0.7c-0.2-2.2,0.4-3.8,1.7-5
		c1.3-1.2,3.2-1.7,5.8-1.7c2.6,0,4.5,0.6,5.7,1.7s1.8,2.9,1.8,5.4v9.8c0,1.2,0,2.2,0,3c0,0.8,0.1,1.5,0.1,2.1
		c0.1,0.4-0.1,0.6-0.4,0.6H314.6z"/>
	<path class="st3" d="M323.2,98.8c-0.4,0-0.5-0.2-0.5-0.5V68.7c0-0.4,0.2-0.5,0.5-0.5h4.7c0.3,0,0.5,0.2,0.5,0.5v29.6
		c0,0.4-0.2,0.5-0.5,0.5H323.2z"/>
	<path class="st3" d="M340,98.8c-0.4,0-0.6-0.2-0.6-0.5V70c0-0.4,0.2-0.5,0.5-0.5h7.8c3.9,0,6.8,1.1,8.7,3.2s2.9,5.3,2.9,9.4v3.4
		c0,4.5-1,7.8-2.9,10s-4.8,3.3-8.6,3.3H340z M345.3,93.7h2.3c2,0,3.5-0.7,4.5-2c0.9-1.4,1.4-3.4,1.4-6.2v-3.4c0-2.5-0.5-4.3-1.4-5.6
		c-1-1.2-2.5-1.9-4.6-1.9h-2.2V93.7z"/>
</g>
<g class="st6">
	<path class="st3" d="M373.1,99.2c-2.7,0-4.7-0.7-6.2-2.1c-1.5-1.4-2.2-3.5-2.2-6.2v-6.3c0-2.7,0.7-4.8,2.2-6.2
		c1.5-1.4,3.6-2.1,6.2-2.1c2.7,0,4.8,0.7,6.2,2.1c1.5,1.4,2.2,3.5,2.2,6.2v6.3c0,2.7-0.7,4.8-2.2,6.2
		C377.9,98.5,375.8,99.2,373.1,99.2z M373.1,94.3c1,0,1.7-0.3,2.1-0.9s0.6-1.5,0.6-2.7v-5.8c0-1.3-0.2-2.2-0.6-2.8
		c-0.4-0.6-1.1-0.8-2.1-0.8c-0.9,0-1.6,0.3-2.1,0.8c-0.4,0.6-0.7,1.5-0.7,2.8v5.8c0,1.3,0.2,2.2,0.7,2.7S372.2,94.3,373.1,94.3z"/>
</g>
<g class="st6">
	<path class="st3" d="M392.9,107.5c-3,0-5.3-0.4-6.7-1.3s-2.1-2.2-2.1-3.9c0-1.2,0.3-2.2,0.8-3.1c0.6-0.9,1.4-1.6,2.6-2.2l4,1.3
		c-0.6,0.3-1,0.6-1.3,1.1s-0.4,1-0.4,1.6c0,0.7,0.3,1.3,0.8,1.6c0.5,0.3,1.4,0.5,2.6,0.5c1.4,0,2.4-0.2,2.9-0.5
		c0.5-0.4,0.8-0.9,0.8-1.7c0-0.7-0.2-1.2-0.4-1.5c-0.3-0.3-0.8-0.5-1.6-0.6l-5.4-0.4c-1.3-0.1-2.3-0.5-3-1.3
		c-0.7-0.7-1.1-1.7-1.1-2.9c0-1.1,0.3-2,0.9-2.7c0.6-0.7,1.3-1.3,2.3-1.8l3.2,1.5c-0.5,0.2-0.9,0.4-1.1,0.7
		c-0.2,0.3-0.4,0.6-0.4,0.9c0,0.3,0.1,0.6,0.3,0.8c0.2,0.2,0.6,0.3,1.2,0.4l4.9,0.4c2,0.2,3.4,0.7,4.3,1.8c0.9,1,1.3,2.6,1.3,4.8
		c0,2.3-0.7,4-2.2,5S396.2,107.5,392.9,107.5z M393.3,91.7c-2.6,0-4.5-0.6-5.7-1.9s-1.8-3.2-1.8-5.9c0-2.7,0.6-4.6,1.8-5.9
		s3.1-1.9,5.8-1.9c2.6,0,4.5,0.6,5.7,1.9c1.2,1.2,1.7,3.2,1.7,5.9c0,2.7-0.6,4.7-1.7,5.9C397.8,91.1,395.9,91.7,393.3,91.7z
		 M393.3,87.4c0.9,0,1.5-0.2,1.7-0.7c0.3-0.5,0.4-1.3,0.4-2.6c0-1.3-0.2-2.2-0.4-2.7s-0.9-0.7-1.7-0.7c-0.8,0-1.4,0.2-1.7,0.7
		s-0.4,1.4-0.4,2.7c0,1.3,0.1,2.2,0.4,2.6C391.9,87.2,392.4,87.4,393.3,87.4z M398.6,78.6l-3.8-1.5c0-1.1,0.1-2.2,0.2-3.1
		c0.1-1,0.2-1.8,0.3-2.5c0.1-0.3,0.2-0.5,0.4-0.5h3.5c0.4,0,0.6,0.2,0.4,0.5c-0.3,1.2-0.5,2.3-0.7,3.5
		C398.8,76,398.7,77.2,398.6,78.6z"/>
</g>
<g class="st6">
	<path class="st3" d="M417.9,98.8c-0.3,0-0.5-0.2-0.5-0.5V74.7h-5.8c-0.3,0-0.5-0.2-0.5-0.5V70c0-0.4,0.2-0.5,0.5-0.5h17.5
		c0.3,0,0.5,0.2,0.5,0.5v4.1c0,0.4-0.2,0.5-0.5,0.5h-5.8v23.6c0,0.4-0.1,0.5-0.4,0.5H417.9z"/>
</g>
<g class="st6">
	<path class="st3" d="M431.9,98.8c-0.4,0-0.5-0.2-0.5-0.5v-16c0-1,0-1.9,0-2.8c0-0.8-0.1-1.6-0.1-2.3c-0.1-0.4,0.1-0.6,0.4-0.6h4.1
		c0.3,0,0.4,0.1,0.5,0.4c0.1,0.5,0.2,1.1,0.2,1.9c0.1,0.7,0.1,1.4,0.1,1.9l0.5,1.7v15.7c0,0.4-0.2,0.5-0.5,0.5H431.9z M436.6,84.9
		l-0.4-4.8c0.5-0.7,1-1.3,1.6-1.9c0.6-0.6,1.2-1.1,1.9-1.4c0.7-0.4,1.3-0.5,2-0.5c0.2,0,0.4,0,0.5,0c0.1,0,0.3,0.1,0.4,0.1
		c0.2,0.1,0.3,0.1,0.3,0.2s0.1,0.2,0.1,0.4c0,0.7,0,1.5,0,2.3c0,0.8-0.1,1.6-0.2,2.4c0,0.3-0.2,0.5-0.5,0.4c-0.2,0-0.4-0.1-0.6-0.1
		c-0.2,0-0.4,0-0.7,0c-0.5,0-1,0.1-1.6,0.3c-0.5,0.2-1.1,0.5-1.6,0.9S437.1,84.3,436.6,84.9z"/>
</g>
<g class="st6">
	<path class="st3" d="M449.8,99.2c-1.5,0-2.7-0.5-3.5-1.6c-0.8-1.1-1.2-2.5-1.2-4.5c0-2.2,0.6-3.8,1.7-5c1.1-1.2,3-1.9,5.7-2.1
		l3.2-0.4l0,3.3l-2.2,0.3c-1.1,0.1-1.8,0.4-2.3,0.9c-0.4,0.5-0.7,1.3-0.7,2.3c0,0.8,0.1,1.4,0.4,1.8c0.2,0.4,0.6,0.6,1.2,0.6
		c0.6,0,1.2-0.2,1.8-0.6s1.3-1.1,2.1-2.2l0.4,3.3c-1.1,1.3-2.2,2.3-3.2,2.9S451.1,99.2,449.8,99.2z M456.6,98.8
		c-0.3,0-0.4-0.2-0.5-0.5c-0.1-0.4-0.1-0.9-0.2-1.7c-0.1-0.7-0.1-1.4-0.2-2l-0.5-1.1V83.2c0-1-0.1-1.6-0.4-2
		c-0.3-0.4-0.8-0.5-1.6-0.5c-1.5,0-2.1,0.8-2,2.4c0.1,0.4-0.1,0.5-0.5,0.5h-4.2c-0.3,0-0.5-0.2-0.6-0.7c-0.2-2.2,0.4-3.8,1.7-5
		c1.3-1.2,3.2-1.7,5.8-1.7c2.6,0,4.5,0.6,5.7,1.7c1.2,1.1,1.8,2.9,1.8,5.4v9.8c0,1.2,0,2.2,0,3c0,0.8,0.1,1.5,0.1,2.1
		c0.1,0.4-0.1,0.6-0.4,0.6H456.6z"/>
	<path class="st3" d="M467.6,73.7c-1,0-1.8-0.3-2.4-0.8c-0.6-0.5-0.9-1.2-0.9-2.1V70c0-0.9,0.3-1.7,0.9-2.2c0.6-0.5,1.4-0.8,2.4-0.8
		c1.1,0,1.9,0.3,2.4,0.8c0.6,0.5,0.8,1.2,0.8,2.2v0.8c0,0.9-0.3,1.6-0.8,2.1C469.5,73.4,468.6,73.7,467.6,73.7z M465.2,98.8
		c-0.4,0-0.5-0.2-0.5-0.5V77.2c0-0.3,0.2-0.5,0.5-0.5h4.7c0.3,0,0.5,0.2,0.5,0.5v21.1c0,0.4-0.2,0.5-0.5,0.5H465.2z"/>
	<path class="st3" d="M474.7,98.8c-0.4,0-0.5-0.2-0.5-0.5V82.4c0-1,0-2,0-2.8c0-0.9-0.1-1.6-0.1-2.3c0-0.4,0.1-0.6,0.4-0.6h4
		c0.3,0,0.5,0.1,0.5,0.4c0.1,0.5,0.1,1.1,0.2,1.9c0.1,0.8,0.1,1.4,0.2,2l0.4,1.5v15.8c0,0.4-0.2,0.5-0.5,0.5H474.7z M485.5,98.8
		c-0.3,0-0.5-0.2-0.5-0.5V83.6c0-0.8-0.2-1.4-0.4-1.8c-0.3-0.4-0.8-0.6-1.4-0.6c-0.6,0-1.2,0.2-1.8,0.6c-0.6,0.4-1.2,0.9-1.9,1.6
		l-0.7-3.2c0.9-1.1,2-2.1,3.1-2.8c1.1-0.8,2.4-1.1,3.9-1.1c1.7,0,2.9,0.5,3.7,1.5s1.2,2.7,1.2,4.9v15.6c0,0.4-0.2,0.5-0.5,0.5H485.5
		z"/>
	<path class="st3" d="M502.5,99.2c-2.8,0-4.9-0.7-6.3-2c-1.4-1.3-2.1-3.4-2.1-6.1v-6.4c0-2.8,0.7-4.8,2.1-6.3
		c1.4-1.4,3.5-2.1,6.2-2.1c2.8,0,4.9,0.7,6.2,2.1s2.1,3.5,2.1,6.3v3.9c0,0.4-0.2,0.5-0.5,0.5h-10.5v2.2c0,1.2,0.2,2.1,0.7,2.6
		s1.1,0.8,2.1,0.8c0.8,0,1.4-0.2,1.8-0.5c0.4-0.3,0.6-0.9,0.6-1.7c0-0.3,0.2-0.5,0.5-0.5h4.5c0.3,0,0.5,0.2,0.5,0.5
		c0,2.2-0.6,3.8-1.9,5C507.2,98.6,505.2,99.2,502.5,99.2z M499.8,85.5h5.3v-1.4c0-1.2-0.2-2-0.6-2.6c-0.4-0.5-1.1-0.8-2-0.8
		c-1,0-1.7,0.3-2.1,0.8c-0.4,0.5-0.7,1.4-0.7,2.6V85.5z"/>
	<path class="st3" d="M514.7,98.8c-0.4,0-0.5-0.2-0.5-0.5v-16c0-1,0-1.9,0-2.8c0-0.8-0.1-1.6-0.1-2.3c-0.1-0.4,0.1-0.6,0.4-0.6h4.1
		c0.3,0,0.4,0.1,0.5,0.4c0.1,0.5,0.2,1.1,0.2,1.9c0.1,0.7,0.1,1.4,0.1,1.9l0.5,1.7v15.7c0,0.4-0.2,0.5-0.5,0.5H514.7z M519.4,84.9
		l-0.4-4.8c0.5-0.7,1-1.3,1.6-1.9c0.6-0.6,1.2-1.1,1.9-1.4c0.7-0.4,1.3-0.5,2-0.5c0.2,0,0.4,0,0.5,0c0.1,0,0.3,0.1,0.4,0.1
		c0.2,0.1,0.3,0.1,0.3,0.2s0.1,0.2,0.1,0.4c0,0.7,0,1.5,0,2.3c0,0.8-0.1,1.6-0.2,2.4c0,0.3-0.2,0.5-0.5,0.4c-0.2,0-0.4-0.1-0.6-0.1
		c-0.2,0-0.4,0-0.7,0c-0.5,0-1,0.1-1.6,0.3c-0.5,0.2-1.1,0.5-1.6,0.9S519.9,84.3,519.4,84.9z"/>
	<path class="st3" d="M535.1,99.2c-2.7,0-4.6-0.6-5.8-1.7c-1.2-1.2-1.7-2.9-1.5-5.3c0-0.4,0.2-0.5,0.5-0.5h4.3
		c0.3,0,0.5,0.2,0.5,0.6c0,1,0.1,1.7,0.4,2.1c0.3,0.4,0.8,0.7,1.6,0.7c0.7,0,1.2-0.2,1.6-0.5c0.3-0.3,0.5-0.8,0.5-1.5
		c0-0.6-0.2-1.1-0.4-1.5s-0.8-0.8-1.5-1.2l-4.1-2.3c-1.1-0.7-1.9-1.4-2.5-2.3c-0.6-0.9-0.9-2-0.9-3.4c0-2,0.6-3.5,1.8-4.5
		c1.2-1,3-1.5,5.5-1.5c2.6,0,4.5,0.5,5.7,1.6c1.2,1.1,1.8,2.6,1.7,4.7c0,0.4-0.2,0.5-0.5,0.5h-4.3c-0.2,0-0.3-0.1-0.4-0.2
		c-0.1-0.1-0.1-0.3-0.1-0.5c0.1-0.7-0.1-1.2-0.4-1.5c-0.3-0.3-0.8-0.5-1.5-0.5c-0.6,0-1.1,0.1-1.4,0.4c-0.3,0.3-0.5,0.7-0.5,1.2
		s0.1,1,0.4,1.3c0.3,0.3,0.7,0.7,1.4,1.1l3.9,2.2c1.3,0.7,2.2,1.6,2.8,2.5s0.9,2.1,0.9,3.5c0,2.2-0.6,3.8-1.9,4.8
		C539.7,98.7,537.7,99.2,535.1,99.2z"/>
</g>
<path class="st7" d="M96,85.7c0.4-0.4,1.7,0,1.7,0c-0.8-0.8-3.5-1.2-6.5-1.8c-2.1-0.4-4.2-1-6.2-1.7c0,0-0.6,9.6-0.6,10.5
	c-0.8,3-1.9,5.8-3.5,8.4c-0.8,1-5,0.6-5.4,0s-1.6-0.3-1.6-0.3c0.7-2,4-2.2,5-2.4s1.5-2.7,1.8-4.4c0.2-3.3-0.1-6.6-0.8-9.8
	c-0.5-1.8-1-3.6-1.3-5.4c1.4,1.1,3,1.8,4.8,2c-5.2-2.6-8-8.2-8-8.2c1.3-0.8,2.8-1,4.2-0.7c2.3,0.6,4.9,4.9,4.9,4.9
	c-0.8-3-3.1-5.3-6.1-6.1c-2.3-0.4-5.4,1.9-6.6,3.1s-3.1,0.9-4.5-0.5s-6.3-5.6-9-8.7c-0.7-0.7-1.5-1.3-2.3-1.8
	c-0.1,0.2-0.2,0.3-0.3,0.5c-1.1,1.7-7,1.9-10.3,1c-3.3-0.9-9.4-7-12.7-9.4s-14.5-8.5-18.6-11L12.7,43c-8.8,25.8,4.9,53.8,30.6,62.7
	c19.1,6.6,40.3,0.8,53.4-14.5C95.9,89.5,95.6,87.5,96,85.7z"/>
</svg>
