<svg id="Layer_1" data-name="Layer 1" xmlns="http://www.w3.org/2000/svg" viewBox="0 0 584.45 125.44"><path d="M109.51,92.09A55.24,55.24,0,0,0,94.6,17.6C93.78,17,98.81,5.48,98.81,5.48s-7.55,9.93-8,9.69a55.25,55.25,0,1,0,18.67,76.92Z" style="fill:#fff;opacity:0.5"/><path d="M64.22,62.84a1.26,1.26,0,0,0,0-.28v-.05a.66.66,0,0,0,0-.14.22.22,0,0,0,0-.08,1.31,1.31,0,0,0-.06-.27,1.45,1.45,0,0,0-.11-.26,1.14,1.14,0,0,0-.15-.23,1.19,1.19,0,0,0-.19-.2l-.09-.08-.12-.09h0L63.27,61,63,61a1.24,1.24,0,0,0-.27,0,1.29,1.29,0,0,0-.28,0l-.13,0-.14,0h0a1.73,1.73,0,0,0-.24.1,1,1,0,0,0-.24.15,1.8,1.8,0,0,0-.2.19,1.84,1.84,0,0,0-.17.22h0a.83.83,0,0,0-.07.13.37.37,0,0,0,0,.11.79.79,0,0,0-.08.26,1.35,1.35,0,0,0,0,.28,2.44,2.44,0,0,0,0,.27c0,.08,0,.15,0,.22l0,.05s0,.06,0,.08a1.34,1.34,0,0,0,.07.18,1.88,1.88,0,0,0,.16.23.89.89,0,0,0,.19.2,1.2,1.2,0,0,0,.21.17l.14.08.11,0h0a1.21,1.21,0,0,0,.25.08,1.33,1.33,0,0,0,.28,0,1.29,1.29,0,0,0,.28,0l.13,0a.53.53,0,0,0,.12,0h0l.25-.11a1.58,1.58,0,0,0,.24-.15,1.8,1.8,0,0,0,.2-.19h0l.08-.09.09-.13a1.15,1.15,0,0,0,.12-.25A1.12,1.12,0,0,0,64.22,62.84Z" style="fill:#718096"/><path d="M113.55,92.26a58.61,58.61,0,0,0,6.71-41.43l2.45-1c.55-.22,2.28-.83,2.53-1a.44.44,0,0,0-.12-.78h-.18l-5.23.37a58.62,58.62,0,0,0-23.64-34.1l5.16-13L92,11.75A58.66,58.66,0,0,0,50.71,5.2L48.88.3v0s0,0,0,0,0,0,0,0A.39.39,0,0,0,48.62,0h-.28l0,0-.06,0h0l0,0,0,0,0,0,0,0a.3.3,0,0,0,0,.08h0v0s0,0,0,0,0,0,0,.06V.48l.48,5.23a58.53,58.53,0,0,0-34.36,23.9L1.29,24.21l10.6,9A58.58,58.58,0,0,0,5.18,74.61l-4.88,2a.44.44,0,0,0-.27.56c.18.51,1.49.21,1.9.18l2.6-.18A10.8,10.8,0,0,1,5.73,77a58.58,58.58,0,0,0,23.64,34.1l-5.19,13,9.25-10.44a58.53,58.53,0,0,0,41.29,6.55l1.84,4.92a.3.3,0,0,0,0,.08.38.38,0,0,0,.14.14l.09,0h.08a.4.4,0,0,0,.11,0h.07l0,0,.06,0h0l0,0,0,0,0,0,0,0a.19.19,0,0,0,0-.09s0,0,0,0,0,0,0-.05,0,0,0-.06v0s0,0,0,0l-.47-5.2a58.54,58.54,0,0,0,34.36-23.91l12.85,5.41ZM55.88,16.54l.45,3.22-.16,0h0L55,16.68Zm51.55,32.74-2.13.16,2-.64ZM91.9,89.69l2.42,2.19a42.61,42.61,0,0,1-11.11,8.64l-1.52-2.88A39,39,0,0,0,91.9,89.69Zm-11,8.36,1.52,2.87a41.85,41.85,0,0,1-7,2.86l-.3-3.32A40.89,40.89,0,0,0,80.92,98.05ZM60.57,82.39l4.6,12.32a31.12,31.12,0,0,1-5.46,0h0a1.67,1.67,0,1,0-3.21-.46h0a31,31,0,0,1-5-1.4l9-10.42Zm8.48,22.86,0-.26h0l.09.25ZM28.51,88.78a42.9,42.9,0,0,1-6.57-12.44l1.85-.59,1.36-.1a39.38,39.38,0,0,0,5.94,11.13ZM20.14,68.66a43.06,43.06,0,0,1-.4-7.09l3.26.12a40.78,40.78,0,0,0,.26,5.73h0Zm13.4-32.91-2.42-2.18a42.52,42.52,0,0,1,11.1-8.64l1.53,2.88A39.2,39.2,0,0,0,33.54,35.75Zm11-8.35L43,24.52a42.72,42.72,0,0,1,7-2.86l.3,3.33A38.23,38.23,0,0,0,44.52,27.4Zm11.87-7.2,0,.26-.09-.25ZM96.92,36.66a42.43,42.43,0,0,1,6.57,12.44l-1.84.6-1.36.09a39.38,39.38,0,0,0-5.94-11.13Zm8.38,20.12a43.18,43.18,0,0,1,.4,7.09l-3.26-.12a40.57,40.57,0,0,0-.26-5.72h0ZM72.61,54.56,69,57.36h0a7,7,0,0,0-.75-.8h0l3.06-3.39a12.14,12.14,0,0,1,1.29,1.39Zm-9.48-.2h0l.17-4.56h0a11.64,11.64,0,0,1,1.88.23h0l-1,4.46h0A7.92,7.92,0,0,0,63.13,54.36Zm6.12-8.48-1.78,4.37h0l-.25-.1a11.46,11.46,0,0,0-1.63-.48l1-4.61A17.45,17.45,0,0,1,69.25,45.88Zm-2,4.85,0-.1h0l.07,0h0Zm.33.05a12.68,12.68,0,0,1,1.68.86l-2.42,3.87h0l-.35-.19a5.25,5.25,0,0,0-.63-.31h0Zm-6.22,3.67h0l-.54.1a5.26,5.26,0,0,0-.53.15h0L58.93,50.4v0h0l.21-.07.7-.18a9,9,0,0,1,.93-.17h0Zm-6.94-7.82A18.18,18.18,0,0,1,57,45.54L58.47,50l-.11,0a11.6,11.6,0,0,0-1.7.73Zm-1.63,1v.13l-.13-.06ZM55,52.36a12,12,0,0,1,1.59-1h0l2.14,4h0a7.54,7.54,0,0,0-.92.59h0L55,52.36Zm-3.54,3.29h0a8.73,8.73,0,0,0-.6,1.09,6.22,6.22,0,0,0-.3.66h0l-4.37-1.78a18.09,18.09,0,0,1,1.27-2.48Zm-1.18,4a12.51,12.51,0,0,1,.56-1.8h0l4.23,1.72h0a6.4,6.4,0,0,0-.33,1h0l-4.46-1ZM50,64.09A11.91,11.91,0,0,1,50,62.2h0l4.56.17h0a8,8,0,0,0,0,1.09h0L50,64.09Zm8.43,5.41q.3.18.6.33l.38.16h0l-1.72,4.23a10.24,10.24,0,0,1-1.68-.86h0l2.42-3.87Zm3.74,1.15h0L62,75.21A11.64,11.64,0,0,1,60.16,75h0l1-4.47h0A7.92,7.92,0,0,0,62.21,70.65Zm-4.34,4.11h0l.18.07a11.56,11.56,0,0,0,1.7.51l-1,4.61a17.11,17.11,0,0,1-2.67-.82ZM64,70.56h0l.54-.1a5.26,5.26,0,0,0,.53-.15h0l1.4,4.34h0a8.68,8.68,0,0,1-.91.25,9,9,0,0,1-.93.17h0Zm6.94,7.82a18.69,18.69,0,0,1-2.57,1.09L66.87,75a13.11,13.11,0,0,0,1.81-.77h0Zm-.53-5.73a13.11,13.11,0,0,1-1.59,1l-2.14-4h0a8.39,8.39,0,0,0,.92-.59h0l2.81,3.6Zm-5.1-8-.1.11a2.3,2.3,0,0,1-.43.4,3.82,3.82,0,0,1-.49.33,3.21,3.21,0,0,1-.54.22h0l-.26.07-.29,0a2.82,2.82,0,0,1-.58,0,3.68,3.68,0,0,1-.58-.07,3.13,3.13,0,0,1-.57-.18.38.38,0,0,1-.13-.06,1.92,1.92,0,0,1-.25-.12l-.14-.08a3.1,3.1,0,0,1-.46-.35,2.69,2.69,0,0,1-.4-.43,3.74,3.74,0,0,1-.32-.49,4.16,4.16,0,0,1-.23-.54.2.2,0,0,1,0-.07c0-.09-.06-.19-.08-.28a1.7,1.7,0,0,1,0-.22,3.89,3.89,0,0,1,0-.59,3,3,0,0,1,.08-.58,2.26,2.26,0,0,1,.17-.56,2.64,2.64,0,0,1,.18-.38l.08-.14a.83.83,0,0,0,.08-.12,3.17,3.17,0,0,1,.28-.34,2.32,2.32,0,0,1,.43-.4,3.23,3.23,0,0,1,.49-.33,4.93,4.93,0,0,1,.53-.22h0l.28-.08.29,0a2.82,2.82,0,0,1,.58,0,3.68,3.68,0,0,1,.58.07,2.81,2.81,0,0,1,.56.18,2.09,2.09,0,0,1,.4.19l.12.07.14.09a4.19,4.19,0,0,1,.33.26,2.79,2.79,0,0,1,.4.44,2.76,2.76,0,0,1,.32.49,2.7,2.7,0,0,1,.22.53A2.36,2.36,0,0,1,66,62a.14.14,0,0,1,0,.07c0,.07,0,.14,0,.21s0,.25,0,.37a3,3,0,0,1-.08.58,2.78,2.78,0,0,1-.17.56,2.86,2.86,0,0,1-.27.52.57.57,0,0,1-.08.13Zm9.26,2.5h0l-4.23-1.72h0a9.65,9.65,0,0,0,.33-1h0l4.47,1A12.25,12.25,0,0,1,74.52,67.14Zm-.61,2.22.28-.48a12.24,12.24,0,0,0,.61-1.27h0l4.37,1.78a18.71,18.71,0,0,1-1.27,2.48Zm1.39-8.44h0V61h0a12.19,12.19,0,0,1,.08,1.81l-4.56-.17h0a6.16,6.16,0,0,0,0-1v0h0l4.53-.63ZM74,56.7a12.62,12.62,0,0,1,.74,1.74h0l-4.35,1.4h0a7.6,7.6,0,0,0-.43-1h0l4-2.13Zm-17.48.46h0c-.15.17-.3.36-.44.55l-.22.32h0L52,55.6a13,13,0,0,1,1.14-1.51ZM51.35,68.31a11.66,11.66,0,0,1-.74-1.74h0L55,65.17h0a7.6,7.6,0,0,0,.43,1h0l-4,2.13ZM54,71.83a12.18,12.18,0,0,1-1.3-1.38l3.61-2.8h0a8.07,8.07,0,0,0,.75.8h0L54,71.83Zm14.81-4h0a4,4,0,0,0,.26-.32c.14-.18.28-.36.4-.55h0l3.87,2.43h0a12,12,0,0,1-1.14,1.51Zm29.76,12c.29-.61.55-1.18.78-1.74l3,1.22c-.38.91-.79,1.8-1.23,2.66Zm1.11-2.56a39.23,39.23,0,0,0,2.71-12.65l3.26.12a42.79,42.79,0,0,1-3,13.76Zm1.63-18.91a38.86,38.86,0,0,1,.23,5.8,38.34,38.34,0,0,1-2.83,13.19c-.25.62-.52,1.24-.83,1.9L92.83,75h0a32.45,32.45,0,0,0,1.89-6.44h0a1.67,1.67,0,0,0,.4-3h0a32.05,32.05,0,0,0,.06-4.8ZM94.7,65.42h0a1.67,1.67,0,0,0-1.39,3,1.75,1.75,0,0,0,1,.26h0a32.26,32.26,0,0,1-1.78,6.06h0L82,66.05h0L94.76,61A32.92,32.92,0,0,1,94.7,65.42ZM80.2,66v0h0l-4.62-1a11.54,11.54,0,0,0,.24-2l4.72.18a18.42,18.42,0,0,1-.19,1.91C80.3,65.51,80.25,65.78,80.2,66Zm-4.51-5.5c0-.23-.08-.48-.14-.75a11.85,11.85,0,0,0-.31-1.17h0l4.49-1.45a15.07,15.07,0,0,1,.41,1.56v0h0c.08.38.15.76.21,1.13Zm3.49-34A38.54,38.54,0,0,0,71.48,24l.69-3.19A42.83,42.83,0,0,1,81.4,24Zm-8.55-2.77a39,39,0,0,0-12.93-.47l-.45-3.23a42.55,42.55,0,0,1,14.06.51Zm.24.93h0a39,39,0,0,1,7.68,2.52l-4.37,5.05a30.53,30.53,0,0,0-5.37-1.52h0a1.66,1.66,0,0,0-3.07-.68,1.15,1.15,0,0,0-.12.25h0a31.92,31.92,0,0,0-5.53,0l-2.3-6.13A38.46,38.46,0,0,1,70.87,24.71Zm-5.35,6h0a1.67,1.67,0,0,0,3.07,1.11,1.57,1.57,0,0,0,.24-.64h0a29.67,29.67,0,0,1,5.07,1.42l-9,10.41-4.6-12.32A32.87,32.87,0,0,1,65.52,30.75ZM63.16,44.63,63,49.35a11.6,11.6,0,0,0-2,.1l-.65-4.68A18.5,18.5,0,0,1,63.16,44.63Zm-36.31,1c-.29.61-.55,1.19-.78,1.75l-3-1.23c.38-.91.79-1.8,1.22-2.65Zm-1.11,2.56A39.29,39.29,0,0,0,23,60.82l-3.26-.12a42.79,42.79,0,0,1,2.95-13.76ZM24.1,67.08a38.72,38.72,0,0,1-.22-5.79h0a38.22,38.22,0,0,1,2.83-13.2h0c.25-.61.52-1.24.83-1.9l5.07,4.21h0a32.12,32.12,0,0,0-1.8,6h0a1.67,1.67,0,0,0-.56,3.06l.1,0h0a31.64,31.64,0,0,0-.09,5.15Zm6.68-7.45h0A1.67,1.67,0,0,0,32,56.58a1.65,1.65,0,0,0-.76-.24h0A30.82,30.82,0,0,1,33,50.7h0l10.47,8.69h0L30.68,64.46A31.2,31.2,0,0,1,30.78,59.63Zm14.27-.17c0-.18.07-.37.1-.55l4.61,1a11.66,11.66,0,0,0-.23,2l-4.72-.18A14.51,14.51,0,0,1,45,60.11v0C45,59.87,45,59.67,45.05,59.46Zm4.61,5h0a.41.41,0,0,0,0,.14,10.57,10.57,0,0,0,.21,1c.07.27.13.52.2.73h0l-4.48,1.45c-.12-.37-.22-.74-.32-1.12h0c-.12-.49-.22-1-.31-1.57ZM46.26,98.9A40,40,0,0,0,54,101.49l-.68,3.19A42.86,42.86,0,0,1,44,101.45Zm8.55,2.77a39.29,39.29,0,0,0,12.93.46l.45,3.23a42.89,42.89,0,0,1-14.07-.5Zm-.24-.94h0a38.8,38.8,0,0,1-7.68-2.52l4.37-5a32.57,32.57,0,0,0,5.39,1.52h0a1.75,1.75,0,0,0,.65.78,1.68,1.68,0,0,0,2.19-.37h0a32,32,0,0,0,5.87,0l2.3,6.13A38.46,38.46,0,0,1,54.57,100.73Zm7.6-20.35.18-4.72a11.6,11.6,0,0,0,2-.1L65,80.24A18.5,18.5,0,0,1,62.17,80.38Zm39.34,1.88c.46-.9.88-1.83,1.28-2.79l3,1.23q-.8,1.89-1.74,3.69Zm1.61-3.6a42.8,42.8,0,0,0,3-13.9l3.26.12a46,46,0,0,1-3.23,15Zm3-14.77a43.07,43.07,0,0,0-.41-7.27h0l3.1-1.24a46.38,46.38,0,0,1,.57,8.63ZM109,54.36h0l-7.44,3L95.12,59.9l-.43.16L81.25,65.41h0l0,0h0a16.57,16.57,0,0,0,.21-2.17,18.81,18.81,0,0,0-.16-3.27c0-.32-.1-.64-.17-1l13-3,.43-.1,22.18-5.08c0,.15.07.31.1.45ZM103.91,49a43.13,43.13,0,0,0-6.64-12.58l2.57-2A46.29,46.29,0,0,1,107,48ZM96.73,35.7a43,43,0,0,0-6.9-6.91h0l1.33-3.08a46.34,46.34,0,0,1,8.14,8Zm-.34.27-2.57,2a39.78,39.78,0,0,0-5.51-5.65l1.34-3.11A42.66,42.66,0,0,1,96.39,36Zm-3,2.86v0a38.36,38.36,0,0,1,6,11l-6.61.47h0a32,32,0,0,0-3.23-6h0a1.68,1.68,0,0,0-1.77-2.56l-.14.05h0a30.51,30.51,0,0,0-2.34-2.49L88,33.16A38.9,38.9,0,0,1,93.39,38.83ZM87.23,42h0a1.68,1.68,0,0,0,1.3,3,1.79,1.79,0,0,0,.72-.38h0a32.36,32.36,0,0,1,3.08,5.7h0l-12.16.87,5-11.5A30,30,0,0,1,87.23,42ZM78.29,53.79h0l.11.2-4.18,2.21a11.72,11.72,0,0,0-1.06-1.66l3.72-2.9.34.45A19.11,19.11,0,0,1,78.29,53.79Zm-3.75-4.66-3.17,3.5h0c-.16-.15-.35-.3-.55-.46a10.5,10.5,0,0,0-1-.72h0l2.51-4A17.83,17.83,0,0,1,74.54,49.13Zm7.15-25.48a43,43,0,0,0-9.43-3.31l.68-3.18a46.4,46.4,0,0,1,11,3.95ZM72.09,17l-.68,3.18a43,43,0,0,0-14.22-.51l-.44-3.22A46.22,46.22,0,0,1,72.09,17ZM54,16.48v0l5.2,13.88.16.42,4.85,13h-.06l-.8-.05a18.76,18.76,0,0,0-3.26.17c-.38,0-.78.12-1.18.2h0L56,31.36l-.1-.43L50.82,8.75l.27-.06ZM50,21.22a43.83,43.83,0,0,0-7.16,2.91l-1.52-2.88a46.54,46.54,0,0,1,8.37-3.34Zm-9.45.44L42,24.54a43.09,43.09,0,0,0-11.23,8.73l-2.41-2.18A46.17,46.17,0,0,1,40.5,21.66ZM27.79,31.74l2.42,2.18c-.64.72-1.24,1.45-1.81,2.19h0l-3-1.39h0C26.12,33.7,26.94,32.7,27.79,31.74Zm2.74,2.47L33,36.4c-.36.4-.73.83-1.1,1.28l-3-1.38C29.35,35.59,29.93,34.9,30.53,34.21Zm3.35,2.45h0a38,38,0,0,1,10.65-8.29h0a36.9,36.9,0,0,1,5.83-2.49L51,32.4a31.5,31.5,0,0,0-6.39,3.31h0a1.67,1.67,0,0,0-2.66,1.69,2.09,2.09,0,0,0,.08.23h0a32,32,0,0,0-3.32,3.17l-6-2.74C33.09,37.56,33.48,37.1,33.88,36.66ZM42.22,38h0a1.67,1.67,0,0,0,3-1.37A1.54,1.54,0,0,0,44.9,36h0A31.49,31.49,0,0,1,51,32.85l1.29,14-.12.08h0L39.1,41A32.25,32.25,0,0,1,42.22,38Zm9.34,10.47,2.9,3.73a11.47,11.47,0,0,0-1.25,1.13l-.19.21h0L49.52,50.4A17.49,17.49,0,0,1,51.56,48.49Zm-27.63-5.3c-.46.89-.88,1.83-1.28,2.78l-3-1.23c.52-1.25,1.11-2.49,1.73-3.68Zm-1.61,3.59a42.6,42.6,0,0,0-3,13.91l-3.26-.12a46,46,0,0,1,3.22-15Zm-3,14.78a44.09,44.09,0,0,0,.42,7.26h0l-3.11,1.23a47.13,47.13,0,0,1-.56-8.62Zm-2.88,9.52h0l7.44-3,6.44-2.56.43-.17,13.32-5.3c-.07.6-.12,1.17-.14,1.73a18.81,18.81,0,0,0,.16,3.27c.07.49.16,1,.26,1.4h0l-13,3-.42.1L8.75,74.62c0-.15-.07-.3-.1-.45ZM18,76.16,20.14,76l-2,.64Zm3.52.32a43.07,43.07,0,0,0,6.64,12.57l-2.57,2a46.43,46.43,0,0,1-7.17-13.58ZM28.7,89.74a43.49,43.49,0,0,0,6.91,6.92h0l-1.33,3.08a46.34,46.34,0,0,1-8.14-8Zm.35-.26,2.57-2a38.81,38.81,0,0,0,5.51,5.66l-1.34,3.11A42.66,42.66,0,0,1,29.05,89.48Zm3-2.86h0v0a38.44,38.44,0,0,1-6-11l6.6-.47h0a32.39,32.39,0,0,0,3.05,5.72h0A1.65,1.65,0,0,0,35.55,82a1.67,1.67,0,0,0,1.93,1.27h0a31.39,31.39,0,0,0,2.66,2.88l-2.65,6.15A38.84,38.84,0,0,1,32.06,86.62Zm5.87-3.51h0A1.67,1.67,0,0,0,36.81,80a1.72,1.72,0,0,0-.84.48h0a32.28,32.28,0,0,1-2.86-5.38h0l12.16-.86h0l-5,11.49A29.33,29.33,0,0,1,37.93,83.11Zm9.28-11.63A4.31,4.31,0,0,1,47,71l4.17-2.2a11.31,11.31,0,0,0,1.06,1.65l-3.73,2.89,0,0A17.16,17.16,0,0,1,47.21,71.48Zm6.76.9h0a10.8,10.8,0,0,0,1.1.87l.46.32-2.5,4a18.32,18.32,0,0,1-2.23-1.68ZM43.74,101.8a43.72,43.72,0,0,0,9.44,3.3l-.69,3.18a46.32,46.32,0,0,1-10.94-4Zm9.61,6.66.68-3.18a43.25,43.25,0,0,0,14.22.52l.44,3.22A46.22,46.22,0,0,1,53.35,108.46Zm16.21.44-.45-3.22.16,0h0l1.16,3.11Zm1.9.13v0l0-.08L66.23,95.05l-.15-.42-4.86-13h0l.36-.41h.06l.34,0a18.76,18.76,0,0,0,3.26-.17c.38,0,.78-.12,1.18-.2h0l3,13.21.09.42,5.08,22.19-.27,0Zm4-4.8a43,43,0,0,0,7.16-2.92l1.52,2.88a47.32,47.32,0,0,1-8.37,3.35Zm9.45-.45-1.52-2.88a42.87,42.87,0,0,0,11.22-8.73l2.42,2.18A45.75,45.75,0,0,1,84.94,103.78Zm12.7-10.07-2.41-2.19c.63-.71,1.24-1.44,1.81-2.18h0l3,1.38h0C99.31,91.74,98.5,92.74,97.64,93.71Zm-2.73-2.48-2.42-2.18c.36-.41.72-.83,1.09-1.29l3,1.39C96.08,89.85,95.51,90.55,94.91,91.23Zm-3.36-2.44A38.34,38.34,0,0,1,80.9,97.08a37.91,37.91,0,0,1-5.84,2.48l-.6-6.51h0a33,33,0,0,0,6.67-3.51h0a1.65,1.65,0,0,0,1,.09,1.67,1.67,0,0,0,1.29-1.81h0a30.71,30.71,0,0,0,3.31-3.15l6,2.74h0C92.35,87.89,92,88.35,91.55,88.79Zm-8.23-1.45h0a1.67,1.67,0,1,0-2.59,2h0a32.15,32.15,0,0,1-6.31,3.3h0L73.11,78.44h0l13.22,6A32.79,32.79,0,0,1,83.32,87.34ZM73.78,76.51l-2.9-3.72a12.43,12.43,0,0,0,1.31-1.19l.13-.15h0l3.5,3.16A16.64,16.64,0,0,1,73.78,76.51Zm37,13.48h0l-6.06-5a47.46,47.46,0,0,0,2-4.33,47.65,47.65,0,0,0,2.87-25.58h0l7.3-2.91A55.13,55.13,0,0,1,110.82,90Zm5.35-41.33h0l-7.85.56c-.1-.36-.21-.72-.33-1.06h0v0A47.33,47.33,0,0,0,91.52,24.87h0l3.13-7.28A55.1,55.1,0,0,1,116.17,48.66ZM98.38,6.72l-3,7.09-1.4,3.26-3.35,7.78-3.2,7.43-2.75,6.39-.19.42L79.1,51.51v0h0l-.46,1.07h0c-.22-.35-.44-.69-.68-1s-.3-.42-.46-.62a18.31,18.31,0,0,0-2.21-2.37v0A18.47,18.47,0,0,0,73.13,47l7-11.18.23-.37,12.1-19.28,1.86-3Zm-8.71,7.73-5.19,6A47.37,47.37,0,0,0,56.2,15.61h0c-.46.06-1,.13-1.47.22h0L52,8.51A55.09,55.09,0,0,1,89.67,14.45ZM48.84,9.22l.72,7.8a47.49,47.49,0,0,0-22.13,13.8c-1,1.14-2,2.32-2.89,3.53l-7.17-3.26A55.13,55.13,0,0,1,48.84,9.22ZM13.65,30.35l3.22,1.47h0l7.58,3.46h0l.08,0,13.55,6.18.41.19,12.88,5.87h0l-.22.16a18.42,18.42,0,0,0-2.39,2.21s0,0,0,0a19.79,19.79,0,0,0-1.81,2.37l-11.17-7-.37-.23L16.12,33l-3-1.86L7.47,27.53Zm1,5.1h0l6.06,5a43.84,43.84,0,0,0-2,4.33A47.11,47.11,0,0,0,15.18,61a48.06,48.06,0,0,0,.6,9.42h0L8.48,73.3A55,55,0,0,1,14.62,35.45ZM9.27,76.78h0l7.84-.56c.11.36.22.72.33,1.06h0s0,0,0,0a47.16,47.16,0,0,0,16.46,23.24h0l-3.14,7.29A55.1,55.1,0,0,1,9.27,76.78Zm17.78,42,3.06-7.1,1.41-3.26,3.34-7.78,6-13.81.18-.43L46.36,73.9l.54-1.24h0c.27.41.54.82.85,1.22a1,1,0,0,0,.12.15,17.9,17.9,0,0,0,2.22,2.4,20.23,20.23,0,0,0,2.38,1.82L45.29,89.67l-.23.37L41.32,96,33,109.32l-1.86,3ZM35.77,111,41,105a47.17,47.17,0,0,0,28.28,4.82c.46-.06,1-.13,1.5-.23h0l2.74,7.32A55.07,55.07,0,0,1,35.77,111Zm40.83,5.22h0l-.72-7.8A47.3,47.3,0,0,0,98,94.62c1-1.13,2-2.32,2.89-3.53h0l7.18,3.27A55.11,55.11,0,0,1,76.6,116.22ZM111.79,95.1l-3.23-1.47L101,90.18l-.08,0-7.31-3.33L87.36,84l-.42-.19-13.3-6.06.55-.41a19.37,19.37,0,0,0,2.39-2.23A18.7,18.7,0,0,0,78.23,73l11.44,7.18.37.23,19.28,12.1,3,1.86L118,97.91Z" style="fill:#718096"/><path d="M150.17,46.3a7.21,7.21,0,0,1-3-3.15,11,11,0,0,1-1-5V19.62a11,11,0,0,1,1-5,7.21,7.21,0,0,1,3-3.15,10.66,10.66,0,0,1,9.39,0,7.18,7.18,0,0,1,3,3.16,11.29,11.29,0,0,1,1,5v2.92H157.3V19.64a4.23,4.23,0,0,0-.27-1.59,2.18,2.18,0,0,0-.84-1,2.61,2.61,0,0,0-2.63,0,2.18,2.18,0,0,0-.83,1,4.08,4.08,0,0,0-.29,1.6V38.16a4,4,0,0,0,.29,1.58,2.2,2.2,0,0,0,.83,1,2.32,2.32,0,0,0,1.3.35,2.37,2.37,0,0,0,1.34-.35,2.14,2.14,0,0,0,.83-1,4.21,4.21,0,0,0,.27-1.6V35.22h6.26v2.92a11.21,11.21,0,0,1-1,5,7.15,7.15,0,0,1-3,3.17,10.75,10.75,0,0,1-9.39,0Z" style="fill:#718096"/><path d="M170.77,46.37a7.17,7.17,0,0,1-3.17-2.91,9,9,0,0,1-1.1-4.6V18.92a9,9,0,0,1,1.1-4.61,7.07,7.07,0,0,1,3.17-2.92,13,13,0,0,1,10,0A7,7,0,0,1,184,14.31a9.14,9.14,0,0,1,1.1,4.61V38.86a9.11,9.11,0,0,1-1.1,4.6,7.14,7.14,0,0,1-3.18,2.91,12.88,12.88,0,0,1-10,0Zm6.64-5.54a2.47,2.47,0,0,0,1-1.07,3.82,3.82,0,0,0,.35-1.7V19.67a3.71,3.71,0,0,0-.35-1.67,2.45,2.45,0,0,0-1-1.08,3.39,3.39,0,0,0-1.64-.37,3.29,3.29,0,0,0-1.62.37,2.42,2.42,0,0,0-1,1.08,3.71,3.71,0,0,0-.35,1.67V38.06a3.82,3.82,0,0,0,.35,1.7,2.45,2.45,0,0,0,1,1.07,3.29,3.29,0,0,0,1.62.37A3.39,3.39,0,0,0,177.41,40.83Z" style="fill:#718096"/><path d="M207.08,10.77h5.78V47h-5.5V21.71l.37,1.59-5.26,17.3h-3.09l-5.26-16.8.5-2.09V47H189V10.77h5.94l6,19.69Z" style="fill:#718096"/><path d="M217.3,10.77h6.18V47H217.3ZM220.19,27h6.41a2.35,2.35,0,0,0,1.29-.35,2.21,2.21,0,0,0,.85-1,3.9,3.9,0,0,0,.3-1.6V19.79a4.23,4.23,0,0,0-.29-1.67,2.29,2.29,0,0,0-.83-1.06,2.37,2.37,0,0,0-1.32-.36h-6.41V10.77h6.58a10.33,10.33,0,0,1,4.61.94,6.55,6.55,0,0,1,2.92,2.78,9,9,0,0,1,1,4.4V25a8.63,8.63,0,0,1-1,4.3A6.61,6.61,0,0,1,231.36,32a10.44,10.44,0,0,1-4.59.93h-6.58Z" style="fill:#718096"/><path d="M244.27,10.77h4.34L257.26,47h-6.13l-4.69-23.76L241.75,47h-6.13Zm-2.76,24.82h9.87v5.79h-9.87Z" style="fill:#718096"/><path d="M261.67,46.33a7.36,7.36,0,0,1-3.13-3.07,10.06,10.06,0,0,1-1.08-4.82V36.49l6.16-.05v2a2.91,2.91,0,0,0,.77,2.15,2.84,2.84,0,0,0,2.14.79,2.71,2.71,0,0,0,2.08-.78,2.93,2.93,0,0,0,.74-2.11V35.27a2.8,2.8,0,0,0-.56-1.73,5.12,5.12,0,0,0-1.45-1.27q-.88-.54-2.4-1.29l-.19-.1-.19-.1-.32-.15a20.84,20.84,0,0,1-3.44-2.13,8.69,8.69,0,0,1-2.37-2.93,9.61,9.61,0,0,1-.95-4.48V19.22a10,10,0,0,1,1.06-4.75,7.21,7.21,0,0,1,3.08-3,10.44,10.44,0,0,1,4.86-1,10.08,10.08,0,0,1,4.76,1,7.05,7.05,0,0,1,3,3.05,10.31,10.31,0,0,1,1.05,4.83v2l-6.16.08V19.37a3.1,3.1,0,0,0-.71-2.18,2.5,2.5,0,0,0-2-.79,2.88,2.88,0,0,0-2.08.71,2.59,2.59,0,0,0-.73,2v2.42a2.89,2.89,0,0,0,.53,1.76,4.79,4.79,0,0,0,1.35,1.26c.54.34,1.29.76,2.25,1.24.19.08.37.17.56.27l.59.3.09.05.08.05a27.07,27.07,0,0,1,3.34,2,7.66,7.66,0,0,1,2.17,2.63,9.23,9.23,0,0,1,.9,4.34v3a10.18,10.18,0,0,1-1.06,4.82,7.19,7.19,0,0,1-3.08,3.07,10.34,10.34,0,0,1-4.83,1.05A10.57,10.57,0,0,1,261.67,46.33Z" style="fill:#718096"/><path d="M282.68,46.33a7.28,7.28,0,0,1-3.12-3.07,10,10,0,0,1-1.09-4.82V36.49l6.16-.05v2a3,3,0,0,0,.77,2.15,2.86,2.86,0,0,0,2.15.79,2.73,2.73,0,0,0,2.08-.78,2.93,2.93,0,0,0,.73-2.11V35.27a2.74,2.74,0,0,0-.56-1.73,5,5,0,0,0-1.44-1.27c-.59-.36-1.4-.79-2.41-1.29l-.19-.1-.18-.1-.33-.15a21.27,21.27,0,0,1-3.44-2.13,8.94,8.94,0,0,1-2.37-2.93,9.61,9.61,0,0,1-.94-4.48V19.22a9.89,9.89,0,0,1,1.06-4.75,7.13,7.13,0,0,1,3.07-3,10.45,10.45,0,0,1,4.87-1,10.1,10.1,0,0,1,4.76,1,7.1,7.1,0,0,1,3,3.05,10.31,10.31,0,0,1,1,4.83v2l-6.15.08V19.37a3.14,3.14,0,0,0-.71-2.18,2.52,2.52,0,0,0-2-.79,2.91,2.91,0,0,0-2.09.71,2.59,2.59,0,0,0-.73,2v2.42a2.9,2.9,0,0,0,.54,1.76,4.62,4.62,0,0,0,1.34,1.26c.54.34,1.29.76,2.26,1.24l.56.27.58.3.09.05.09.05a27.86,27.86,0,0,1,3.34,2,7.66,7.66,0,0,1,2.17,2.63,9.23,9.23,0,0,1,.89,4.34v3a10.3,10.3,0,0,1-1.05,4.82,7.24,7.24,0,0,1-3.08,3.07,10.38,10.38,0,0,1-4.84,1.05A10.63,10.63,0,0,1,282.68,46.33Z" style="fill:#718096"/><path d="M311.25,10.77h6.18V47h-6.18Zm2.74,0h13.36v6H314ZM314,26h12.12v6H314Zm0,15h13.36v6H314Z" style="fill:#718096"/><path d="M330.55,10.77h6.18V47h-6.18Zm4.11,30.31h4.63a2.41,2.41,0,0,0,1.92-.76,3.11,3.11,0,0,0,.68-2.13V19.59a3.11,3.11,0,0,0-.68-2.13,2.41,2.41,0,0,0-1.92-.76h-4.63V10.77h5.26a9.47,9.47,0,0,1,4.43,1,6.55,6.55,0,0,1,2.82,2.79,9.18,9.18,0,0,1,1,4.37v20a9.2,9.2,0,0,1-1,4.38,6.52,6.52,0,0,1-2.83,2.79,9.58,9.58,0,0,1-4.45,1h-5.23Z" style="fill:#718096"/><path d="M355.19,46.3a7.08,7.08,0,0,1-3-3.14,11,11,0,0,1-1-4.92V10.77h6.21V38.41a3,3,0,0,0,.65,2.06,2.27,2.27,0,0,0,1.8.73,2.33,2.33,0,0,0,1.83-.73,3,3,0,0,0,.66-2.06V10.77h6.2V38.24a10.83,10.83,0,0,1-1,4.92,7.21,7.21,0,0,1-3,3.14,10.59,10.59,0,0,1-9.32,0Z" style="fill:#718096"/><path d="M375.59,46.3a7.16,7.16,0,0,1-3-3.15,11,11,0,0,1-1-5V19.62a11,11,0,0,1,1-5,7.16,7.16,0,0,1,3-3.15,10.63,10.63,0,0,1,9.38,0,7.07,7.07,0,0,1,3,3.16,11.29,11.29,0,0,1,1,5v2.92h-6.25V19.64a4,4,0,0,0-.28-1.59,2.16,2.16,0,0,0-.83-1,2.44,2.44,0,0,0-1.34-.36A2.37,2.37,0,0,0,379,17a2.14,2.14,0,0,0-.84,1,4.09,4.09,0,0,0-.28,1.6V38.16a4,4,0,0,0,.28,1.58,2.16,2.16,0,0,0,.84,1,2.29,2.29,0,0,0,1.29.35,2.38,2.38,0,0,0,1.35-.35,2.07,2.07,0,0,0,.82-1,4,4,0,0,0,.28-1.6V35.22H389v2.92a11.21,11.21,0,0,1-1,5,7,7,0,0,1-3,3.17,10.72,10.72,0,0,1-9.38,0Z" style="fill:#718096"/><path d="M398.32,10.77h4.34L411.31,47h-6.13l-4.69-23.76L395.8,47h-6.13Zm-2.77,24.82h9.88v5.79h-9.88Z" style="fill:#718096"/><path d="M410.51,10.77h18.15V16.7H410.51Zm6,3h6.19V47h-6.19Z" style="fill:#718096"/><path d="M437.28,47H431.1V10.77h6.18Z" style="fill:#718096"/><path d="M445.5,46.37a7.14,7.14,0,0,1-3.18-2.91,9.11,9.11,0,0,1-1.1-4.6V18.92a9.14,9.14,0,0,1,1.1-4.61,7,7,0,0,1,3.18-2.92,13,13,0,0,1,10,0,7,7,0,0,1,3.18,2.92,9.14,9.14,0,0,1,1.1,4.61V38.86a9.11,9.11,0,0,1-1.1,4.6,7.14,7.14,0,0,1-3.18,2.91,12.86,12.86,0,0,1-10,0Zm6.63-5.54a2.47,2.47,0,0,0,1-1.07,3.82,3.82,0,0,0,.35-1.7V19.67a3.71,3.71,0,0,0-.35-1.67,2.45,2.45,0,0,0-1-1.08,3.37,3.37,0,0,0-1.64-.37,3.29,3.29,0,0,0-1.62.37,2.54,2.54,0,0,0-1,1.08,3.71,3.71,0,0,0-.35,1.67V38.06a3.82,3.82,0,0,0,.35,1.7,2.57,2.57,0,0,0,1,1.07,3.29,3.29,0,0,0,1.62.37A3.37,3.37,0,0,0,452.13,40.83Z" style="fill:#718096"/><path d="M463.71,10.77h4.86L477.09,35l-.67,1V10.77h5.63V47h-4.91L468.72,24.2l.64-1V47h-5.65Z" style="fill:#718096"/><path d="M143.67,72h18.14V78H143.67Zm6,3h6.18v33.2h-6.18Z" style="fill:#718096"/><path d="M164.76,72h6.18v36.24h-6.18Zm2.94,15.48h12.14v5.81H167.7ZM175.82,72H182v36.24h-6.18Z" style="fill:#718096"/><path d="M186.44,72h6.18v36.24h-6.18Zm2.74,0h13.36v6H189.18Zm0,15.23H201.3v6H189.18Zm0,15h13.36v6H189.18Z" style="fill:#718096"/><path d="M222.91,72h4.34l8.65,36.24h-6.14l-4.68-23.75-4.69,23.75h-6.13Zm-2.77,24.82H230v5.79h-9.87Z" style="fill:#718096"/><path d="M238.59,72h4.86L252,96.21l-.67,1V72h5.64v36.22H252L243.6,85.46l.65-1v23.78h-5.66Z" style="fill:#718096"/><path d="M267.06,108.27h-6.19V72h6.19Z" style="fill:#718096"/><path d="M289.09,72h5.78v36.24h-5.5V83l.37,1.6-5.26,17.3h-3.09l-5.26-16.81.5-2.09v25.3H271V72h5.94l6,19.69Z" style="fill:#718096"/><path d="M305.72,72h4.33l8.65,36.24h-6.13l-4.68-23.75-4.69,23.75h-6.13ZM303,96.85h9.87v5.79H303Z" style="fill:#718096"/><path d="M321.4,72h6.18v36.24H321.4Zm2.54,30.31H337v5.93H323.94Z" style="fill:#718096"/><path d="M354.18,107.59a7.25,7.25,0,0,1-3.13-3.07A10,10,0,0,1,350,99.7v-2l6.16,0v2a3,3,0,0,0,.77,2.15,2.86,2.86,0,0,0,2.15.79,2.76,2.76,0,0,0,2.08-.77,3,3,0,0,0,.73-2.12V96.53a2.74,2.74,0,0,0-.56-1.73,5,5,0,0,0-1.44-1.27c-.59-.36-1.39-.79-2.41-1.29l-.19-.1-.18-.1-.33-.15a21.27,21.27,0,0,1-3.44-2.13,8.79,8.79,0,0,1-2.36-2.93,9.49,9.49,0,0,1-.95-4.48V80.48a9.89,9.89,0,0,1,1.06-4.75,7.1,7.1,0,0,1,3.08-3,10.38,10.38,0,0,1,4.86-1,10.1,10.1,0,0,1,4.76,1,7.1,7.1,0,0,1,3,3,10.31,10.31,0,0,1,1,4.83v2l-6.16.08V80.63a3.14,3.14,0,0,0-.71-2.18,2.52,2.52,0,0,0-2-.79,2.88,2.88,0,0,0-2.08.71,2.6,2.6,0,0,0-.74,2v2.42a3,3,0,0,0,.54,1.77,4.72,4.72,0,0,0,1.34,1.25A23.48,23.48,0,0,0,360.31,87l.56.27.58.3.09,0,.09.05a27.86,27.86,0,0,1,3.34,2,7.66,7.66,0,0,1,2.17,2.63,9.23,9.23,0,0,1,.9,4.34v3a10.3,10.3,0,0,1-1.06,4.82,7.24,7.24,0,0,1-3.08,3.07,10.38,10.38,0,0,1-4.84,1.06A10.55,10.55,0,0,1,354.18,107.59Z" style="fill:#718096"/><path d="M370,72h18.15V78H370Zm6,3h6.18v33.2H376Z" style="fill:#718096"/><path d="M393.67,107.56a7.19,7.19,0,0,1-3-3.14,11,11,0,0,1-1-4.92V72h6.21V99.67a3,3,0,0,0,.65,2.06,2.26,2.26,0,0,0,1.79.73,2.33,2.33,0,0,0,1.83-.73,3,3,0,0,0,.66-2.06V72H407V99.5a10.83,10.83,0,0,1-1,4.92,7.21,7.21,0,0,1-3,3.14,10.53,10.53,0,0,1-9.33,0Z" style="fill:#718096"/><path d="M410.56,72h6.18v36.24h-6.18Zm4.11,30.31h4.64a2.42,2.42,0,0,0,1.92-.76,3.11,3.11,0,0,0,.67-2.13V80.85a3.11,3.11,0,0,0-.67-2.13,2.42,2.42,0,0,0-1.92-.76h-4.64V72h5.26a9.51,9.51,0,0,1,4.44,1,6.55,6.55,0,0,1,2.82,2.79,9.18,9.18,0,0,1,1,4.37v20a9.18,9.18,0,0,1-1,4.37,6.52,6.52,0,0,1-2.83,2.79,9.58,9.58,0,0,1-4.45,1h-5.24Z" style="fill:#718096"/><path d="M442.57,94.39v13.88h-6.18V94.39L429.61,72H436l3.39,15,3.24-15h6.43Z" style="fill:#718096"/><path d="M464.83,107.56a7.16,7.16,0,0,1-3-3.15,11,11,0,0,1-1-5V80.88a11,11,0,0,1,1-5,7.16,7.16,0,0,1,3-3.15,9.36,9.36,0,0,1,4.68-1.09,9.47,9.47,0,0,1,4.7,1.09,7.07,7.07,0,0,1,3,3.16,11.29,11.29,0,0,1,1,5v2.92H472V80.9a4.22,4.22,0,0,0-.28-1.59,2.16,2.16,0,0,0-.83-1,2.44,2.44,0,0,0-1.34-.36,2.35,2.35,0,0,0-1.29.35,2.14,2.14,0,0,0-.84,1,4.08,4.08,0,0,0-.29,1.6V99.42a3.91,3.91,0,0,0,.29,1.58,2.11,2.11,0,0,0,.84,1,2.27,2.27,0,0,0,1.29.35,2.42,2.42,0,0,0,1.35-.35,2.08,2.08,0,0,0,.82-1,4.17,4.17,0,0,0,.28-1.6V96.48h6.25V99.4a11.29,11.29,0,0,1-1,5,7.07,7.07,0,0,1-3,3.16,9.58,9.58,0,0,1-4.7,1.09A9.47,9.47,0,0,1,464.83,107.56Z" style="fill:#718096"/><path d="M481.65,72h6.19v36.24h-6.19Zm2.75,0h13.36v6H484.4Zm0,15.23h12.11v6H484.4Zm0,15h13.36v6H484.4Z" style="fill:#718096"/><path d="M501,72h4.86l8.52,24.18-.67,1V72h5.63v36.22h-4.91L506,85.46l.64-1v23.78H501Z" style="fill:#718096"/><path d="M523.23,72h18.15V78H523.23Zm6,3h6.19v33.2h-6.19Z" style="fill:#718096"/><path d="M544.32,72h6.18v36.24h-6.18Zm2.74,0h13.36v6H547.06Zm0,15.23h12.12v6H547.06Zm0,15h13.36v6H547.06Z" style="fill:#718096"/><path d="M563.61,72h6.06v36.27h-6.06Zm2.77,15h6.53a3.12,3.12,0,0,0,1.38-.29,2,2,0,0,0,.89-.82,2.6,2.6,0,0,0,.3-1.28v-4a3.13,3.13,0,0,0-.3-1.42,2.06,2.06,0,0,0-.89-.91,2.87,2.87,0,0,0-1.38-.31h-6.53V72h6.16a11.93,11.93,0,0,1,5,1,7,7,0,0,1,3.18,2.82,8.61,8.61,0,0,1,1.1,4.45v4.24a9,9,0,0,1-1.1,4.57,7.09,7.09,0,0,1-3.19,2.9,11.51,11.51,0,0,1-5,1h-6.16Zm5,4.81,5.65-1.15,5.79,17.6h-6.63Z" style="fill:#718096"/></svg>