<?xml version="1.0" encoding="utf-8"?>
<!-- Generator: Adobe Illustrator 28.4.1, SVG Export Plug-In . SVG Version: 6.00 Build 0)  -->
<svg version="1.2" baseProfile="tiny" id="Layer_1" xmlns="http://www.w3.org/2000/svg" xmlns:xlink="http://www.w3.org/1999/xlink"
	 x="0px" y="0px" viewBox="0 0 538.4 245.8" overflow="visible" xml:space="preserve">
<g>
	<rect x="0.6" y="192.7" fill="#718097" width="537.6" height="53.1"/>
	<path fill="#FFFFFF" d="M59.6,207c-1.7-2.5-4.1-3.7-7.4-3.7c-1,0-2,0.1-3,0.4c-1,0.3-1.8,0.7-2.6,1.2c-0.8,0.6-1.4,1.3-1.8,2.1
		c-0.5,0.9-0.7,1.9-0.7,3.1c0,1.7,0.5,3.1,1.5,4s2.2,1.7,3.6,2.3s3,1.2,4.7,1.6s3.3,1.1,4.7,1.9s2.6,1.9,3.6,3.2
		c1,1.3,1.5,3.1,1.5,5.4c0,1.7-0.4,3.3-1.1,4.6c-0.7,1.4-1.7,2.5-2.9,3.5c-1.2,0.9-2.5,1.6-4,2.1c-1.5,0.5-3,0.8-4.5,0.8
		c-2.3,0-4.5-0.4-6.6-1.3s-3.9-2.3-5.3-4.3l3.5-2.5c0.8,1.4,2,2.5,3.4,3.4c1.5,0.8,3.2,1.3,5.2,1.3c1,0,1.9-0.1,2.9-0.5
		c1-0.3,1.8-0.8,2.6-1.3c0.8-0.6,1.4-1.3,1.9-2.2c0.5-0.9,0.8-1.8,0.8-3c0-1.3-0.3-2.4-0.8-3.3c-0.6-0.9-1.3-1.6-2.2-2.2
		s-2-1.1-3.1-1.5c-1.2-0.4-2.4-0.8-3.6-1.2c-1.2-0.4-2.4-0.8-3.6-1.3c-1.2-0.5-2.2-1.1-3.1-1.9c-0.9-0.8-1.7-1.7-2.2-2.9
		c-0.6-1.2-0.8-2.6-0.8-4.4s0.3-3.4,1-4.8s1.6-2.5,2.8-3.4c1.2-0.9,2.5-1.6,4-2c1.5-0.4,3-0.6,4.5-0.6c2.2,0,4.1,0.3,5.9,1
		c1.8,0.7,3.4,1.9,4.9,3.6"/>
	<path fill="#FFFFFF" d="M113.2,224.6c0,1.6-0.2,3.2-0.6,5c-0.4,1.8-1.1,3.4-2.1,4.9s-2.5,2.8-4.3,3.7c-1.8,1-4.1,1.5-7,1.5
		s-5.2-0.5-7-1.5c-1.8-1-3.2-2.2-4.2-3.7c-1-1.5-1.8-3.1-2.1-4.9c-0.4-1.8-0.6-3.4-0.6-5v-23.9h3.9v23.4c0,1.8,0.2,3.4,0.5,4.7
		c0.4,1.3,0.8,2.4,1.4,3.3s1.2,1.6,2,2.1c0.7,0.5,1.5,0.9,2.2,1.2c0.7,0.3,1.4,0.5,2.1,0.6c0.7,0.1,1.3,0.1,1.8,0.1
		c0.5,0,1.1,0,1.8-0.1c0.7-0.1,1.4-0.3,2.2-0.6c0.7-0.3,1.5-0.7,2.2-1.2c0.7-0.5,1.4-1.2,2-2.1c0.6-0.9,1.1-2,1.4-3.3
		s0.5-2.9,0.5-4.7v-23.4h3.9"/>
	<path fill="#FFFFFF" d="M138,200.7h11.1c3.9,0,6.9,0.8,9.2,2.5s3.4,4.2,3.4,7.6s-1.1,6-3.4,7.7s-5.3,2.6-9.2,2.6h-7.2v17.7H138
		 M141.9,217.5h6.2c1.7,0,3.2-0.2,4.4-0.5c1.2-0.4,2.2-0.8,2.9-1.4s1.2-1.3,1.6-2.1c0.3-0.8,0.5-1.7,0.5-2.6s-0.2-1.8-0.5-2.6
		c-0.3-0.8-0.8-1.5-1.6-2.1s-1.7-1.1-2.9-1.4c-1.2-0.3-2.7-0.5-4.4-0.5h-6.2V217.5L141.9,217.5z"/>
	<path fill="#FFFFFF" d="M184.5,200.7h11.1c3.9,0,6.9,0.8,9.2,2.5s3.4,4.2,3.4,7.6s-1.1,6-3.4,7.7s-5.3,2.6-9.2,2.6h-7.2v17.7h-3.9
		 M188.3,217.5h6.2c1.7,0,3.2-0.2,4.4-0.5c1.2-0.4,2.2-0.8,2.9-1.4s1.2-1.3,1.6-2.1c0.3-0.8,0.5-1.7,0.5-2.6s-0.2-1.8-0.5-2.6
		c-0.3-0.8-0.8-1.5-1.6-2.1s-1.7-1.1-2.9-1.4c-1.2-0.3-2.7-0.5-4.4-0.5h-6.2V217.5L188.3,217.5z"/>
	<path fill="#FFFFFF" d="M266.1,219.7c0,2.9-0.5,5.6-1.5,8c-1,2.4-2.4,4.5-4.2,6.3c-1.8,1.8-3.9,3.2-6.3,4.2c-2.4,1-5.1,1.5-7.9,1.5
		s-5.5-0.5-7.9-1.5s-4.5-2.4-6.3-4.2c-1.8-1.8-3.2-3.9-4.2-6.3c-1-2.4-1.5-5.1-1.5-8s0.5-5.6,1.5-8c1-2.4,2.4-4.5,4.2-6.3
		c1.8-1.8,3.9-3.2,6.3-4.2c2.4-1,5-1.5,7.9-1.5s5.5,0.5,7.9,1.5s4.5,2.4,6.3,4.2c1.8,1.8,3.2,3.9,4.2,6.3
		C265.5,214.2,266.1,216.8,266.1,219.7 M261.9,219.7c0-2.2-0.4-4.3-1.1-6.3c-0.7-2-1.8-3.7-3.1-5.2s-3-2.7-4.9-3.6
		c-1.9-0.9-4.1-1.3-6.6-1.3s-4.6,0.4-6.6,1.3c-1.9,0.9-3.6,2.1-4.9,3.6s-2.4,3.2-3.1,5.2c-0.7,2-1.1,4.1-1.1,6.3s0.4,4.3,1.1,6.3
		c0.7,2,1.8,3.7,3.1,5.2s3,2.7,4.9,3.6c1.9,0.9,4.1,1.3,6.6,1.3s4.6-0.4,6.6-1.3c1.9-0.9,3.6-2.1,4.9-3.6c1.3-1.5,2.4-3.2,3.1-5.2
		S261.9,221.9,261.9,219.7"/>
	<path fill="#FFFFFF" d="M291.3,238.8h-3.9v-38.1h11.7c3.9,0,6.9,0.8,9.2,2.5c2.2,1.7,3.4,4.2,3.4,7.6c0,2.6-0.8,4.9-2.5,6.7
		s-4.1,2.9-7.2,3.1l11,18.1h-4.7l-10.4-17.7h-6.5 M291.3,217.5h6.9c1.7,0,3.2-0.2,4.4-0.5s2.2-0.8,2.9-1.4s1.2-1.3,1.6-2.1
		c0.3-0.8,0.5-1.7,0.5-2.6s-0.2-1.8-0.5-2.6c-0.3-0.8-0.8-1.5-1.6-2.1s-1.7-1.1-2.9-1.4s-2.7-0.5-4.4-0.5h-6.9V217.5L291.3,217.5z"
		/>
	<polyline fill="#FFFFFF" points="348,238.8 344.1,238.8 344.1,204.2 331.4,204.2 331.4,200.7 360.7,200.7 360.7,204.2 348,204.2 	
		"/>
	<rect x="384" y="200.7" fill="#FFFFFF" width="3.9" height="38.1"/>
	<polyline fill="#FFFFFF" points="443,232.9 443.1,232.9 443.1,200.7 447,200.7 447,238.8 442.2,238.8 419.5,206.2 419.4,206.2 
		419.4,238.8 415.5,238.8 415.5,200.7 420.3,200.7 	"/>
	<path fill="#FFFFFF" d="M498.5,207.7c-1.3-1.4-2.8-2.4-4.6-3.2s-3.9-1.2-6.2-1.2s-4.6,0.4-6.6,1.3c-1.9,0.9-3.6,2.1-4.9,3.6
		c-1.3,1.5-2.4,3.2-3.1,5.2c-0.7,2-1.1,4.1-1.1,6.3s0.4,4.3,1.1,6.3c0.7,2,1.8,3.7,3.1,5.2c1.3,1.5,3,2.7,4.9,3.6
		c1.9,0.9,4.1,1.3,6.6,1.3c2,0,3.9-0.2,5.7-0.7c1.8-0.5,3.4-1.1,4.9-2v-12.7H489v-3.6h13v18.6c-2.1,1.2-4.5,2.2-7.1,2.9
		c-2.6,0.7-5,1-7.3,1c-2.8,0-5.5-0.5-7.9-1.5s-4.5-2.4-6.3-4.2c-1.8-1.8-3.2-3.9-4.2-6.3c-1-2.4-1.5-5.1-1.5-8s0.5-5.6,1.5-8
		c1-2.4,2.4-4.5,4.2-6.3c1.8-1.8,3.9-3.2,6.3-4.2c2.4-1,5-1.5,7.9-1.5c3,0,5.7,0.4,7.9,1.3c2.2,0.8,4.2,2.1,5.9,3.8"/>
	<rect x="144.5" y="3.3" fill="#718097" width="13.9" height="112.8"/>
	<path fill="#718097" d="M170.5,116.1h-14.3L208.5,3.3h11.2l43.4,112.8H247l-13-36.3h-49.2 M230.9,70.9l-20.1-52.4l-21.9,52.4H230.9
		z"/>
	<path fill="#718097" d="M268.1,116.1h-14.3L306.1,3.3h11.2l43.4,112.8h-15.2l-13-36.3h-49.2 M328.5,70.9l-20.1-52.4L286,70.9H328.5
		L328.5,70.9z"/>
	<path fill="#718097" d="M358,4.6c8.1,0,21.9-0.9,31.3-0.9s21,0,29.1,6.3c6.7,4.5,10.3,12.1,9.9,20.1c0,17-12.1,21-18.4,23.3
		c5.4,0.9,10.7,2.7,15.7,4.9c7.6,5.3,12.1,14,12.1,23.3c0,11.8-6.5,22.7-17,28.2c-11.2,6.3-27.3,6.3-39.4,6.3h-24.2 M371.9,52.1
		h15.2c6.7,0.5,13.4-0.9,19.2-4c4.9-4,8.1-9.8,8.1-16.1c0-20.1-17-20.1-25.1-20.1c-5.4,0-10.7,0-16.1,0.9v39.4H371.9L371.9,52.1z
		 M371.9,107.6h20.1c11.2,0,30.4-4,30.4-23.3c0-6-2.3-11.7-6.3-16.1c-4.9-4.9-13.9-7.2-29.1-7.2h-15.2V107.6z"/>
	<path fill="#718097" d="M535.3,14.8c0,1.8-3.1,3.1-3.1,3.1c-0.9,0-4-1.8-4.9-1.8c-9-4-18.4-6.3-28.2-6.3
		c-24.2,0-48.3,15.2-48.3,49.2c0,32.2,23.3,49.2,47.5,49.2c10-0.1,19.9-2.2,29.1-6.3c1.3-0.4,2.7-1.3,4-1.8c0,0,1.8,0.9,1.8,1.8v0.9
		l-0.9,7.2c-0.1,1-0.8,1.7-1.8,1.8c-10.8,3.1-21.9,4.5-33.1,4c-12.1,0-31.3-0.9-46.5-17c-9.9-10.3-15.2-24.2-15.2-38.5
		C436,35.9,450.7,13.9,474,5c10-3.7,20.7-5.3,31.3-4.9c10.3,0,20.1,1.3,30.4,4c0.6,0.6,0.9,1.2,0.9,1.8"/>
	<path fill="#8192AA" d="M53.8,45.1v70.9h58.1c7.1,0,12.9-5.8,12.9-12.9V45.1"/>
	<path fill="#718097" d="M83.7,1.1h-30v40.1h40.1v-30C93.8,5.6,89.3,1.1,83.7,1.1"/>
	<path fill="#C1D1E5" d="M17.5,64.6v21.3c0,6,4.9,10.8,10.8,10.8h21.3V64.6"/>
	<path fill="#C8C8C8" d="M13.6,11C6.1,11,0,17.1,0,24.6v36.1h49.7V11"/>
	<polyline fill="#A0AEC0" points="1.6,151.4 1.6,149.6 4,149.2 4,132.8 1.6,132.4 1.6,130.5 9.1,130.5 9.1,132.4 6.8,132.8 
		6.8,149.2 9.1,149.6 9.1,151.4 	"/>
	<polyline fill="#A0AEC0" points="13.2,151.4 13.2,149.6 15.5,149.2 15.5,132.8 13.2,132.4 13.2,130.5 15.5,130.5 18.4,130.5 
		28.6,146.8 28.7,146.8 28.7,132.8 26.1,132.4 26.1,130.5 31.3,130.5 33.7,130.5 33.7,132.4 31.3,132.8 31.3,151.4 28.7,151.4 
		18.2,135.1 18.1,135.1 18.1,149.2 20.7,149.6 20.7,151.4 	"/>
	<polyline fill="#A0AEC0" points="42.9,151.4 42.9,149.6 45.2,149.2 45.2,132.7 40.5,132.7 40,135.6 37.9,135.6 37.9,130.5 
		55.3,130.5 55.3,135.6 53.2,135.6 52.8,132.7 48,132.7 48,149.2 50.4,149.6 50.4,151.4 	"/>
	<polyline fill="#A0AEC0" points="59.6,151.4 59.6,149.6 61.9,149.2 61.9,132.8 59.6,132.4 59.6,130.5 75.1,130.5 75.1,135.6 
		72.8,135.6 72.5,132.7 64.7,132.7 64.7,139.5 72.4,139.5 72.4,141.7 64.7,141.7 64.7,149.3 72.9,149.3 73.2,146.4 75.5,146.4 
		75.5,151.4 	"/>
	<path fill="#A0AEC0" d="M80,151.4v-1.8l2.3-0.4v-16.5l-2.3-0.4v-1.8h9.3c1.5,0,2.8,0.2,3.9,0.7c1.1,0.5,1.8,1.1,2.4,2
		c0.6,0.9,0.8,1.9,0.8,3.2s-0.3,2.2-0.8,3.1c-0.5,0.8-1.3,1.5-2.3,1.9c-1,0.4-2.1,0.6-3.5,0.7l-4.7,0.1v7.1l2.3,0.4v1.8 M85.2,139.9
		H89c1.6,0,2.7-0.3,3.4-0.9c0.7-0.6,1.1-1.5,1.1-2.6s-0.3-2-1-2.6c-0.7-0.6-1.8-1-3.2-1h-4.2L85.2,139.9L85.2,139.9z M93.8,151.4
		L89.2,141l2.8,0l3.9,8.4l1.4,0.3v1.9H93.8z"/>
	<polyline fill="#A0AEC0" points="101.6,151.4 101.6,149.6 103.9,149.2 103.9,132.8 101.6,132.4 101.6,130.5 103.9,130.5 
		106.8,130.5 117.1,146.8 117.1,146.8 117.1,132.8 114.6,132.4 114.6,130.5 119.7,130.5 122.1,130.5 122.1,132.4 119.7,132.8 
		119.7,151.4 117.2,151.4 106.6,135.1 106.5,135.1 106.5,149.2 109.1,149.6 109.1,151.4 	"/>
	<path fill="#A0AEC0" d="M126,151.4v-1.8l1.6-0.2l7.3-18.9h2.4l7.2,18.9l1.5,0.2v1.8h-6v-1.8l1.6-0.3l-1.4-3.9h-8.4l-1.4,3.9
		l1.6,0.3v1.8 M132.7,143.1h6.6l-3.1-8.5l-0.2-0.5H136l-0.2,0.5L132.7,143.1L132.7,143.1z"/>
	<polyline fill="#A0AEC0" points="151.5,151.4 151.5,149.6 153.9,149.2 153.9,132.7 149.1,132.7 148.7,135.6 146.6,135.6 
		146.6,130.5 164,130.5 164,135.6 161.9,135.6 161.4,132.7 156.7,132.7 156.7,149.2 159,149.6 159,151.4 	"/>
	<polyline fill="#A0AEC0" points="168.2,151.4 168.2,149.6 170.6,149.2 170.6,132.8 168.2,132.4 168.2,130.5 175.8,130.5 
		175.8,132.4 173.4,132.8 173.4,149.2 175.8,149.6 175.8,151.4 	"/>
	<path fill="#A0AEC0" d="M188.3,151.7c-1.4,0-2.6-0.3-3.6-0.8c-1.1-0.5-2-1.2-2.7-2.2c-0.8-0.9-1.3-2.1-1.7-3.4
		c-0.4-1.3-0.6-2.7-0.6-4.3v-0.3c0-1.6,0.2-3,0.6-4.3c0.4-1.3,1-2.4,1.7-3.4s1.7-1.7,2.7-2.2c1.1-0.5,2.3-0.8,3.6-0.8
		c1.4,0,2.7,0.3,3.8,0.8s2,1.2,2.7,2.2s1.3,2.1,1.7,3.4c0.4,1.3,0.6,2.7,0.6,4.3v0.3c0,1.6-0.2,3-0.6,4.3s-0.9,2.4-1.7,3.4
		c-0.7,0.9-1.6,1.7-2.7,2.2S189.7,151.7,188.3,151.7 M188.3,149.4c1.4,0,2.5-0.3,3.4-1s1.5-1.6,1.9-2.9s0.6-2.7,0.6-4.3v-0.3
		c0-1.6-0.2-3.1-0.6-4.3s-1-2.2-1.9-2.9c-0.9-0.7-2-1-3.4-1c-1.2,0-2.3,0.4-3.2,1.1s-1.5,1.7-2,2.9s-0.7,2.7-0.7,4.3v0.3
		c0,1.6,0.2,3.1,0.7,4.3s1.1,2.2,2,2.9C186,149,187,149.4,188.3,149.4"/>
	<polyline fill="#A0AEC0" points="200.9,151.4 200.9,149.6 203.2,149.2 203.2,132.8 200.9,132.4 200.9,130.5 203.2,130.5 
		206.1,130.5 216.3,146.8 216.4,146.8 216.4,132.8 213.8,132.4 213.8,130.5 219,130.5 221.3,130.5 221.3,132.4 219,132.8 219,151.4 
		216.4,151.4 205.9,135.1 205.8,135.1 205.8,149.2 208.4,149.6 208.4,151.4 	"/>
	<path fill="#A0AEC0" d="M225.2,151.4v-1.8l1.6-0.2l7.3-18.9h2.4l7.2,18.9l1.5,0.2v1.8h-6v-1.8l1.6-0.3l-1.4-3.9h-8.4l-1.4,3.9
		l1.6,0.3v1.8 M231.9,143.1h6.6l-3.1-8.5l-0.2-0.5h-0.1l-0.2,0.5L231.9,143.1L231.9,143.1z"/>
	<polyline fill="#A0AEC0" points="249.1,151.4 249.1,149.6 251.4,149.2 251.4,132.8 249.1,132.4 249.1,130.5 251.4,130.5 
		254.2,130.5 256.6,130.5 256.6,132.4 254.2,132.8 254.2,149.3 261.6,149.3 262,146 264.1,146 264.1,151.4 	"/>
	<path fill="#A0AEC0" d="M277.4,151.4v-1.8l1.5-0.2l7.3-18.9h2.4l7.2,18.9l1.5,0.2v1.8h-6v-1.8l1.6-0.3l-1.4-3.9h-8.4l-1.4,3.9
		l1.6,0.3v1.8 M284.1,143.1h6.6l-3.1-8.5l-0.2-0.5h-0.1l-0.2,0.5L284.1,143.1L284.1,143.1z"/>
	<path fill="#A0AEC0" d="M308.8,151.7c-1.3,0-2.5-0.2-3.7-0.6s-2.3-0.9-3.4-1.7V145h2.2l0.5,3.3c0.6,0.4,1.3,0.7,2,0.9
		s1.5,0.3,2.4,0.3c1,0,1.8-0.1,2.4-0.4c0.7-0.3,1.2-0.7,1.5-1.2c0.4-0.5,0.5-1.1,0.5-1.8c0-0.6-0.1-1.2-0.5-1.7
		c-0.3-0.5-0.8-0.9-1.5-1.3c-0.7-0.4-1.7-0.7-2.9-1c-1.4-0.3-2.6-0.8-3.6-1.3c-1-0.6-1.7-1.2-2.2-2c-0.5-0.8-0.8-1.7-0.8-2.8
		c0-1.1,0.3-2.1,0.9-2.9c0.6-0.9,1.4-1.5,2.4-2s2.2-0.8,3.6-0.8c1.5,0,2.8,0.2,3.9,0.7c1.1,0.4,2,1,2.8,1.6v4.2h-2.2l-0.5-3
		c-0.4-0.3-1-0.6-1.6-0.9c-0.6-0.2-1.4-0.4-2.4-0.4c-0.8,0-1.5,0.1-2.1,0.4c-0.6,0.3-1.1,0.7-1.4,1.2c-0.3,0.5-0.5,1.1-0.5,1.8
		c0,0.6,0.2,1.1,0.5,1.6s0.8,0.8,1.5,1.2c0.7,0.3,1.6,0.7,2.8,0.9c2.2,0.6,3.9,1.4,5,2.4s1.7,2.4,1.7,4c0,1.1-0.3,2.1-0.9,3
		c-0.6,0.9-1.5,1.5-2.5,2C311.6,151.5,310.3,151.8,308.8,151.7"/>
	<path fill="#A0AEC0" d="M327.8,151.7c-1.3,0-2.5-0.2-3.7-0.6s-2.3-0.9-3.4-1.7V145h2.2l0.5,3.3c0.6,0.4,1.3,0.7,2,0.9
		s1.5,0.3,2.4,0.3c1,0,1.8-0.1,2.4-0.4c0.7-0.3,1.2-0.7,1.5-1.2c0.4-0.5,0.5-1.1,0.5-1.8c0-0.6-0.1-1.2-0.5-1.7
		c-0.3-0.5-0.8-0.9-1.5-1.3c-0.7-0.4-1.7-0.7-2.9-1c-1.4-0.3-2.6-0.8-3.6-1.3c-1-0.6-1.7-1.2-2.2-2c-0.5-0.8-0.8-1.7-0.8-2.8
		c0-1.1,0.3-2.1,0.9-2.9c0.6-0.9,1.4-1.5,2.4-2s2.2-0.8,3.6-0.8c1.5,0,2.8,0.2,3.9,0.7c1.1,0.4,2,1,2.8,1.6v4.2h-2.2l-0.5-3
		c-0.4-0.3-1-0.6-1.6-0.9c-0.6-0.2-1.4-0.4-2.4-0.4c-0.8,0-1.5,0.1-2.1,0.4c-0.6,0.3-1.1,0.7-1.4,1.2c-0.3,0.5-0.5,1.1-0.5,1.8
		c0,0.6,0.2,1.1,0.5,1.6s0.8,0.8,1.5,1.2c0.7,0.3,1.6,0.7,2.8,0.9c2.2,0.6,3.9,1.4,5,2.4c1.1,1.1,1.7,2.4,1.7,4c0,1.1-0.3,2.1-0.9,3
		c-0.6,0.9-1.5,1.5-2.5,2C330.6,151.5,329.3,151.8,327.8,151.7"/>
	<path fill="#A0AEC0" d="M347.8,151.7c-1.4,0-2.6-0.3-3.6-0.8c-1.1-0.5-2-1.2-2.7-2.2c-0.8-0.9-1.3-2.1-1.7-3.4
		c-0.4-1.3-0.6-2.7-0.6-4.3v-0.3c0-1.6,0.2-3,0.6-4.3c0.4-1.3,1-2.4,1.7-3.4s1.7-1.7,2.7-2.2c1.1-0.5,2.3-0.8,3.6-0.8
		c1.4,0,2.7,0.3,3.8,0.8c1.1,0.5,2,1.2,2.7,2.2s1.3,2.1,1.7,3.4c0.4,1.3,0.6,2.7,0.6,4.3v0.3c0,1.6-0.2,3-0.6,4.3s-0.9,2.4-1.7,3.4
		s-1.6,1.7-2.7,2.2S349.2,151.7,347.8,151.7 M347.8,149.4c1.4,0,2.5-0.3,3.4-1s1.5-1.6,1.9-2.9c0.4-1.2,0.6-2.7,0.6-4.3v-0.3
		c0-1.6-0.2-3.1-0.6-4.3c-0.4-1.2-1-2.2-1.9-2.9c-0.9-0.7-2-1-3.4-1c-1.2,0-2.3,0.4-3.2,1.1s-1.5,1.7-2,2.9s-0.7,2.7-0.7,4.3v0.3
		c0,1.6,0.2,3.1,0.7,4.3s1.1,2.2,2,2.9C345.5,149,346.6,149.4,347.8,149.4"/>
	<path fill="#A0AEC0" d="M370.6,151.7c-2.1,0-3.9-0.5-5.2-1.4s-2.5-2.2-3.2-3.8s-1.1-3.4-1.1-5.4v-0.3c0-2.1,0.4-3.9,1.1-5.5
		c0.7-1.6,1.8-2.9,3.2-3.8c1.4-0.9,3-1.4,4.9-1.4c1.4,0,2.6,0.2,3.7,0.6s2,1,2.8,1.6v4.5h-2.2l-0.3-3.3c-0.3-0.2-0.7-0.4-1.1-0.6
		s-0.8-0.3-1.3-0.4c-0.5-0.1-1-0.1-1.6-0.1c-1.4,0-2.5,0.4-3.5,1.1c-1,0.7-1.7,1.7-2.1,2.9c-0.5,1.2-0.7,2.7-0.7,4.3v0.3
		c0,1.8,0.3,3.2,0.8,4.5s1.3,2.2,2.3,2.8s2.2,1,3.7,1c0.7,0,1.3-0.1,2-0.2s1.2-0.4,1.6-0.6l0.3-2.9h2.2v4.5
		c-0.8,0.5-1.7,0.9-2.8,1.1C372.9,151.6,371.8,151.8,370.6,151.7"/>
	<polyline fill="#A0AEC0" points="381.4,151.4 381.4,149.6 383.7,149.2 383.7,132.8 381.4,132.4 381.4,130.5 388.9,130.5 
		388.9,132.4 386.5,132.8 386.5,149.2 388.9,149.6 388.9,151.4 	"/>
	<path fill="#A0AEC0" d="M392.7,151.4v-1.8l1.5-0.2l7.3-18.9h2.4l7.2,18.9l1.5,0.2v1.8h-6v-1.8l1.6-0.3l-1.4-3.9h-8.4l-1.4,3.9
		l1.6,0.3v1.8 M399.4,143.1h6.6l-3.1-8.5l-0.2-0.5h-0.1l-0.2,0.5L399.4,143.1L399.4,143.1z"/>
	<polyline fill="#A0AEC0" points="418.3,151.4 418.3,149.6 420.6,149.2 420.6,132.7 415.9,132.7 415.5,135.6 413.3,135.6 
		413.3,130.5 430.7,130.5 430.7,135.6 428.6,135.6 428.2,132.7 423.5,132.7 423.5,149.2 425.8,149.6 425.8,151.4 	"/>
	<polyline fill="#A0AEC0" points="435,151.4 435,149.6 437.3,149.2 437.3,132.8 435,132.4 435,130.5 442.5,130.5 442.5,132.4 
		440.2,132.8 440.2,149.2 442.5,149.6 442.5,151.4 	"/>
	<path fill="#A0AEC0" d="M455,151.7c-1.4,0-2.6-0.3-3.6-0.8c-1.1-0.5-2-1.2-2.7-2.2c-0.8-0.9-1.3-2.1-1.7-3.4
		c-0.4-1.3-0.6-2.7-0.6-4.3v-0.3c0-1.6,0.2-3,0.6-4.3c0.4-1.3,1-2.4,1.7-3.4s1.7-1.7,2.7-2.2c1.1-0.5,2.3-0.8,3.6-0.8
		c1.4,0,2.7,0.3,3.8,0.8c1.1,0.5,2,1.2,2.7,2.2s1.3,2.1,1.7,3.4c0.4,1.3,0.6,2.7,0.6,4.3v0.3c0,1.6-0.2,3-0.6,4.3s-0.9,2.4-1.7,3.4
		s-1.6,1.7-2.7,2.2S456.5,151.7,455,151.7 M455,149.4c1.4,0,2.5-0.3,3.4-1s1.5-1.6,1.9-2.9c0.4-1.2,0.6-2.7,0.6-4.3v-0.3
		c0-1.6-0.2-3.1-0.6-4.3c-0.4-1.2-1-2.2-1.9-2.9c-0.9-0.7-2-1-3.4-1c-1.2,0-2.3,0.4-3.2,1.1s-1.5,1.7-2,2.9s-0.7,2.7-0.7,4.3v0.3
		c0,1.6,0.2,3.1,0.7,4.3s1.1,2.2,2,2.9C452.7,149,453.8,149.4,455,149.4"/>
	<polyline fill="#A0AEC0" points="467.6,151.4 467.6,149.6 470,149.2 470,132.8 467.6,132.4 467.6,130.5 470,130.5 472.8,130.5 
		483.1,146.8 483.2,146.8 483.2,132.8 480.6,132.4 480.6,130.5 485.8,130.5 488.1,130.5 488.1,132.4 485.8,132.8 485.8,151.4 
		483.2,151.4 472.6,135.1 472.6,135.1 472.6,149.2 475.1,149.6 475.1,151.4 	"/>
	<path fill="#A0AEC0" d="M510.1,151.7c-1.4,0-2.6-0.3-3.6-0.8c-1.1-0.5-2-1.2-2.7-2.2c-0.8-0.9-1.3-2.1-1.7-3.4
		c-0.4-1.3-0.6-2.7-0.6-4.3v-0.3c0-1.6,0.2-3,0.6-4.3c0.4-1.3,1-2.4,1.7-3.4s1.7-1.7,2.7-2.2c1.1-0.5,2.3-0.8,3.6-0.8
		c1.4,0,2.7,0.3,3.8,0.8s2,1.2,2.7,2.2s1.3,2.1,1.7,3.4c0.4,1.3,0.6,2.7,0.6,4.3v0.3c0,1.6-0.2,3-0.6,4.3s-0.9,2.4-1.7,3.4
		s-1.6,1.7-2.7,2.2C512.8,151.5,511.5,151.7,510.1,151.7 M510.1,149.4c1.4,0,2.5-0.3,3.4-1s1.5-1.6,1.9-2.9s0.6-2.7,0.6-4.3v-0.3
		c0-1.6-0.2-3.1-0.6-4.3s-1-2.2-1.9-2.9c-0.9-0.7-2-1-3.4-1c-1.2,0-2.3,0.4-3.2,1.1s-1.5,1.7-2,2.9s-0.7,2.7-0.7,4.3v0.3
		c0,1.6,0.2,3.1,0.7,4.3s1.1,2.2,2,2.9C507.8,149,508.9,149.4,510.1,149.4"/>
	<polyline fill="#A0AEC0" points="522.7,151.4 522.7,149.6 525,149.2 525,132.8 522.7,132.4 522.7,130.5 538.4,130.5 538.4,135.6 
		536.1,135.6 535.8,132.7 527.8,132.7 527.8,140 535.5,140 535.5,142.2 527.8,142.2 527.8,149.2 530.2,149.6 530.2,151.4 	"/>
	<path fill="#A0AEC0" d="M1.5,179.5v-1.8l1.5-0.2l7.3-18.9h2.4l7.2,18.9l1.5,0.2v1.8h-6v-1.8l1.6-0.3l-1.4-3.9H7.3l-1.4,3.9l1.6,0.3
		v1.8 M8.2,171.2h6.6l-3.1-8.5l-0.2-0.5h-0.1l-0.2,0.5L8.2,171.2L8.2,171.2z"/>
	<polyline fill="#A0AEC0" points="25.2,179.5 25.2,177.6 27.5,177.2 27.5,160.8 25.2,160.4 25.2,158.6 27.5,158.6 30.4,158.6 
		40.6,174.9 40.7,174.8 40.7,160.8 38.1,160.4 38.1,158.6 43.3,158.6 45.6,158.6 45.6,160.4 43.3,160.8 43.3,179.5 40.7,179.5 
		30.2,163.1 30.1,163.1 30.1,177.2 32.7,177.6 32.7,179.5 	"/>
	<polyline fill="#A0AEC0" points="49.5,179.5 49.5,177.6 51.8,177.2 51.8,160.8 49.5,160.4 49.5,158.6 57,158.6 57,160.4 
		54.6,160.8 54.6,177.2 57,177.6 57,179.5 	"/>
	<polyline fill="#A0AEC0" points="61,179.5 61,177.6 63.3,177.2 63.3,160.8 61,160.4 61,158.6 63.3,158.6 67.1,158.6 73.8,174.4 
		73.9,174.4 80.4,158.6 86.7,158.6 86.7,160.4 84.4,160.8 84.4,177.2 86.7,177.6 86.7,179.5 79.2,179.5 79.2,177.6 81.7,177.2 
		81.7,171.2 81.7,162.4 81.6,162.4 74.8,178.7 72.9,178.7 65.9,162.4 65.8,162.4 65.9,171.2 65.9,177.2 68.5,177.6 68.5,179.5 	"/>
	<path fill="#A0AEC0" d="M90.6,179.5v-1.8l1.6-0.2l7.3-18.9h2.4l7.2,18.9l1.5,0.2v1.8h-6v-1.8l1.6-0.3l-1.4-3.9h-8.4l-1.4,3.9
		l1.6,0.3v1.8 M97.3,171.2h6.6l-3.1-8.5l-0.2-0.5h-0.1l-0.2,0.5L97.3,171.2L97.3,171.2z"/>
	<polyline fill="#A0AEC0" points="114.2,179.5 114.2,177.6 116.6,177.2 116.6,160.8 114.2,160.4 114.2,158.6 116.6,158.6 
		119.4,158.6 121.7,158.6 121.7,160.4 119.4,160.8 119.4,177.3 126.8,177.3 127.1,174 129.3,174 129.3,179.5 	"/>
	<path fill="#A0AEC0" d="M141.8,179.5v-1.8l2.3-0.4v-16.5l-2.3-0.4v-1.8h9c2.2,0,3.9,0.5,5.1,1.4c1.2,0.9,1.9,2.4,1.9,4.2
		c0,0.9-0.3,1.8-0.9,2.5c-0.6,0.7-1.4,1.3-2.3,1.6c0.8,0.2,1.6,0.5,2.2,1c0.6,0.5,1.1,1.1,1.4,1.8c0.3,0.7,0.5,1.5,0.5,2.4
		c0,1.9-0.6,3.4-1.9,4.4s-2.9,1.5-5.1,1.5 M147,167.4h4.6c1,0,1.8-0.3,2.5-0.9c0.6-0.6,0.9-1.4,0.9-2.4c0-1.1-0.4-2-1.1-2.5
		c-0.7-0.6-1.7-0.8-3.1-0.8H147V167.4L147,167.4z M147,177.2h4.7c1.3,0,2.3-0.3,3-1c0.7-0.6,1.1-1.5,1.1-2.7c0-0.8-0.1-1.5-0.4-2.1
		s-0.7-1-1.2-1.4c-0.5-0.3-1.2-0.5-2.1-0.5H147V177.2L147,177.2z"/>
	<polyline fill="#A0AEC0" points="162.3,179.5 162.3,177.6 164.6,177.2 164.6,160.8 162.3,160.4 162.3,158.6 177.8,158.6 
		177.8,163.6 175.5,163.6 175.2,160.7 167.5,160.7 167.5,167.5 175.2,167.5 175.2,169.8 167.5,169.8 167.5,177.3 175.6,177.3 
		176,174.4 178.2,174.4 178.2,179.5 	"/>
	<polyline fill="#A0AEC0" points="182.5,179.5 182.5,177.6 184.9,177.2 184.9,160.8 182.5,160.4 182.5,158.6 190,158.6 190,160.4 
		187.7,160.8 187.7,168 197.7,168 197.7,160.8 195.4,160.4 195.4,158.6 197.7,158.6 200.5,158.6 202.9,158.6 202.9,160.4 
		200.5,160.8 200.5,177.2 202.9,177.6 202.9,179.5 195.4,179.5 195.4,177.6 197.7,177.2 197.7,170.2 187.7,170.2 187.7,177.2 
		190,177.6 190,179.5 	"/>
	<path fill="#A0AEC0" d="M206.5,179.5v-1.8l1.6-0.2l7.3-18.9h2.4l7.2,18.9l1.5,0.2v1.8h-6v-1.8l1.6-0.3l-1.4-3.9h-8.4l-1.4,3.9
		l1.6,0.3v1.8 M213.2,171.2h6.6l-3.1-8.5l-0.2-0.5h-0.1l-0.2,0.5L213.2,171.2L213.2,171.2z"/>
	<polyline fill="#A0AEC0" points="234.7,179.5 227.6,160.6 226,160.4 226,158.6 232.6,158.6 232.6,160.4 230.7,160.7 235.4,174 
		235.9,175.6 235.9,175.6 236.5,174 241.3,160.7 239.2,160.4 239.2,158.6 245.8,158.6 245.8,160.4 244.1,160.6 237.1,179.5 	"/>
	<polyline fill="#A0AEC0" points="249.4,179.5 249.4,177.6 251.7,177.2 251.7,160.8 249.4,160.4 249.4,158.6 256.9,158.6 
		256.9,160.4 254.5,160.8 254.5,177.2 256.9,177.6 256.9,179.5 	"/>
	<path fill="#A0AEC0" d="M269.2,179.8c-1.4,0-2.6-0.3-3.6-0.8c-1.1-0.5-2-1.2-2.7-2.2c-0.8-0.9-1.3-2.1-1.7-3.4
		c-0.4-1.3-0.6-2.7-0.6-4.3v-0.3c0-1.6,0.2-3,0.6-4.3c0.4-1.3,1-2.4,1.7-3.4s1.7-1.7,2.7-2.2c1.1-0.5,2.3-0.8,3.6-0.8
		c1.4,0,2.7,0.3,3.8,0.8c1.1,0.5,2,1.2,2.7,2.2s1.3,2.1,1.7,3.4c0.4,1.3,0.6,2.7,0.6,4.3v0.3c0,1.6-0.2,3-0.6,4.3s-0.9,2.4-1.7,3.4
		s-1.6,1.7-2.7,2.2S270.6,179.8,269.2,179.8 M269.2,177.4c1.4,0,2.5-0.3,3.4-1s1.5-1.6,1.9-2.9c0.4-1.2,0.6-2.7,0.6-4.3v-0.3
		c0-1.6-0.2-3.1-0.6-4.3c-0.4-1.2-1-2.2-1.9-2.9c-0.9-0.7-2-1-3.4-1c-1.2,0-2.3,0.4-3.2,1.1s-1.5,1.7-2,2.9s-0.7,2.7-0.7,4.3v0.3
		c0,1.6,0.2,3.1,0.7,4.3s1.1,2.2,2,2.9C266.9,177.1,267.9,177.4,269.2,177.4"/>
	<path fill="#A0AEC0" d="M281.5,179.5v-1.8l2.3-0.4v-16.5l-2.3-0.4v-1.8h9.3c1.5,0,2.8,0.2,3.9,0.7c1,0.5,1.9,1.1,2.4,2
		c0.5,0.9,0.8,1.9,0.8,3.2s-0.3,2.2-0.8,3.1c-0.5,0.8-1.3,1.5-2.3,1.9c-1,0.4-2.1,0.6-3.5,0.7l-4.7,0.1v7.1l2.3,0.4v1.8
		 M286.7,167.9h3.9c1.6,0,2.7-0.3,3.5-0.9c0.7-0.6,1.1-1.5,1.1-2.6s-0.4-2-1-2.6c-0.7-0.6-1.8-1-3.2-1h-4.1L286.7,167.9L286.7,167.9
		z M295.3,179.5l-4.6-10.4l2.8,0l3.9,8.4l1.5,0.3v1.9H295.3z"/>
	<path fill="#A0AEC0" d="M321.1,179.8c-2.1,0-3.9-0.5-5.2-1.4s-2.5-2.2-3.2-3.8s-1.1-3.4-1.1-5.4v-0.3c0-2.1,0.4-3.9,1.1-5.5
		c0.7-1.6,1.8-2.9,3.2-3.8c1.4-0.9,3-1.4,4.9-1.4c1.4,0,2.6,0.2,3.7,0.6s2,1,2.8,1.6v4.5h-2.2l-0.3-3.3c-0.3-0.2-0.7-0.4-1.1-0.6
		s-0.8-0.3-1.3-0.4c-0.5-0.1-1-0.1-1.6-0.1c-1.4,0-2.5,0.4-3.5,1.1c-1,0.7-1.7,1.7-2.2,2.9s-0.7,2.7-0.7,4.3v0.3
		c0,1.8,0.3,3.2,0.8,4.5s1.3,2.2,2.3,2.8s2.2,1,3.7,1c0.7,0,1.3-0.1,2-0.2c0.6-0.2,1.2-0.4,1.6-0.6l0.3-2.9h2.2v4.5
		c-0.8,0.5-1.7,0.9-2.8,1.1C323.4,179.6,322.3,179.8,321.1,179.8"/>
	<path fill="#A0AEC0" d="M340.2,179.8c-1.4,0-2.6-0.3-3.6-0.8c-1.1-0.5-2-1.2-2.7-2.2c-0.8-0.9-1.3-2.1-1.7-3.4
		c-0.4-1.3-0.6-2.7-0.6-4.3v-0.3c0-1.6,0.2-3,0.6-4.3c0.4-1.3,1-2.4,1.7-3.4s1.7-1.7,2.7-2.2c1.1-0.5,2.3-0.8,3.6-0.8
		c1.4,0,2.7,0.3,3.8,0.8c1.1,0.5,2,1.2,2.7,2.2s1.3,2.1,1.7,3.4c0.4,1.3,0.6,2.7,0.6,4.3v0.3c0,1.6-0.2,3-0.6,4.3s-0.9,2.4-1.7,3.4
		s-1.6,1.7-2.7,2.2S341.6,179.8,340.2,179.8 M340.2,177.4c1.4,0,2.5-0.3,3.4-1s1.5-1.6,1.9-2.9c0.4-1.2,0.6-2.7,0.6-4.3v-0.3
		c0-1.6-0.2-3.1-0.6-4.3c-0.4-1.2-1-2.2-1.9-2.9c-0.9-0.7-2-1-3.4-1c-1.2,0-2.3,0.4-3.2,1.1s-1.5,1.7-2,2.9s-0.7,2.7-0.7,4.3v0.3
		c0,1.6,0.2,3.1,0.7,4.3s1.1,2.2,2,2.9C337.9,177.1,339,177.4,340.2,177.4"/>
	<polyline fill="#A0AEC0" points="352.6,179.5 352.6,177.6 354.9,177.2 354.9,160.8 352.6,160.4 352.6,158.6 354.9,158.6 
		357.8,158.6 368,174.9 368.1,174.8 368.1,160.8 365.5,160.4 365.5,158.6 370.7,158.6 373.1,158.6 373.1,160.4 370.7,160.8 
		370.7,179.5 368.1,179.5 357.6,163.1 357.5,163.1 357.5,177.2 360.1,177.6 360.1,179.5 	"/>
	<path fill="#A0AEC0" d="M384.4,179.8c-1.3,0-2.5-0.2-3.7-0.6s-2.3-0.9-3.4-1.7V173h2.2l0.5,3.3c0.6,0.4,1.3,0.7,2,0.9
		s1.5,0.3,2.4,0.3c1,0,1.8-0.1,2.4-0.4c0.7-0.3,1.2-0.7,1.5-1.2c0.4-0.5,0.5-1.1,0.5-1.8c0-0.6-0.1-1.2-0.5-1.7
		c-0.3-0.5-0.8-0.9-1.5-1.3c-0.7-0.4-1.7-0.7-2.9-1c-1.4-0.3-2.6-0.8-3.6-1.3c-1-0.6-1.7-1.2-2.2-2c-0.5-0.8-0.8-1.7-0.8-2.8
		c0-1.1,0.3-2.1,0.9-2.9c0.6-0.9,1.4-1.5,2.4-2s2.2-0.8,3.6-0.8c1.5,0,2.8,0.2,3.9,0.7s2,1,2.8,1.6v4.2h-2.2l-0.5-3
		c-0.4-0.3-1-0.6-1.6-0.9c-0.6-0.2-1.4-0.4-2.4-0.4c-0.8,0-1.5,0.1-2.1,0.4c-0.6,0.3-1.1,0.7-1.4,1.2c-0.4,0.5-0.5,1.1-0.5,1.8
		c0,0.6,0.2,1.1,0.5,1.6s0.8,0.8,1.5,1.2c0.7,0.3,1.6,0.7,2.8,0.9c2.2,0.6,3.9,1.4,5,2.4c1.1,1.1,1.7,2.4,1.7,4c0,1.1-0.3,2.1-0.9,3
		c-0.6,0.9-1.5,1.5-2.5,2C387.2,179.5,385.9,179.8,384.4,179.8"/>
	<path fill="#A0AEC0" d="M405.4,179.8c-1.4,0-2.7-0.3-3.9-0.9s-2-1.4-2.7-2.4c-0.6-1.1-1-2.3-1-3.8v-11.9l-2.3-0.4v-1.8h7.5v1.8
		l-2.3,0.4v11.9c0,1,0.2,1.9,0.6,2.6s1,1.2,1.7,1.6s1.5,0.5,2.5,0.5s1.8-0.2,2.5-0.5s1.3-0.9,1.7-1.6c0.4-0.7,0.6-1.6,0.6-2.6v-11.9
		l-2.3-0.4v-1.8h7.5v1.8l-2.3,0.4v11.9c0,1.5-0.3,2.8-1,3.8c-0.6,1.1-1.5,1.8-2.7,2.4C408.3,179.5,406.9,179.8,405.4,179.8"/>
	<polyline fill="#A0AEC0" points="419,179.5 419,177.6 421.4,177.2 421.4,160.8 419,160.4 419,158.6 421.4,158.6 424.2,158.6 
		426.5,158.6 426.5,160.4 424.2,160.8 424.2,177.3 431.6,177.3 431.9,174 434.1,174 434.1,179.5 	"/>
	<polyline fill="#A0AEC0" points="439.1,179.5 439.1,177.6 441.4,177.2 441.4,160.7 436.7,160.7 436.2,163.6 434.1,163.6 
		434.1,158.6 451.5,158.6 451.5,163.6 449.4,163.6 449,160.7 444.2,160.7 444.2,177.2 446.6,177.6 446.6,179.5 	"/>
	<path fill="#A0AEC0" d="M452,179.5v-1.8l1.5-0.2l7.3-18.9h2.4l7.2,18.9l1.5,0.2v1.8h-6v-1.8l1.6-0.3l-1.4-3.9h-8.4l-1.4,3.9
		l1.6,0.3v1.8 M458.7,171.2h6.6l-3.1-8.5l-0.2-0.5H462l-0.2,0.5L458.7,171.2L458.7,171.2z"/>
	<polyline fill="#A0AEC0" points="475.6,179.5 475.6,177.6 478,177.2 478,160.8 475.6,160.4 475.6,158.6 478,158.6 480.9,158.6 
		491.1,174.9 491.2,174.8 491.2,160.8 488.6,160.4 488.6,158.6 493.8,158.6 496.1,158.6 496.1,160.4 493.8,160.8 493.8,179.5 
		491.2,179.5 480.7,163.1 480.6,163.1 480.6,177.2 483.2,177.6 483.2,179.5 	"/>
	<polyline fill="#A0AEC0" points="505.1,179.5 505.1,177.6 507.5,177.2 507.5,160.7 502.7,160.7 502.3,163.6 500.2,163.6 
		500.2,158.6 517.5,158.6 517.5,163.6 515.5,163.6 515,160.7 510.3,160.7 510.3,177.2 512.6,177.6 512.6,179.5 	"/>
	<path fill="#A0AEC0" d="M528.9,179.8c-1.3,0-2.5-0.2-3.7-0.6s-2.3-0.9-3.4-1.7V173h2.2l0.5,3.3c0.6,0.4,1.3,0.7,2,0.9
		c0.7,0.2,1.5,0.3,2.3,0.3c1,0,1.8-0.1,2.4-0.4c0.7-0.3,1.2-0.7,1.5-1.2c0.3-0.5,0.5-1.1,0.5-1.8c0-0.6-0.2-1.2-0.5-1.7
		c-0.3-0.5-0.8-0.9-1.5-1.3c-0.7-0.4-1.7-0.7-2.9-1c-1.4-0.3-2.7-0.8-3.6-1.3s-1.7-1.2-2.2-2c-0.5-0.8-0.8-1.7-0.8-2.8
		c0-1.1,0.3-2.1,0.9-2.9c0.6-0.9,1.4-1.5,2.4-2c1-0.5,2.2-0.8,3.6-0.8c1.5,0,2.8,0.2,3.9,0.7c1.1,0.4,2,1,2.8,1.6v4.2h-2.2l-0.5-3
		c-0.4-0.3-1-0.6-1.6-0.9s-1.4-0.4-2.4-0.4c-0.8,0-1.5,0.1-2.1,0.4c-0.6,0.3-1.1,0.7-1.4,1.2c-0.3,0.5-0.5,1.1-0.5,1.8
		c0,0.6,0.2,1.1,0.5,1.6s0.8,0.8,1.5,1.2c0.7,0.3,1.6,0.7,2.8,0.9c2.2,0.6,3.9,1.4,5,2.4c1.1,1.1,1.7,2.4,1.7,4c0,1.1-0.3,2.1-0.9,3
		c-0.6,0.9-1.5,1.5-2.5,2S530.4,179.8,528.9,179.8"/>
</g>
</svg>
